<svg width="152" height="153" viewBox="0 0 152 153" fill="none" xmlns="http://www.w3.org/2000/svg">
<g clip-path="url(#clip0_3653_1041)">
<rect x="56.7774" width="110" height="112" rx="5" transform="rotate(30.4603 56.7774 0)" fill="white"/>
<g clip-path="url(#clip1_3653_1041)">
<rect width="117" height="19" transform="translate(3.52743 76.7354) rotate(30.4603)" fill="#029789" fill-opacity="0.5"/>
<mask id="mask0_3653_1041" style="mask-type:alpha" maskUnits="userSpaceOnUse" x="20" y="96" width="18" height="14">
<path d="M23.2348 105.53L24.8425 102.796C24.8902 102.715 24.8668 102.613 24.7903 102.568L22.8396 101.421C22.7631 101.376 22.6624 101.405 22.6148 101.486L21.007 104.22C20.9594 104.301 20.9828 104.403 21.0593 104.448L23.01 105.595C23.0865 105.64 23.1872 105.611 23.2348 105.53Z" fill="#5BCEA6"/>
<path d="M32.8698 100.733L30.3558 100.799C29.6221 100.819 28.9064 100.636 28.2833 100.269L24.7001 98.1618C24.6874 98.1543 24.6764 98.1442 24.6678 98.1321C24.6591 98.1199 24.653 98.106 24.6498 98.0911C24.6467 98.0763 24.6465 98.0607 24.6492 98.0454C24.652 98.0302 24.6577 98.0155 24.666 98.0022C25.0484 97.4099 25.6313 96.981 26.2931 96.8048C26.955 96.6286 27.6447 96.7187 28.2187 97.0564L31.8794 99.2093C32.3954 99.5116 32.7837 99.9948 32.9776 100.576C32.9833 100.593 32.9848 100.611 32.982 100.63C32.9792 100.648 32.9723 100.665 32.9617 100.681C32.9511 100.696 32.9373 100.709 32.9213 100.718C32.9053 100.727 32.8877 100.732 32.8698 100.733Z" fill="#5BCEA6"/>
<path d="M27.5636 108.105L25.975 103.452C25.9691 103.435 25.9686 103.416 25.9737 103.398C25.9788 103.38 25.9892 103.363 26.0034 103.351C26.0177 103.339 26.035 103.331 26.0531 103.33C26.0712 103.328 26.0892 103.332 26.1044 103.341L28.5729 104.793C28.694 104.864 28.7854 104.978 28.8316 105.114L30.4209 109.766C30.4268 109.784 30.4273 109.803 30.4222 109.821C30.4171 109.839 30.4067 109.855 30.3925 109.867C30.3782 109.88 30.3609 109.887 30.3428 109.889C30.3246 109.891 30.3067 109.887 30.2915 109.878L27.823 108.426C27.7017 108.355 27.6101 108.241 27.5636 108.105Z" fill="#5BCEA6"/>
<path d="M37.4957 105.394L34.6541 105.461C34.5851 105.462 34.5178 105.445 34.4591 105.411C34.4003 105.377 34.3521 105.327 34.3194 105.266C34.2867 105.205 34.2707 105.136 34.2729 105.065C34.2751 104.994 34.2954 104.924 34.3319 104.862L34.5625 104.47L33.8078 104.026C33.4773 103.832 33.0986 103.733 32.7095 103.74L32.4113 103.745L29.2085 103.799C28.7861 103.806 28.375 103.699 28.0163 103.488L23.2992 100.714C23.2537 100.687 23.2213 100.642 23.2091 100.589C23.197 100.536 23.2061 100.479 23.2344 100.431L24.0381 99.0647C24.0664 99.0165 24.1117 98.9809 24.1639 98.9658C24.2161 98.9507 24.271 98.9572 24.3165 98.9839L28.5967 101.501C28.9553 101.712 29.3664 101.82 29.7888 101.813L32.7968 101.761L33.2885 101.752C33.6775 101.746 34.0563 101.845 34.3867 102.039L35.5796 102.74L35.8506 102.28C35.8871 102.218 35.9384 102.166 35.9993 102.129C36.0602 102.093 36.1287 102.073 36.1976 102.072C36.2666 102.071 36.3337 102.089 36.3921 102.124C36.4505 102.159 36.4982 102.209 36.5303 102.27L37.8534 104.786C37.8852 104.847 37.9007 104.915 37.8982 104.986C37.8958 105.056 37.8754 105.125 37.8393 105.187C37.8031 105.248 37.7523 105.3 37.6921 105.336C37.6318 105.373 37.5641 105.393 37.4957 105.394Z" fill="#5BCEA6"/>
</mask>
<g mask="url(#mask0_3653_1041)">
<rect x="24.4669" y="93.0029" width="19.0134" height="15.6174" transform="rotate(30.4603 24.4669 93.0029)" fill="url(#paint0_linear_3653_1041)"/>
</g>
<path d="M37.1785 111.678L40.7271 105.644L42.8907 106.917C43.3677 107.197 43.7123 107.512 43.9246 107.861C44.146 108.208 44.2503 108.563 44.2375 108.927C44.2338 109.288 44.1306 109.641 43.9278 109.986C43.7386 110.308 43.4881 110.563 43.1765 110.751C42.8649 110.939 42.502 111.023 42.0879 111.004C41.6739 110.985 41.2197 110.83 40.7255 110.539L39.6222 109.89L38.2129 112.287L37.1785 111.678ZM40.3248 113.529L40.6241 110.12L41.7447 110.779L41.5057 114.223L40.3248 113.529ZM40.0734 109.123L41.1336 109.747C41.5186 109.973 41.8543 110.047 42.1406 109.968C42.436 109.886 42.6733 109.693 42.8524 109.389C43.0281 109.09 43.0793 108.799 43.0059 108.516C42.9359 108.227 42.7056 107.968 42.3148 107.738L41.2546 107.115L40.0734 109.123ZM44.0404 115.853C43.6899 115.647 43.4287 115.401 43.257 115.114C43.0944 114.825 43.0298 114.501 43.0632 114.141C43.1 113.776 43.2418 113.384 43.4885 112.965L44.984 110.422L46.0184 111.03L44.5837 113.47C44.364 113.843 44.2743 114.173 44.3146 114.46C44.364 114.744 44.5495 114.981 44.8714 115.17C45.0782 115.292 45.2908 115.351 45.5092 115.348C45.7333 115.348 45.9454 115.284 46.1455 115.154C46.3547 115.022 46.5387 114.82 46.6976 114.55L48.0613 112.232L49.0956 112.84L46.5406 117.184L45.6269 116.647L45.9752 115.877C45.6943 116.052 45.3835 116.14 45.0428 116.141C44.7078 116.145 44.3737 116.049 44.0404 115.853ZM46.5763 119.757L50.2465 113.517L51.1688 114.059L50.9108 114.754C51.0771 114.682 51.2556 114.628 51.4462 114.594C51.646 114.556 51.8581 114.557 52.0825 114.597C52.3127 114.639 52.5485 114.731 52.7898 114.873C53.1979 115.113 53.4979 115.425 53.6899 115.809C53.8877 116.196 53.9742 116.614 53.9496 117.064C53.9283 117.507 53.7893 117.948 53.5324 118.384C53.2756 118.821 52.9538 119.158 52.5672 119.394C52.1896 119.629 51.7854 119.751 51.3544 119.76C50.9292 119.773 50.5155 119.661 50.1132 119.425C49.7856 119.232 49.5338 119.003 49.3577 118.737C49.1907 118.468 49.1001 118.175 49.0858 117.857L47.6106 120.366L46.5763 119.757ZM50.4249 118.401C50.6663 118.543 50.9156 118.613 51.1728 118.609C51.43 118.606 51.6712 118.531 51.8963 118.385C52.1271 118.242 52.322 118.036 52.4808 117.766C52.6431 117.49 52.7304 117.217 52.7429 116.945C52.7611 116.678 52.7092 116.431 52.5872 116.204C52.4651 115.978 52.2834 115.794 52.0421 115.652C51.795 115.506 51.5428 115.435 51.2856 115.439C51.0341 115.446 50.7929 115.52 50.5621 115.663C50.337 115.809 50.145 116.017 49.9862 116.287C49.8239 116.563 49.7337 116.835 49.7155 117.102C49.7064 117.368 49.7583 117.615 49.8712 117.844C49.9932 118.07 50.1778 118.256 50.4249 118.401ZM55.2375 122.438C54.8065 122.185 54.4814 121.87 54.2619 121.493C54.0459 121.111 53.9457 120.696 53.9612 120.249C53.9767 119.802 54.1145 119.357 54.3748 118.915C54.6451 118.455 54.9708 118.105 55.3517 117.865C55.7384 117.628 56.1529 117.509 56.5954 117.506C57.0436 117.506 57.4861 117.635 57.9228 117.892C58.3481 118.142 58.6629 118.455 58.8675 118.83C59.072 119.206 59.1658 119.605 59.149 120.029C59.1355 120.446 59.0122 120.853 58.779 121.249C58.7452 121.307 58.708 121.37 58.6674 121.439C58.6269 121.508 58.5789 121.577 58.5235 121.644L54.9893 119.566L55.3797 118.902L57.8881 120.377C58.0624 120.055 58.1014 119.745 58.0051 119.449C57.9121 119.146 57.7162 118.907 57.4174 118.732C57.2048 118.607 56.9807 118.541 56.7451 118.534C56.5095 118.526 56.2825 118.59 56.0641 118.725C55.8492 118.854 55.6555 119.064 55.4832 119.358L55.3361 119.608C55.1773 119.878 55.0893 120.139 55.0721 120.392C55.0606 120.648 55.1106 120.879 55.2222 121.083C55.3429 121.286 55.5124 121.451 55.7308 121.58C55.9721 121.722 56.2008 121.787 56.4168 121.774C56.6385 121.766 56.8375 121.697 57.0136 121.569L58.0652 122.187C57.8259 122.41 57.5501 122.576 57.2378 122.686C56.9288 122.791 56.6021 122.827 56.2577 122.795C55.9166 122.756 55.5766 122.638 55.2375 122.438ZM60.3387 125.438C59.9077 125.185 59.5825 124.87 59.3631 124.493C59.1471 124.111 59.0468 123.696 59.0623 123.249C59.0778 122.802 59.2157 122.357 59.4759 121.915C59.7463 121.455 60.072 121.105 60.4529 120.865C60.8395 120.628 61.2541 120.509 61.6966 120.506C62.1448 120.507 62.5872 120.635 63.024 120.892C63.4492 121.142 63.7641 121.455 63.9686 121.831C64.1732 122.206 64.267 122.605 64.2502 123.029C64.2367 123.446 64.1133 123.853 63.8801 124.25C63.8463 124.307 63.8092 124.37 63.7686 124.439C63.7281 124.508 63.6801 124.577 63.6246 124.645L60.0905 122.566L60.4809 121.902L62.9892 123.378C63.1636 123.055 63.2026 122.745 63.1063 122.449C63.0133 122.146 62.8174 121.908 62.5186 121.732C62.3059 121.607 62.0818 121.541 61.8462 121.534C61.6106 121.527 61.3837 121.59 61.1653 121.725C60.9504 121.854 60.7567 122.065 60.5843 122.358L60.4373 122.608C60.2785 122.878 60.1905 123.139 60.1732 123.392C60.1618 123.648 60.2118 123.879 60.3234 124.084C60.4441 124.286 60.6136 124.451 60.832 124.58C61.0733 124.722 61.302 124.787 61.518 124.775C61.7397 124.766 61.9386 124.697 62.1147 124.569L63.1663 125.187C62.927 125.41 62.6512 125.576 62.3389 125.687C62.03 125.791 61.7033 125.827 61.3589 125.795C61.0178 125.756 60.6778 125.638 60.3387 125.438ZM63.5009 127.159L67.0495 121.125L70.9026 123.391L70.4108 124.227L67.5922 122.569L66.5529 124.336L68.8544 125.69L68.3728 126.509L66.0713 125.155L64.5353 127.767L63.5009 127.159ZM68.2057 129.926L71.8556 123.719L72.89 124.328L69.24 130.534L68.2057 129.926ZM72.3591 132.508C71.9453 132.264 71.6276 131.95 71.4058 131.564C71.1932 131.176 71.0917 130.757 71.1015 130.306C71.1204 129.853 71.2599 129.406 71.5202 128.963C71.7872 128.509 72.1152 128.168 72.5042 127.941C72.8966 127.708 73.3124 127.592 73.7514 127.596C74.1996 127.596 74.6306 127.718 75.0444 127.961C75.4581 128.205 75.7713 128.52 75.984 128.908C76.2057 129.294 76.3089 129.711 76.2934 130.158C76.2836 130.608 76.1452 131.061 75.8782 131.515C75.6112 131.969 75.2832 132.309 74.8942 132.537C74.5052 132.764 74.0865 132.878 73.6383 132.877C73.1993 132.874 72.7728 132.751 72.3591 132.508ZM72.8812 131.62C73.0881 131.741 73.3053 131.8 73.5328 131.794C73.766 131.792 73.9952 131.718 74.2203 131.572C74.4454 131.426 74.6475 131.201 74.8266 130.896C75.0057 130.592 75.1027 130.308 75.1176 130.046C75.1415 129.782 75.0977 129.547 74.9862 129.343C74.8804 129.141 74.724 128.98 74.5171 128.858C74.316 128.74 74.0988 128.682 73.8656 128.684C73.6324 128.686 73.4032 128.76 73.1781 128.906C72.9564 129.046 72.756 129.268 72.5768 129.573C72.3977 129.878 72.2991 130.164 72.2808 130.431C72.2626 130.699 72.3064 130.934 72.4122 131.135C72.5238 131.34 72.6801 131.502 72.8812 131.62ZM76.3238 134.7L77.603 129.605L78.6288 130.209L77.4179 134.299L77.2333 134.179L80.3183 131.202L81.4733 131.882L80.3795 136.03L80.1899 135.918L83.1714 132.88L84.1972 133.484L80.3664 137.078L79.2976 136.449L80.402 132.145L80.6175 132.272L77.3926 135.329L76.3238 134.7Z" fill="#235065"/>
</g>
<path d="M61.7559 64.5215L93.6492 83.2783L85.6378 96.9006C84.8171 98.2961 83.4566 99.2972 81.8557 99.6838C80.2548 100.07 78.5445 99.8106 77.1012 98.9617L56.0922 86.6061C54.6488 85.7572 53.5906 84.3888 53.1503 82.8018C52.7101 81.2148 52.9238 79.5393 53.7445 78.1438L61.7559 64.5215Z" fill="#30F3BC"/>
<path d="M63.0697 77.009L71.1502 77.6208L70.1573 79.309L64.4097 78.7795L67.6264 83.6124L66.6283 85.3096L62.2006 78.4868L63.0697 77.009Z" fill="white"/>
<path d="M66.8267 86.1931L76.4567 78.4889L78.087 79.4477L68.4663 87.1574L66.8267 86.1931Z" fill="white"/>
<path d="M81.2064 89.7433L73.112 89.1234L74.1127 87.4217L79.8604 87.9513L76.641 83.1228L77.6339 81.4346L82.0939 88.2342L81.2064 89.7433Z" fill="white"/>
<path d="M70.8858 59.3421L93.7381 72.7819C94.937 73.487 95.816 74.6237 96.1817 75.9419C96.5474 77.2601 96.3699 78.6519 95.6882 79.811L94.3082 82.1575L62.4149 63.4007L63.7949 61.0542C64.4766 59.895 65.6067 59.0635 66.9365 58.7424C68.2663 58.4213 69.6869 58.637 70.8858 59.3421Z" fill="#235065"/>
<path d="M67.8488 64.0176C68.5599 64.4358 69.4642 64.2174 69.8685 63.5299C70.2729 62.8424 70.0242 61.946 69.3131 61.5278C68.602 61.1095 67.6977 61.3279 67.2933 62.0154C66.889 62.703 67.1377 63.5993 67.8488 64.0176Z" fill="#30F3BC"/>
<path d="M71.671 66.2646C72.3822 66.6828 73.2864 66.4645 73.6908 65.777C74.0951 65.0894 73.8464 64.193 73.1353 63.7748C72.4242 63.3566 71.52 63.5749 71.1156 64.2625C70.7113 64.95 70.9599 65.8464 71.671 66.2646Z" fill="#029789"/>
<path d="M75.4962 68.5146C76.2074 68.9328 77.1116 68.7145 77.516 68.027C77.9203 67.3394 77.6716 66.443 76.9605 66.0248C76.2494 65.6066 75.3452 65.8249 74.9408 66.5125C74.5364 67.2 74.7851 68.0964 75.4962 68.5146Z" fill="white"/>
<path d="M57.116 32.6875L61.4144 25.4706L64.0124 27.018C64.5898 27.3618 65.0081 27.746 65.2675 28.1705C65.5309 28.5881 65.6571 29.0171 65.6462 29.4576C65.6353 29.898 65.5029 30.3313 65.2491 30.7574C65.0117 31.1561 64.7033 31.4706 64.324 31.701C63.9488 31.9244 63.5108 32.0267 63.01 32.0077C62.5132 31.9819 61.9693 31.793 61.3782 31.4409L60.0173 30.6304L58.3532 33.4244L57.116 32.6875ZM60.619 29.62L61.9078 30.3876C62.3958 30.6782 62.8098 30.7805 63.1497 30.6943C63.4938 30.6013 63.7743 30.3726 63.9913 30.0083C64.2164 29.6303 64.2859 29.2713 64.1998 28.9313C64.1136 28.5913 63.8265 28.276 63.3385 27.9854L62.0498 27.2178L60.619 29.62ZM65.3743 37.7737C64.8794 37.4789 64.5002 37.0994 64.2366 36.6352C63.984 36.1681 63.8651 35.6643 63.8798 35.1237C63.9055 34.5803 64.0759 34.044 64.3911 33.5147C64.7145 32.9718 65.1104 32.565 65.5787 32.2946C66.0512 32.0173 66.5508 31.8819 67.0777 31.8884C67.6155 31.8922 68.1319 32.0414 68.6268 32.3362C69.1216 32.6309 69.4954 33.0118 69.748 33.4788C70.0115 33.9431 70.1325 34.4435 70.1109 34.98C70.0962 35.5206 69.9272 36.0624 69.6038 36.6054C69.2804 37.1484 68.8845 37.5551 68.4161 37.8255C67.9478 38.0959 67.4447 38.2293 66.9069 38.2256C66.38 38.219 65.8691 38.0684 65.3743 37.7737ZM66.0067 36.7117C66.2542 36.8591 66.5144 36.9303 66.7874 36.9253C67.0673 36.9244 67.3428 36.8371 67.6139 36.6633C67.885 36.4895 68.129 36.2205 68.346 35.8562C68.5629 35.492 68.6812 35.1527 68.7007 34.8384C68.7313 34.5214 68.6803 34.2396 68.5478 33.9931C68.4221 33.7507 68.2356 33.5558 67.9881 33.4084C67.7476 33.2651 67.4874 33.1939 67.2075 33.1948C66.9276 33.1958 66.6521 33.2831 66.381 33.4568C66.114 33.6237 65.872 33.8893 65.6551 34.2536C65.4381 34.6179 65.3178 34.9606 65.2941 35.2817C65.2705 35.6028 65.3215 35.8846 65.4471 36.127C65.5796 36.3736 65.7662 36.5685 66.0067 36.7117ZM70.1172 40.4309L71.6862 34.3259L72.913 35.0566L71.4328 39.9574L71.2121 39.812L74.9338 36.2602L76.3153 37.083L74.9752 42.0533L74.7484 41.9182L78.3464 38.2927L79.5732 39.0234L74.9526 43.3108L73.6741 42.5494L75.028 37.3918L75.2858 37.5453L71.3956 41.1923L70.1172 40.4309ZM79.5406 46.211C79.0251 45.904 78.6369 45.5238 78.3762 45.0705C78.1195 44.6104 78.0019 44.112 78.0235 43.5755C78.0451 43.039 78.2135 42.5061 78.5287 41.9769C78.8562 41.427 79.2493 41.0093 79.708 40.7238C80.1735 40.4424 80.6718 40.3015 81.2028 40.3012C81.7406 40.3049 82.2707 40.4624 82.7931 40.7735C83.3017 41.0764 83.6775 41.4539 83.9204 41.9058C84.1633 42.3578 84.2733 42.8376 84.2502 43.3454C84.2313 43.8462 84.0806 44.3337 83.7981 44.808C83.7572 44.8767 83.7122 44.9523 83.663 45.0348C83.6139 45.1173 83.5559 45.1991 83.4889 45.2803L79.2618 42.7627L79.7346 41.9688L82.7348 43.7557C82.9462 43.3695 82.9951 42.9982 82.8814 42.6419C82.7719 42.2786 82.5384 41.9906 82.181 41.7777C81.9267 41.6262 81.6582 41.5455 81.3755 41.5354C81.0929 41.5254 80.8201 41.6003 80.5572 41.7604C80.2984 41.9135 80.0646 42.1653 79.8558 42.5159L79.6777 42.8148C79.4853 43.1379 79.3779 43.4511 79.3556 43.7543C79.3401 44.0617 79.3987 44.3387 79.5312 44.5852C79.6747 44.8289 79.877 45.0286 80.1382 45.1842C80.4268 45.3561 80.7008 45.4355 80.9601 45.4223C81.2262 45.4132 81.4654 45.3321 81.6775 45.1792L82.9353 45.9283C82.6467 46.194 82.3146 46.392 81.9391 46.5222C81.5677 46.6455 81.1755 46.6866 80.7624 46.6454C80.3534 46.5973 79.9461 46.4525 79.5406 46.211ZM83.2825 48.272L86.3773 43.0758L87.4805 43.7329L87.0167 44.7695C87.2755 44.6164 87.5447 44.5161 87.8245 44.4685C88.1083 44.4141 88.4005 44.4159 88.7012 44.4739C89.0087 44.536 89.3137 44.6571 89.6161 44.8372L88.8363 46.1466L88.4033 45.8887C88.1971 45.7659 87.9848 45.6767 87.7665 45.6212C87.5522 45.5588 87.3416 45.545 87.1345 45.58C86.9385 45.6122 86.7432 45.7054 86.5489 45.8597C86.3587 46.0072 86.1756 46.2286 85.9995 46.5242L84.5197 49.0089L83.2825 48.272ZM87.638 50.8661L91.0706 45.1029C91.308 44.7043 91.5636 44.4235 91.8375 44.2607C92.1224 44.0952 92.4247 44.0331 92.7445 44.0746C93.0643 44.1161 93.3995 44.2413 93.75 44.45L94.3686 44.8185L93.7423 45.8701L93.3093 45.6122C93.0824 45.4771 92.8888 45.427 92.7284 45.4618C92.579 45.4938 92.4367 45.6233 92.3016 45.8501L88.8752 51.603L87.638 50.8661ZM89.3703 46.2691L89.9905 45.2278L93.1454 47.1068L92.5252 48.1481L89.3703 46.2691ZM92.9699 54.2094C92.5506 53.9596 92.2389 53.6622 92.0347 53.3172C91.8415 52.9693 91.7661 52.5799 91.8087 52.149C91.8553 51.7111 92.028 51.2414 92.3268 50.7396L94.1383 47.6982L95.3754 48.435L93.6377 51.3527C93.3716 51.7995 93.2617 52.195 93.3081 52.5392C93.3655 52.8807 93.5866 53.166 93.9715 53.3952C94.219 53.5426 94.4737 53.6152 94.7358 53.613C95.0047 53.6148 95.2596 53.5386 95.5006 53.3841C95.7525 53.2269 95.9747 52.9867 96.1671 52.6637L97.8189 49.8903L99.0561 50.6272L95.9613 55.8234L94.8684 55.1725L95.2914 54.2512C94.9532 54.4595 94.5797 54.5629 94.1708 54.5615C93.7688 54.5642 93.3685 54.4468 92.9699 54.2094ZM97.3378 56.6432L101.759 49.2201L102.996 49.957L98.575 57.3801L97.3378 56.6432ZM102.04 59.4436L108.977 53.7986L110.359 54.6214L108.7 63.4103L107.39 62.6305L108.798 55.6473L103.328 60.2112L102.04 59.4436ZM104.228 58.4425L105.141 57.6595L108.698 59.778L108.445 60.9539L104.228 58.4425ZM109.693 64.0016L113.991 56.7847L116.589 58.3321C117.166 58.6759 117.585 59.0601 117.844 59.4846C118.107 59.9022 118.234 60.3312 118.223 60.7717C118.212 61.2121 118.079 61.6454 117.826 62.0715C117.588 62.4702 117.28 62.7847 116.901 63.0151C116.525 63.2385 116.087 63.3408 115.586 63.3218C115.09 63.296 114.546 63.1071 113.955 62.755L112.594 61.9445L110.93 64.7385L109.693 64.0016ZM113.196 60.9341L114.484 61.7017C114.972 61.9923 115.386 62.0946 115.726 62.0084C116.07 61.9154 116.351 61.6867 116.568 61.3224C116.793 60.9444 116.862 60.5854 116.776 60.2454C116.69 59.9054 116.403 59.5901 115.915 59.2995L114.626 58.5319L113.196 60.9341ZM115.915 67.7075L120.213 60.4906L121.45 61.2274L117.152 68.4444L115.915 67.7075ZM120.56 70.642C120.1 70.3677 119.741 70.056 119.483 69.707C119.236 69.3552 119.091 68.9894 119.047 68.6095C119.014 68.2268 119.083 67.8534 119.254 67.4893L120.491 68.2261C120.439 68.3909 120.421 68.5618 120.437 68.7387C120.457 68.9088 120.522 69.0732 120.632 69.232C120.749 69.3949 120.914 69.5398 121.127 69.6667C121.333 69.7895 121.518 69.8623 121.682 69.8851C121.849 69.901 121.992 69.8793 122.111 69.8199C122.231 69.7605 122.323 69.6759 122.388 69.5659C122.487 69.4009 122.518 69.2472 122.482 69.1046C122.445 68.962 122.356 68.8155 122.213 68.665C122.08 68.5118 121.912 68.3415 121.707 68.1543C121.488 67.9588 121.282 67.7571 121.089 67.5491C120.908 67.3385 120.757 67.1229 120.637 66.9024C120.523 66.6859 120.463 66.4591 120.455 66.2217C120.455 65.9885 120.528 65.7482 120.675 65.5007C120.855 65.1983 121.096 64.9739 121.398 64.8275C121.706 64.6852 122.052 64.6353 122.436 64.678C122.832 64.7179 123.242 64.8647 123.668 65.1185C124.273 65.4788 124.671 65.9062 124.86 66.4009C125.061 66.8928 125.042 67.408 124.805 67.9466L123.63 67.2466C123.71 67.0337 123.702 66.8286 123.605 66.6313C123.513 66.4272 123.336 66.2474 123.075 66.0918C122.807 65.9322 122.57 65.8609 122.364 65.878C122.169 65.8924 122.023 65.982 121.925 66.147C121.863 66.2501 121.847 66.3709 121.876 66.5094C121.917 66.6451 122.001 66.793 122.129 66.9531C122.261 67.1063 122.431 67.2821 122.639 67.4803C122.979 67.7852 123.266 68.0772 123.5 68.3563C123.734 68.6354 123.878 68.9258 123.931 69.2275C123.984 69.5291 123.902 69.8621 123.685 70.2264C123.495 70.5604 123.236 70.8014 122.905 70.9492C122.582 71.1012 122.219 71.1552 121.817 71.1112C121.419 71.0604 121 70.904 120.56 70.642Z" fill="black"/>
</g>
<rect x="56.955" y="0.684461" width="109" height="111" rx="4.5" transform="rotate(30.4603 56.955 0.684461)" stroke="#929292"/>
<defs>
<linearGradient id="paint0_linear_3653_1041" x1="21.4199" y1="100.861" x2="45.344" y2="100.145" gradientUnits="userSpaceOnUse">
<stop stop-color="#054C38"/>
<stop offset="1" stop-color="#2AB871"/>
</linearGradient>
<clipPath id="clip0_3653_1041">
<rect x="56.7774" width="110" height="112" rx="5" transform="rotate(30.4603 56.7774 0)" fill="white"/>
</clipPath>
<clipPath id="clip1_3653_1041">
<rect width="117" height="19" fill="white" transform="translate(3.52743 76.7354) rotate(30.4603)"/>
</clipPath>
</defs>
</svg>
