<svg width="110" height="112" viewBox="0 0 110 112" fill="none" xmlns="http://www.w3.org/2000/svg">
<g clip-path="url(#clip0_3653_988)">
<rect width="110" height="112" rx="5" fill="white"/>
<rect width="117" height="19" transform="translate(-7 93.1387)" fill="#029789" fill-opacity="0.5"/>
<mask id="mask0_3653_988" style="mask-type:alpha" maskUnits="userSpaceOnUse" x="22" y="98" width="15" height="11">
<path d="M24.585 107.969V104.797C24.585 104.703 24.513 104.627 24.4242 104.627H22.1612C22.0724 104.627 22.0005 104.703 22.0005 104.797V107.969C22.0005 108.063 22.0724 108.139 22.1612 108.139H24.4242C24.513 108.139 24.585 108.063 24.585 107.969Z" fill="#5BCEA6"/>
<path d="M30.4576 98.9496L28.3244 100.281C27.7017 100.67 26.9921 100.875 26.2692 100.875H22.1123C22.0975 100.875 22.0829 100.872 22.0693 100.866C22.0557 100.86 22.0434 100.851 22.0331 100.84C22.0228 100.829 22.0148 100.815 22.0094 100.801C22.0041 100.786 22.0016 100.771 22.002 100.755C22.0313 100.051 22.3163 99.3853 22.7975 98.8979C23.2786 98.4105 23.9189 98.1385 24.5848 98.1387H28.8317C29.4297 98.1377 30.0094 98.3573 30.4711 98.7598C30.4846 98.7717 30.4953 98.7869 30.5021 98.804C30.509 98.8212 30.5119 98.8398 30.5106 98.8584C30.5093 98.8769 30.5038 98.8949 30.4945 98.9108C30.4853 98.9266 30.4727 98.9399 30.4576 98.9496Z" fill="#5BCEA6"/>
<path d="M29.6212 107.994L25.8932 104.788C25.8793 104.777 25.8693 104.76 25.8645 104.742C25.8597 104.724 25.8604 104.705 25.8664 104.687C25.8725 104.669 25.8837 104.654 25.8983 104.643C25.913 104.632 25.9305 104.627 25.9484 104.627H28.8121C28.9528 104.627 29.0891 104.679 29.1981 104.773L32.9263 107.977C32.9402 107.989 32.9503 108.005 32.9551 108.024C32.9599 108.042 32.9592 108.061 32.9531 108.079C32.9471 108.097 32.9359 108.112 32.9212 108.123C32.9065 108.133 32.889 108.139 32.8712 108.139H30.0075C29.8668 108.139 29.7304 108.088 29.6212 107.994Z" fill="#5BCEA6"/>
<path d="M36.8089 100.623L34.3931 102.12C34.3345 102.157 34.2678 102.176 34.1998 102.176C34.1319 102.177 34.065 102.158 34.006 102.122C33.9471 102.087 33.8981 102.035 33.864 101.973C33.8299 101.91 33.812 101.84 33.812 101.768V101.313H32.9364C32.5531 101.313 32.1765 101.42 31.8445 101.623L31.59 101.778L28.8569 103.449C28.4965 103.669 28.0877 103.785 27.6715 103.785H22.199C22.1463 103.785 22.0956 103.763 22.0583 103.723C22.021 103.684 22 103.63 22 103.574V101.989C22 101.933 22.021 101.879 22.0583 101.84C22.0956 101.8 22.1463 101.778 22.199 101.778H27.1646C27.5807 101.778 27.9896 101.663 28.35 101.442L30.9165 99.8727L31.3361 99.6161C31.6681 99.4132 32.0447 99.3064 32.4281 99.3065H33.812V98.772C33.812 98.7 33.8299 98.6293 33.864 98.5671C33.8981 98.5048 33.9471 98.4532 34.006 98.4174C34.065 98.3816 34.1319 98.3629 34.1998 98.3633C34.2678 98.3636 34.3345 98.383 34.3931 98.4194L36.8089 99.9171C36.8671 99.9531 36.9153 100.005 36.9488 100.067C36.9824 100.128 37 100.198 37 100.27C37 100.341 36.9824 100.411 36.9488 100.473C36.9153 100.535 36.8671 100.587 36.8089 100.623Z" fill="#5BCEA6"/>
</mask>
<g mask="url(#mask0_3653_988)">
<rect x="19.2959" y="96.5469" width="19.0134" height="15.6174" fill="url(#paint0_linear_3653_988)"/>
</g>
<path d="M39.7207 106.199V99.1992H42.2307C42.7841 99.1992 43.2407 99.2959 43.6007 99.4892C43.9674 99.6759 44.2374 99.9292 44.4107 100.249C44.5907 100.563 44.6807 100.919 44.6807 101.319C44.6807 101.693 44.5941 102.039 44.4207 102.359C44.2474 102.679 43.9774 102.936 43.6107 103.129C43.2441 103.323 42.7741 103.419 42.2007 103.419H40.9207V106.199H39.7207ZM43.3707 106.199L41.9007 103.109H43.2007L44.7407 106.199H43.3707ZM40.9207 102.529H42.1507C42.5974 102.529 42.9241 102.423 43.1307 102.209C43.3441 101.989 43.4507 101.703 43.4507 101.349C43.4507 101.003 43.3474 100.726 43.1407 100.519C42.9341 100.306 42.6041 100.199 42.1507 100.199H40.9207V102.529ZM47.7519 106.319C47.3452 106.319 46.9952 106.239 46.7019 106.079C46.4152 105.913 46.1952 105.666 46.0419 105.339C45.8886 105.006 45.8119 104.596 45.8119 104.109V101.159H47.0119V103.989C47.0119 104.423 47.1019 104.753 47.2819 104.979C47.4686 105.199 47.7486 105.309 48.1219 105.309C48.3619 105.309 48.5752 105.253 48.7619 105.139C48.9552 105.026 49.1052 104.863 49.2119 104.649C49.3252 104.429 49.3819 104.163 49.3819 103.849V101.159H50.5819V106.199H49.5219L49.4319 105.359C49.2786 105.653 49.0552 105.886 48.7619 106.059C48.4752 106.233 48.1386 106.319 47.7519 106.319ZM51.9171 108.399V101.159H52.9871L53.1171 101.889C53.2237 101.743 53.3504 101.606 53.4971 101.479C53.6504 101.346 53.8337 101.239 54.0471 101.159C54.2671 101.079 54.5171 101.039 54.7971 101.039C55.2704 101.039 55.6871 101.156 56.0471 101.389C56.4137 101.623 56.7004 101.939 56.9071 102.339C57.1137 102.733 57.2171 103.183 57.2171 103.689C57.2171 104.196 57.1104 104.649 56.8971 105.049C56.6904 105.443 56.4037 105.753 56.0371 105.979C55.6771 106.206 55.2637 106.319 54.7971 106.319C54.4171 106.319 54.0837 106.249 53.7971 106.109C53.5171 105.963 53.2904 105.756 53.1171 105.489V108.399H51.9171ZM54.5471 105.279C54.8271 105.279 55.0771 105.213 55.2971 105.079C55.5171 104.946 55.6871 104.759 55.8071 104.519C55.9337 104.279 55.9971 104.003 55.9971 103.689C55.9971 103.369 55.9337 103.089 55.8071 102.849C55.6871 102.609 55.5171 102.423 55.2971 102.289C55.0771 102.156 54.8271 102.089 54.5471 102.089C54.2604 102.089 54.0071 102.156 53.7871 102.289C53.5737 102.423 53.4037 102.609 53.2771 102.849C53.1571 103.089 53.0971 103.366 53.0971 103.679C53.0971 103.999 53.1571 104.279 53.2771 104.519C53.4037 104.753 53.5737 104.939 53.7871 105.079C54.0071 105.213 54.2604 105.279 54.5471 105.279ZM60.7419 106.319C60.2419 106.319 59.8019 106.213 59.4219 105.999C59.0419 105.779 58.7452 105.473 58.5319 105.079C58.3186 104.686 58.2119 104.233 58.2119 103.719C58.2119 103.186 58.3152 102.719 58.5219 102.319C58.7352 101.919 59.0319 101.606 59.4119 101.379C59.7986 101.153 60.2452 101.039 60.7519 101.039C61.2452 101.039 61.6752 101.149 62.0419 101.369C62.4086 101.589 62.6919 101.886 62.8919 102.259C63.0919 102.626 63.1919 103.039 63.1919 103.499C63.1919 103.566 63.1919 103.639 63.1919 103.719C63.1919 103.799 63.1852 103.883 63.1719 103.969H59.0719V103.199H61.9819C61.9686 102.833 61.8452 102.546 61.6119 102.339C61.3786 102.126 61.0886 102.019 60.7419 102.019C60.4952 102.019 60.2686 102.076 60.0619 102.189C59.8552 102.303 59.6919 102.473 59.5719 102.699C59.4519 102.919 59.3919 103.199 59.3919 103.539V103.829C59.3919 104.143 59.4486 104.413 59.5619 104.639C59.6819 104.866 59.8419 105.039 60.0419 105.159C60.2486 105.273 60.4786 105.329 60.7319 105.329C61.0119 105.329 61.2419 105.269 61.4219 105.149C61.6086 105.029 61.7452 104.869 61.8319 104.669H63.0519C62.9586 104.983 62.8052 105.266 62.5919 105.519C62.3786 105.766 62.1152 105.963 61.8019 106.109C61.4886 106.249 61.1352 106.319 60.7419 106.319ZM66.6599 106.319C66.1599 106.319 65.7199 106.213 65.3399 105.999C64.9599 105.779 64.6632 105.473 64.4499 105.079C64.2365 104.686 64.1299 104.233 64.1299 103.719C64.1299 103.186 64.2332 102.719 64.4399 102.319C64.6532 101.919 64.9499 101.606 65.3299 101.379C65.7165 101.153 66.1632 101.039 66.6699 101.039C67.1632 101.039 67.5932 101.149 67.9599 101.369C68.3265 101.589 68.6099 101.886 68.8099 102.259C69.0099 102.626 69.1099 103.039 69.1099 103.499C69.1099 103.566 69.1099 103.639 69.1099 103.719C69.1099 103.799 69.1032 103.883 69.0899 103.969H64.9899V103.199H67.8999C67.8865 102.833 67.7632 102.546 67.5299 102.339C67.2965 102.126 67.0065 102.019 66.6599 102.019C66.4132 102.019 66.1865 102.076 65.9799 102.189C65.7732 102.303 65.6099 102.473 65.4899 102.699C65.3699 102.919 65.3099 103.199 65.3099 103.539V103.829C65.3099 104.143 65.3665 104.413 65.4799 104.639C65.5999 104.866 65.7599 105.039 65.9599 105.159C66.1665 105.273 66.3965 105.329 66.6499 105.329C66.9299 105.329 67.1599 105.269 67.3399 105.149C67.5265 105.029 67.6632 104.869 67.7499 104.669H68.9699C68.8765 104.983 68.7232 105.266 68.5099 105.519C68.2965 105.766 68.0332 105.963 67.7199 106.109C67.4065 106.249 67.0532 106.319 66.6599 106.319ZM70.2579 106.199V99.1992H74.7279V100.169H71.4579V102.219H74.1279V103.169H71.4579V106.199H70.2579ZM75.7159 106.199V98.9992H76.9159V106.199H75.7159ZM80.605 106.319C80.125 106.319 79.6916 106.209 79.305 105.989C78.925 105.763 78.625 105.453 78.405 105.059C78.1916 104.659 78.085 104.203 78.085 103.689C78.085 103.163 78.195 102.703 78.415 102.309C78.635 101.909 78.935 101.599 79.315 101.379C79.7016 101.153 80.135 101.039 80.615 101.039C81.095 101.039 81.525 101.153 81.905 101.379C82.2916 101.599 82.5916 101.906 82.805 102.299C83.025 102.693 83.135 103.153 83.135 103.679C83.135 104.206 83.025 104.666 82.805 105.059C82.585 105.453 82.2816 105.763 81.895 105.989C81.515 106.209 81.085 106.319 80.605 106.319ZM80.605 105.289C80.845 105.289 81.0616 105.229 81.255 105.109C81.455 104.989 81.615 104.809 81.735 104.569C81.855 104.329 81.915 104.033 81.915 103.679C81.915 103.326 81.855 103.033 81.735 102.799C81.6216 102.559 81.465 102.379 81.265 102.259C81.0716 102.139 80.855 102.079 80.615 102.079C80.3816 102.079 80.165 102.139 79.965 102.259C79.765 102.379 79.605 102.559 79.485 102.799C79.365 103.033 79.305 103.326 79.305 103.679C79.305 104.033 79.365 104.329 79.485 104.569C79.605 104.809 79.7616 104.989 79.955 105.109C80.155 105.229 80.3716 105.289 80.605 105.289ZM85.1339 106.199L83.6539 101.159H84.8439L85.8739 105.299L85.6539 105.289L86.8039 101.159H88.1439L89.3039 105.289H89.0839L90.1139 101.159H91.3039L89.8239 106.199H88.5839L87.3539 101.929H87.6039L86.3739 106.199H85.1339Z" fill="#235065"/>
<path d="M19.6825 24.1642C19.0745 24.1608 18.5351 24.0498 18.0643 23.8312C17.5935 23.6126 17.2272 23.3026 16.9654 22.9011C16.7037 22.4996 16.5703 22.0229 16.5654 21.4709L18.0893 21.4793C18.0878 21.7593 18.1504 22.0116 18.2771 22.2364C18.4119 22.4531 18.595 22.6261 18.8263 22.7554C19.0656 22.8847 19.3532 22.9503 19.6892 22.9522C19.9772 22.9538 20.2254 22.9112 20.4339 22.8243C20.6505 22.7295 20.8152 22.5984 20.9281 22.431C21.0491 22.2557 21.1102 22.052 21.1115 21.82C21.113 21.556 21.0502 21.3397 20.9231 21.171C20.8041 20.9943 20.6369 20.8454 20.4216 20.7242C20.2062 20.603 19.9588 20.4976 19.6793 20.4081C19.3998 20.3105 19.1044 20.2089 18.793 20.1032C18.1302 19.8755 17.6318 19.5887 17.2977 19.2429C16.9637 18.889 16.7983 18.4201 16.8015 17.8361C16.8042 17.3481 16.9225 16.9288 17.1565 16.5781C17.3904 16.2273 17.7159 15.9571 18.133 15.7675C18.5581 15.5698 19.0466 15.4725 19.5986 15.4756C20.1586 15.4787 20.646 15.5814 21.0609 15.7837C21.4838 15.986 21.8143 16.2679 22.0523 16.6292C22.2983 16.9825 22.424 17.4072 22.4292 17.9033L20.8932 17.8948C20.8864 17.6867 20.8314 17.4944 20.7284 17.3179C20.6254 17.1333 20.4743 16.9844 20.2749 16.8713C20.0836 16.7503 19.8479 16.689 19.5679 16.6874C19.3279 16.6781 19.1117 16.7169 18.9192 16.8038C18.7348 16.8828 18.5861 17.002 18.4733 17.1614C18.3684 17.3128 18.3154 17.5045 18.3141 17.7365C18.3128 17.9605 18.3598 18.1487 18.4549 18.3013C18.5581 18.4459 18.7055 18.5707 18.8969 18.6757C19.0883 18.7728 19.3118 18.866 19.5673 18.9554C19.8228 19.0449 20.1023 19.1424 20.4057 19.2481C20.821 19.3864 21.196 19.5565 21.5309 19.7583C21.8739 19.9522 22.1445 20.2057 22.3427 20.5188C22.541 20.8319 22.6387 21.2365 22.636 21.7325C22.6336 22.1645 22.5194 22.5679 22.2933 22.9426C22.0673 23.3094 21.7376 23.6075 21.3043 23.8371C20.8711 24.0587 20.3305 24.1678 19.6825 24.1642ZM26.8065 24.2036C26.2065 24.2003 25.6793 24.0694 25.2247 23.8109C24.7702 23.5443 24.4162 23.1744 24.1628 22.701C23.9094 22.2275 23.7845 21.6828 23.7879 21.0669C23.7914 20.4269 23.9185 19.8676 24.1692 19.3889C24.4278 18.9104 24.7859 18.5363 25.2434 18.2669C25.7089 17.9974 26.2456 17.8644 26.8536 17.8678C27.4456 17.8711 27.9609 18.0059 28.3994 18.2724C28.8379 18.5388 29.176 18.8967 29.4135 19.346C29.651 19.7873 29.7683 20.284 29.7652 20.836C29.7648 20.916 29.7643 21.004 29.7638 21.1C29.7632 21.196 29.7547 21.2959 29.7381 21.3998L24.8182 21.3726L24.8233 20.4486L28.3152 20.4679C28.3017 20.0278 28.1556 19.683 27.877 19.4335C27.5984 19.1759 27.2511 19.046 26.8351 19.0437C26.5391 19.0421 26.2667 19.1086 26.018 19.2432C25.7692 19.3778 25.5721 19.5807 25.4266 19.8519C25.2812 20.1151 25.2073 20.4507 25.205 20.8587L25.2031 21.2067C25.201 21.5827 25.2672 21.9071 25.4017 22.1798C25.5442 22.4526 25.7351 22.6617 25.9743 22.807C26.2215 22.9444 26.4971 23.0139 26.8011 23.0156C27.1371 23.0174 27.4135 22.947 27.6303 22.8042C27.8551 22.6614 28.0202 22.4703 28.1255 22.2309L29.5895 22.239C29.4754 22.6144 29.2895 22.9534 29.0318 23.2559C28.7742 23.5505 28.4569 23.7848 28.0799 23.9587C27.703 24.1246 27.2785 24.2062 26.8065 24.2036ZM33.944 24.2432C33.352 24.2399 32.8207 24.1049 32.3502 23.8383C31.8877 23.5638 31.5258 23.1897 31.2644 22.7163C31.0111 22.2349 30.8861 21.6902 30.8894 21.0822C30.8929 20.4502 31.024 19.8989 31.2826 19.4283C31.5493 18.9498 31.9153 18.5758 32.3808 18.3064C32.8543 18.037 33.3911 17.904 33.9911 17.9073C34.7431 17.9115 35.374 18.115 35.8837 18.5178C36.3935 18.9126 36.7186 19.4544 36.8587 20.1432L35.3468 20.1349C35.2684 19.8304 35.1018 19.5895 34.8468 19.4121C34.5997 19.2347 34.3042 19.1451 33.9602 19.1432C33.6642 19.1415 33.3918 19.216 33.143 19.3666C32.9021 19.5173 32.7089 19.7362 32.5633 20.0234C32.4257 20.3107 32.3558 20.6583 32.3536 21.0663C32.3518 21.3783 32.3903 21.6545 32.469 21.8949C32.5476 22.1354 32.6585 22.34 32.8016 22.5088C32.9527 22.6696 33.124 22.7946 33.3155 22.8836C33.507 22.9727 33.7148 23.0179 33.9388 23.0191C34.1708 23.0204 34.379 22.9855 34.5634 22.9146C34.7558 22.8356 34.9164 22.7205 35.0453 22.5692C35.1821 22.418 35.2791 22.2385 35.3363 22.0308L36.8482 22.0392C36.7005 22.7104 36.3695 23.2486 35.8553 23.6537C35.3411 24.0509 34.704 24.2474 33.944 24.2432ZM40.4683 24.2793C39.9803 24.2766 39.5609 24.1783 39.2099 23.9843C38.8671 23.7824 38.6047 23.485 38.4229 23.0919C38.2411 22.6909 38.1518 22.1984 38.1551 21.6144L38.1747 18.0745L39.6146 18.0825L39.5958 21.4784C39.5929 21.9984 39.6988 22.395 39.9132 22.6682C40.1358 22.9334 40.471 23.0673 40.919 23.0698C41.207 23.0714 41.4634 23.0048 41.6882 22.87C41.9209 22.7353 42.102 22.5403 42.2314 22.285C42.3689 22.0218 42.4386 21.7022 42.4407 21.3262L42.4586 18.0982L43.8986 18.1062L43.8651 24.1541L42.5931 24.1471L42.4907 23.1385C42.3047 23.4894 42.0352 23.768 41.682 23.974C41.3369 24.1801 40.9323 24.2819 40.4683 24.2793ZM45.4672 24.163L45.5007 18.1151L46.7847 18.1222L46.9105 19.2509C47.0559 18.9877 47.2372 18.7647 47.4542 18.5819C47.6712 18.3911 47.9241 18.2445 48.2126 18.1421C48.5092 18.0397 48.8335 17.9895 49.1855 17.9915L49.177 19.5154L48.673 19.5127C48.433 19.5113 48.2049 19.5421 47.9885 19.6049C47.7722 19.6597 47.5837 19.7546 47.4229 19.8897C47.2702 20.0169 47.1492 20.1962 47.0599 20.4277C46.9707 20.6512 46.9251 20.935 46.9232 21.279L46.9072 24.1709L45.4672 24.163ZM50.2967 24.1897L50.3302 18.1418L51.7702 18.1498L51.7367 24.1977L50.2967 24.1897ZM51.0555 17.1858C50.7915 17.1843 50.5719 17.1031 50.3968 16.9422C50.2298 16.7732 50.1469 16.5688 50.1482 16.3288C50.1496 16.0808 50.2347 15.8812 50.4035 15.7302C50.5804 15.5712 50.8009 15.4924 51.0649 15.4938C51.3289 15.4953 51.5444 15.5765 51.7115 15.7374C51.8867 15.8904 51.9736 16.0909 51.9722 16.3389C51.9709 16.5789 51.8817 16.7824 51.7048 16.9494C51.5359 17.1085 51.3195 17.1873 51.0555 17.1858ZM56.0287 24.2215C55.6207 24.2192 55.265 24.1532 54.9617 24.0236C54.6665 23.8939 54.4356 23.6806 54.2693 23.3837C54.1029 23.0868 54.0211 22.6863 54.0239 22.1823L54.0395 19.3744L53.0075 19.3687L53.0142 18.1567L54.0462 18.1624L54.223 16.5673L55.495 16.5744L55.4862 18.1704L57.1301 18.1795L57.1234 19.3915L55.4795 19.3823L55.4639 22.1903C55.4622 22.4943 55.525 22.7067 55.6524 22.8274C55.7878 22.9401 56.0114 22.9973 56.3234 22.9991L57.0674 23.0032L57.0607 24.2272L56.0287 24.2215ZM59.1688 26.8789L60.6631 23.5751L60.3031 23.5731L57.9209 18.1839L59.4929 18.1926L61.2701 22.3065L62.9968 18.212L64.5208 18.2204L60.6928 26.8873L59.1688 26.8789ZM68.5071 24.2906L68.5536 15.8907L73.9175 15.9204L73.9111 17.0844L69.9871 17.0627L69.9735 19.5226L73.1774 19.5404L73.1711 20.6803L69.9672 20.6626L69.947 24.2985L68.5071 24.2906ZM75.1166 24.3272L75.1501 18.2793L76.5901 18.2872L76.5566 24.3352L75.1166 24.3272ZM75.8754 17.3233C75.6114 17.3218 75.3919 17.2406 75.2168 17.0796C75.0497 16.9107 74.9668 16.7062 74.9682 16.4662C74.9695 16.2182 75.0546 16.0187 75.2235 15.8676C75.4004 15.7086 75.6208 15.6298 75.8848 15.6313C76.1488 15.6328 76.3643 15.714 76.5315 15.8749C76.7066 16.0279 76.7935 16.2283 76.7921 16.4763C76.7908 16.7163 76.7017 16.9198 76.5247 17.0869C76.3559 17.2459 76.1394 17.3247 75.8754 17.3233ZM78.2206 24.3444L78.2541 18.2965L79.5381 18.3036L79.6639 19.4323C79.8093 19.1691 79.9906 18.9461 80.2076 18.7633C80.4246 18.5725 80.6775 18.4259 80.966 18.3235C81.2626 18.2211 81.5869 18.1709 81.9389 18.1729L81.9304 19.6968L81.4264 19.6941C81.1864 19.6927 80.9583 19.7235 80.7419 19.7863C80.5256 19.8411 80.3371 19.936 80.1763 20.0711C80.0236 20.1983 79.9026 20.3776 79.8133 20.6091C79.7241 20.8326 79.6785 21.1164 79.6766 21.4604L79.6606 24.3523L78.2206 24.3444ZM85.4013 24.5281C84.8653 24.5252 84.3977 24.4386 83.9987 24.2684C83.6077 24.0902 83.297 23.8485 83.0667 23.5432C82.8444 23.23 82.7144 22.8732 82.6766 22.473L84.1166 22.481C84.1556 22.6492 84.2268 22.8056 84.33 22.9502C84.4332 23.0868 84.5726 23.1955 84.7482 23.2765C84.9317 23.3575 85.1475 23.3987 85.3955 23.4001C85.6355 23.4014 85.8317 23.3705 85.984 23.3074C86.1364 23.2362 86.2489 23.1448 86.3216 23.0332C86.3942 22.9216 86.4308 22.8018 86.4315 22.6738C86.4326 22.4818 86.3814 22.3335 86.278 22.229C86.1746 22.1244 86.023 22.0435 85.8233 21.9864C85.6317 21.9214 85.4 21.8601 85.1284 21.8026C84.8407 21.745 84.561 21.6754 84.2895 21.5939C84.026 21.5045 83.7866 21.3952 83.5713 21.266C83.364 21.1368 83.1969 20.9719 83.07 20.7712C82.9511 20.5705 82.8925 20.3262 82.8941 20.0382C82.896 19.6862 82.9898 19.3707 83.1753 19.0917C83.3689 18.8128 83.6421 18.5943 83.995 18.4363C84.3559 18.2703 84.7844 18.1886 85.2804 18.1914C85.9843 18.1953 86.5434 18.3624 86.9576 18.6927C87.3798 19.015 87.6253 19.4684 87.6941 20.0528L86.3261 20.0452C86.2873 19.821 86.1763 19.6484 85.993 19.5273C85.8097 19.3983 85.566 19.333 85.262 19.3313C84.95 19.3296 84.7097 19.3882 84.5411 19.5073C84.3804 19.6184 84.2996 19.77 84.2985 19.962C84.2979 20.082 84.3452 20.1942 84.4407 20.2988C84.5441 20.3953 84.6917 20.4802 84.8833 20.5532C85.0749 20.6183 85.3106 20.6836 85.5902 20.7491C86.0377 20.8396 86.4331 20.9458 86.7764 21.0677C87.1198 21.1896 87.3908 21.3671 87.5895 21.6002C87.7882 21.8333 87.8864 22.1619 87.8841 22.5859C87.8899 22.9699 87.788 23.3093 87.5784 23.6042C87.3768 23.8991 87.0915 24.1295 86.7226 24.2955C86.3537 24.4534 85.9133 24.531 85.4013 24.5281ZM91.6883 24.419C91.2803 24.4167 90.9246 24.3507 90.6214 24.221C90.3261 24.0914 90.0952 23.8781 89.9289 23.5812C89.7625 23.2843 89.6807 22.8838 89.6835 22.3798L89.6991 19.5719L88.6671 19.5662L88.6738 18.3542L89.7058 18.3599L89.8826 16.7648L91.1546 16.7719L91.1458 18.3679L92.7898 18.377L92.783 19.5889L91.1391 19.5798L91.1235 22.3878C91.1218 22.6918 91.1847 22.9041 91.312 23.0249C91.4474 23.1376 91.6711 23.1948 91.983 23.1966L92.727 23.2007L92.7203 24.4247L91.6883 24.419Z" fill="black"/>
<path d="M66.9318 78.0951C60.8302 78.0709 55.9211 73.2019 55.9481 67.2147C55.9752 61.2036 60.9341 56.3859 67.06 56.4102C73.1555 56.4345 78.0524 61.3094 78.0254 67.3085C77.9984 73.2957 73.0334 78.1194 66.9318 78.0951ZM65.9095 68.0765C65.1668 67.3348 64.4424 66.5812 63.6814 65.8693C63.4519 65.6539 63.1251 65.4798 62.8161 65.419C62.2768 65.3096 61.7598 65.6174 61.5211 66.1049C61.2701 66.6044 61.3465 67.1468 61.7692 67.5715C62.8017 68.6062 63.8403 69.6291 64.8789 70.6579C65.5854 71.3518 66.2889 71.3606 66.9956 70.6663C68.7076 68.9872 70.4195 67.308 72.1254 65.6229C72.7285 65.0295 72.7621 64.2969 72.2248 63.7526C71.6874 63.2143 70.9231 63.2351 70.32 63.8225C69.6072 64.5107 68.9065 65.2169 68.1938 65.9051C67.4506 66.623 66.7014 67.329 65.9156 68.0765L65.9095 68.0765Z" fill="#235065"/>
<path d="M70.2882 54.1545C68.7846 54.0353 67.2992 53.9162 65.7531 53.7968C65.7557 53.219 65.7406 52.5338 65.7619 51.8488C65.7894 51.134 65.4822 50.6741 64.8224 50.3796C61.693 48.9791 58.5638 47.5666 55.4406 46.1483C54.9806 45.9379 54.5439 45.9243 54.082 46.1369C50.9097 47.5421 47.7313 48.9473 44.5529 50.3406C43.9513 50.6063 43.6764 51.052 43.6735 51.6835C43.6631 53.9949 43.5799 56.306 43.6544 58.6177C43.889 65.7556 47.2681 70.9579 53.7492 74.2006C54.2696 74.4589 54.7846 74.592 55.2529 74.3019C56.309 75.4797 57.3409 76.6277 58.385 77.7875C57.8137 78.0474 57.1573 78.3486 56.5009 78.6439C56.0451 78.8446 55.5953 79.0692 55.1155 79.2043C54.7998 79.2924 54.3932 79.3265 54.0966 79.2122C50.609 77.8936 47.4695 76.0522 44.9285 73.3136C41.8624 69.9891 39.9572 66.1212 39.3283 61.6686C39.1873 60.6612 39.1131 59.6362 39.1116 58.6175C39.096 55.3469 39.135 52.0765 39.1376 48.8118C39.1407 48.1268 39.4338 47.693 40.0598 47.4155C44.7392 45.355 49.4187 43.2826 54.0921 41.2162C54.5418 41.0154 54.9664 41.0171 55.4143 41.2214C60.0931 43.337 64.7779 45.4467 69.4628 47.5564C69.9834 47.7908 70.3213 48.1615 70.3187 48.7453C70.3167 50.5265 70.3026 52.3077 70.2946 54.083C70.2944 54.1366 70.276 54.1842 70.2822 54.1485L70.2882 54.1545Z" fill="#235065"/>
<path d="M54.0449 71.4843C52.5141 70.6621 51.2328 69.68 50.1343 68.4782C47.5815 65.6741 46.262 62.3923 46.2426 58.6272C46.2332 56.6732 46.2602 54.7253 46.2569 52.7713C46.2582 52.4794 46.3316 52.3307 46.6112 52.2067C49.2121 51.0733 51.8131 49.9279 54.4081 48.7766C54.639 48.6703 54.821 48.677 55.0449 48.7791C57.6415 49.9571 60.2381 51.1291 62.8408 52.2892C63.0709 52.3914 63.1674 52.5109 63.148 52.761C63.1219 53.1839 63.1199 53.6128 63.1423 54.0359C63.1592 54.3219 63.0616 54.4466 62.7761 54.5408C59.8121 55.4941 57.4207 57.23 55.6928 59.7788C53.3177 63.2723 52.7487 67.0648 53.9253 71.1026C53.9551 71.204 53.979 71.2994 54.0327 71.4902L54.0449 71.4843Z" fill="#6FC6A9"/>
<path d="M65.9095 68.072C66.6953 67.3244 67.4506 66.6184 68.1878 65.9004C68.9005 65.2122 69.6012 64.506 70.314 63.8177C70.9171 63.2303 71.6815 63.2095 72.2189 63.7478C72.7563 64.2921 72.7226 65.0248 72.1195 65.6182C70.4135 67.3035 68.7015 68.9827 66.9896 70.662C66.2829 71.3503 65.5793 71.3475 64.8727 70.6536C63.8341 69.6306 62.7955 68.6017 61.7629 67.5669C61.3403 67.1422 61.2638 66.6057 61.5148 66.1003C61.7535 65.6186 62.2705 65.3049 62.8099 65.4143C63.1189 65.4811 63.4457 65.6492 63.6752 65.8646C64.4362 66.5766 65.1607 67.3302 65.9034 68.0719L65.9095 68.072Z" fill="white"/>
</g>
<rect x="0.5" y="0.5" width="109" height="111" rx="4.5" stroke="#929292"/>
<defs>
<linearGradient id="paint0_linear_3653_988" x1="16.2489" y1="104.405" x2="40.173" y2="103.689" gradientUnits="userSpaceOnUse">
<stop stop-color="#054C38"/>
<stop offset="1" stop-color="#2AB871"/>
</linearGradient>
<clipPath id="clip0_3653_988">
<rect width="110" height="112" rx="5" fill="white"/>
</clipPath>
</defs>
</svg>
