<svg width="248" height="250" viewBox="0 0 248 250" fill="none" xmlns="http://www.w3.org/2000/svg">
<path d="M132.544 248.819C102.342 248.819 72.1403 248.403 41.9385 249.027C38.6883 249.185 35.4414 248.652 32.4107 247.463C29.38 246.275 26.634 244.456 24.3527 242.128C22.0714 239.8 20.3062 237.014 19.173 233.954C18.0398 230.893 17.5641 227.627 17.7771 224.369C17.9844 221.603 17.9844 218.824 17.7771 216.058C17.7771 213.599 18.5709 212.906 20.9526 212.906C35.4954 212.906 50.0383 212.906 64.5812 212.906C67.8085 213.067 71.0339 212.553 74.0525 211.397C77.0711 210.24 79.817 208.466 82.1155 206.188C84.2294 203.976 85.8828 201.364 86.9792 198.504C88.0756 195.643 88.593 192.593 88.5011 189.53C88.5011 178.656 88.5011 167.747 88.5011 156.838C88.7322 151.752 87.2113 146.742 84.1942 142.649C81.177 138.556 76.8474 135.629 71.9332 134.362C69.3429 133.751 66.6898 133.449 64.029 133.462C49.7392 133.462 35.4494 133.462 21.1942 133.462C18.5364 133.462 17.7425 132.7 17.7425 129.998C17.9496 126.535 17.7425 122.795 17.7425 119.193C17.8393 113.501 20.1291 108.068 24.1318 104.032C28.1344 99.9969 33.5388 97.6733 39.2117 97.5488H226.463C232.098 97.6626 237.472 99.9498 241.47 103.935C245.468 107.921 247.782 113.298 247.932 118.951C247.932 155.083 247.932 191.204 247.932 227.313C247.774 232.963 245.457 238.335 241.461 242.319C237.465 246.303 232.095 248.593 226.463 248.715L132.544 248.819Z" fill="#00EF64"/>
<path d="M160.502 89.1677H105.794C104.897 89.1677 103.62 89.6179 103.205 88.7868C102.791 87.9556 103.965 87.0552 104.551 86.328C125.325 61.6143 142.426 34.016 155.325 4.39C157.016 0.0264382 159.122 -0.839348 163.436 0.719067L212.795 18.5889L242.893 29.4978C248.14 31.4371 249.279 34.173 246.621 39.0907C237.888 55.3675 228.534 71.2633 219.387 87.2976C219.008 87.9738 218.43 88.5162 217.732 88.8508C217.034 89.1855 216.25 89.2961 215.487 89.1677H160.502Z" fill="#00EF64"/>
<path d="M39.8676 204.352H13.3245C11.5785 204.404 9.84003 204.1 8.21398 203.46C6.58793 202.819 5.10791 201.855 3.86307 200.625C2.61823 199.396 1.63433 197.926 0.970631 196.305C0.306935 194.684 -0.0228211 192.944 0.00122666 191.192C0.00122666 179.186 0.00122666 167.169 0.00122666 155.141C-0.0128028 153.404 0.319433 151.683 0.978387 150.077C1.63734 148.471 2.6097 147.014 3.83826 145.791C5.06682 144.568 6.52675 143.604 8.13217 142.956C9.73759 142.307 11.4561 141.988 13.1865 142.015H66.7904C68.5192 141.987 70.236 142.307 71.8396 142.956C73.4431 143.605 74.9008 144.57 76.1266 145.793C77.3525 147.017 78.3216 148.474 78.9767 150.08C79.6318 151.685 79.9598 153.406 79.9411 155.141C79.9411 167.262 79.9411 179.383 79.9411 191.469C79.9047 194.904 78.5166 198.186 76.0792 200.599C73.6418 203.012 70.3526 204.361 66.9284 204.352H39.8676ZM48.9454 185.928C50.6202 185.946 52.2818 185.63 53.8332 184.996C55.3845 184.363 56.7943 183.425 57.9803 182.239C59.1662 181.052 60.1044 179.64 60.74 178.085C61.3756 176.53 61.6958 174.864 61.682 173.184C61.5109 169.869 60.0781 166.746 57.6792 164.461C55.2802 162.175 52.0983 160.901 48.7901 160.901C45.4819 160.901 42.3 162.175 39.901 164.461C37.5021 166.746 36.0692 169.869 35.8982 173.184C35.8885 174.894 36.2211 176.589 36.8764 178.168C37.5317 179.748 38.4963 181.179 39.713 182.377C40.9298 183.575 42.3739 184.516 43.9598 185.144C45.5457 185.772 47.241 186.074 48.9454 186.032V185.928Z" fill="#0A7D50"/>
<path d="M70.6561 89.168H52.1553C51.3614 89.168 50.326 89.5144 49.8427 88.7525C49.3595 87.9906 50.2569 87.2633 50.7402 86.6399C67.6983 64.8986 80.033 39.8994 86.9823 13.1867C88.0178 9.2387 90.0198 8.19975 94.6104 9.16943L113.905 13.3945C121.326 15.0568 128.782 16.8576 136.237 18.3121C138.55 18.797 139.171 19.455 137.963 21.7753C126.498 43.6538 112.715 64.2283 96.854 83.1422C95.3699 85.377 93.2859 87.145 90.8429 88.2419C88.3998 89.3389 85.6972 89.72 83.0475 89.3412C78.9238 89.0423 74.7864 88.9845 70.6561 89.168Z" fill="#00EF64"/>
<path d="M211.276 216.75H143.969C140.881 216.75 138.377 219.262 138.377 222.36C138.377 225.459 140.881 227.971 143.969 227.971H211.276C214.364 227.971 216.868 225.459 216.868 222.36C216.868 219.262 214.364 216.75 211.276 216.75Z" fill="#0A7D50"/>
</svg>
