<svg width="210" height="208" viewBox="0 0 210 208" fill="none" xmlns="http://www.w3.org/2000/svg">
<path d="M128.551 0H31.2843C14.0065 0 0 13.1433 0 29.3563V159.232C0 175.445 14.0065 188.588 31.2843 188.588H128.551C145.829 188.588 159.835 175.445 159.835 159.232V29.3563C159.835 13.1433 145.829 0 128.551 0Z" fill="#00EF64"/>
<path d="M99.9946 25.7051H26.147C22.9012 25.7051 20.27 28.1741 20.27 31.2198C20.27 34.2655 22.9012 36.7346 26.147 36.7346H99.9946C103.24 36.7346 105.872 34.2655 105.872 31.2198C105.872 28.1741 103.24 25.7051 99.9946 25.7051Z" fill="white"/>
<path d="M99.9965 57.6543H26.1489C22.9032 57.6543 20.272 60.1233 20.272 63.169C20.272 66.2148 22.9032 68.6838 26.1489 68.6838H99.9965C103.242 68.6838 105.873 66.2148 105.873 63.169C105.873 60.1233 103.242 57.6543 99.9965 57.6543Z" fill="white"/>
<path d="M133.653 89.626H26.147C22.9012 89.626 20.27 92.095 20.27 95.1407C20.27 98.1864 22.9012 100.655 26.147 100.655H133.653C136.899 100.655 139.53 98.1864 139.53 95.1407C139.53 92.095 136.899 89.626 133.653 89.626Z" fill="white"/>
<path d="M132.472 120.406H24.9653C21.7196 120.406 19.0884 122.875 19.0884 125.921C19.0884 128.967 21.7196 131.436 24.9653 131.436H132.472C135.718 131.436 138.349 128.967 138.349 125.921C138.349 122.875 135.718 120.406 132.472 120.406Z" fill="white"/>
<path d="M133.655 151.154H26.1489C22.9032 151.154 20.272 153.623 20.272 156.669C20.272 159.715 22.9032 162.184 26.1489 162.184H133.655C136.901 162.184 139.532 159.715 139.532 156.669C139.532 153.623 136.901 151.154 133.655 151.154Z" fill="white"/>
<path d="M149.865 208C183.077 208 210 182.736 210 151.571C210 120.407 183.077 95.1426 149.865 95.1426C116.654 95.1426 89.7305 120.407 89.7305 151.571C89.7305 182.736 116.654 208 149.865 208Z" fill="#0A7D50"/>
<path d="M155.083 180.568L143.448 163.495C141.691 160.707 139.511 158.174 136.978 155.975C134.57 154.195 131.547 153.313 128.489 153.496H124.808V143.413H133.713C136.868 143.482 139.995 142.833 142.825 141.52C143.971 141.061 145.009 140.394 145.88 139.557C146.751 138.721 147.438 137.731 147.9 136.645H124.808V127.677H147.989C147.698 126.645 147.187 125.679 146.488 124.837C145.79 123.995 144.917 123.294 143.923 122.775C140.765 121.349 137.268 120.716 133.772 120.937H124.66V111.996H173.872V120.937H160.07C161.038 121.829 161.858 122.853 162.504 123.973C163.143 125.131 163.565 126.384 163.75 127.677H174.05V136.645H163.424C162.544 139.995 160.444 142.951 157.487 145.001C154.1 147.444 150.125 149.07 145.912 149.736V149.931C148.235 150.903 150.325 152.305 152.056 154.053C154.175 156.256 156.157 158.571 157.992 160.988L172.566 180.485L155.083 180.568Z" fill="white"/>
</svg>
