<svg width="40" height="39" viewBox="0 0 40 39" fill="none" xmlns="http://www.w3.org/2000/svg">
<path d="M4.68058 10.5967H30.922C31.6329 10.5967 32.3147 10.8901 32.8175 11.4123C33.3202 11.9345 33.6026 12.6428 33.6026 13.3813V18.4063H2V13.3813C2 12.6428 2.28242 11.9345 2.78512 11.4123C3.28783 10.8901 3.96964 10.5967 4.68058 10.5967Z" fill="#00EF64"/>
<path d="M2 20.8223H33.5985V29.6578C33.5985 30.5052 33.2745 31.3179 32.6977 31.9171C32.1209 32.5162 31.3386 32.8529 30.5229 32.8529H5.07561C4.25991 32.8529 3.47761 32.5162 2.90082 31.9171C2.32404 31.3179 2 30.5052 2 29.6578V20.8223Z" fill="#00EF64"/>
<path d="M23.6017 14.9017C23.62 13.3222 24.0881 11.7838 24.9469 10.4804C25.8057 9.177 27.0168 8.16694 28.4275 7.57759C29.8382 6.98824 31.3853 6.84601 32.8737 7.16881C34.362 7.49162 35.7251 8.26502 36.7909 9.39148C37.8568 10.5179 38.5777 11.947 38.8628 13.4985C39.1478 15.0501 38.9843 16.6545 38.3928 18.1096C37.8012 19.5647 36.8082 20.8053 35.5389 21.6749C34.2696 22.5445 32.7809 23.0042 31.2604 22.996C29.2141 22.9695 27.2607 22.1039 25.8261 20.5876C24.3915 19.0714 23.5919 17.0276 23.6017 14.9017Z" fill="#0A7D50"/>
<path d="M8.6795 27.9248H5.62002C5.29053 27.9248 5.02344 28.2023 5.02344 28.5446C5.02344 28.8868 5.29053 29.1643 5.62002 29.1643H8.6795C9.00898 29.1643 9.27608 28.8868 9.27608 28.5446C9.27608 28.2023 9.00898 27.9248 8.6795 27.9248Z" fill="#235065"/>
<path d="M14.9842 27.9248H11.9247C11.5952 27.9248 11.3281 28.2023 11.3281 28.5446C11.3281 28.8868 11.5952 29.1643 11.9247 29.1643H14.9842C15.3137 29.1643 15.5808 28.8868 15.5808 28.5446C15.5808 28.2023 15.3137 27.9248 14.9842 27.9248Z" fill="#235065"/>
<path d="M21.2928 27.9248H18.2333C17.9038 27.9248 17.6367 28.2023 17.6367 28.5446C17.6367 28.8868 17.9038 29.1643 18.2333 29.1643H21.2928C21.6223 29.1643 21.8894 28.8868 21.8894 28.5446C21.8894 28.2023 21.6223 27.9248 21.2928 27.9248Z" fill="#235065"/>
<path d="M27.5955 27.9248H24.536C24.2066 27.9248 23.9395 28.2023 23.9395 28.5446C23.9395 28.8868 24.2066 29.1643 24.536 29.1643H27.5955C27.925 29.1643 28.1921 28.8868 28.1921 28.5446C28.1921 28.2023 27.925 27.9248 27.5955 27.9248Z" fill="#235065"/>
<g clip-path="url(#clip0_4118_1035)">
<path d="M34.5 11.25H28.5C28.0858 11.25 27.75 11.6231 27.75 12.0833V16.25C27.75 16.7102 28.0858 17.0833 28.5 17.0833H34.5C34.9142 17.0833 35.25 16.7102 35.25 16.25V12.0833C35.25 11.6231 34.9142 11.25 34.5 11.25Z" stroke="white" stroke-width="2" stroke-linecap="round" stroke-linejoin="round"/>
<path d="M30 18.75H33" stroke="white" stroke-linecap="round" stroke-linejoin="round"/>
<path d="M31.5 17.083V18.7497" stroke="white" stroke-linecap="round" stroke-linejoin="round"/>
</g>
<defs>
<clipPath id="clip0_4118_1035">
<rect width="9" height="10" fill="white" transform="translate(27 10)"/>
</clipPath>
</defs>
</svg>
