<svg width="46" height="28" viewBox="0 0 46 28" fill="none" xmlns="http://www.w3.org/2000/svg">
<path d="M7.68058 4.59668H33.922C34.6329 4.59668 35.3147 4.89006 35.8175 5.41229C36.3202 5.93452 36.6026 6.64281 36.6026 7.38135V12.4063H5V7.38135C5 6.64281 5.28242 5.93452 5.78512 5.41229C6.28783 4.89006 6.96964 4.59668 7.68058 4.59668Z" fill="#00EF64"/>
<path d="M5 14.8223H36.5985V23.6578C36.5985 24.5052 36.2745 25.3179 35.6977 25.9171C35.1209 26.5162 34.3386 26.8529 33.5229 26.8529H8.07561C7.25991 26.8529 6.47761 26.5162 5.90082 25.9171C5.32404 25.3179 5 24.5052 5 23.6578V14.8223Z" fill="#00EF64"/>
<path d="M26.6017 8.90165C26.62 7.32225 27.0881 5.78384 27.9469 4.48042C28.8057 3.177 30.0168 2.16694 31.4275 1.57759C32.8382 0.988243 34.3853 0.846006 35.8737 1.16881C37.362 1.49162 38.7251 2.26502 39.7909 3.39148C40.8568 4.51795 41.5777 5.94704 41.8628 7.49855C42.1478 9.05006 41.9843 10.6545 41.3928 12.1096C40.8012 13.5647 39.8082 14.8053 38.5389 15.6749C37.2696 16.5445 35.7809 17.0042 34.2604 16.996C32.2141 16.9695 30.2607 16.1039 28.8261 14.5876C27.3915 13.0714 26.5919 11.0276 26.6017 8.90165Z" fill="#0A7D50"/>
<path d="M11.6795 21.9248H8.62002C8.29053 21.9248 8.02344 22.2023 8.02344 22.5446C8.02344 22.8868 8.29053 23.1643 8.62002 23.1643H11.6795C12.009 23.1643 12.2761 22.8868 12.2761 22.5446C12.2761 22.2023 12.009 21.9248 11.6795 21.9248Z" fill="#235065"/>
<path d="M17.9842 21.9248H14.9247C14.5952 21.9248 14.3281 22.2023 14.3281 22.5446C14.3281 22.8868 14.5952 23.1643 14.9247 23.1643H17.9842C18.3137 23.1643 18.5808 22.8868 18.5808 22.5446C18.5808 22.2023 18.3137 21.9248 17.9842 21.9248Z" fill="#235065"/>
<path d="M24.2928 21.9248H21.2333C20.9038 21.9248 20.6367 22.2023 20.6367 22.5446C20.6367 22.8868 20.9038 23.1643 21.2333 23.1643H24.2928C24.6223 23.1643 24.8894 22.8868 24.8894 22.5446C24.8894 22.2023 24.6223 21.9248 24.2928 21.9248Z" fill="#235065"/>
<path d="M30.5975 21.9248H27.538C27.2085 21.9248 26.9414 22.2023 26.9414 22.5446C26.9414 22.8868 27.2085 23.1643 27.538 23.1643H30.5975C30.927 23.1643 31.194 22.8868 31.194 22.5446C31.194 22.2023 30.927 21.9248 30.5975 21.9248Z" fill="#235065"/>
<path d="M34 9C36.2091 9 37 7.65685 37 6C37 4.34315 36.2091 3.5 34 3.5C31.7909 3.5 31 4.34315 31 6C31 7.65685 31.7909 9 34 9Z" fill="white"/>
<path d="M37.3394 9H30.6601C29.1908 9 29 9.89543 29 11C29 12.1046 29.1908 13 30.6601 13H37.3394C38.8087 13 39 12.1046 39 11C39 9.89543 38.8087 9 37.3394 9Z" fill="white"/>
<rect x="33" y="9" width="2" height="1" rx="0.5" fill="#235065"/>
<path d="M34 9L35 12H34H33L34 9Z" fill="#235065"/>
</svg>
