<svg width="40" height="39" viewBox="0 0 40 39" fill="none" xmlns="http://www.w3.org/2000/svg">
<path d="M4.68058 10.5967H30.922C31.6329 10.5967 32.3147 10.8901 32.8175 11.4123C33.3202 11.9345 33.6026 12.6428 33.6026 13.3813V18.4063H2V13.3813C2 12.6428 2.28242 11.9345 2.78512 11.4123C3.28783 10.8901 3.96964 10.5967 4.68058 10.5967Z" fill="#00EF64"/>
<path d="M2 20.8223H33.5985V29.6578C33.5985 30.5052 33.2745 31.3179 32.6977 31.9171C32.1209 32.5162 31.3386 32.8529 30.5229 32.8529H5.07561C4.25991 32.8529 3.47761 32.5162 2.90082 31.9171C2.32404 31.3179 2 30.5052 2 29.6578V20.8223Z" fill="#00EF64"/>
<path d="M23.6017 14.9017C23.62 13.3222 24.0881 11.7838 24.9469 10.4804C25.8057 9.177 27.0168 8.16694 28.4275 7.57759C29.8382 6.98824 31.3853 6.84601 32.8737 7.16881C34.362 7.49162 35.7251 8.26502 36.7909 9.39148C37.8568 10.5179 38.5777 11.947 38.8628 13.4985C39.1478 15.0501 38.9843 16.6545 38.3928 18.1096C37.8012 19.5647 36.8082 20.8053 35.5389 21.6749C34.2696 22.5445 32.7809 23.0042 31.2604 22.996C29.2141 22.9695 27.2607 22.1039 25.8261 20.5876C24.3915 19.0714 23.5919 17.0276 23.6017 14.9017Z" fill="#235065"/>
<path d="M32.1828 19.5621L30.7639 17.2548C30.5421 16.8783 30.2707 16.5358 29.9577 16.2372C29.6614 15.9987 29.292 15.8797 28.9178 15.9022H28.4865V14.5371H29.5748C29.9599 14.5452 30.3414 14.4576 30.6873 14.2817C30.8274 14.2197 30.9542 14.1293 31.0601 14.0156C31.166 13.902 31.249 13.7675 31.3041 13.6201H28.4824V12.4141H31.3041C31.2681 12.2739 31.2052 12.1427 31.1194 12.0283C31.0335 11.9139 30.9263 11.8187 30.8042 11.7483C30.4188 11.5576 29.9928 11.4726 29.5667 11.5012H28.4824V10.291H34.4805V11.5012H32.7915C33.0401 11.7413 33.1999 12.0643 33.243 12.4141H34.4966V13.6201H33.2027C33.0957 14.0703 32.8422 14.4682 32.4851 14.7465C32.0709 15.0767 31.5852 15.2967 31.0703 15.3872V15.4123C31.3566 15.5427 31.6144 15.7322 31.8281 15.9692C32.0822 16.2671 32.3191 16.5803 32.5375 16.9072L34.3192 19.5663L32.1828 19.5621Z" fill="white"/>
<path d="M8.6795 27.9248H5.62002C5.29053 27.9248 5.02344 28.2023 5.02344 28.5446C5.02344 28.8868 5.29053 29.1643 5.62002 29.1643H8.6795C9.00898 29.1643 9.27608 28.8868 9.27608 28.5446C9.27608 28.2023 9.00898 27.9248 8.6795 27.9248Z" fill="#0A7D50"/>
<path d="M14.9842 27.9248H11.9247C11.5952 27.9248 11.3281 28.2023 11.3281 28.5446C11.3281 28.8868 11.5952 29.1643 11.9247 29.1643H14.9842C15.3137 29.1643 15.5808 28.8868 15.5808 28.5446C15.5808 28.2023 15.3137 27.9248 14.9842 27.9248Z" fill="#0A7D50"/>
<path d="M21.2928 27.9248H18.2333C17.9038 27.9248 17.6367 28.2023 17.6367 28.5446C17.6367 28.8868 17.9038 29.1643 18.2333 29.1643H21.2928C21.6223 29.1643 21.8894 28.8868 21.8894 28.5446C21.8894 28.2023 21.6223 27.9248 21.2928 27.9248Z" fill="#0A7D50"/>
<path d="M27.5955 27.9248H24.536C24.2066 27.9248 23.9395 28.2023 23.9395 28.5446C23.9395 28.8868 24.2066 29.1643 24.536 29.1643H27.5955C27.925 29.1643 28.1921 28.8868 28.1921 28.5446C28.1921 28.2023 27.925 27.9248 27.5955 27.9248Z" fill="#0A7D50"/>
</svg>
