<svg width="47" height="27" viewBox="0 0 47 27" fill="none" xmlns="http://www.w3.org/2000/svg">
<path d="M7.84822 4.43262H34.6601C35.3865 4.43262 36.0831 4.71552 36.5968 5.2191C37.1104 5.72267 37.399 6.40567 37.399 7.11783V11.9633H5.10938V7.11783C5.10938 6.40567 5.39793 5.72267 5.91157 5.2191C6.4252 4.71552 7.12184 4.43262 7.84822 4.43262Z" fill="#00EF64"/>
<path d="M5.10938 14.293H37.3948V22.813C37.3948 23.6301 37.0638 24.4137 36.4744 24.9915C35.8851 25.5693 35.0858 25.8939 34.2524 25.8939H8.25184C7.41841 25.8939 6.61911 25.5693 6.02978 24.9915C5.44046 24.4137 5.10938 23.6301 5.10938 22.813V14.293Z" fill="#00EF64"/>
<path d="M27.1798 8.58332C27.1985 7.06032 27.6768 5.57685 28.5543 4.31999C29.4318 3.06312 30.6692 2.08913 32.1106 1.52083C33.5519 0.952531 35.1326 0.815373 36.6533 1.12665C38.1741 1.43793 39.5668 2.18371 40.6558 3.26994C41.7448 4.35617 42.4814 5.73422 42.7726 7.23032C43.0639 8.72642 42.8968 10.2736 42.2924 11.6767C41.6881 13.0798 40.6735 14.2761 39.3766 15.1146C38.0797 15.9532 36.5586 16.3965 35.0051 16.3886C32.9142 16.3631 30.9184 15.5283 29.4526 14.0662C27.9868 12.6042 27.1698 10.6334 27.1798 8.58332Z" fill="#0A7D50"/>
<path d="M30.9357 5.5029L37.3144 4.13737C37.661 4.06318 38.0228 4.12997 38.3203 4.32307C38.6177 4.51616 38.8264 4.81973 38.9004 5.167L39.0776 5.99792L30.0872 7.92253L29.9096 7.08964C29.8363 6.74294 29.9031 6.38123 30.0954 6.0838C30.2877 5.78636 30.5899 5.57747 30.9357 5.5029Z" fill="#E1E1E1"/>
<path d="M30.2285 8.58789L39.2189 6.66328L39.6026 8.46295C39.6876 8.8614 39.6111 9.27734 39.39 9.61928C39.1689 9.96122 38.8213 10.2011 38.4236 10.2863L32.4339 11.5685C32.237 11.6107 32.0338 11.6135 31.8358 11.577C31.6378 11.5404 31.4489 11.4651 31.2799 11.3554C31.1109 11.2457 30.9652 11.1038 30.8509 10.9376C30.7367 10.7715 30.6563 10.5844 30.6142 10.3871L30.2305 8.58747L30.2285 8.58789Z" fill="#444444"/>
<path d="M31.5569 6.58984H38.0796C38.434 6.58984 38.7739 6.73091 39.0245 6.98201C39.2751 7.23311 39.4159 7.57367 39.4159 7.92878V8.77845H30.2227V7.92677C30.2232 7.57236 30.3639 7.23261 30.614 6.98201C30.8642 6.7314 31.2032 6.59038 31.5569 6.58984Z" fill="white"/>
<path d="M30.2227 9.46094H39.4139V11.3012C39.4134 11.7069 39.2527 12.0959 38.967 12.3834C38.6813 12.6708 38.2936 12.8333 37.8887 12.8355H31.7559C31.3492 12.8355 30.9593 12.6736 30.6717 12.3855C30.3842 12.0974 30.2227 11.7066 30.2227 11.2992V9.46094Z" fill="white"/>
<rect x="8.17383" y="19.2861" width="13.0228" height="2.25" rx="1.125" fill="white"/>
</svg>
