<svg width="80" height="80" viewBox="0 0 80 80" fill="none" xmlns="http://www.w3.org/2000/svg">
<path d="M30.8111 43.4302C28.7473 43.4302 26.7684 43.4498 24.7895 43.4171C24.3062 43.4106 23.7772 43.3257 23.3461 43.1232C22.4644 42.7117 22.053 41.9411 22.1379 40.9745C22.5036 36.6248 22.8955 32.2751 23.2612 27.9254C23.5878 24.0786 23.9013 20.2252 24.2147 16.3719C24.2801 15.5751 24.3062 14.7718 24.3846 13.9685C24.4956 12.7863 25.534 11.9177 26.8533 11.9177C30.5695 11.9112 34.2857 11.9177 38.0019 11.9177C41.3392 11.9177 44.6832 11.9177 48.0205 11.9177C50.0256 11.9177 51.051 13.348 50.3979 15.2355C49.0002 19.2782 47.6026 23.321 46.1657 27.4747C46.4923 27.4878 46.747 27.5139 47.0082 27.5139C49.4182 27.5139 51.8282 27.5139 54.2381 27.5205C54.6626 27.5205 55.1068 27.54 55.4986 27.6772C56.9159 28.1736 57.4645 29.7737 56.622 31.0538C54.7933 33.8425 52.9254 36.6117 51.0771 39.3874C45.1469 48.2828 39.2232 57.1716 33.2929 66.0669C33.1231 66.3151 32.9664 66.5763 32.7705 66.7984C32.0847 67.5886 31.0005 67.8499 30.1058 67.4515C29.2045 67.0466 28.6755 66.0081 28.7734 64.9762C29.1196 61.3841 29.4461 57.7855 29.7858 54.1869C30.1188 50.6405 30.4585 47.1006 30.8046 43.4171L30.8111 43.4302ZM28.7604 16.4829C28.1269 23.9806 27.5064 31.3934 26.8729 38.8911C27.2125 38.8911 27.4542 38.8911 27.7023 38.8911C29.5376 38.8911 31.3663 38.878 33.2015 38.8911C34.6057 38.9041 35.6637 39.9556 35.5462 41.2684C35.2131 45.0433 34.8473 48.8118 34.5012 52.5802C34.3836 53.8342 34.2791 55.0947 34.1616 56.3486C34.2073 56.3617 34.2465 56.3813 34.2922 56.3944C39.6738 48.3219 45.0554 40.2495 50.5089 32.0726C47.9552 32.0726 45.5714 32.0465 43.1875 32.0791C41.5809 32.1053 40.2094 30.5052 40.8821 28.8332C41.7834 26.58 42.4887 24.2549 43.279 21.956C43.906 20.1403 44.5329 18.3247 45.1665 16.4699H28.7604V16.4829Z" fill="#235065"/>
<path d="M28.7605 16.4829H45.1666C44.5266 18.3377 43.8996 20.1534 43.2791 21.969C42.4889 24.2614 41.7835 26.593 40.8822 28.8462C40.2095 30.5182 41.581 32.1118 43.1877 32.0922C45.5715 32.0595 47.9554 32.0857 50.509 32.0857C45.0556 40.2626 39.674 48.335 34.2924 56.4074C34.2466 56.3944 34.2075 56.3748 34.1617 56.3617C34.2728 55.1077 34.3838 53.8472 34.5014 52.5933C34.854 48.8248 35.2198 45.0564 35.5463 41.2814C35.6639 39.9687 34.6058 38.9172 33.2017 38.9041C31.3664 38.8845 29.5377 38.9041 27.7025 38.9041C27.4608 38.9041 27.2127 38.9041 26.873 38.9041C27.5066 31.4064 28.127 23.9937 28.7605 16.496V16.4829Z" fill="#53C2B7"/>
</svg>
