<svg width="134" height="134" viewBox="0 0 134 134" fill="none" xmlns="http://www.w3.org/2000/svg">
<rect width="134" height="134" fill="white"/>
<path d="M40.1059 88.3874C43.7538 85.5978 47.8309 83.3984 52.3372 81.789C56.8434 80.1796 61.5643 79.3749 66.4997 79.3749C71.4351 79.3749 76.1559 80.1796 80.6622 81.789C85.1684 83.3984 89.2455 85.5978 92.8934 88.3874C95.3969 85.4548 97.346 82.1287 98.7408 78.4093C100.136 74.6898 100.833 70.7201 100.833 66.4999C100.833 56.9867 97.4891 48.8862 90.8012 42.1984C84.1134 35.5105 76.0129 32.1666 66.4997 32.1666C56.9865 32.1666 48.886 35.5105 42.1981 42.1984C35.5103 48.8862 32.1663 56.9867 32.1663 66.4999C32.1663 70.7201 32.8637 74.6898 34.2585 78.4093C35.6533 82.1287 37.6025 85.4548 40.1059 88.3874ZM66.4997 70.7916C62.2795 70.7916 58.721 69.3431 55.8242 66.4463C52.9273 63.5494 51.4788 59.9909 51.4788 55.7708C51.4788 51.5506 52.9273 47.9921 55.8242 45.0952C58.721 42.1984 62.2795 40.7499 66.4997 40.7499C70.7198 40.7499 74.2783 42.1984 77.1752 45.0952C80.0721 47.9921 81.5205 51.5506 81.5205 55.7708C81.5205 59.9909 80.0721 63.5494 77.1752 66.4463C74.2783 69.3431 70.7198 70.7916 66.4997 70.7916ZM66.4997 109.417C60.5629 109.417 54.9837 108.29 49.7622 106.037C44.5406 103.784 39.9986 100.726 36.1361 96.8635C32.2736 93.001 29.2158 88.4589 26.9627 83.2374C24.7096 78.0159 23.583 72.4367 23.583 66.4999C23.583 60.5631 24.7096 54.9839 26.9627 49.7624C29.2158 44.5409 32.2736 39.9989 36.1361 36.1364C39.9986 32.2739 44.5406 29.2161 49.7622 26.9629C54.9837 24.7098 60.5629 23.5833 66.4997 23.5833C72.4365 23.5833 78.0156 24.7098 83.2372 26.9629C88.4587 29.2161 93.0007 32.2739 96.8632 36.1364C100.726 39.9989 103.784 44.5409 106.037 49.7624C108.29 54.9839 109.416 60.5631 109.416 66.4999C109.416 72.4367 108.29 78.0159 106.037 83.2374C103.784 88.4589 100.726 93.001 96.8632 96.8635C93.0007 100.726 88.4587 103.784 83.2372 106.037C78.0156 108.29 72.4365 109.417 66.4997 109.417Z" fill="#989898"/>
</svg>
