<svg width="80" height="80" viewBox="0 0 80 80" fill="none" xmlns="http://www.w3.org/2000/svg">
<path d="M12.7656 50.6615C12.7656 49.7875 12.7656 48.9135 12.7656 48.0454C12.8006 47.9464 12.8472 47.8531 12.8588 47.7541C13.3075 44.1417 14.9622 41.1993 17.7705 38.8921C18.0735 38.6473 18.3823 38.4143 18.7028 38.1638C18.5804 38.0647 18.4988 38.0006 18.4114 37.9423C15.8245 36.0837 14.0941 33.625 13.2376 30.5602C13.0336 29.8086 12.9229 29.0337 12.7656 28.2646C12.7656 27.3907 12.7656 26.5225 12.7656 25.6486C12.8006 25.5553 12.853 25.4621 12.8647 25.3631C13.5114 20.0202 17.3277 15.5688 22.5249 14.1238C23.2707 13.9199 24.0398 13.7859 24.7972 13.6169C34.6323 13.6169 44.4673 13.6169 54.3023 13.6169C54.7277 13.6985 55.153 13.7626 55.5667 13.8617C60.5599 15.0153 64.0442 17.9693 65.6464 22.8344C67.2312 27.6587 66.2291 32.0751 62.9138 35.9439C62.5235 36.3983 62.0748 36.8062 61.6437 37.249C61.8126 37.4471 61.9758 37.6335 62.1331 37.82C65.763 42.2597 67.0914 47.3229 65.9611 52.928C64.3996 60.6655 58.1128 66.2822 50.1947 67.092C45.2772 67.5931 40.9073 66.1831 37.0561 63.0893C36.8114 62.8912 36.4443 62.7513 36.1297 62.7455C32.9193 62.7222 29.7148 62.7397 26.5044 62.7222C25.7761 62.7222 25.0419 62.6814 24.3195 62.5824C18.8776 61.8424 14.5019 57.9212 13.156 52.5784C13.0045 51.9549 12.8996 51.3024 12.7656 50.6615ZM39.5964 18.1033C35.2207 18.1033 30.8451 18.1033 26.4694 18.1033C25.9159 18.1033 25.3566 18.1324 24.8031 18.2082C19.8622 18.8666 16.3547 23.889 17.4151 28.7657C18.3474 33.0481 21.8607 35.9031 26.2364 35.9206C29.5108 35.9322 32.7911 35.9206 36.0656 35.9322C36.4967 35.9322 36.8172 35.8157 37.1435 35.5419C39.9751 33.1996 43.2379 31.8537 46.8853 31.5391C50.7773 31.2012 54.4305 32.0343 57.7749 34.0852C58.0196 34.2367 58.1886 34.2426 58.4158 34.0561C61.1892 31.7488 62.3487 28.8007 61.6611 25.2698C60.8221 20.9466 57.233 18.115 52.8166 18.1033C48.406 18.0975 43.9954 18.1033 39.5847 18.1033H39.5964ZM32.9484 40.4244C32.8377 40.4186 32.7562 40.4069 32.6746 40.4069C30.4431 40.4069 28.2115 40.3895 25.98 40.4244C25.3274 40.4361 24.6574 40.5351 24.0223 40.6924C19.4136 41.8461 16.5528 46.2683 17.3802 50.947C18.0735 54.8973 21.5169 58.0203 25.5139 58.2009C27.9144 58.3058 30.3207 58.2417 32.727 58.2533C32.7911 58.2533 32.8552 58.2242 32.9251 58.2009C29.8313 52.2696 29.8371 46.3616 32.9484 40.4244ZM50.7074 45.1846C50.7074 44.3281 50.7366 43.4775 50.7016 42.6268C50.6492 41.3333 49.6761 40.3953 48.4642 40.4069C47.229 40.4244 46.2677 41.4149 46.256 42.72C46.2444 44.8991 46.2444 47.0724 46.256 49.2515C46.256 50.1138 46.6289 50.8013 47.3689 51.2558C49.2159 52.3744 51.0687 53.4815 52.9215 54.5827C53.5041 54.9323 54.1392 54.9963 54.7801 54.7749C55.6774 54.4661 56.1843 53.8019 56.2775 52.8813C56.3649 52.0016 56.0037 51.2733 55.2404 50.8013C53.8479 49.939 52.4379 49.1175 51.0454 48.2552C50.8822 48.1503 50.7307 47.8881 50.7249 47.69C50.6899 46.8568 50.7074 46.0178 50.7074 45.1846Z" fill="#53C2B7"/>
<path d="M44.012 29.2496C40.4404 29.2496 36.863 29.2496 33.2913 29.2496C32.9418 29.2496 32.5863 29.2496 32.2542 29.1622C31.2288 28.9058 30.5471 27.9095 30.6345 26.8374C30.7161 25.7537 31.5201 24.9205 32.598 24.7982C32.7903 24.7749 32.9825 24.769 33.169 24.769C40.4054 24.769 47.636 24.769 54.8725 24.769C56.2592 24.769 57.1098 25.3925 57.372 26.5869C57.6342 27.7755 56.7719 29.0282 55.5658 29.203C55.292 29.2438 55.0123 29.2496 54.7327 29.2496C51.161 29.2496 47.5836 29.2496 44.012 29.2496Z" fill="#53C2B7"/>
<path d="M26.1545 27.0295C26.1486 28.2589 25.1581 29.2435 23.9288 29.2435C22.6877 29.2435 21.6623 28.2181 21.6739 26.9887C21.6856 25.7768 22.6936 24.7805 23.9171 24.7747C25.1698 24.7747 26.1603 25.771 26.1545 27.0295Z" fill="#53C2B7"/>
<path d="M23.9637 47.1018C25.1931 47.1135 26.1603 48.104 26.1545 49.345C26.1545 50.5918 25.1174 51.6115 23.8822 51.5823C22.6703 51.5532 21.6623 50.5219 21.6739 49.3217C21.6798 48.0806 22.6994 47.096 23.9637 47.1076V47.1018Z" fill="#53C2B7"/>
</svg>
