<svg width="331" height="47" viewBox="0 0 331 47" fill="none" xmlns="http://www.w3.org/2000/svg">
<g clip-path="url(#clip0_895_218)">
<path d="M283.142 41.1706L274.507 19.9904H281.112L286.682 34.8726H285.689L291.215 19.9904H295.533L301.016 34.8726H300.195L305.635 19.9904H311.895L303.347 41.1706H297.821L291.733 25.4688H294.54L288.625 41.1706H283.142Z" fill="#1E1E1E"/>
<path d="M262.412 41.6451C260.138 41.6451 258.152 41.1993 256.454 40.3079C254.784 39.4164 253.489 38.1366 252.568 36.4687C251.647 34.8007 251.187 32.8308 251.187 30.5589C251.187 28.287 251.647 26.3315 252.568 24.6923C253.489 23.0531 254.784 21.7877 256.454 20.8962C258.152 20.0047 260.138 19.559 262.412 19.559C264.686 19.559 266.657 20.0047 268.327 20.8962C270.025 21.7877 271.334 23.0674 272.255 24.7354C273.205 26.3746 273.68 28.3158 273.68 30.5589C273.68 32.8308 273.205 34.8007 272.255 36.4687C271.334 38.1366 270.025 39.4164 268.327 40.3079C266.657 41.1993 264.686 41.6451 262.412 41.6451ZM262.412 36.7706C263.822 36.7706 264.959 36.2674 265.822 35.2608C266.686 34.2255 267.118 32.6582 267.118 30.5589C267.118 28.4596 266.686 26.921 265.822 25.9432C264.959 24.9367 263.822 24.4334 262.412 24.4334C261.03 24.4334 259.908 24.9367 259.044 25.9432C258.181 26.921 257.749 28.4596 257.749 30.5589C257.749 32.6582 258.181 34.2255 259.044 35.2608C259.908 36.2674 261.03 36.7706 262.412 36.7706Z" fill="#1E1E1E"/>
<path d="M245.957 41.6451C243.223 41.6451 241.223 40.9405 239.956 39.5314C238.69 38.0935 238.057 35.9654 238.057 33.1471V10.759H244.576V32.8883C244.576 33.6073 244.691 34.2399 244.921 34.7863C245.152 35.304 245.483 35.6922 245.914 35.951C246.375 36.2099 246.95 36.3393 247.641 36.3393C247.929 36.3393 248.231 36.3249 248.548 36.2961C248.865 36.2674 249.167 36.2099 249.455 36.1236L249.368 41.1706C248.821 41.3144 248.26 41.4294 247.684 41.5157C247.138 41.602 246.562 41.6451 245.957 41.6451Z" fill="#1E1E1E"/>
<path d="M213.995 41.1706V10.759H234.546V15.9786H220.687V23.3982H233.596V28.6177H220.687V41.1706H213.995Z" fill="#1E1E1E"/>
<path d="M200.749 41.6451C198.245 41.6451 196.086 41.1993 194.273 40.3079C192.488 39.3876 191.106 38.1079 190.128 36.4687C189.178 34.8007 188.703 32.8452 188.703 30.602C188.703 28.4164 189.164 26.504 190.085 24.8648C191.006 23.1968 192.287 21.9027 193.927 20.9825C195.597 20.0335 197.482 19.559 199.583 19.559C201.655 19.559 203.44 20.0047 204.937 20.8962C206.433 21.7589 207.585 22.9955 208.39 24.606C209.225 26.2164 209.642 28.1288 209.642 30.3432V31.9824H194.057V28.6177H204.937L204.246 29.2216C204.246 27.4674 203.857 26.1445 203.08 25.253C202.332 24.3328 201.252 23.8727 199.842 23.8727C198.777 23.8727 197.87 24.1171 197.122 24.606C196.374 25.0949 195.798 25.7994 195.395 26.7197C194.992 27.64 194.791 28.7471 194.791 30.0412V30.3863C194.791 31.853 195.007 33.0608 195.438 34.0099C195.899 34.9301 196.575 35.6203 197.467 36.0804C198.388 36.5406 199.525 36.7706 200.878 36.7706C202.029 36.7706 203.195 36.5981 204.375 36.253C205.555 35.9079 206.62 35.3759 207.57 34.6569L209.297 39.0137C208.232 39.819 206.923 40.466 205.368 40.9549C203.843 41.415 202.303 41.6451 200.749 41.6451Z" fill="#1E1E1E"/>
<path d="M177.053 41.6451C174.549 41.6451 172.391 41.1993 170.577 40.3079C168.793 39.3876 167.411 38.1079 166.433 36.4687C165.483 34.8007 165.008 32.8452 165.008 30.602C165.008 28.4164 165.468 26.504 166.389 24.8648C167.31 23.1968 168.591 21.9027 170.232 20.9825C171.901 20.0335 173.787 19.559 175.888 19.559C177.96 19.559 179.745 20.0047 181.241 20.8962C182.738 21.7589 183.889 22.9955 184.695 24.606C185.53 26.2164 185.947 28.1288 185.947 30.3432V31.9824H170.361V28.6177H181.241L180.55 29.2216C180.55 27.4674 180.162 26.1445 179.385 25.253C178.636 24.3328 177.557 23.8727 176.147 23.8727C175.082 23.8727 174.175 24.1171 173.427 24.606C172.678 25.0949 172.103 25.7994 171.7 26.7197C171.297 27.64 171.095 28.7471 171.095 30.0412V30.3863C171.095 31.853 171.311 33.0608 171.743 34.0099C172.203 34.9301 172.88 35.6203 173.772 36.0804C174.693 36.5406 175.83 36.7706 177.183 36.7706C178.334 36.7706 179.5 36.5981 180.68 36.253C181.86 35.9079 182.925 35.3759 183.875 34.6569L185.602 39.0137C184.537 39.819 183.227 40.466 181.673 40.9549C180.147 41.415 178.608 41.6451 177.053 41.6451Z" fill="#1E1E1E"/>
<path d="M139.692 48.9353V19.9903H146.082V24.1746H145.65C146.082 22.7942 146.946 21.6871 148.241 20.8531C149.565 19.9903 151.076 19.559 152.774 19.559C154.616 19.559 156.228 20.0047 157.61 20.8962C159.02 21.7877 160.114 23.0531 160.891 24.6923C161.668 26.3315 162.056 28.287 162.056 30.5589C162.056 32.8308 161.668 34.8007 160.891 36.4687C160.114 38.1366 159.034 39.4164 157.653 40.3079C156.271 41.1993 154.645 41.6451 152.774 41.6451C151.105 41.6451 149.622 41.2425 148.327 40.4373C147.032 39.6033 146.154 38.5249 145.694 37.202H146.212V48.9353H139.692ZM150.831 36.7706C152.213 36.7706 153.335 36.2674 154.199 35.2608C155.062 34.2255 155.494 32.6582 155.494 30.5589C155.494 28.4596 155.062 26.921 154.199 25.9432C153.335 24.9367 152.213 24.4334 150.831 24.4334C149.421 24.4334 148.284 24.9367 147.421 25.9432C146.557 26.921 146.125 28.4596 146.125 30.5589C146.125 32.6582 146.557 34.2255 147.421 35.2608C148.284 36.2674 149.421 36.7706 150.831 36.7706Z" fill="#1E1E1E"/>
<path d="M122.041 41.6451C120.257 41.6451 118.775 41.3144 117.595 40.653C116.414 39.9915 115.537 38.9994 114.961 37.6765C114.414 36.3249 114.141 34.6569 114.141 32.6726V19.9904H120.66V32.8452C120.66 33.6792 120.775 34.3837 121.005 34.9589C121.236 35.5053 121.581 35.9223 122.041 36.2099C122.531 36.4687 123.15 36.5981 123.898 36.5981C124.733 36.5981 125.467 36.4112 126.1 36.0373C126.733 35.6347 127.222 35.0739 127.568 34.355C127.942 33.636 128.129 32.7877 128.129 31.8099V19.9904H134.648V41.1706H128.302V37.0295H128.949C128.316 38.4961 127.409 39.6321 126.229 40.4373C125.049 41.2425 123.653 41.6451 122.041 41.6451Z" fill="#1E1E1E"/>
<path d="M84.7266 41.1706V10.759H98.6286C102.025 10.759 104.644 11.5786 106.486 13.2178C108.328 14.857 109.249 17.1433 109.249 20.0766C109.249 21.9747 108.832 23.6139 107.997 24.9942C107.163 26.3746 105.954 27.4387 104.371 28.1864C102.816 28.9341 100.902 29.3079 98.6286 29.3079L98.974 28.5746H100.744C101.953 28.5746 103.004 28.8766 103.896 29.4805C104.817 30.0556 105.608 30.9471 106.27 32.155L111.192 41.1706H103.809L98.5422 31.4648C98.2544 30.9471 97.9234 30.5445 97.5492 30.257C97.175 29.9406 96.7433 29.7249 96.254 29.6099C95.7935 29.4661 95.2754 29.3942 94.6997 29.3942H91.4185V41.1706H84.7266ZM91.4185 24.5629H97.4197C99.2042 24.5629 100.543 24.2034 101.435 23.4844C102.356 22.7655 102.816 21.6871 102.816 20.2492C102.816 18.84 102.356 17.776 101.435 17.057C100.543 16.3381 99.2042 15.9786 97.4197 15.9786H91.4185V24.5629Z" fill="#1E1E1E"/>
<mask id="mask0_895_218" style="mask-type:alpha" maskUnits="userSpaceOnUse" x="6" y="1" width="69" height="45">
<path d="M17.9199 44.7299V30.9212C17.9199 30.512 17.5945 30.1802 17.193 30.1802H6.95694C6.55545 30.1802 6.22998 30.512 6.22998 30.9212V44.7299C6.22998 45.1391 6.55545 45.4709 6.95694 45.4709H17.193C17.5945 45.4709 17.9199 45.1391 17.9199 44.7299Z" fill="#5BCEA6"/>
<path d="M44.4833 5.46207L34.8345 11.2614C32.0181 12.9539 28.8082 13.8466 25.5387 13.8464H6.7363C6.66952 13.8465 6.60342 13.8328 6.54191 13.8063C6.4804 13.7798 6.42473 13.741 6.37822 13.6922C6.3317 13.6434 6.29528 13.5855 6.27111 13.522C6.24695 13.4586 6.23553 13.3908 6.23753 13.3228C6.3702 10.2558 7.65909 7.35932 9.83552 5.23711C12.012 3.1149 14.908 1.93072 17.92 1.93141H37.1289C39.834 1.92698 42.4561 2.88331 44.5444 4.63596C44.6055 4.6878 44.6536 4.7538 44.6847 4.82845C44.7157 4.90309 44.7288 4.98423 44.7228 5.06508C44.7169 5.14593 44.692 5.22415 44.6503 5.29321C44.6086 5.36227 44.5514 5.42017 44.4833 5.46207Z" fill="#5BCEA6"/>
<path d="M40.7018 44.8393L23.8396 30.8831C23.7768 30.8314 23.7313 30.7611 23.7096 30.6818C23.6879 30.6026 23.691 30.5184 23.7184 30.4411C23.7459 30.3637 23.7963 30.297 23.8628 30.2502C23.9292 30.2035 24.0083 30.179 24.089 30.1803H37.0421C37.6783 30.1813 38.2948 30.4057 38.7877 30.8158L55.6512 44.7681C55.714 44.8197 55.7594 44.8901 55.7812 44.9693C55.8029 45.0486 55.7998 45.1328 55.7723 45.2101C55.7449 45.2875 55.6944 45.3542 55.628 45.401C55.5616 45.4477 55.4825 45.4722 55.4018 45.4709H42.4487C41.8125 45.4712 41.1956 45.2482 40.7018 44.8393Z" fill="#5BCEA6"/>
<path d="M73.2119 12.7464L62.2851 19.2676C62.0199 19.4261 61.7183 19.5103 61.4109 19.5119C61.1034 19.5134 60.801 19.4322 60.5343 19.2764C60.2676 19.1206 60.0459 18.8958 59.8918 18.6246C59.7377 18.3535 59.6565 18.0457 59.6566 17.7323V15.7522H55.6963C53.9624 15.7521 52.259 16.2172 50.7573 17.1007L49.6063 17.7781L37.2443 25.0529C35.6141 26.012 33.7648 26.5166 31.8825 26.5158H7.12977C6.891 26.5158 6.66201 26.4191 6.49318 26.247C6.32434 26.0749 6.22949 25.8415 6.22949 25.5981V18.6957C6.22949 18.4523 6.32434 18.2189 6.49318 18.0468C6.66201 17.8748 6.891 17.7781 7.12977 17.7781H29.5894C31.4717 17.7789 33.321 17.2744 34.9512 16.3152L46.5601 9.48141L48.4579 8.36425C49.9597 7.48078 51.6631 7.01572 53.397 7.01579H59.6566V4.68871C59.6565 4.37535 59.7377 4.06754 59.8918 3.79641C60.0459 3.52528 60.2676 3.30044 60.5343 3.14464C60.801 2.98884 61.1034 2.9076 61.4109 2.90914C61.7183 2.91068 62.0199 2.99495 62.2851 3.15342L73.2119 9.67459C73.475 9.83142 73.6932 10.0557 73.8449 10.3252C73.9965 10.5946 74.0763 10.8999 74.0763 11.2105C74.0763 11.5212 73.9965 11.8264 73.8449 12.0959C73.6932 12.3653 73.475 12.5896 73.2119 12.7464Z" fill="#5BCEA6"/>
</mask>
<g mask="url(#mask0_895_218)">
<rect x="-6" y="-5" width="86" height="68" fill="url(#paint0_linear_895_218)"/>
</g>
</g>
<defs>
<linearGradient id="paint0_linear_895_218" x1="-19.7821" y1="29.2138" x2="88.4221" y2="25.8518" gradientUnits="userSpaceOnUse">
<stop stop-color="#054C38"/>
<stop offset="1" stop-color="#2AB871"/>
</linearGradient>
<clipPath id="clip0_895_218">
<rect width="331" height="47" fill="white"/>
</clipPath>
</defs>
</svg>
