<svg width="80" height="80" viewBox="0 0 80 80" fill="none" xmlns="http://www.w3.org/2000/svg">
<path d="M64.6761 39.6637C64.6761 49.4541 57.6375 57.8222 47.8764 59.4596C41.6834 60.5008 36.1846 58.8584 31.3895 54.8161C30.715 54.2442 30.5293 53.4671 30.8567 52.7388C31.1647 52.0496 31.8783 51.6097 32.6457 51.7514C33.027 51.8198 33.4229 52.0349 33.7211 52.2891C36.1503 54.3322 38.912 55.6764 42.0549 56.1016C47.8031 56.8788 52.7887 55.2218 56.7479 50.9596C65.3066 41.7361 60.9271 26.7645 48.7416 23.6167C43.3404 22.2187 38.3939 23.3772 34.0046 26.8525C33.6086 27.1653 33.1541 27.483 32.6799 27.6052C31.9467 27.7958 31.1891 27.3315 30.8714 26.657C30.5439 25.9629 30.715 25.1564 31.326 24.6089C32.9292 23.1768 34.7084 21.9988 36.7076 21.2216C44.3425 18.24 51.4104 19.2811 57.706 24.5454C61.67 27.8594 63.894 32.2194 64.505 37.3663C64.5979 38.1289 64.6223 38.9011 64.681 39.6685L64.6761 39.6637Z" fill="#53C2B7"/>
<path d="M41.922 34.1305C41.922 32.6593 41.922 31.1929 41.922 29.7217C41.922 28.6317 42.6454 27.8594 43.6475 27.8594C44.6446 27.8594 45.3631 28.6268 45.3631 29.7217C45.368 32.3367 45.3582 34.9517 45.3778 37.5716C45.3778 37.8356 45.5146 38.1631 45.7004 38.3537C47.8266 40.5093 49.9675 42.6502 52.1182 44.7862C52.6559 45.3189 52.8367 45.9446 52.6168 46.6485C52.4212 47.2741 51.9569 47.6602 51.3117 47.7971C50.7251 47.9242 50.1972 47.7531 49.7818 47.3376C47.3183 44.8839 44.845 42.44 42.4206 39.9471C42.1224 39.6392 41.9514 39.0869 41.9367 38.6421C41.878 37.1415 41.9123 35.6311 41.9123 34.1257L41.922 34.1305Z" fill="#53C2B7"/>
<path d="M23.9046 33.3878C21.6806 33.3878 19.4615 33.3927 17.2375 33.3878C16.0351 33.3829 15.2628 32.6302 15.3215 31.5598C15.3752 30.6017 16.1231 29.9272 17.1642 29.9223C19.3344 29.9125 21.4998 29.9223 23.67 29.9223C26.0162 29.9223 28.3673 29.9174 30.7135 29.9223C31.5688 29.9223 32.2238 30.4111 32.4536 31.1785C32.6686 31.8824 32.434 32.6791 31.7839 33.0555C31.4173 33.2656 30.9432 33.3732 30.518 33.3781C28.3135 33.4074 26.1091 33.3927 23.9046 33.3927V33.3878Z" fill="#53C2B7"/>
<path d="M28.5137 45.9836C30.7377 45.9836 32.9568 45.9836 35.1808 45.9836C36.1926 45.9836 36.9014 46.4969 37.0724 47.318C37.2973 48.4032 36.5592 49.3758 35.4399 49.4443C35.1026 49.4638 34.7605 49.4492 34.4183 49.4492C30.205 49.4492 25.9965 49.4492 21.7831 49.4492C20.4536 49.4492 19.5836 48.3249 19.999 47.1567C20.2239 46.5164 20.6784 46.1156 21.3676 46.0227C21.5974 45.9934 21.832 45.9885 22.0666 45.9885C24.2173 45.9885 26.368 45.9885 28.5186 45.9885L28.5137 45.9836Z" fill="#53C2B7"/>
<path d="M26.2161 41.404C23.9774 41.404 21.7339 41.404 19.4952 41.404C18.3661 41.404 17.6036 40.6952 17.6134 39.659C17.6231 38.657 18.3808 37.9678 19.4903 37.9678C23.9725 37.9678 28.4498 37.9678 32.932 37.9678C34.0563 37.9678 34.8237 38.6814 34.8139 39.7128C34.8041 40.7099 34.0367 41.404 32.932 41.404C30.6934 41.404 28.4498 41.404 26.2112 41.404H26.2161Z" fill="#53C2B7"/>
</svg>
