<svg width="80" height="80" viewBox="0 0 80 80" fill="none" xmlns="http://www.w3.org/2000/svg">
<path d="M6.80859 31.6757C7.25094 30.5858 8.07153 30.1948 9.23189 30.2204C11.6808 30.2653 14.1362 30.2332 16.5851 30.2332C18.1814 30.2332 18.8802 30.932 18.8802 32.5283C18.8802 39.1251 18.8802 45.7154 18.8802 52.3122C18.8802 53.8893 18.1558 54.6073 16.5723 54.6137C14.1426 54.6137 11.7129 54.588 9.28318 54.6265C8.11 54.6457 7.25094 54.2675 6.815 53.1392V31.6757H6.80859Z" fill="#53C2B7"/>
<path d="M72.3406 53.1392C71.9047 54.2739 71.0456 54.6457 69.8724 54.6265C67.4427 54.588 65.013 54.6201 62.5833 54.6137C60.9998 54.6137 60.2754 53.8893 60.2754 52.3122C60.2754 45.7154 60.2754 39.1251 60.2754 32.5283C60.2754 30.932 60.9742 30.2332 62.5705 30.2332C65.0194 30.2332 67.4748 30.2653 69.9237 30.2204C71.0841 30.1948 71.9047 30.5858 72.3406 31.6757V53.1392Z" fill="#53C2B7"/>
<path d="M38.6769 73.0706C37.9846 72.8142 37.2473 72.6347 36.6062 72.2821C34.3368 71.032 33.1316 68.4035 33.6316 65.961C34.1637 63.3646 36.2665 61.3516 38.7218 61.0823C41.4785 60.7746 43.9338 62.1017 45.0429 64.5442C45.2481 65.0058 45.4789 65.1532 45.9789 65.1532C48.2483 65.166 50.4921 65.0699 52.6205 64.1467C55.4926 62.903 57.621 60.8836 59.0121 58.0885C59.0763 57.9538 59.1404 57.8256 59.1468 57.8064C60.4418 58.0692 61.6919 58.3193 62.9997 58.5821C62.8715 58.8834 62.7304 59.2809 62.5381 59.6527C59.4417 65.6084 54.5502 68.7497 47.8124 68.9741C47.1072 68.9997 46.402 68.9549 45.7032 68.9933C45.5237 68.9997 45.2545 69.1472 45.184 69.3075C44.2928 71.2884 42.8055 72.5257 40.6707 72.9873C40.6387 72.9937 40.613 73.045 40.5874 73.077H38.6705L38.6769 73.0706Z" fill="#53C2B7"/>
<path d="M19.477 26.8099C18.2718 26.6432 17.0409 26.4701 15.8164 26.297C17.5473 17.4629 26.7533 7.34655 40.2161 7.66709C52.9352 7.9684 61.6539 17.7193 63.3592 26.4573C62.7053 26.4573 62.0642 26.3932 61.436 26.4765C60.8334 26.5534 60.25 26.7778 59.7115 26.9189C56.4163 17.3795 49.9285 11.629 39.6712 11.5969C29.3305 11.5585 22.7786 17.309 19.477 26.8099Z" fill="#53C2B7"/>
<path d="M39.5873 57.8065C49.6781 57.8065 57.8582 49.6263 57.8582 39.5356C57.8582 29.4448 49.6781 21.2646 39.5873 21.2646C29.4966 21.2646 21.3164 29.4448 21.3164 39.5356C21.3164 49.6263 29.4966 57.8065 39.5873 57.8065Z" fill="#235065"/>
<path d="M33.8296 42.7281C33.9322 42.7281 34.0283 42.7281 34.1309 42.7281C35.1054 42.7281 36.0862 42.7281 37.0607 42.7281C37.5543 42.7281 37.9261 43.1 37.9325 43.5616C37.9325 44.0231 37.5928 44.4014 37.112 44.4014C35.6054 44.4142 34.0989 44.4142 32.5859 44.4014C32.073 44.4014 31.7333 43.9911 31.7589 43.4782C31.8038 42.664 32.1115 41.9717 32.6885 41.3947C33.8104 40.2792 34.9259 39.1573 36.0478 38.0482C36.2144 37.888 36.2657 37.7341 36.2208 37.5097C36.0734 36.7789 35.4772 36.3109 34.7143 36.3558C34.0476 36.3942 33.5027 36.9648 33.4514 37.6572C33.4065 38.3431 32.8872 38.7406 32.3102 38.529C31.9576 38.4008 31.7397 38.0675 31.7525 37.6828C31.8038 36.1506 32.977 34.83 34.4322 34.6889C36.0798 34.5287 37.471 35.4775 37.8364 37.0417C37.9261 37.4392 37.9454 37.8751 37.9069 38.2854C37.8877 38.5034 37.7146 38.747 37.5479 38.9137C36.3811 40.0997 35.1951 41.2729 34.0155 42.4461C33.945 42.5166 33.8488 42.5615 33.7655 42.6256C33.7847 42.6576 33.8104 42.6897 33.8296 42.7217V42.7281Z" fill="white"/>
<path d="M45.569 40.0162C46.1524 40.1252 46.4601 40.4393 46.4665 40.8817C46.4665 41.324 46.1524 41.6446 45.569 41.7471C45.569 42.1767 45.569 42.6062 45.569 43.0421C45.569 43.2216 45.5754 43.3947 45.569 43.5742C45.5369 44.0807 45.1779 44.4205 44.7035 44.4077C44.2355 44.4012 43.8829 44.0358 43.8765 43.5358C43.8637 43.0357 43.8765 42.5293 43.8765 42.0292C43.8765 41.9395 43.8765 41.8497 43.8765 41.7215C43.7547 41.7215 43.6521 41.7215 43.556 41.7215C42.4854 41.7215 41.4147 41.7215 40.3441 41.7215C39.7159 41.7215 39.3761 41.3753 39.4017 40.7471C39.4402 39.9842 39.7287 39.3174 40.2608 38.7789C41.5301 37.4968 42.8123 36.2274 44.0881 34.9517C44.3573 34.6824 44.6779 34.5991 45.0305 34.7401C45.4151 34.894 45.5626 35.2081 45.5626 35.6056C45.5626 36.9647 45.5626 38.3173 45.5626 39.6764C45.5626 39.7854 45.5626 39.9008 45.5626 40.0226L45.569 40.0162ZM43.8573 37.6378C43.0559 38.4392 42.2546 39.2341 41.4596 40.0226H43.8573V37.6378Z" fill="white"/>
<path d="M40.9083 23.4891C40.9083 22.9226 40.4505 22.4634 39.8858 22.4634C39.3211 22.4634 38.8633 22.9226 38.8633 23.4891V31.1437C38.8633 31.7102 39.3211 32.1694 39.8858 32.1694C40.4505 32.1694 40.9083 31.7102 40.9083 31.1437V23.4891Z" fill="white"/>
<path d="M46.4311 47.4672C46.0306 47.0666 45.3821 47.0656 44.9828 47.4649C44.5835 47.8643 44.5845 48.5127 44.9851 48.9133L48.8428 52.771C49.2434 53.1716 49.8918 53.1726 50.2911 52.7733C50.6904 52.3739 50.6894 51.7255 50.2889 51.3249L46.4311 47.4672Z" fill="white"/>
</svg>
