<svg width="179" height="182" viewBox="0 0 179 182" fill="none" xmlns="http://www.w3.org/2000/svg">
<g clip-path="url(#clip0_1050_397)">
<path d="M131.222 106.46C131.222 109.782 131.146 113.104 131.276 116.426C131.361 117.328 131.779 118.163 132.447 118.763C135.082 120.933 137.859 122.921 140.549 125.031C143.816 127.589 144.459 130.95 142.291 134.516C137.333 142.677 132.335 150.815 127.296 158.929C125.488 161.847 122.706 162.976 119.82 162.107C116.934 161.238 115.078 158.818 115.04 155.435C114.985 150.112 114.985 144.791 115.04 139.471C115.04 138.275 114.718 137.594 113.613 137.085C111.212 135.978 108.854 134.743 106.535 133.497C102.974 131.592 101.727 128.037 103.491 124.405C108.526 113.984 113.613 103.606 118.753 93.2703C120.229 90.2913 123.109 88.8849 125.995 89.5383C129.131 90.2526 131.086 92.7885 131.222 96.3046C131.222 96.443 131.222 96.5814 131.222 96.7198V106.46Z" fill="#D7D7D7"/>
<path d="M101.002 45.4308C101.911 46.6544 102.304 48.0332 102.826 49.3565C102.867 49.5044 102.959 49.6323 103.085 49.7167C103.211 49.8012 103.363 49.8365 103.512 49.8161C104.964 49.7718 106.416 49.7423 107.868 49.7275C108.799 49.7275 109.077 49.9988 109.104 50.9346C109.131 51.8703 109.148 52.6843 109.148 53.5536C109.148 54.4229 108.837 54.7607 107.961 54.7828C106.529 54.7828 105.097 54.8437 103.665 54.8437C103.592 54.8353 103.518 54.842 103.448 54.8633C103.378 54.8845 103.312 54.92 103.256 54.9676C103.199 55.0152 103.153 55.0738 103.119 55.1401C103.086 55.2063 103.066 55.2788 103.06 55.3531C102.031 60.7462 98.5683 63.703 93.5699 65.1039C92.8294 65.3088 92.0616 65.4472 91.283 65.6244C91.283 65.8458 91.4736 65.9511 91.5988 66.0839C96.1998 71.0008 100.528 76.1614 104.863 81.3164C105.02 81.4908 105.165 81.6758 105.298 81.8701C105.387 82.0008 105.441 82.1522 105.456 82.3102C105.471 82.4682 105.447 82.6275 105.385 82.7731C105.323 82.9188 105.225 83.046 105.101 83.1427C104.978 83.2395 104.832 83.3027 104.677 83.3263C104.498 83.3571 104.315 83.3719 104.133 83.3706C102.5 83.4038 100.833 83.4038 99.1836 83.4703C98.872 83.4904 98.5604 83.4328 98.2757 83.3025C97.991 83.1722 97.7419 82.9732 97.5501 82.7228C93.6842 78.2156 89.8401 73.6974 85.8054 69.3453C84.9288 68.3984 84.063 67.4405 83.1701 66.5103C82.8766 66.2279 82.6486 65.8827 82.5026 65.4996C82.3567 65.1165 82.2964 64.7052 82.3261 64.2955C82.3697 63.4428 82.3261 62.5845 82.2989 61.7263C82.2989 60.6964 82.5875 60.3697 83.5948 60.3365C85.5332 60.344 87.4706 60.2479 89.399 60.0486C91.3242 59.8503 93.1273 58.9978 94.5173 57.6289C95.1043 57.0123 95.5423 56.2655 95.7968 55.4473C95.9166 55.0984 95.8622 54.9877 95.4647 54.9988C91.5698 55.0763 87.6785 55.1464 83.7908 55.2092C83.6057 55.2092 83.4205 55.2092 83.2463 55.2092C82.4786 55.2092 82.1573 54.9434 82.1573 54.1793C82.1029 53.1882 82.0811 52.1915 82.1029 51.2004C82.1029 50.3975 82.4241 50.1539 83.328 50.1372L94.795 49.9268C94.9638 49.9268 95.2251 50.0265 95.2905 49.8327C95.3558 49.6389 95.1652 49.5005 95.0618 49.351C94.1035 47.9612 92.6878 47.33 91.136 46.9534C89.7333 46.654 88.2987 46.5387 86.8672 46.6101C85.6693 46.6378 84.4768 46.6544 83.279 46.6711C82.288 46.6711 81.9776 46.3942 81.9395 45.3754C81.8905 44.2126 81.8742 43.0498 81.8633 41.8815C81.8633 41.0011 82.2226 40.6412 83.0721 40.6246L107.574 40.1982C108.418 40.1982 108.81 40.5526 108.837 41.4109C108.865 42.2691 108.876 43.1606 108.881 44.0299C108.881 44.9878 108.603 45.2923 107.65 45.3089C105.614 45.3588 103.572 45.3865 101.536 45.4197L101.002 45.4308Z" fill="#D7D7D7"/>
<path d="M53.909 104.123H40.8902C37.2421 104.123 35.4453 102.335 35.4453 98.6748C35.4453 77.2649 35.4453 55.855 35.4453 34.4451C35.4453 25.6301 41.3748 19.6279 50.0486 19.6279H122.466C131.053 19.6279 136.988 25.6412 136.993 34.3454C136.993 49.6498 136.993 64.9542 136.993 80.2586C136.993 82.7614 135.779 84.4945 133.639 85.1423C132.715 85.4483 131.716 85.4271 130.806 85.0822C129.895 84.7374 129.126 84.0891 128.624 83.2431C128.088 82.2204 127.806 81.0799 127.802 79.9209C127.753 64.9708 127.769 50.0208 127.769 35.0375C127.769 34.6444 127.769 34.2568 127.769 33.8637C127.709 31.0342 125.809 29.0243 123.054 29.0243C103.089 29.0243 83.1392 29.0243 63.2035 29.0243C63.0738 29.0183 62.9438 29.0294 62.8169 29.0575C62.9313 32.2801 63.1436 35.4362 63.1491 38.5923C63.1781 65.0446 63.1781 91.4951 63.1491 117.944V119.959C64.0039 119.544 64.7172 119.212 65.4142 118.852C66.1337 118.449 66.942 118.237 67.7636 118.237C68.5853 118.237 69.3935 118.449 70.1131 118.852C71.9481 119.804 73.8211 120.696 75.6397 121.687C76.0312 121.952 76.4891 122.096 76.9592 122.104C77.4292 122.112 77.8916 121.983 78.2914 121.731C80.2135 120.624 82.2226 119.693 84.2046 118.702C86.7582 117.429 89.4263 118.232 90.6241 120.629C91.822 123.027 90.9073 125.712 88.3808 127.03C85.3916 128.592 82.3914 130.087 79.3749 131.637C78.6342 132.048 77.8026 132.261 76.9586 132.255C76.1146 132.249 75.2859 132.025 74.5507 131.604C72.5906 130.568 70.6195 129.544 68.6103 128.619C68.0663 128.401 67.4609 128.401 66.917 128.619C64.9513 129.516 63.0402 130.541 61.0963 131.504C57.2468 133.409 53.9254 131.327 53.9199 126.997C53.9199 119.954 53.9199 112.912 53.9199 105.873L53.909 104.123ZM53.909 94.666V34.5171C53.9309 34.1261 53.9309 33.7342 53.909 33.3432C53.8468 32.4332 53.5194 31.5627 52.9686 30.8428C52.4177 30.1229 51.6684 29.5861 50.8163 29.3012C47.6419 28.1494 44.7017 30.4972 44.7017 34.1571C44.7017 53.9096 44.7017 73.6585 44.7017 93.4036C44.7017 93.8244 44.7561 94.2452 44.7834 94.666H53.909Z" fill="#D7D7D7"/>
<path d="M86.2146 99.4278C89.193 99.4278 92.1714 99.4278 95.1552 99.4278C97.9757 99.4278 100.056 101.427 100.056 104.084C100.056 106.742 98.0192 108.796 95.226 108.802C89.2148 108.832 83.2072 108.832 77.2033 108.802C74.41 108.802 72.3573 106.737 72.3791 104.073C72.4009 101.41 74.4481 99.4444 77.2795 99.4278C80.2579 99.4167 83.2362 99.4278 86.2146 99.4278Z" fill="#D7D7D7"/>
</g>
<defs>
<clipPath id="clip0_1050_397">
<rect width="108.109" height="142.745" fill="white" transform="translate(35.4453 19.6279)"/>
</clipPath>
</defs>
</svg>
