<svg width="167" height="168" viewBox="0 0 167 168" fill="none" xmlns="http://www.w3.org/2000/svg">
<path d="M83.5048 50.2881C76.9052 50.2881 70.4538 52.2375 64.9665 55.8898C59.4791 59.5421 55.2023 64.7333 52.6767 70.8069C50.1512 76.8805 49.4904 83.5637 50.7779 90.0114C52.0654 96.4591 55.2434 102.382 59.91 107.03C64.5766 111.679 70.5222 114.844 76.995 116.127C83.4677 117.409 90.1769 116.751 96.2741 114.235C102.371 111.72 107.583 107.459 111.249 101.993C114.916 96.5272 116.873 90.1008 116.873 83.5268C116.873 74.7114 113.357 66.257 107.1 60.0235C100.842 53.79 92.3545 50.2881 83.5048 50.2881ZM98.2633 90.6552C98.0842 91.0475 97.7955 91.3803 97.4317 91.6136C97.0679 91.847 96.6444 91.9711 96.2117 91.9712C95.8897 91.97 95.5717 91.9011 95.2783 91.7691L81.6875 85.593C81.2937 85.4146 80.9597 85.127 80.7254 84.7646C80.4911 84.4022 80.3665 83.9803 80.3664 83.5493V56.7023C80.3664 56.1066 80.6039 55.5354 81.0267 55.1142C81.4495 54.693 82.023 54.4564 82.621 54.4564C83.2189 54.4564 83.7924 54.693 84.2152 55.1142C84.638 55.5354 84.8755 56.1066 84.8755 56.7023V82.1074L97.1496 87.6817C97.6928 87.9292 98.1152 88.3814 98.324 88.9389C98.5329 89.4964 98.511 90.1137 98.2633 90.6552Z" fill="#D7D7D7"/>
<path d="M68.1452 134.53C67.7844 134.53 67.4252 134.483 67.0765 134.391C55.8829 131.343 46.0053 124.714 38.9644 115.525C31.9234 106.337 28.1094 95.0975 28.1094 83.538C28.1094 71.9785 31.9234 60.7395 38.9644 51.5508C46.0053 42.3622 55.8829 35.7335 67.0765 32.685C68.1152 32.4033 69.2236 32.5441 70.1581 33.0765C71.0925 33.6088 71.7763 34.4892 72.0592 35.5238C72.342 36.5584 72.2006 37.6626 71.6662 38.5934C71.1318 39.5242 70.248 40.2054 69.2094 40.4871C59.7351 43.0701 51.3755 48.6827 45.4167 56.4613C39.4579 64.2399 36.2302 73.7534 36.2302 83.538C36.2302 93.3227 39.4579 102.836 45.4167 110.615C51.3755 118.393 59.7351 124.006 69.2094 126.589C70.1563 126.847 70.9771 127.439 71.5196 128.254C72.062 129.07 72.2894 130.053 72.1594 131.023C72.0295 131.992 71.5512 132.882 70.813 133.527C70.0749 134.172 69.1271 134.528 68.1452 134.53Z" fill="#D7D7D7"/>
<path d="M93.7597 135.33C92.7484 135.333 91.7722 134.961 91.0225 134.285C90.2727 133.609 89.8033 132.678 89.7062 131.675C89.6092 130.673 89.8915 129.67 90.4978 128.864C91.1041 128.058 91.9908 127.506 92.9841 127.317C103.166 125.318 112.336 119.859 118.927 111.874C125.517 103.889 129.12 93.8715 129.12 83.5337C129.12 73.1959 125.517 63.1788 118.927 55.1934C112.336 47.208 103.166 41.7496 92.9841 39.7507C91.9475 39.525 91.0409 38.9039 90.4584 38.0204C89.876 37.1369 89.6641 36.0613 89.8681 35.0241C90.0721 33.9869 90.6758 33.0705 91.5499 32.4713C92.4239 31.872 93.4988 31.6376 94.5443 31.8183C106.574 34.1773 117.407 40.6239 125.194 50.0568C132.981 59.4896 137.239 71.3233 137.239 83.536C137.239 95.7486 132.981 107.582 125.194 117.015C117.407 126.448 106.574 132.895 94.5443 135.254C94.286 135.305 94.0231 135.331 93.7597 135.33Z" fill="#D7D7D7"/>
<path d="M97.5245 145.76C96.7231 145.763 95.9386 145.531 95.2699 145.091L81.2688 135.851C80.767 135.521 80.3452 135.083 80.0341 134.57C79.7229 134.057 79.5302 133.482 79.4697 132.885C79.4093 132.289 79.4827 131.687 79.6847 131.122C79.8867 130.558 80.2121 130.045 80.6375 129.621L88.6504 121.639C89.0243 121.251 89.4723 120.941 89.9681 120.727C90.4639 120.513 90.9976 120.4 91.5378 120.395C92.0781 120.389 92.614 120.491 93.1141 120.695C93.6143 120.898 94.0686 121.199 94.4505 121.58C94.8323 121.96 95.1341 122.413 95.3379 122.912C95.5418 123.41 95.6437 123.944 95.6377 124.482C95.6317 125.02 95.5179 125.552 95.303 126.045C95.0881 126.539 94.7763 126.985 94.3861 127.357L89.8769 131.849L99.752 138.344C100.481 138.824 101.036 139.525 101.333 140.344C101.629 141.163 101.653 142.056 101.4 142.889C101.146 143.722 100.63 144.452 99.9265 144.969C99.2234 145.486 98.3715 145.764 97.4974 145.76H97.5245Z" fill="#D7D7D7"/>
<path d="M67.1449 46.6051C66.3469 46.6009 65.568 46.3625 64.9053 45.9197C64.2427 45.4769 63.7258 44.8493 63.4193 44.1155C63.1128 43.3816 63.0302 42.5741 63.182 41.7938C63.3337 41.0134 63.7131 40.295 64.2725 39.7282L68.7817 35.2365L58.8975 28.728C58.0504 28.1164 57.473 27.2026 57.2861 26.1772C57.0991 25.1518 57.3169 24.094 57.894 23.2247C58.4711 22.3554 59.363 21.7418 60.3834 21.5118C61.4039 21.2818 62.4741 21.4533 63.3707 21.9904L77.3897 31.194C77.8919 31.5242 78.314 31.9615 78.6256 32.4743C78.9372 32.9871 79.1304 33.5624 79.1912 34.1587C79.2521 34.755 79.1791 35.3574 78.9775 35.9221C78.7759 36.4868 78.4507 36.9998 78.0255 37.424L70.0127 45.4192C69.2524 46.1776 68.2208 46.6041 67.1449 46.6051Z" fill="#D7D7D7"/>
</svg>
