<svg width="189" height="195" viewBox="0 0 189 195" fill="none" xmlns="http://www.w3.org/2000/svg">
<g clip-path="url(#clip0_1050_405)">
<path d="M109.173 24.8145H111.231L112.597 25.4071L162.056 46.4365C163.214 46.8323 164.211 47.6108 164.888 48.6492C165.566 49.6877 165.886 50.927 165.798 52.1718C165.798 60.2395 165.948 68.3262 165.798 76.3939C165.721 81.7823 165.296 87.1597 164.526 92.4909C161.651 110.426 153.3 126.974 140.667 139.769C132.325 148.437 122.298 155.223 111.231 159.689H109.173C99.7291 155.909 91.0314 150.417 83.4989 143.478C74.3114 135.18 66.9755 124.963 61.9876 113.518C56.9996 102.073 54.4761 89.6671 54.5875 77.1395C54.5875 68.9762 54.5875 60.813 54.5875 52.6497C54.5875 48.9792 55.5419 47.5836 58.8728 46.1689L109.173 24.8145ZM64.8983 71.863C64.6001 78.9481 65.1151 86.0444 66.4328 93.0071C71.9468 118.497 86.206 136.895 109.21 148.2C109.813 148.433 110.479 148.433 111.082 148.2C124.213 142.067 135.364 132.24 143.228 119.869C151.092 107.498 155.344 93.0941 155.487 78.3439C155.487 70.9645 155.487 63.585 155.487 56.2056C155.536 55.8459 155.454 55.4804 155.258 55.1777C155.062 54.875 154.764 54.6559 154.421 54.5615C140.031 48.463 125.696 42.3071 111.157 36.285C110.555 36.046 109.887 36.046 109.285 36.285C94.8202 42.3071 80.3177 48.5012 65.8152 54.638C65.5144 54.7273 65.2564 54.927 65.0907 55.1986C64.9249 55.4702 64.8631 55.7947 64.917 56.11C64.917 60.7556 64.8983 65.4203 64.8983 71.863Z" fill="#D7D7D7"/>
<path d="M104.402 95.5499L111.457 88.3043C116.491 83.1617 121.506 77.9999 126.558 72.8573C127.283 72.0651 128.233 71.5262 129.274 71.3169C130.316 71.1075 131.395 71.2385 132.359 71.6911C133.326 72.0814 134.142 72.7838 134.683 73.6914C135.223 74.599 135.459 75.6622 135.353 76.7191C135.199 78.0129 134.671 79.2306 133.838 80.2176C125.354 89.0244 116.821 97.7803 108.238 106.485C107.766 107.021 107.189 107.45 106.544 107.744C105.9 108.037 105.202 108.189 104.496 108.189C103.79 108.189 103.092 108.037 102.447 107.744C101.802 107.45 101.225 107.021 100.753 106.485C96.0126 101.668 91.2845 96.8244 86.5688 91.9558C86.0872 91.465 85.7049 90.8821 85.4437 90.2403C85.1826 89.5985 85.0477 88.9105 85.0469 88.2155C85.046 87.5205 85.1791 86.8321 85.4387 86.1897C85.6982 85.5473 86.0791 84.9633 86.5595 84.4713C87.0399 83.9792 87.6105 83.5886 88.2387 83.3218C88.8668 83.055 89.5403 82.9173 90.2206 82.9164C90.9009 82.9155 91.5747 83.0515 92.2035 83.3166C92.8324 83.5818 93.4039 83.9709 93.8856 84.4617C97.1042 87.6735 100.267 90.9617 103.448 94.2308C103.747 94.5558 104.009 94.9764 104.402 95.5499Z" fill="#D7D7D7"/>
</g>
<defs>
<clipPath id="clip0_1050_405">
<rect width="111.248" height="134.875" fill="white" transform="translate(54.5879 24.8145)"/>
</clipPath>
</defs>
</svg>
