<svg width="137" height="114" viewBox="0 0 137 114" fill="none" xmlns="http://www.w3.org/2000/svg">
<path d="M85.7967 85.6587C86.5094 84.907 87.4342 84.3903 88.448 84.1775C87.548 84.0373 86.7084 83.6375 86.0322 83.0271C85.356 82.4167 84.8727 81.6223 84.6414 80.7412L82.9529 82.4742L81.2051 84.222L84.6414 87.6583C84.8708 86.9132 85.2657 86.2296 85.7967 85.6587Z" fill="#30F3BC"/>
<path d="M76.5232 76.0458C78.1229 74.456 79.7127 72.8662 81.2926 71.2765C79.1367 71.038 77.1424 70.0194 75.6855 68.4124C74.2286 66.8055 73.4097 64.7212 73.3831 62.5523V62.2117L68.673 62.7745C68.2151 64.643 67.3782 66.3974 66.2142 67.929C64.185 70.5803 62.3039 70.9802 61.0449 73.3353C60.128 75.1997 59.8771 77.322 60.334 79.3488C61.3756 79.2681 62.4226 79.2929 63.4592 79.4229C67.0881 79.8821 67.5621 80.8004 70.3911 81.7335C71.1021 81.9705 71.4576 82.089 71.5168 82.2964C71.9376 81.0756 72.6375 79.97 73.5608 79.0674L76.5232 76.0458Z" fill="#30F3BC"/>
<path d="M93.4676 93.1681C93.4579 94.4435 93.0698 95.6874 92.3526 96.7421C91.6354 97.7968 90.6213 98.6149 89.4388 99.0928C88.5499 99.4768 87.5928 99.6783 86.6246 99.6853C85.096 99.7032 83.6107 99.1784 82.4328 98.2041C82.107 97.9375 81.8107 97.6561 81.5145 97.3746L73.5458 89.4059C72.6156 88.5848 71.9228 87.529 71.5398 86.3487C71.1568 85.1685 71.0976 83.9071 71.3685 82.6962C71.25 82.8591 71.0722 83.0813 70.8204 83.3776L67.3101 87.6581C65.8289 89.554 65.5178 91.1389 66.9398 93.1385C68.5786 95.3042 69.2923 98.0312 68.9245 100.722C68.9245 100.885 68.9245 101.033 68.9245 101.196C68.9245 104.247 68.9245 104.277 65.8289 104.781C48.4103 107.639 33.4652 102.825 21.0826 90.2058C19.4734 88.4867 17.9884 86.6553 16.6391 84.7254C16.0022 83.8663 16.254 83.5701 17.1723 83.3183C19.32 82.6962 21.4529 82.0297 23.5858 81.3483C24.5406 81.1642 25.3898 80.6243 25.9617 79.8379C26.5337 79.0515 26.7856 78.0773 26.6666 77.1122V73.0982C26.6666 71.2023 26.6666 71.2319 28.5181 70.8913C33.3764 69.9729 38.2346 69.0546 43.078 68.0918C43.5814 68.0461 44.0704 67.8995 44.5158 67.6606C44.9612 67.4217 45.354 67.0956 45.6706 66.7016C45.9871 66.3076 46.2211 65.8538 46.3584 65.3674C46.4958 64.881 46.5337 64.3719 46.4699 63.8705C46.4699 58.9234 46.4699 53.9763 46.4699 49.0588C46.4293 48.6736 46.5235 48.2862 46.7365 47.9627C46.9954 47.6975 47.3442 47.539 47.7141 47.5183C49.5804 47.2814 52.839 44.2153 56.0531 44.008C57.1285 44.0015 58.1937 44.2164 59.1824 44.6394C60.1711 45.0624 61.0622 45.6844 61.8001 46.4667L66.7324 43.5044C66.9574 42.0047 67.022 40.4853 66.9249 38.972C66.4065 31.5661 61.9186 26.1154 60.5263 22.5013C60.2708 21.8905 59.8954 21.3372 59.4221 20.8741C58.9489 20.411 58.3875 20.0477 57.7713 19.8056C52.2465 17.0654 46.7365 14.2956 41.2118 11.5406L39.8047 10.8C42.6229 9.70158 45.5535 8.91677 48.5436 8.45979C59.093 6.57862 69.9685 8.29471 79.426 13.3329C86.1061 16.9617 93.4676 20.5165 96.5484 28.1446C97.551 30.634 98.0543 33.2964 98.0296 35.98H109.568C105.414 25.3657 98.152 16.2527 88.7332 9.83348C79.3144 3.41422 68.1772 -0.0123034 56.7789 0.00228843C25.6743 -0.279135 0.34619 25.434 0.00551994 55.9758C-0.157631 67.6623 3.29943 79.113 9.90237 88.7568C16.5053 98.4005 25.9306 105.765 36.885 109.839C47.8395 113.914 59.7863 114.499 71.0864 111.514C82.3865 108.529 92.4861 102.121 99.9995 93.1681H93.4676Z" fill="#30F3BC"/>
<path d="M93.4678 75.2756H110.279C112.369 69.3714 113.451 63.1575 113.478 56.8942C113.478 55.887 113.478 54.8798 113.478 53.9319C107.657 53.9319 101.629 53.9319 95.7044 53.9319H95.4822L94.1195 55.6945C97.8817 62.8041 97.9854 65.1888 97.0819 65.885C96.1783 66.5811 95.6007 65.885 92.8605 65.885C92.0687 65.9288 91.2815 66.0328 90.5054 66.196C90.0276 67.2418 89.3481 68.1831 88.5059 68.9658C88.8027 69.0414 89.0946 69.1354 89.3798 69.2472C90.5886 69.7241 91.6254 70.5546 92.3548 71.6301C93.0841 72.7056 93.472 73.9761 93.4678 75.2756Z" fill="#30F3BC"/>
<path d="M108.591 40.527H122.706C123.758 40.527 123.758 40.527 123.758 39.5049V36.1723C123.72 35.785 123.801 35.3954 123.992 35.0562C124.183 34.717 124.473 34.4448 124.824 34.2764C125.218 34.0369 125.677 33.9268 126.136 33.9613C126.596 33.9958 127.033 34.1733 127.387 34.469L127.979 35.017C130.616 37.6535 133.311 40.29 135.889 42.9561C137.37 44.4373 137.37 45.5185 135.889 46.9849L127.831 54.998C127.505 55.4538 127.021 55.7716 126.473 55.8894C125.925 56.0072 125.353 55.9165 124.869 55.6349C124.521 55.4885 124.226 55.2403 124.023 54.9231C123.819 54.6058 123.717 54.2343 123.728 53.8575C123.728 52.5837 123.728 51.3099 123.728 50.0361C123.728 49.5621 123.625 49.3399 123.091 49.3399C113.908 49.3399 104.725 49.3399 95.5415 49.3399C93.5245 49.3091 91.5608 49.9878 89.9933 51.2575C88.4258 52.5272 87.3541 54.3072 86.9655 56.2866C86.8298 56.9746 86.7604 57.6739 86.7581 58.3751C86.7581 59.7378 86.7581 61.1005 86.7581 62.478C86.7581 63.6564 86.29 64.7867 85.4567 65.62C84.6233 66.4533 83.4931 66.9215 82.3146 66.9215C81.1361 66.9215 80.0059 66.4533 79.1726 65.62C78.3393 64.7867 77.8711 63.6564 77.8711 62.478C77.8711 60.9968 77.8711 59.4267 77.8711 57.9011C77.8973 54.2864 79.0399 50.7682 81.1424 47.8278C83.245 44.8874 86.2048 42.6685 89.6168 41.4749C91.4382 40.8298 93.3574 40.5041 95.2897 40.5121C99.7184 40.5418 104.162 40.527 108.591 40.527Z" fill="white"/>
<path d="M104.119 88.6357C99.3492 88.6357 94.565 88.6357 89.7956 88.6357C89.1143 88.6357 88.8773 88.8135 88.9217 89.5096C88.9217 90.6946 88.9217 91.8647 88.9217 93.0496C88.954 93.4606 88.8514 93.8709 88.6296 94.2183C88.4078 94.5658 88.0787 94.8315 87.6923 94.9752C87.3171 95.1738 86.8911 95.256 86.4689 95.2111C86.0468 95.1663 85.6476 94.9964 85.3225 94.7234C85.1151 94.5456 84.9077 94.3679 84.7152 94.1753L76.7613 86.2066C75.2801 84.7254 75.2801 83.6738 76.7613 82.2222C79.4422 79.5413 82.1379 76.8752 84.804 74.1795C85.126 73.7632 85.5773 73.466 86.0868 73.3346C86.5964 73.2031 87.1352 73.2451 87.6183 73.4537C88.0051 73.5909 88.3369 73.8499 88.5639 74.1917C88.7909 74.5336 88.9009 74.9399 88.8773 75.3496C88.8773 76.5049 88.8773 77.675 88.8773 78.8304C88.8773 79.9857 88.8773 79.8079 89.8252 79.8079H116.886C118.166 79.8329 119.436 79.5811 120.609 79.0698C121.783 78.5585 122.832 77.7998 123.685 76.8456C125.153 75.1609 125.944 72.9921 125.907 70.758C125.907 69.3657 125.907 67.9882 125.907 66.5959C125.907 65.4174 126.375 64.2871 127.208 63.4538C128.041 62.6205 129.172 62.1523 130.35 62.1523C131.529 62.1523 132.659 62.6205 133.492 63.4538C134.326 64.2871 134.794 65.4174 134.794 66.5959V71.4393C134.714 75.46 133.257 79.3317 130.666 82.4076C128.076 85.4835 124.508 87.5773 120.56 88.3395C119.509 88.5288 118.443 88.623 117.375 88.6209C112.932 88.6209 108.518 88.6357 104.119 88.6357Z" fill="white"/>
</svg>
