<svg width="126" height="126" viewBox="0 0 126 126" fill="none" xmlns="http://www.w3.org/2000/svg">
<path d="M16.1535 0H110.036C110.036 0.525336 110.036 1.06762 110.036 1.59296C110.036 24.1881 110.036 46.7493 110.036 69.2766C110.077 69.8152 109.955 70.3536 109.686 70.8219C109.417 71.2903 109.014 71.6671 108.528 71.9033C93.7959 80.9526 79.047 90.0359 64.2811 99.153C63.9485 99.4169 63.5364 99.5606 63.1118 99.5606C62.6872 99.5606 62.2751 99.4169 61.9425 99.153C47.154 89.7647 32.3316 80.4047 17.4753 71.0729C16.9995 70.821 16.6088 70.434 16.3525 69.9606C16.0962 69.4872 15.9857 68.9485 16.0348 68.4124C16.0348 46.1449 16.0348 23.8717 16.0348 1.59296C16.0518 1.06762 16.1196 0.525336 16.1535 0Z" fill="#235065"/>
<path d="M125.999 70.5306V125.826C125.473 125.826 124.948 125.826 124.406 125.826H2.03608C0.0872471 125.826 0.0872471 125.826 0.0872471 123.895C0.0872471 106.406 0.0872471 88.8948 0.0872471 71.361C0.0872471 70.7678 -0.234733 69.9544 0.358388 69.6663C0.95151 69.3782 1.44295 70.073 1.95134 70.395C21.9028 83.0709 41.8487 95.7072 61.7888 108.304C62.1245 108.587 62.5446 108.75 62.9832 108.769C63.4217 108.787 63.854 108.659 64.2122 108.406C80.5033 98.3734 96.7943 88.3581 113.085 78.3598C117.373 75.7331 121.694 73.1403 125.999 70.5306Z" fill="#30F3BC"/>
<path d="M126.001 61.1936C123.527 62.7188 121.069 64.2609 118.578 65.7691C117.477 66.447 117.324 66.3622 117.307 65.1421C117.307 58.3635 117.307 51.585 117.307 44.8912C117.307 44.5353 117.155 44.0778 117.562 43.8914C117.968 43.705 118.172 44.0778 118.426 44.2642L125.984 50.1276L126.001 61.1936Z" fill="#30F3BC"/>
<path d="M8.86255 54.6521C8.86255 57.838 8.86255 61.0239 8.86255 64.2098C8.86255 65.3961 8.69308 65.4808 7.69325 64.8707C5.43938 63.4642 3.20247 62.0237 0.914714 60.6341C0.614489 60.473 0.369811 60.2251 0.212612 59.9228C0.0554132 59.6205 -0.00700456 59.2778 0.0335047 58.9395C0.0335047 56.3298 0.0335047 53.7031 0.0335047 51.0934C0.00860291 50.7625 0.0724311 50.4311 0.218401 50.1332C0.364372 49.8353 0.587196 49.5817 0.863875 49.3987L7.64241 44.3148C7.94744 44.0776 8.25248 43.637 8.69308 43.8742C9.13369 44.1115 8.89644 44.5351 8.89644 44.891L8.86255 54.6521Z" fill="#30F3BC"/>
<path d="M67.0775 70.0899L58.7399 57.0243C57.4666 54.9029 55.9038 52.9693 54.0966 51.2795C52.3592 49.9303 50.192 49.256 47.9959 49.3815H45.3523V41.6709H51.758C54.0181 41.7145 56.2556 41.2147 58.2823 40.2135C59.1072 39.8613 59.854 39.349 60.4794 38.7061C61.1048 38.0632 61.5964 37.3026 61.9258 36.4684H45.3523V29.6898H61.9936C61.7891 28.8975 61.4252 28.1552 60.924 27.5083C60.4228 26.8615 59.7949 26.3236 59.0788 25.9278C56.81 24.8438 54.3011 24.3595 51.7919 24.5212H45.3184V17.7427H80.5837V24.5212H70.6701C71.3576 25.1912 71.9302 25.9699 72.3647 26.8259C72.8349 27.7184 73.1392 28.6887 73.2629 29.6898H80.6515V36.4684H73.0765C72.4497 39.0167 70.9584 41.2686 68.8568 42.8402C66.4227 44.7101 63.5646 45.95 60.5362 46.4498V46.6023C62.208 47.3439 63.7125 48.416 64.9592 49.7543C66.4732 51.4297 67.8771 53.2015 69.1619 55.0585L79.6516 70.0899H67.0775Z" fill="white"/>
</svg>
