<svg width="80" height="80" viewBox="0 0 80 80" fill="none" xmlns="http://www.w3.org/2000/svg">
<path d="M12.7656 50.6617C12.7656 49.7878 12.7656 48.9138 12.7656 48.0456C12.8006 47.9466 12.8472 47.8534 12.8588 47.7543C13.3075 44.1419 14.9622 41.1996 17.7705 38.8923C18.0735 38.6476 18.3823 38.4145 18.7028 38.164C18.5804 38.0649 18.4988 38.0009 18.4114 37.9426C15.8245 36.084 14.0941 33.6252 13.2376 30.5605C13.0336 29.8089 12.9229 29.034 12.7656 28.2649C12.7656 27.3909 12.7656 26.5228 12.7656 25.6488C12.8006 25.5556 12.853 25.4623 12.8647 25.3633C13.5114 20.0204 17.3277 15.569 22.5249 14.1241C23.2707 13.9202 24.0398 13.7862 24.7972 13.6172C34.6323 13.6172 44.4673 13.6172 54.3023 13.6172C54.7277 13.6988 55.153 13.7628 55.5667 13.8619C60.5599 15.0155 64.0442 17.9695 65.6464 22.8346C67.2312 27.6589 66.2291 32.0754 62.9138 35.9441C62.5235 36.3986 62.0748 36.8064 61.6437 37.2492C61.8126 37.4473 61.9758 37.6338 62.1331 37.8202C65.763 42.26 67.0914 47.3232 65.9611 52.9282C64.3996 60.6657 58.1128 66.2824 50.1947 67.0923C45.2772 67.5934 40.9073 66.1834 37.0561 63.0895C36.8114 62.8914 36.4443 62.7516 36.1297 62.7458C32.9193 62.7225 29.7148 62.7399 26.5044 62.7225C25.7761 62.7225 25.0419 62.6817 24.3195 62.5826C18.8776 61.8427 14.5019 57.9215 13.156 52.5786C13.0045 51.9552 12.8996 51.3026 12.7656 50.6617ZM39.5964 18.1035C35.2207 18.1035 30.8451 18.1035 26.4694 18.1035C25.9159 18.1035 25.3566 18.1327 24.8031 18.2084C19.8622 18.8668 16.3547 23.8892 17.4151 28.7659C18.3474 33.0484 21.8607 35.9033 26.2364 35.9208C29.5108 35.9325 32.7911 35.9208 36.0656 35.9325C36.4967 35.9325 36.8172 35.8159 37.1435 35.5421C39.9751 33.1999 43.2379 31.854 46.8853 31.5393C50.7773 31.2014 54.4305 32.0346 57.7749 34.0855C58.0196 34.237 58.1886 34.2428 58.4158 34.0564C61.1892 31.7491 62.3487 28.8009 61.6611 25.2701C60.8221 20.9469 57.233 18.1152 52.8166 18.1035C48.406 18.0977 43.9954 18.1035 39.5847 18.1035H39.5964ZM32.9484 40.4247C32.8377 40.4188 32.7562 40.4072 32.6746 40.4072C30.4431 40.4072 28.2115 40.3897 25.98 40.4247C25.3274 40.4363 24.6574 40.5354 24.0223 40.6927C19.4136 41.8463 16.5528 46.2686 17.3802 50.9472C18.0735 54.8975 21.5169 58.0205 25.5139 58.2011C27.9144 58.306 30.3207 58.2419 32.727 58.2536C32.7911 58.2536 32.8552 58.2244 32.9251 58.2011C29.8313 52.2698 29.8371 46.3618 32.9484 40.4247ZM50.7074 45.1849C50.7074 44.3284 50.7366 43.4777 50.7016 42.6271C50.6492 41.3336 49.6761 40.3955 48.4642 40.4072C47.229 40.4247 46.2677 41.4152 46.256 42.7203C46.2444 44.8994 46.2444 47.0726 46.256 49.2517C46.256 50.114 46.6289 50.8016 47.3689 51.256C49.2159 52.3747 51.0687 53.4817 52.9215 54.5829C53.5041 54.9325 54.1392 54.9966 54.7801 54.7752C55.6774 54.4664 56.1843 53.8022 56.2775 52.8816C56.3649 52.0018 56.0037 51.2735 55.2404 50.8016C53.8479 49.9392 52.4379 49.1177 51.0454 48.2554C50.8822 48.1505 50.7307 47.8883 50.7249 47.6902C50.6899 46.8571 50.7074 46.018 50.7074 45.1849Z" fill="#53C2B7"/>
<path d="M44.012 29.2501C40.4404 29.2501 36.863 29.2501 33.2913 29.2501C32.9418 29.2501 32.5863 29.2501 32.2542 29.1627C31.2288 28.9063 30.5471 27.91 30.6345 26.8379C30.7161 25.7542 31.5201 24.921 32.598 24.7987C32.7903 24.7754 32.9825 24.7695 33.169 24.7695C40.4054 24.7695 47.636 24.7695 54.8725 24.7695C56.2592 24.7695 57.1098 25.393 57.372 26.5874C57.6342 27.776 56.7719 29.0287 55.5658 29.2035C55.292 29.2442 55.0123 29.2501 54.7327 29.2501C51.161 29.2501 47.5836 29.2501 44.012 29.2501Z" fill="#53C2B7"/>
<path d="M26.1545 27.0302C26.1486 28.2596 25.1581 29.2443 23.9288 29.2443C22.6877 29.2443 21.6623 28.2188 21.6739 26.9894C21.6856 25.7775 22.6936 24.7812 23.9171 24.7754C25.1698 24.7754 26.1603 25.7717 26.1545 27.0302Z" fill="#53C2B7"/>
<path d="M23.9637 47.1016C25.1931 47.1132 26.1603 48.1037 26.1545 49.3447C26.1545 50.5916 25.1174 51.6112 23.8822 51.5821C22.6703 51.553 21.6623 50.5217 21.6739 49.3214C21.6798 48.0804 22.6994 47.0957 23.9637 47.1074V47.1016Z" fill="#53C2B7"/>
</svg>
