<svg width="132" height="133" viewBox="0 0 132 133" fill="none" xmlns="http://www.w3.org/2000/svg">
<path d="M70.549 131.995C54.4739 131.995 38.3989 131.774 22.3239 132.105C20.5939 132.189 18.8658 131.906 17.2527 131.275C15.6396 130.645 14.178 129.68 12.9638 128.445C11.7495 127.21 10.81 125.732 10.2069 124.109C9.60369 122.485 9.35049 120.753 9.46385 119.024C9.57424 117.557 9.57424 116.083 9.46385 114.615C9.46385 113.311 9.8864 112.943 11.154 112.943C18.8945 112.943 26.635 112.943 34.3756 112.943C36.0933 113.029 37.81 112.756 39.4167 112.143C41.0234 111.529 42.4848 110.588 43.7083 109.379C44.8334 108.206 45.7134 106.82 46.297 105.303C46.8805 103.786 47.1559 102.167 47.107 100.543C47.107 94.774 47.107 88.987 47.107 83.2C47.23 80.5021 46.4205 77.8442 44.8146 75.6729C43.2087 73.5016 40.9043 71.9493 38.2887 71.2769C36.91 70.9529 35.4979 70.7926 34.0816 70.7992C26.4758 70.7992 18.87 70.7992 11.2826 70.7992C9.86803 70.7992 9.44548 70.3951 9.44548 68.9621C9.55571 67.125 9.44548 65.1408 9.44548 63.2302C9.497 60.2105 10.7158 57.3281 12.8462 55.1874C14.9766 53.0467 17.8531 51.8141 20.8725 51.748H120.538C123.537 51.8084 126.397 53.0217 128.525 55.136C130.653 57.2502 131.885 60.103 131.965 63.1016C131.965 82.2692 131.965 101.431 131.965 120.586C131.881 123.583 130.647 126.433 128.52 128.547C126.393 130.66 123.535 131.875 120.538 131.939L70.549 131.995Z" fill="#30F3BC"/>
<path d="M85.4275 47.3022H56.3087C55.8311 47.3022 55.1513 47.541 54.9309 47.1001C54.7104 46.6592 55.3351 46.1815 55.6474 45.7957C66.7041 32.6855 75.8065 18.045 82.6718 2.32883C83.572 0.0140251 84.6927 -0.445261 86.9891 0.381454L113.26 9.86113L129.28 15.6481C132.073 16.6769 132.679 18.1283 131.264 20.737C126.616 29.3716 121.638 37.8041 116.769 46.3101C116.567 46.6688 116.259 46.9565 115.888 47.1341C115.516 47.3116 115.099 47.3703 114.693 47.3022H85.4275Z" fill="#029789"/>
<path d="M21.2197 108.405H7.09204C6.16267 108.433 5.23739 108.272 4.37192 107.932C3.50645 107.592 2.71871 107.081 2.05613 106.429C1.39356 105.776 0.869877 104.997 0.516622 104.137C0.163367 103.277 -0.0121466 102.354 0.000652897 101.424C0.000652897 95.0555 0.000652897 88.6806 0.000652897 82.2996C-0.00681436 81.3785 0.17002 80.4652 0.52075 79.6135C0.871481 78.7617 1.38902 77.9887 2.04293 77.3399C2.69683 76.6912 3.47389 76.1797 4.32838 75.8357C5.18287 75.4917 6.09753 75.3221 7.01855 75.3368H35.5494C36.4696 75.322 37.3834 75.4918 38.2369 75.836C39.0904 76.1802 39.8662 76.6919 40.5187 77.341C41.1711 77.99 41.6869 78.7632 42.0356 79.6148C42.3843 80.4665 42.5589 81.3794 42.549 82.2996C42.549 88.7296 42.549 95.1596 42.549 101.571C42.5296 103.394 41.7907 105.135 40.4934 106.415C39.1961 107.695 37.4455 108.41 35.6229 108.405H21.2197ZM26.0514 98.6318C26.9428 98.6416 27.8272 98.4736 28.6529 98.1375C29.4786 97.8015 30.229 97.3042 30.8602 96.6746C31.4914 96.0451 31.9908 95.2961 32.3291 94.4713C32.6674 93.6465 32.8378 92.7626 32.8305 91.8711C32.7394 90.1127 31.9768 88.4563 30.7 87.2438C29.4231 86.0314 27.7295 85.3554 25.9687 85.3554C24.2079 85.3554 22.5143 86.0314 21.2375 87.2438C19.9606 88.4563 19.198 90.1127 19.107 91.8711C19.1018 92.7786 19.2788 93.6778 19.6276 94.5155C19.9764 95.3532 20.4898 96.1124 21.1374 96.748C21.785 97.3836 22.5537 97.8828 23.3978 98.2158C24.2419 98.5489 25.1442 98.7091 26.0514 98.6869V98.6318Z" fill="#235065"/>
<path d="M37.6069 47.3019H27.7597C27.3372 47.3019 26.7861 47.4856 26.5289 47.0815C26.2717 46.6773 26.7493 46.2915 27.0065 45.9608C36.0325 34.4274 42.5978 21.1656 46.2966 6.99495C46.8477 4.9006 47.9132 4.34946 50.3566 4.86386L60.6263 7.10518C64.5762 7.98701 68.5444 8.94233 72.5126 9.71393C73.7435 9.97113 74.0742 10.3202 73.4312 11.5511C67.3289 23.1573 59.993 34.0718 51.5508 44.1053C50.7609 45.2908 49.6517 46.2287 48.3513 46.8106C47.051 47.3925 45.6126 47.5947 44.2022 47.3938C42.0074 47.2352 39.8052 47.2046 37.6069 47.3019Z" fill="#029789"/>
<path d="M112.451 114.982H76.6266C74.9829 114.982 73.6504 116.315 73.6504 117.959C73.6504 119.602 74.9829 120.935 76.6266 120.935H112.451C114.095 120.935 115.427 119.602 115.427 117.959C115.427 116.315 114.095 114.982 112.451 114.982Z" fill="white"/>
</svg>
