<svg width="40" height="39" viewBox="0 0 40 39" fill="none" xmlns="http://www.w3.org/2000/svg">
<path d="M23.111 36.8188H15.8493C15.5316 36.7234 15.2505 36.5337 15.0433 36.2747C14.8361 36.0157 14.7127 35.6998 14.6894 35.3689C14.5423 34.2254 14.3504 33.0859 14.1952 31.9464C14.1861 31.8569 14.1528 31.7715 14.0988 31.6996C14.0449 31.6276 13.9723 31.5717 13.8889 31.538C13.3177 31.2721 12.771 30.9564 12.2552 30.5945C12.1735 30.5315 12.0756 30.4931 11.9729 30.4837C11.8702 30.4743 11.767 30.4943 11.6752 30.5414C10.6256 30.9498 9.57596 31.3909 8.52224 31.8116C8.33119 31.9132 8.12127 31.9744 7.90554 31.9914C7.68981 32.0084 7.47289 31.9808 7.2683 31.9103C7.06371 31.8398 6.87582 31.7279 6.71633 31.5816C6.55685 31.4354 6.42918 31.2578 6.34129 31.0601L3.32716 25.8201C2.77171 24.8562 2.91874 24.1007 3.80501 23.4227C4.69128 22.7447 5.53262 22.0626 6.40663 21.3806C6.50623 21.3136 6.58328 21.2181 6.62773 21.1066C6.67218 20.9951 6.68195 20.8728 6.65577 20.7557C6.57411 20.1896 6.57411 19.6147 6.65577 19.0485C6.68124 18.9316 6.67067 18.8097 6.62547 18.6988C6.58027 18.588 6.50255 18.4935 6.40255 18.4277C5.49994 17.7375 4.60959 17.0391 3.71924 16.3366C3.54139 16.2194 3.38914 16.0674 3.27167 15.8897C3.15421 15.712 3.07397 15.5124 3.0358 15.3028C2.99763 15.0932 3.00232 14.8781 3.04959 14.6704C3.09686 14.4628 3.18572 14.2668 3.31082 14.0944C4.33187 12.3219 5.35564 10.552 6.38213 8.78496C6.47304 8.58885 6.60282 8.41324 6.7636 8.26876C6.92438 8.12429 7.11282 8.01396 7.3175 7.94446C7.52218 7.87496 7.73883 7.84774 7.95434 7.86444C8.16985 7.88115 8.37973 7.94143 8.57125 8.04164C9.62089 8.45006 10.6746 8.87889 11.7202 9.31182C11.8133 9.3573 11.9172 9.37603 12.0203 9.36594C12.1234 9.35584 12.2217 9.31731 12.3042 9.25464C12.8194 8.8907 13.3661 8.57359 13.9379 8.30711C14.0208 8.27315 14.0928 8.21713 14.146 8.14512C14.1993 8.07312 14.2319 7.98789 14.2401 7.89869C14.3994 6.72244 14.5791 5.55028 14.7506 4.37812C14.7847 3.99687 14.9622 3.64275 15.2472 3.38728C15.5322 3.13181 15.9036 2.99403 16.2863 3.00175H22.6903C23.0747 2.98316 23.4516 3.11316 23.7428 3.36483C24.034 3.6165 24.2172 3.97054 24.2545 4.35362C24.4342 5.53395 24.6099 6.71836 24.7691 7.90277C24.7781 7.99288 24.8118 8.07874 24.8666 8.15084C24.9214 8.22293 24.9951 8.27844 25.0795 8.31119C25.6516 8.57553 26.1984 8.89131 26.7132 9.25464C26.7959 9.31734 26.8947 9.35524 26.9981 9.36392C27.1015 9.37259 27.2053 9.35169 27.2972 9.30365C28.3346 8.89523 29.3761 8.46639 30.4176 8.0498C31.459 7.63322 32.1084 7.89461 32.6434 8.81763C33.6427 10.5575 34.6488 12.2946 35.6617 14.0291C36.2171 14.9888 36.0701 15.7403 35.1961 16.4224C34.322 17.1044 33.5011 17.7538 32.6434 18.4073C32.5282 18.4789 32.4383 18.5847 32.3863 18.7099C32.3343 18.8352 32.3228 18.9736 32.3535 19.1057C32.4339 19.6473 32.4339 20.1978 32.3535 20.7394C32.3247 20.8666 32.3359 20.9997 32.3856 21.1203C32.4353 21.2409 32.5211 21.3432 32.6312 21.4133C33.5297 22.0994 34.4241 22.7978 35.3063 23.5044C35.4794 23.6196 35.6277 23.7684 35.7423 23.942C35.8569 24.1155 35.9356 24.3103 35.9737 24.5147C36.0118 24.7192 36.0085 24.9292 35.964 25.1324C35.9195 25.3355 35.8348 25.5277 35.7147 25.6976C34.6883 27.4783 33.6604 29.259 32.6312 31.0397C32.1207 31.9178 31.4059 32.1588 30.4421 31.7789C29.3924 31.3705 28.3387 30.9376 27.2932 30.5128C27.206 30.4671 27.1078 30.4466 27.0096 30.4539C26.9114 30.4611 26.8172 30.4957 26.7377 30.5537C26.2005 30.9286 25.6337 31.2592 25.0428 31.542C24.9666 31.5724 24.9008 31.6239 24.853 31.6905C24.8052 31.7571 24.7775 31.8359 24.7732 31.9178C24.6139 33.0818 24.4261 34.2417 24.2709 35.4057C24.2449 35.7315 24.1198 36.0415 23.9124 36.2941C23.7051 36.5467 23.4254 36.7298 23.111 36.8188ZM25.0673 19.943C25.0713 18.8378 24.7475 17.7562 24.1367 16.8351C23.526 15.9139 22.6558 15.1946 21.6362 14.7681C20.6166 14.3417 19.4934 14.2271 18.4087 14.4391C17.324 14.651 16.3265 15.1799 15.5424 15.9589C14.7584 16.7378 14.2229 17.7317 14.0039 18.815C13.7848 19.8983 13.8919 21.0222 14.3117 22.0446C14.7314 23.067 15.445 23.9419 16.3621 24.5587C17.2792 25.1755 18.3586 25.5065 19.4638 25.5097C20.9436 25.5097 22.3633 24.9244 23.4131 23.8815C24.4629 22.8386 25.0576 21.4227 25.0673 19.943Z" fill="#0A7D50"/>
<path d="M27.1816 13.7188L21.0063 10.1533C20.5451 9.88654 20.0218 9.74609 19.489 9.74609C18.9563 9.74609 18.4329 9.88654 17.9718 10.1533L11.7965 13.7188C11.3353 13.9846 10.9523 14.3673 10.6863 14.8284C10.4203 15.2895 10.2805 15.8126 10.2813 16.3449V23.4759C10.281 24.0081 10.4208 24.5311 10.6868 24.9921C10.9528 25.4531 11.3356 25.8359 11.7965 26.102L17.9718 29.6675C18.4329 29.9343 18.9563 30.0747 19.489 30.0747C20.0218 30.0747 20.5451 29.9343 21.0063 29.6675L27.1816 26.102C27.6464 25.8385 28.0332 25.4568 28.3028 24.9956C28.5725 24.5344 28.7155 24.0101 28.7173 23.4759V16.3449C28.7159 15.8106 28.5731 15.2861 28.3034 14.8249C28.0337 14.3636 27.6466 13.982 27.1816 13.7188Z" fill="#00EF64"/>
<path d="M14.6443 20.9728L14.2359 22.1449H13.1699L14.8934 17.0928H16.2698L18.0628 22.1612H16.911L16.5026 20.9891L14.6443 20.9728ZM16.278 20.0742C15.9186 19.0042 15.6899 18.3221 15.5673 17.8647C15.4448 18.367 15.1916 19.1594 14.9016 20.0742H16.278Z" fill="white"/>
<path d="M19.0801 17.0928H21.1793C22.2576 17.0928 23.0009 17.7054 23.0009 18.6611C23.0009 19.7638 22.1841 20.2662 21.1671 20.2662H20.1787V22.1612H19.0801V17.0928ZM20.1787 19.3963H20.9956C21.502 19.3963 21.8614 19.2002 21.8614 18.6815C21.8614 18.1628 21.4816 17.9627 21.016 17.9627H20.1583L20.1787 19.3963Z" fill="white"/>
<path d="M25.2723 17.0928V22.1612H24.1777V17.0928H25.2723Z" fill="white"/>
</svg>
