<svg width="34" height="32" viewBox="0 0 34 32" fill="none" xmlns="http://www.w3.org/2000/svg">
<path d="M28.1213 0H5.8787C2.63198 0 0 2.63198 0 5.8787V17.6591C0 20.9058 2.63198 23.5378 5.8787 23.5378H28.1213C31.368 23.5378 34 20.9058 34 17.6591V5.8787C34 2.63198 31.368 0 28.1213 0Z" fill="#0DD8AF"/>
<path d="M31.0429 28.1902H2.95829C1.93609 28.1902 1.10742 29.0189 1.10742 30.0411C1.10742 31.0633 1.93609 31.8919 2.95829 31.8919H31.0429C32.0651 31.8919 32.8937 31.0633 32.8937 30.0411C32.8937 29.0189 32.0651 28.1902 31.0429 28.1902Z" fill="#235065"/>
<path d="M26.8891 6.75586H7.10819C6.261 6.75586 5.57422 7.44264 5.57422 8.28983C5.57422 9.13702 6.261 9.8238 7.10819 9.8238H26.8891C27.7363 9.8238 28.4231 9.13702 28.4231 8.28983C28.4231 7.44264 27.7363 6.75586 26.8891 6.75586Z" fill="white"/>
<path d="M26.8891 14.0859H7.10819C6.261 14.0859 5.57422 14.7727 5.57422 15.6199C5.57422 16.4671 6.261 17.1539 7.10819 17.1539H26.8891C27.7363 17.1539 28.4231 16.4671 28.4231 15.6199C28.4231 14.7727 27.7363 14.0859 26.8891 14.0859Z" fill="white"/>
</svg>
