<svg width="37" height="36" viewBox="0 0 37 36" fill="none" xmlns="http://www.w3.org/2000/svg">
<g clip-path="url(#clip0_3311_2669)">
<path d="M24.8546 4.98047H9.77151C7.17943 4.98047 5.07812 7.06941 5.07812 9.64625V30.1747C5.07812 32.7516 7.17943 34.8405 9.77151 34.8405H24.8546C27.4467 34.8405 29.548 32.7516 29.548 30.1747V9.64625C29.548 7.06941 27.4467 4.98047 24.8546 4.98047Z" fill="#0A7D50"/>
<path d="M20.6355 31.0527C19.3758 31.0594 18.1334 30.7601 17.0165 30.1809C15.8996 29.6016 14.9418 28.76 14.2265 27.7291C13.5112 26.6982 13.06 25.5092 12.912 24.2655C12.7641 23.0218 12.924 21.7609 13.3777 20.5926C13.8314 19.4243 14.5653 18.3838 15.5155 17.5616C16.4658 16.7393 17.6036 16.1603 18.8302 15.8746C20.0568 15.589 21.335 15.6055 22.5537 15.9227C23.7724 16.2399 24.8948 16.8482 25.8232 17.6947V5.02836C25.8232 3.69806 25.293 2.42196 24.3485 1.4795C23.4041 0.537049 22.1225 0.00504859 20.7843 0L5.05811 0C3.71661 0 2.43006 0.529772 1.48149 1.47277C0.532906 2.41577 0 3.69476 0 5.02836L0 27.2791C-2.99426e-07 27.9392 0.130866 28.5928 0.385119 29.2026C0.639371 29.8124 1.01202 30.3664 1.48178 30.833C1.95153 31.2995 2.50917 31.6695 3.12282 31.9217C3.73647 32.1738 4.39409 32.3033 5.05811 32.3027H20.7843C21.7308 32.303 22.6583 32.0389 23.4611 31.5403C24.2638 31.0418 24.9094 30.3289 25.3241 29.4832C23.9783 30.5063 22.3298 31.0581 20.6355 31.0527Z" fill="#00EF64"/>
<path d="M16.3588 3.31055H4.41894C3.89417 3.31055 3.46875 3.73346 3.46875 4.25515C3.46875 4.77685 3.89417 5.19976 4.41894 5.19976H16.3588C16.8835 5.19976 17.309 4.77685 17.309 4.25515C17.309 3.73346 16.8835 3.31055 16.3588 3.31055Z" fill="white"/>
<path d="M16.3588 9.76074H4.41894C3.89417 9.76074 3.46875 10.1837 3.46875 10.7053C3.46875 11.227 3.89417 11.65 4.41894 11.65H16.3588C16.8835 11.65 17.309 11.227 17.309 10.7053C17.309 10.1837 16.8835 9.76074 16.3588 9.76074Z" fill="white"/>
<path d="M9.43921 17.375H4.22754C3.70276 17.375 3.27734 17.7979 3.27734 18.3196C3.27734 18.8413 3.70276 19.2642 4.22754 19.2642H9.43921C9.96399 19.2642 10.3894 18.8413 10.3894 18.3196C10.3894 17.7979 9.96399 17.375 9.43921 17.375Z" fill="white"/>
<path d="M10.0865 24.7979H4.41894C3.89417 24.7979 3.46875 25.2208 3.46875 25.7425C3.46875 26.2641 3.89417 26.6871 4.41894 26.6871H10.0865C10.6113 26.6871 11.0367 26.2641 11.0367 25.7425C11.0367 25.2208 10.6113 24.7979 10.0865 24.7979Z" fill="white"/>
<path d="M20.2367 30.8285C24.2388 30.8285 27.4831 27.6033 27.4831 23.6247C27.4831 19.6462 24.2388 16.4209 20.2367 16.4209C16.2346 16.4209 12.9902 19.6462 12.9902 23.6247C12.9902 27.6033 16.2346 30.8285 20.2367 30.8285Z" fill="#235065"/>
<path d="M20.2375 17.3751C21.4809 17.3751 22.6963 17.7416 23.7302 18.4284C24.764 19.1151 25.5698 20.0911 26.0456 21.2331C26.5214 22.3751 26.6459 23.6317 26.4033 24.844C26.1608 26.0563 25.562 27.1699 24.6828 28.0439C23.8036 28.918 22.6834 29.5132 21.4639 29.7543C20.2445 29.9955 18.9804 29.8717 17.8317 29.3987C16.683 28.9257 15.7011 28.1246 15.0103 27.0969C14.3195 26.0691 13.9508 24.8608 13.9508 23.6248C13.9508 21.9672 14.6132 20.3776 15.7922 19.2056C16.9711 18.0335 18.5702 17.3751 20.2375 17.3751ZM20.2375 15.4668C18.6144 15.4668 17.0279 15.9453 15.6783 16.8417C14.3288 17.7381 13.277 19.0122 12.6559 20.5028C12.0348 21.9935 11.8723 23.6338 12.1889 25.2163C12.5056 26.7988 13.2871 28.2524 14.4348 29.3933C15.5825 30.5342 17.0447 31.3112 18.6365 31.626C20.2284 31.9408 21.8784 31.7792 23.3779 31.1617C24.8774 30.5443 26.159 29.4987 27.0607 28.1571C27.9624 26.8155 28.4437 25.2383 28.4437 23.6248C28.4412 21.4619 27.5758 19.3884 26.0374 17.859C24.4989 16.3296 22.4131 15.4693 20.2375 15.4668Z" fill="white"/>
<path d="M36.5937 31.8466L28.7887 26.4258C28.3585 26.127 27.7661 26.2315 27.4656 26.6591L25.7588 29.0877C25.4582 29.5154 25.5633 30.1043 25.9935 30.4031L33.7985 35.8239C34.2287 36.1227 34.8211 36.0182 35.1216 35.5906L36.8284 33.162C37.1289 32.7343 37.0239 32.1454 36.5937 31.8466Z" fill="#235065"/>
</g>
<defs>
<clipPath id="clip0_3311_2669">
<rect width="37" height="36" fill="white"/>
</clipPath>
</defs>
</svg>
