<svg width="40" height="39" viewBox="0 0 40 39" fill="none" xmlns="http://www.w3.org/2000/svg">
<path d="M20.0523 19.75H37.4144C38.2805 19.75 38.7589 20.0723 38.925 20.7571C38.9606 20.9259 38.9612 21.1001 38.9268 21.2691C38.8924 21.4381 38.8239 21.5983 38.7253 21.7398C38.6267 21.8813 38.5002 22.0012 38.3536 22.0919C38.2069 22.1827 38.0433 22.2425 37.8726 22.2677C37.7115 22.2677 37.5504 22.2677 37.3691 22.2677H23.7734C23.1994 22.2677 23.1944 22.2677 23.4864 22.7713C25.2253 25.7925 26.9625 28.8054 28.6981 31.8098C29.0052 32.2933 29.175 32.8511 29.1894 33.4236C29.2038 33.9962 29.0622 34.5619 28.7797 35.0601C28.4972 35.5583 28.0845 35.9703 27.5858 36.2519C27.0872 36.5336 26.5213 36.6743 25.9487 36.659C21.9875 36.659 18.0213 36.659 14.05 36.659C13.4879 36.6778 12.931 36.5452 12.4377 36.2749C11.9443 36.0047 11.5328 35.6068 11.246 35.1229C10.9593 34.639 10.8079 34.0868 10.8078 33.5244C10.8077 32.9619 10.9588 32.4097 11.2453 31.9257C12.9573 28.9044 14.7248 25.8831 16.4721 22.8619L16.6231 22.59C16.744 22.3835 16.6785 22.2929 16.4469 22.2979H16.0894C11.5609 22.2979 7.02897 22.2979 2.49373 22.2979C2.31981 22.3292 2.14128 22.3239 1.96955 22.2822C1.79783 22.2405 1.63671 22.1634 1.49651 22.0558C1.35631 21.9483 1.24012 21.8126 1.15539 21.6575C1.07065 21.5024 1.01925 21.3314 1.00445 21.1553C0.989662 20.9792 1.01181 20.802 1.06949 20.6349C1.12716 20.4679 1.21909 20.3147 1.33938 20.1853C1.45967 20.0558 1.60568 19.9529 1.76804 19.8832C1.9304 19.8134 2.10554 19.7784 2.28224 19.7802C2.47506 19.7676 2.6685 19.7676 2.86132 19.7802L20.0523 19.75Z" fill="#235065"/>
<path d="M32.1158 4.0008H35.8017C36.2137 3.99143 36.6234 4.06424 37.0069 4.21498C37.3904 4.36571 37.74 4.59135 38.0354 4.87871C38.3307 5.16608 38.5658 5.50941 38.727 5.88865C38.8882 6.2679 38.9722 6.67545 38.9741 7.08752C39.0076 9.60523 39.0076 12.1229 38.9741 14.6407C38.9695 15.053 38.8834 15.4604 38.7207 15.8394C38.558 16.2183 38.322 16.5614 38.0262 16.8487C37.7304 17.1361 37.3807 17.3621 36.9972 17.5138C36.6137 17.6654 36.204 17.7397 35.7917 17.7324C33.3797 17.7324 30.9677 17.7072 28.5558 17.7324C28.1142 17.7507 27.6735 17.6776 27.2615 17.5176C26.8495 17.3576 26.4751 17.1141 26.1616 16.8025C25.8481 16.491 25.6024 16.118 25.4399 15.7069C25.2774 15.2959 25.2016 14.8558 25.2173 14.4141C25.2173 11.8661 25.1216 9.32325 25.2626 6.78036C25.3319 6.03818 25.6691 5.34666 26.2113 4.8351C26.7534 4.32353 27.4634 4.02695 28.2083 4.0008C29.5125 4.0008 30.8016 4.0008 32.1158 4.0008Z" fill="#0DD8AF"/>
<path d="M14.8406 10.8793C14.8406 12.1331 14.8406 13.397 14.8406 14.6508C14.8383 15.4523 14.5244 16.2214 13.9653 16.7956C13.4062 17.3697 12.6456 17.7039 11.8445 17.7275C9.26974 17.7577 6.69496 17.7577 4.12018 17.7275C3.32106 17.7068 2.56077 17.3785 1.99787 16.8109C1.43497 16.2433 1.11293 15.4803 1.09892 14.681C1.07542 12.123 1.08382 9.57007 1.1241 7.02214C1.1426 6.20918 1.48064 5.43624 2.06498 4.87075C2.64933 4.30525 3.43294 3.99273 4.24607 4.00089H11.7489C12.1567 3.99751 12.561 4.07551 12.9383 4.23033C13.3156 4.38514 13.6582 4.61365 13.9462 4.90249C14.2341 5.19133 14.4615 5.5347 14.615 5.91249C14.7686 6.29028 14.8453 6.69492 14.8406 7.10271C14.8456 8.36157 14.8406 9.62042 14.8406 10.8793Z" fill="#007D7D"/>
</svg>
