<svg width="41" height="34" viewBox="0 0 41 34" fill="none" xmlns="http://www.w3.org/2000/svg">
<path d="M0.00444356 16.9217C0.0490307 16.0944 -0.0946389 15.1184 0.133251 14.1523C0.752516 11.5712 2.70939 9.89675 5.50847 9.5351C5.6483 9.52891 5.78328 9.48201 5.89681 9.40016C6.01035 9.31831 6.0975 9.20507 6.14756 9.07436C7.06554 7.11085 8.3809 5.35914 10.0105 3.92996C11.64 2.50078 13.5484 1.42521 15.6149 0.771251C19.2248 -0.397865 23.1342 -0.233428 26.6332 1.23469C30.1321 2.70282 32.9885 5.37724 34.6833 8.77216C34.6988 8.79488 34.7106 8.81998 34.718 8.84647C34.8567 9.34188 35.2134 9.51033 35.7088 9.57968C37.0311 9.70674 38.2707 10.2804 39.2235 11.2061C40.1762 12.1318 40.7853 13.3544 40.9503 14.6725C40.9983 15.1515 41.0116 15.6333 40.9899 16.1142C40.9899 17.0059 40.9899 17.8977 40.9899 18.7944C40.9884 19.59 40.825 20.3769 40.5097 21.1074C40.1944 21.8379 39.7338 22.4965 39.1559 23.0434C38.578 23.5902 37.8949 24.0138 37.1481 24.2883C36.4014 24.5628 35.6066 24.6826 34.8121 24.6402C34.4995 24.5885 34.1785 24.6316 33.8906 24.7641C33.6027 24.8965 33.3612 25.1122 33.1971 25.3833C30.8597 28.5965 27.3758 30.7873 23.4672 31.5017C23.3586 31.5146 23.2554 31.5564 23.1683 31.6226C23.0812 31.6888 23.0133 31.777 22.9718 31.8782C22.6612 32.5494 22.1442 33.1037 21.4962 33.4602C20.8483 33.8167 20.1033 33.9567 19.3701 33.8598C18.5289 33.773 17.7485 33.3819 17.1755 32.7599C16.6025 32.138 16.2766 31.3281 16.2589 30.4827C16.2413 29.6372 16.5332 28.8144 17.0797 28.1691C17.6262 27.5238 18.3896 27.1004 19.2264 26.9786C19.9355 26.8502 20.667 26.9498 21.3158 27.2631C21.9647 27.5764 22.4976 28.0873 22.838 28.7224C22.8756 28.8164 22.9485 28.8919 23.0412 28.9326C23.1338 28.9734 23.2387 28.9762 23.3334 28.9404C26.2604 28.305 28.8874 26.7007 30.7895 24.387C32.6915 22.0734 33.7575 19.1857 33.8148 16.1911C33.8721 13.1965 32.9174 10.2701 31.1052 7.88541C29.2931 5.50069 26.7293 3.79707 23.8288 3.05015C19.3701 1.89584 15.3226 2.86685 11.8052 5.84923C9.39435 7.8655 7.80772 10.6967 7.34645 13.8055C6.86455 16.6622 7.3492 19.5981 8.7237 22.1483C9.29343 23.2332 9.00609 23.9962 7.84187 24.3925C6.94805 24.6927 5.99567 24.7759 5.06333 24.6354C4.131 24.4948 3.24546 24.1346 2.47983 23.5843C1.7142 23.034 1.09043 22.3096 0.660014 21.4707C0.229602 20.6318 0.00489501 19.7025 0.00444356 18.7597V16.9217Z" fill="#0DD8AF"/>
<path d="M20.49 24.0755C19.7877 24.1035 19.0849 24.0284 18.4044 23.8525C18.3105 23.8283 18.2125 23.8241 18.1169 23.8403C18.0213 23.8565 17.9301 23.8928 17.8495 23.9467L14.5996 25.8292C14.355 25.9955 14.0679 26.0883 13.7723 26.0968C13.5995 26.0932 13.4298 26.0502 13.2761 25.9711C13.1225 25.892 12.989 25.7788 12.8858 25.6402C12.7825 25.5016 12.7123 25.3412 12.6805 25.1714C12.6487 25.0015 12.6561 24.8266 12.7022 24.6601C12.9548 23.6692 13.1976 22.6784 13.5047 21.6876C13.5681 21.5205 13.5831 21.3389 13.5481 21.1637C13.513 20.9884 13.4293 20.8266 13.3066 20.6968C11.7593 18.8546 11.0025 16.4756 11.2011 14.078C11.3323 12.3307 11.9533 10.6558 12.9929 9.24519C14.0324 7.83461 15.4484 6.74552 17.0785 6.10278C18.7086 5.46004 20.4868 5.28967 22.2093 5.61119C23.9318 5.93271 25.5289 6.73312 26.8173 7.92064C28.1058 9.10817 29.0335 10.6347 29.4942 12.3253C29.9549 14.016 29.9298 15.8022 29.4219 17.4792C28.914 19.1562 27.9438 20.6561 26.6225 21.807C25.3012 22.9579 23.6823 23.7132 21.9515 23.9863C21.4686 24.0653 20.979 24.0952 20.49 24.0755ZM19.4348 14.7419C19.4296 14.8811 19.4519 15.02 19.5004 15.1506C19.5488 15.2812 19.6225 15.401 19.7173 15.5032C19.8121 15.6053 19.926 15.6878 20.0527 15.7458C20.1793 15.8039 20.3161 15.8365 20.4554 15.8417C20.5946 15.8469 20.7335 15.8247 20.8641 15.7762C20.9947 15.7277 21.1145 15.654 21.2166 15.5592C21.3188 15.4645 21.4012 15.3505 21.4593 15.2239C21.5174 15.0972 21.55 14.9604 21.5552 14.8212C21.5657 14.54 21.4641 14.2662 21.2727 14.0599C21.0813 13.8536 20.8158 13.7319 20.5346 13.7213C20.2535 13.7108 19.9796 13.8125 19.7734 14.0038C19.5671 14.1952 19.4453 14.4607 19.4348 14.7419ZM25.2708 14.7865C25.2524 14.5172 25.1324 14.2649 24.9352 14.0807C24.7379 13.8964 24.478 13.7939 24.2081 13.7939C23.9382 13.7939 23.6783 13.8964 23.4811 14.0807C23.2838 14.2649 23.1639 14.5172 23.1455 14.7865C23.1355 14.9321 23.1556 15.0783 23.2045 15.2158C23.2534 15.3534 23.3301 15.4794 23.4297 15.5861C23.5294 15.6928 23.6499 15.7779 23.7838 15.8361C23.9177 15.8942 24.0621 15.9242 24.2081 15.9242C24.3541 15.9242 24.4985 15.8942 24.6324 15.8361C24.7664 15.7779 24.8869 15.6928 24.9865 15.5861C25.0862 15.4794 25.1628 15.3534 25.2117 15.2158C25.2606 15.0783 25.2807 14.9321 25.2708 14.7865ZM16.8488 13.7461C16.7094 13.7382 16.57 13.7598 16.4396 13.8096C16.3092 13.8593 16.1908 13.936 16.0921 14.0347C15.9934 14.1334 15.9166 14.2519 15.8669 14.3823C15.8172 14.5127 15.7955 14.6521 15.8034 14.7914C15.8081 15.0626 15.9156 15.3219 16.1041 15.5169C16.2926 15.7118 16.5482 15.8279 16.819 15.8417C17.0979 15.8318 17.3626 15.7162 17.5594 15.5185C17.7563 15.3207 17.8706 15.0555 17.8792 14.7766C17.878 14.6383 17.8491 14.5016 17.7944 14.3745C17.7397 14.2475 17.6602 14.1326 17.5605 14.0367C17.4609 13.9407 17.3431 13.8656 17.2141 13.8157C17.0851 13.7658 16.9474 13.7422 16.8091 13.7461H16.8488Z" fill="#235065"/>
</svg>
