<svg width="38" height="36" viewBox="0 0 38 36" fill="none" xmlns="http://www.w3.org/2000/svg">
<path d="M15.4639 25.1474L12.8674 21.0784C12.474 20.4171 11.987 19.8162 11.4213 19.2946C10.877 18.8644 10.1924 18.6519 9.50025 18.6982H8.69806V16.2969H10.693C11.3977 16.3072 12.0946 16.1479 12.7249 15.8325C13.2427 15.6068 13.6506 15.1857 13.8595 14.6608H8.69806V12.5498H13.8807C13.8169 12.3038 13.7035 12.0733 13.5474 11.8728C13.3913 11.6722 13.1958 11.5057 12.9729 11.3835C12.268 11.0406 11.4857 10.8878 10.7035 10.9401H8.6875V8.8291H19.6702V10.9401H16.5828C16.7939 11.1514 16.9718 11.3934 17.1105 11.6579C17.264 11.935 17.3676 12.2369 17.4166 12.5498H19.7177V14.6608H17.3322C17.137 15.4545 16.6726 16.1558 16.0181 16.6452C15.2591 17.227 14.3696 17.6147 13.4268 17.7746V17.8168C13.9474 18.0478 14.416 18.3817 14.8042 18.7985C15.2748 19.3224 15.7136 19.874 16.1184 20.4504L19.3746 25.1316L15.4639 25.1474Z" fill="#0A7D50"/>
<path d="M29.4136 35.4234H29.1286C28.7787 35.4158 28.4461 35.2694 28.2041 35.0165C27.9621 34.7636 27.8305 34.425 27.8382 34.075C27.8459 33.7251 27.9923 33.3926 28.2452 33.1506C28.4981 32.9086 28.8367 32.777 29.1866 32.7847C29.9464 32.7999 30.7055 32.7326 31.4507 32.5841H31.5721C32.7226 32.3519 33.6356 32.1672 34.2795 31.5286C34.6164 31.1933 34.8832 30.7943 35.0645 30.3548C35.2457 29.9154 35.3376 29.4443 35.335 28.969V13.1942C35.3336 12.2331 34.9512 11.3117 34.2715 10.632C33.5919 9.95236 32.6705 9.56992 31.7093 9.56852C31.3594 9.56852 31.0238 9.42951 30.7764 9.18208C30.5289 8.93464 30.3899 8.59905 30.3899 8.24912C30.3899 7.8992 30.5289 7.5636 30.7764 7.31617C31.0238 7.06873 31.3594 6.92972 31.7093 6.92972C32.534 6.92695 33.3512 7.08689 34.1139 7.40041C34.8767 7.71392 35.5701 8.17484 36.1545 8.75676C36.7389 9.33868 37.2027 10.0302 37.5194 10.7916C37.8361 11.5531 37.9995 12.3695 38.0002 13.1942V28.9267C38.0032 29.7497 37.8424 30.5651 37.5271 31.3253C37.2118 32.0855 36.7483 32.7754 36.1636 33.3546C34.9603 34.5632 33.5248 34.8535 32.1157 35.1385H31.9996C31.1492 35.3191 30.2829 35.4145 29.4136 35.4234Z" fill="#00EF64"/>
<path d="M20.8096 2.6388C22.1211 2.6388 23.3789 3.1598 24.3063 4.08718C25.2337 5.01457 25.7547 6.27238 25.7547 7.5839V26.388C25.7533 27.6991 25.2318 28.9561 24.3047 29.8831C23.3776 30.8102 22.1206 31.3317 20.8096 31.3331H7.5839C6.27238 31.3331 5.01457 30.8121 4.08718 29.8847C3.1598 28.9573 2.6388 27.6995 2.6388 26.388V7.5839C2.6381 6.93431 2.76554 6.29095 3.01381 5.69067C3.26208 5.09039 3.6263 4.54497 4.08564 4.08564C4.54497 3.6263 5.09039 3.26208 5.69067 3.01381C6.29095 2.76554 6.93431 2.6381 7.5839 2.6388H20.8096ZM20.8096 0H7.5839C5.57338 0.00279239 3.64601 0.802705 2.22436 2.22436C0.802705 3.64601 0.00279239 5.57338 0 7.5839L0 26.388C0.00558166 28.3967 0.806725 30.3213 2.22808 31.7407C3.64943 33.1601 5.57521 33.9585 7.5839 33.9613H20.8096C22.8182 33.9585 24.744 33.1601 26.1654 31.7407C27.5867 30.3213 28.3879 28.3967 28.3935 26.388V7.5839C28.3907 5.57338 27.5907 3.64601 26.1691 2.22436C24.7474 0.802705 22.8201 0.00279239 20.8096 0Z" fill="#00EF64"/>
</svg>
