<svg width="38" height="36" viewBox="0 0 38 36" fill="none" xmlns="http://www.w3.org/2000/svg">
<path d="M15.4639 25.1479L12.8674 21.0789C12.474 20.4175 11.987 19.8167 11.4213 19.2951C10.877 18.8649 10.1924 18.6524 9.50025 18.6987H8.69806V16.2974H10.693C11.3977 16.3077 12.0946 16.1484 12.7249 15.833C13.2427 15.6073 13.6506 15.1862 13.8595 14.6613H8.69806V12.5503H13.8807C13.8169 12.3042 13.7035 12.0738 13.5474 11.8733C13.3913 11.6727 13.1958 11.5062 12.9729 11.3839C12.268 11.0411 11.4857 10.8883 10.7035 10.9406H8.6875V8.82959H19.6702V10.9406H16.5828C16.7939 11.1519 16.9718 11.3939 17.1105 11.6584C17.264 11.9355 17.3676 12.2374 17.4166 12.5503H19.7177V14.6613H17.3322C17.137 15.4549 16.6726 16.1563 16.0181 16.6457C15.2591 17.2275 14.3696 17.6152 13.4268 17.7751V17.8173C13.9474 18.0483 14.416 18.3822 14.8042 18.799C15.2748 19.3229 15.7136 19.8745 16.1184 20.4509L19.3746 25.1321L15.4639 25.1479Z" fill="#235065"/>
<path d="M29.4136 35.4237H29.1286C28.7787 35.416 28.4461 35.2696 28.2041 35.0167C27.9621 34.7638 27.8305 34.4252 27.8382 34.0753C27.8459 33.7253 27.9923 33.3928 28.2452 33.1508C28.4981 32.9088 28.8367 32.7772 29.1866 32.7849C29.9464 32.8001 30.7055 32.7329 31.4507 32.5843H31.5721C32.7226 32.3521 33.6356 32.1674 34.2795 31.5288C34.6164 31.1935 34.8832 30.7945 35.0645 30.3551C35.2457 29.9156 35.3376 29.4445 35.335 28.9692V13.1945C35.3336 12.2333 34.9512 11.3119 34.2715 10.6323C33.5919 9.9526 32.6705 9.57016 31.7093 9.56876C31.3594 9.56876 31.0238 9.42976 30.7764 9.18232C30.5289 8.93489 30.3899 8.59929 30.3899 8.24937C30.3899 7.89944 30.5289 7.56385 30.7764 7.31641C31.0238 7.06897 31.3594 6.92997 31.7093 6.92997C32.534 6.92719 33.3512 7.08714 34.1139 7.40065C34.8767 7.71416 35.5701 8.17508 36.1545 8.757C36.7389 9.33892 37.2027 10.0304 37.5194 10.7919C37.8361 11.5533 37.9995 12.3698 38.0002 13.1945V28.927C38.0032 29.75 37.8424 30.5654 37.5271 31.3256C37.2118 32.0858 36.7483 32.7756 36.1636 33.3549C34.9603 34.5634 33.5248 34.8537 32.1157 35.1387H31.9996C31.1492 35.3193 30.2829 35.4148 29.4136 35.4237Z" fill="#0DD8AF"/>
<path d="M20.8096 2.6388C22.1211 2.6388 23.3789 3.1598 24.3063 4.08718C25.2337 5.01457 25.7547 6.27238 25.7547 7.5839V26.388C25.7533 27.6991 25.2318 28.9561 24.3047 29.8831C23.3776 30.8102 22.1206 31.3317 20.8096 31.3331H7.5839C6.27238 31.3331 5.01457 30.8121 4.08718 29.8847C3.1598 28.9573 2.6388 27.6995 2.6388 26.388V7.5839C2.6381 6.93431 2.76554 6.29095 3.01381 5.69067C3.26208 5.09039 3.6263 4.54497 4.08564 4.08564C4.54497 3.6263 5.09039 3.26208 5.69067 3.01381C6.29095 2.76554 6.93431 2.6381 7.5839 2.6388H20.8096ZM20.8096 0H7.5839C5.57338 0.00279239 3.64601 0.802705 2.22436 2.22436C0.802705 3.64601 0.00279239 5.57338 0 7.5839L0 26.388C0.00558166 28.3967 0.806725 30.3213 2.22808 31.7407C3.64943 33.1601 5.57521 33.9585 7.5839 33.9613H20.8096C22.8182 33.9585 24.744 33.1601 26.1654 31.7407C27.5867 30.3213 28.3879 28.3967 28.3935 26.388V7.5839C28.3907 5.57338 27.5907 3.64601 26.1691 2.22436C24.7474 0.802705 22.8201 0.00279239 20.8096 0Z" fill="#0DD8AF"/>
</svg>
