<svg width="146" height="146" viewBox="0 0 146 146" fill="none" xmlns="http://www.w3.org/2000/svg">
<g clip-path="url(#clip0_1050_354)">
<path d="M4 47.9004H141V108.567C141 114.782 138.537 120.742 134.153 125.137C129.769 129.531 123.823 132 117.623 132H27.3771C21.1771 132 15.2311 129.531 10.847 125.137C6.46294 120.742 4 114.782 4 108.567V47.9004Z" fill="#30F3BC"/>
<path d="M31.6348 86.6696L58.5732 72.9688V80.4873L39.2348 89.9203L58.5732 99.6525V107.211L31.6348 93.2508V86.6696Z" fill="white"/>
<path d="M60.8613 109.743L77.1358 65.5098H84.139L67.9043 109.743H60.8613Z" fill="white"/>
<path d="M113.426 93.5101L86.4277 107.211V99.6326L105.766 90.1995L86.4277 80.4873V72.9688L113.426 86.7893V93.5101Z" fill="white"/>
<path d="M23.4179 13H121.582C126.732 13 131.671 15.0507 135.313 18.701C138.954 22.3513 141 27.3021 141 32.4644V42.9145H4V32.4644C4 27.3021 6.04581 22.3513 9.68739 18.701C13.329 15.0507 18.268 13 23.4179 13Z" fill="#235065"/>
<path d="M22.5036 34.3793C25.5582 34.3793 28.0345 31.8971 28.0345 28.8352C28.0345 25.7732 25.5582 23.291 22.5036 23.291C19.4489 23.291 16.9727 25.7732 16.9727 28.8352C16.9727 31.8971 19.4489 34.3793 22.5036 34.3793Z" fill="#30F3BC"/>
<path d="M38.9157 34.3793C41.9703 34.3793 44.4466 31.8971 44.4466 28.8352C44.4466 25.7732 41.9703 23.291 38.9157 23.291C35.861 23.291 33.3848 25.7732 33.3848 28.8352C33.3848 31.8971 35.861 34.3793 38.9157 34.3793Z" fill="#029789"/>
<path d="M55.3493 34.3793C58.4039 34.3793 60.8802 31.8971 60.8802 28.8352C60.8802 25.7732 58.4039 23.291 55.3493 23.291C52.2946 23.291 49.8184 25.7732 49.8184 28.8352C49.8184 31.8971 52.2946 34.3793 55.3493 34.3793Z" fill="white"/>
</g>
<defs>
<clipPath id="clip0_1050_354">
<rect width="137" height="119" fill="white" transform="translate(4 13)"/>
</clipPath>
</defs>
</svg>
