<svg width="146" height="146" viewBox="0 0 146 146" fill="none" xmlns="http://www.w3.org/2000/svg">
<path d="M8.7179 140.433C7.87221 140.112 7.15232 139.528 6.66468 138.766C6.17703 138.004 5.94753 137.105 6.01009 136.203C6.05504 135.241 6.4559 134.331 7.13469 133.649C7.81348 132.968 8.72166 132.563 9.68256 132.513C10.8165 132.513 11.9503 132.513 13.0673 132.513C13.7781 132.513 14.0997 132.242 14.0658 131.515C14.0658 130.516 14.0658 129.518 14.0658 128.519C14.0747 127.507 14.4805 126.54 15.1958 125.824C15.9112 125.109 16.8789 124.703 17.8906 124.694H127.184C127.783 124.615 128.392 124.674 128.965 124.866C129.537 125.059 130.058 125.379 130.488 125.804C130.917 126.229 131.244 126.746 131.443 127.316C131.642 127.887 131.708 128.495 131.635 129.095C131.669 129.743 131.669 130.392 131.635 131.041C131.517 132.175 131.923 132.733 133.091 132.53C133.7 132.53 134.309 132.53 134.919 132.53C135.901 132.357 136.912 132.526 137.784 133.01C138.656 133.494 139.335 134.262 139.708 135.187C139.708 136.761 139.708 138.318 139.708 139.875C139.708 140.315 139.708 140.501 139.183 140.417C138.964 140.4 138.743 140.4 138.523 140.417L8.7179 140.433Z" fill="#30F3BC"/>
<path d="M139.709 74.6831C139.335 75.5668 138.688 76.3078 137.863 76.798C137.038 77.2882 136.078 77.5018 135.123 77.4078C123.174 77.4078 111.226 77.4078 99.2781 77.4078H97.8734C97.7719 76.8155 98.178 76.714 98.415 76.5278C107.482 69.8945 113.564 59.9505 115.339 48.8574C115.916 45.8239 116.047 42.7223 115.728 39.6509C115.593 38.4493 116.083 38.2123 117.234 38.06C121.11 37.5354 123.242 39.1939 124.918 42.6802C129.555 52.5468 134.632 62.278 139.709 72.0769V74.6831Z" fill="#30F3BC"/>
<path d="M72.8423 77.3916C53.583 77.6624 37.4546 61.3478 37.5054 41.987C37.4233 37.2788 38.2822 32.6016 40.0317 28.2297C41.7811 23.8579 44.386 19.8793 47.6934 16.5274C51.0008 13.1756 54.9442 10.5178 59.2923 8.71013C63.6404 6.90243 68.3057 5.98114 73.0146 6.00029C77.7235 6.01945 82.3812 6.97866 86.7144 8.82168C91.0477 10.6647 94.9693 13.3544 98.2494 16.7331C101.529 20.1118 104.102 24.1114 105.816 28.4973C107.529 32.8833 108.35 37.5673 108.23 42.2747C108.128 61.3817 92.1861 77.6793 72.8423 77.3916Z" fill="#235065"/>
<path d="M47.9989 77.1888C47.5758 77.5442 47.085 77.375 46.628 77.375C34.6121 77.375 22.5624 77.375 10.5465 77.375C9.78098 77.4305 9.01481 77.276 8.3307 76.928C7.64659 76.58 7.07052 76.0517 6.66466 75.4003C6.25881 74.7488 6.03858 73.9989 6.02776 73.2314C6.01694 72.4639 6.21593 71.7081 6.60326 71.0455C11.7481 61.0379 16.8252 51.0077 21.8347 40.955C22.1966 39.9926 22.8736 39.181 23.7556 38.6525C24.6375 38.1239 25.6724 37.9095 26.6918 38.0441C27.081 38.0441 27.4872 38.0441 27.8765 38.0441C30.2289 38.0441 30.212 38.0441 30.0766 40.4134C29.7252 46.5868 30.8145 52.7573 33.2582 58.4372C36.1988 65.5447 41.0125 71.7213 47.1865 76.3088C47.525 76.5795 47.9312 76.7319 47.9989 77.1888Z" fill="#30F3BC"/>
<path d="M45.58 101.17C45.58 105.943 45.58 110.732 45.58 115.504C45.58 116.706 45.2077 117.061 44.023 117.045C37.152 117.045 30.2978 117.045 23.4268 117.045C22.2252 117.045 21.8867 116.655 21.8867 115.488C21.8867 105.841 21.8867 96.2001 21.8867 86.5648C21.8867 85.3632 22.259 85.0078 23.4437 85.0078C30.3148 85.0078 37.1802 85.0078 44.04 85.0078C45.2416 85.0078 45.597 85.3971 45.58 86.5817C45.5462 91.4389 45.58 96.3129 45.58 101.17Z" fill="#30F3BC"/>
<path d="M61.0449 101.018C61.0449 96.2114 61.0449 91.3881 61.0449 86.5648C61.0449 85.3632 61.4172 85.0078 62.6188 85.0078C69.4673 85.0078 76.3271 85.0078 83.1982 85.0078C84.3998 85.0078 84.7552 85.3971 84.7382 86.5817C84.7382 96.2057 84.7382 105.847 84.7382 115.504C84.7382 116.689 84.3659 117.061 83.1812 117.045C76.3327 117.045 69.473 117.045 62.6019 117.045C61.4003 117.045 61.0449 116.672 61.0449 115.488C61.0788 110.664 61.0449 105.841 61.0449 101.018Z" fill="#30F3BC"/>
<path d="M123.799 101.17C123.799 105.943 123.799 110.732 123.799 115.504C123.799 116.706 123.41 117.061 122.225 117.045C115.455 117.045 108.517 117.045 101.646 117.045C100.444 117.045 100.105 116.655 100.105 115.488C100.105 105.841 100.105 96.2001 100.105 86.5648C100.105 85.3632 100.478 85.0078 101.662 85.0078C108.522 85.0078 115.382 85.0078 122.242 85.0078C123.46 85.0078 123.799 85.3971 123.799 86.5817C123.782 91.4389 123.799 96.3129 123.799 101.17Z" fill="#30F3BC"/>
<path d="M75.8881 61.4833L69.711 51.8198C68.7792 50.2528 67.6408 48.8183 66.3262 47.555C65.0335 46.5546 63.4225 46.0556 61.7906 46.1504H59.7936V40.4301H64.5323C66.2074 40.4637 67.8665 40.0983 69.3725 39.3639C70.5812 38.819 71.5287 37.8228 72.0126 36.5884H59.7936V31.5113H72.1141C71.9626 30.9249 71.6922 30.3758 71.3195 29.8984C70.9468 29.4209 70.48 29.0252 69.9479 28.7358C68.2751 27.9258 66.4206 27.5643 64.5661 27.6865H59.7598V22.6094H85.8732V27.6865H78.5452C79.0579 28.1816 79.4917 28.7523 79.8314 29.3789C80.1618 30.0554 80.379 30.7814 80.4745 31.5282H85.9409V36.6054H80.3222C79.8521 38.4923 78.7464 40.1597 77.1913 41.3271C75.3851 42.6984 73.2697 43.605 71.031 43.9672V44.0857C72.2708 44.6288 73.3877 45.4175 74.3142 46.4042C75.4297 47.6497 76.4695 48.9608 77.4282 50.3306L85.1793 61.4664L75.8881 61.4833Z" fill="white"/>
</svg>
