<svg width="48" height="45" viewBox="0 0 48 45" fill="none" xmlns="http://www.w3.org/2000/svg">
<path d="M28.4791 3.95776H12.3336C9.46559 3.95776 7.14062 6.30509 7.14062 9.20065V32.3957C7.14062 35.2913 9.46559 37.6386 12.3336 37.6386H28.4791C31.347 37.6386 33.672 35.2913 33.672 32.3957V9.20065C33.672 6.30509 31.347 3.95776 28.4791 3.95776Z" fill="#0DD8AF"/>
<path d="M23.7395 8.54907H11.4814C10.9426 8.54907 10.5059 8.99003 10.5059 9.53398C10.5059 10.0779 10.9426 10.5189 11.4814 10.5189H23.7395C24.2783 10.5189 24.7151 10.0779 24.7151 9.53398C24.7151 8.99003 24.2783 8.54907 23.7395 8.54907Z" fill="white"/>
<path d="M23.7395 14.2544H11.4814C10.9426 14.2544 10.5059 14.6954 10.5059 15.2393C10.5059 15.7833 10.9426 16.2242 11.4814 16.2242H23.7395C24.2783 16.2242 24.7151 15.7833 24.7151 15.2393C24.7151 14.6954 24.2783 14.2544 23.7395 14.2544Z" fill="white"/>
<path d="M29.3266 19.9648H11.4814C10.9426 19.9648 10.5059 20.4058 10.5059 20.9498C10.5059 21.4937 10.9426 21.9347 11.4814 21.9347H29.3266C29.8654 21.9347 30.3022 21.4937 30.3022 20.9498C30.3022 20.4058 29.8654 19.9648 29.3266 19.9648Z" fill="white"/>
<path d="M29.1313 25.4617H11.2861C10.7473 25.4617 10.3105 25.9026 10.3105 26.4466C10.3105 26.9905 10.7473 27.4315 11.2861 27.4315H29.1313C29.6701 27.4315 30.1069 26.9905 30.1069 26.4466C30.1069 25.9026 29.6701 25.4617 29.1313 25.4617Z" fill="white"/>
<path d="M29.3266 30.9531H11.4814C10.9426 30.9531 10.5059 31.3941 10.5059 31.938C10.5059 32.482 10.9426 32.9229 11.4814 32.9229H29.3266C29.8654 32.9229 30.3022 32.482 30.3022 31.938C30.3022 31.3941 29.8654 30.9531 29.3266 30.9531Z" fill="white"/>
<path d="M32.019 41.1057C37.5319 41.1057 42.0009 36.5937 42.0009 31.0278C42.0009 25.462 37.5319 20.95 32.019 20.95C26.5062 20.95 22.0371 25.462 22.0371 31.0278C22.0371 36.5937 26.5062 41.1057 32.019 41.1057Z" fill="#235065"/>
<path d="M32.8841 36.2059L30.9527 33.1567C30.661 32.6588 30.2992 32.2064 29.8787 31.8136C29.479 31.4958 28.9772 31.3381 28.4696 31.3709H27.8586V29.5702H29.3367C29.8605 29.5825 30.3795 29.4665 30.8493 29.232C31.0395 29.15 31.2119 29.0309 31.3565 28.8815C31.501 28.7321 31.615 28.5554 31.6918 28.3615H27.8586V26.7597H31.7065C31.6581 26.5755 31.5734 26.403 31.4574 26.2526C31.3414 26.1022 31.1966 25.9769 31.0315 25.8843C30.5074 25.6297 29.9269 25.5165 29.3465 25.556H27.834V23.9592H36.0028V25.556H33.7118C33.8724 25.7154 34.0086 25.8981 34.1158 26.0982C34.222 26.305 34.292 26.5288 34.3227 26.7597H36.0324V28.3615H34.2685C34.1225 28.9597 33.7739 29.4876 33.2831 29.8538C32.7208 30.2901 32.061 30.5804 31.3616 30.6994V30.7342C31.7473 30.9077 32.0942 31.1581 32.3815 31.4704C32.7333 31.8638 33.0623 32.2773 33.3669 32.709L35.786 36.191L32.8841 36.2059Z" fill="white"/>
</svg>
