<svg width="48" height="45" viewBox="0 0 48 45" fill="none" xmlns="http://www.w3.org/2000/svg">
<path d="M28.4791 3.95703H12.3336C9.46559 3.95703 7.14062 6.30435 7.14062 9.19992V32.395C7.14062 35.2906 9.46559 37.6379 12.3336 37.6379H28.4791C31.347 37.6379 33.672 35.2906 33.672 32.395V9.19992C33.672 6.30435 31.347 3.95703 28.4791 3.95703Z" fill="#00EF64"/>
<path d="M23.7395 8.54883H11.4814C10.9426 8.54883 10.5059 8.98979 10.5059 9.53374C10.5059 10.0777 10.9426 10.5186 11.4814 10.5186H23.7395C24.2783 10.5186 24.7151 10.0777 24.7151 9.53374C24.7151 8.98979 24.2783 8.54883 23.7395 8.54883Z" fill="white"/>
<path d="M23.7395 14.2539H11.4814C10.9426 14.2539 10.5059 14.6949 10.5059 15.2388C10.5059 15.7828 10.9426 16.2237 11.4814 16.2237H23.7395C24.2783 16.2237 24.7151 15.7828 24.7151 15.2388C24.7151 14.6949 24.2783 14.2539 23.7395 14.2539Z" fill="white"/>
<path d="M29.3266 19.9648H11.4814C10.9426 19.9648 10.5059 20.4058 10.5059 20.9498C10.5059 21.4937 10.9426 21.9347 11.4814 21.9347H29.3266C29.8654 21.9347 30.3022 21.4937 30.3022 20.9498C30.3022 20.4058 29.8654 19.9648 29.3266 19.9648Z" fill="white"/>
<path d="M29.1313 25.4609H11.2861C10.7473 25.4609 10.3105 25.9019 10.3105 26.4458C10.3105 26.9898 10.7473 27.4308 11.2861 27.4308H29.1313C29.6701 27.4308 30.1069 26.9898 30.1069 26.4458C30.1069 25.9019 29.6701 25.4609 29.1313 25.4609Z" fill="white"/>
<path d="M29.3266 30.9531H11.4814C10.9426 30.9531 10.5059 31.3941 10.5059 31.938C10.5059 32.482 10.9426 32.9229 11.4814 32.9229H29.3266C29.8654 32.9229 30.3022 32.482 30.3022 31.938C30.3022 31.3941 29.8654 30.9531 29.3266 30.9531Z" fill="white"/>
<path d="M32.019 41.105C37.5319 41.105 42.0009 36.593 42.0009 31.0271C42.0009 25.4612 37.5319 20.9492 32.019 20.9492C26.5062 20.9492 22.0371 25.4612 22.0371 31.0271C22.0371 36.593 26.5062 41.105 32.019 41.105Z" fill="#0A7D50"/>
<path d="M32.8841 36.2057L30.9527 33.1564C30.661 32.6586 30.2992 32.2062 29.8787 31.8134C29.479 31.4956 28.9772 31.3379 28.4696 31.3707H27.8586V29.57H29.3367C29.8605 29.5823 30.3795 29.4662 30.8493 29.2317C31.0395 29.1497 31.2119 29.0306 31.3565 28.8813C31.501 28.7319 31.615 28.5552 31.6918 28.3612H27.8586V26.7595H31.7065C31.6581 26.5753 31.5734 26.4028 31.4574 26.2523C31.3414 26.1019 31.1966 25.9766 31.0315 25.884C30.5074 25.6294 29.9269 25.5163 29.3465 25.5557H27.834V23.959H36.0028V25.5557H33.7118C33.8724 25.7151 34.0086 25.8979 34.1158 26.0979C34.222 26.3048 34.292 26.5286 34.3227 26.7595H36.0324V28.3612H34.2685C34.1225 28.9595 33.7739 29.4873 33.2831 29.8535C32.7208 30.2898 32.061 30.5802 31.3616 30.6991V30.734C31.7473 30.9075 32.0942 31.1579 32.3815 31.4701C32.7333 31.8635 33.0623 32.2771 33.3669 32.7087L35.786 36.1907L32.8841 36.2057Z" fill="white"/>
</svg>
