<svg width="48" height="45" viewBox="0 0 48 45" fill="none" xmlns="http://www.w3.org/2000/svg">
<g clip-path="url(#clip0_1045_633)">
<path d="M28.1746 31.4301C26.2445 31.4321 24.3165 31.2939 22.4033 31.0164C18.644 30.4605 17.3732 29.7134 16.689 29.1263C15.2187 27.8588 14.5874 26.3156 14.0294 24.9547C13.4714 23.5938 13.06 22.5931 11.9929 21.8815C11.663 21.6636 10.4045 21.3123 8.64092 21.2144C8.24611 21.1922 7.85052 21.1922 7.45571 21.2144H1.52148V18.546H7.37018C7.83041 18.5238 8.2988 18.546 8.75904 18.546C9.50438 18.5905 12.0174 18.7862 13.2392 19.6C14.9661 20.743 15.6463 22.4019 16.245 23.8651C16.7297 25.0525 17.1899 26.1733 18.1878 27.0316C18.9698 27.7076 21.0796 28.1346 22.7128 28.3658C25.8597 28.8164 29.043 28.8791 32.2027 28.5526L32.4267 31.221C31.0134 31.35 29.5879 31.4301 28.1746 31.4301Z" fill="#235065"/>
<path d="M29.5099 33.0001L31.8722 29.8958L29.0293 27.3164L31.2409 27.094L34.0838 29.6735L31.7174 32.7777L29.5099 33.0001Z" fill="#235065"/>
<path d="M35.8395 18.5149H14.6074V21.1833H35.8395V18.5149Z" fill="#029789"/>
<path d="M32.7695 22.7043L35.3843 19.8491L32.7695 16.9983H34.9893L37.6 19.8491L34.9893 22.7043H32.7695Z" fill="#029789"/>
<path d="M12.6607 21.1832H12.506L1 21.1654V18.497H12.5141C14.3632 18.5193 15.8294 18.0745 16.8762 17.1628C17.9229 16.2511 18.3384 15.206 18.823 14.0052C19.4258 12.542 20.1019 10.892 21.8288 9.74015C23.401 8.70836 24.9202 8.70391 26.3783 8.69946H28.8505C31.8319 8.69946 35.0413 8.69946 38.5196 8.69946V11.3679C35.0454 11.3679 31.836 11.3679 28.8587 11.3679H26.3905C25.1075 11.3679 24.0934 11.3679 23.0955 12.035C22.0243 12.7466 21.5967 13.7873 21.0591 15.1081C20.5214 16.429 19.8657 18.0078 18.3954 19.2798C16.9251 20.5517 15.0026 21.1832 12.6607 21.1832Z" fill="#0DD8AF"/>
<path d="M34.1895 6.00445L37.8754 10.0204L34.1976 14.0453L37.3256 14.0408L40.9994 10.016L37.3174 6L34.1895 6.00445Z" fill="#0DD8AF"/>
</g>
<defs>
<clipPath id="clip0_1045_633">
<rect width="40" height="27" fill="white" transform="translate(1 6)"/>
</clipPath>
</defs>
</svg>
