<svg width="48" height="45" viewBox="0 0 48 45" fill="none" xmlns="http://www.w3.org/2000/svg">
<g clip-path="url(#clip0_3311_2725)">
<path d="M28.1746 31.431C26.2445 31.4331 24.3165 31.2949 22.4033 31.0174C18.644 30.4615 17.3732 29.7143 16.689 29.1273C15.2187 27.8598 14.5874 26.3166 14.0294 24.9557C13.4714 23.5948 13.06 22.5941 11.9929 21.8825C11.663 21.6646 10.4045 21.3133 8.64092 21.2154C8.24611 21.1932 7.85052 21.1932 7.45571 21.2154H1.52148V18.547H7.37018C7.83041 18.5248 8.2988 18.547 8.75904 18.547C9.50438 18.5915 12.0174 18.7872 13.2392 19.601C14.9661 20.744 15.6463 22.4029 16.245 23.8661C16.7297 25.0535 17.1899 26.1742 18.1878 27.0326C18.9698 27.7086 21.0796 28.1355 22.7128 28.3668C25.8597 28.8174 29.043 28.8801 32.2027 28.5536L32.4267 31.222C31.0134 31.351 29.5879 31.431 28.1746 31.431Z" fill="#0A7D50"/>
<path d="M29.5099 32.9999L31.8722 29.8956L29.0293 27.3161L31.2409 27.0938L34.0838 29.6732L31.7174 32.7775L29.5099 32.9999Z" fill="#235065"/>
<path d="M35.8395 18.5156H14.6074V21.184H35.8395V18.5156Z" fill="#00EF64"/>
<path d="M32.7695 22.704L35.3843 19.8488L32.7695 16.998H34.9893L37.6 19.8488L34.9893 22.704H32.7695Z" fill="#029789"/>
<path d="M12.6607 21.183H12.506L1 21.1652V18.4968H12.5141C14.3632 18.519 15.8294 18.0743 16.8762 17.1626C17.9229 16.2509 18.3384 15.2057 18.823 14.0049C19.4258 12.5417 20.1019 10.8918 21.8288 9.7399C23.401 8.70811 24.9202 8.70367 26.3783 8.69922H28.8505C31.8319 8.69922 35.0413 8.69922 38.5196 8.69922V11.3676C35.0454 11.3676 31.836 11.3676 28.8587 11.3676H26.3905C25.1075 11.3676 24.0934 11.3676 23.0955 12.0347C22.0243 12.7463 21.5967 13.787 21.0591 15.1079C20.5214 16.4288 19.8657 18.0076 18.3954 19.2795C16.9251 20.5515 15.0026 21.183 12.6607 21.183Z" fill="#00EF64"/>
<path d="M34.1895 6.00445L37.8754 10.0204L34.1976 14.0453L37.3256 14.0408L40.9994 10.016L37.3174 6L34.1895 6.00445Z" fill="#0DD8AF"/>
</g>
<defs>
<clipPath id="clip0_3311_2725">
<rect width="40" height="27" fill="white" transform="translate(1 6)"/>
</clipPath>
</defs>
</svg>
