<svg width="48" height="45" viewBox="0 0 48 45" fill="none" xmlns="http://www.w3.org/2000/svg">
<g clip-path="url(#clip0_1045_648)">
<path d="M15.9801 24.4751C15.9801 20.2351 16.036 15.9951 15.9801 11.7652C15.9343 9.35033 14.6174 7.66246 12.4513 6.62533C12.3343 6.56432 12.1259 6.56432 12.131 6.40672C12.136 6.24911 12.3343 6.20336 12.4716 6.14235C12.6696 6.05144 12.8843 6.00295 13.1021 6C20.1191 6 27.1411 6 34.1632 6C35.5851 6.04372 36.9455 6.59037 38.0023 7.5427C39.059 8.49503 39.7436 9.79129 39.9343 11.2009C39.9724 11.513 39.9928 11.827 39.9954 12.1414C39.9954 20.5096 39.9954 28.8744 39.9954 37.2359C40.0158 37.4926 39.9775 37.7505 39.8832 37.9902C39.7889 38.2298 39.6412 38.4448 39.4513 38.6187C39.1716 38.8688 38.8096 39.0071 38.4343 39.0071C38.0591 39.0071 37.6971 38.8688 37.4174 38.6187C36.1513 37.5511 34.875 36.4682 33.6343 35.3904C33.2123 35.0243 33.2123 35.0142 32.7954 35.365C31.6021 36.3818 30.4055 37.4087 29.2055 38.4458C28.3259 39.2034 27.6038 39.2034 26.7242 38.4458C25.4937 37.3833 24.2479 36.3411 23.0276 35.2684C22.7835 35.0548 22.6411 35.0904 22.4225 35.2684C21.1411 36.3767 19.8496 37.4748 18.5632 38.578C18.3394 38.7944 18.0549 38.9371 17.7477 38.9871C17.4404 39.0371 17.1253 38.9919 16.8445 38.8576C16.5563 38.7271 16.3158 38.5102 16.1564 38.2369C15.997 37.9636 15.9265 37.6476 15.9547 37.3325V24.4751H15.9801ZM27.9852 12.1008H23.6377C23.4878 12.0972 23.3378 12.1092 23.1903 12.1363C22.84 12.2151 22.5314 12.4211 22.3244 12.7144C22.1173 13.0076 22.0266 13.3673 22.0696 13.7237C22.1127 14.0801 22.2865 14.4078 22.5574 14.6433C22.8283 14.8789 23.1771 15.0055 23.536 14.9986C26.4987 14.9986 29.4665 14.9986 32.4394 14.9986C32.5556 14.9994 32.6716 14.9874 32.7852 14.963C33.1372 14.8844 33.4472 14.6773 33.6546 14.3823C33.862 14.0872 33.952 13.7255 33.9068 13.3677C33.8617 13.0099 33.6848 12.6818 33.4106 12.4475C33.1364 12.2132 32.7847 12.0896 32.4242 12.1008H27.9852ZM27.9852 20.9672C29.5106 20.9672 31.0004 20.9672 32.5106 20.9672C32.7054 20.9656 32.8977 20.9241 33.0759 20.8454C33.2541 20.7668 33.4143 20.6525 33.5466 20.5097C33.679 20.3668 33.7808 20.1984 33.8457 20.0148C33.9107 19.8312 33.9373 19.6363 33.9242 19.442C33.8818 19.0423 33.6834 18.6756 33.372 18.4214C33.0607 18.1672 32.6616 18.0462 32.2615 18.0846H23.7089C23.4283 18.0764 23.1491 18.1284 22.8903 18.2371C22.5974 18.3746 22.3586 18.6056 22.2113 18.8936C22.0641 19.1817 22.0167 19.5105 22.0767 19.8284C22.1344 20.1537 22.3054 20.4481 22.5596 20.6594C22.8137 20.8707 23.1344 20.9851 23.4648 20.9824C24.975 20.9468 26.4801 20.9418 27.9852 20.9418V20.9672ZM27.9852 26.9866H32.2615C32.5018 27.0038 32.743 26.9671 32.9673 26.8791C33.1917 26.7912 33.3935 26.6542 33.5581 26.4782C33.758 26.276 33.8899 26.0165 33.9355 25.7359C33.981 25.4552 33.938 25.1674 33.8123 24.9123C33.7086 24.6554 33.5289 24.4364 33.2971 24.2846C33.0653 24.1329 32.7926 24.0556 32.5157 24.0633H26.3225C25.3513 24.0633 24.3801 24.0633 23.414 24.0633C23.1884 24.0724 22.9681 24.1348 22.7712 24.2454C22.5744 24.356 22.4065 24.5117 22.2815 24.6998C22.1565 24.8878 22.0778 25.1028 22.0519 25.3271C22.026 25.5514 22.0537 25.7786 22.1326 25.9901C22.2521 26.3052 22.4725 26.5718 22.7595 26.7484C23.0465 26.925 23.384 27.0016 23.7191 26.9663C25.1377 26.9663 26.5513 26.9612 27.9648 26.9612L27.9852 26.9866Z" fill="#0DD8AF"/>
<path d="M13.0722 17.5659C13.0722 19.5741 13.0722 21.5823 13.0722 23.5904C13.0722 23.9412 12.9756 24.0632 12.6146 24.0581C11.3078 24.0581 10.001 24.0581 8.69425 24.0581C8.4651 24.0762 8.23477 24.0439 8.01941 23.9636C7.80405 23.8832 7.60887 23.7568 7.44755 23.5931C7.28622 23.4294 7.16267 23.2323 7.08553 23.0158C7.0084 22.7993 6.97956 22.5686 7.00103 22.3398V11.6634C7.01683 10.8712 7.34037 10.1161 7.90315 9.55819C8.46594 9.00024 9.22379 8.68316 10.0163 8.67407C10.8124 8.67382 11.577 8.98471 12.147 9.54038C12.717 10.096 13.0472 10.8525 13.0671 11.6482C13.0671 13.6208 13.0671 15.5933 13.0671 17.5659H13.0722Z" fill="#235065"/>
</g>
<defs>
<clipPath id="clip0_1045_648">
<rect width="33" height="33" fill="white" transform="translate(7 6)"/>
</clipPath>
</defs>
</svg>
