<svg width="34" height="35" viewBox="0 0 34 35" fill="none" xmlns="http://www.w3.org/2000/svg">
<path d="M27.3405 34.011H6.63664L6.28592 33.9185C5.66999 33.7485 5.10946 33.4199 4.66037 32.9654C4.21129 32.5109 3.88938 31.9465 3.72685 31.3286C3.6125 30.878 3.56318 30.4134 3.5804 29.9488C3.5804 26.935 3.5804 23.9198 3.5804 20.9034C3.5804 20.7916 3.5804 20.6837 3.5804 20.572C3.5804 20.3407 3.49175 20.2289 3.2528 20.2174C2.99377 20.2169 2.73548 20.1898 2.482 20.1364C1.86505 20.0111 1.29945 19.7047 0.857381 19.2564C0.415312 18.8082 0.116821 18.2384 0 17.6198L0 16.425C0.187358 15.6829 0.589559 15.0126 1.15621 14.498C5.59862 10.0684 10.0423 5.62216 14.4873 1.15919C14.653 0.993472 14.8188 0.831602 14.996 0.685149C15.5151 0.266114 16.1561 0.0267494 16.8228 0.0029855C17.3049 -0.0175973 17.7856 0.0684453 18.2306 0.254977C18.6756 0.441509 19.074 0.723935 19.3973 1.08211C23.8988 5.59133 28.4029 10.0967 32.9096 14.5982C33.0459 14.7376 33.1745 14.8843 33.295 15.0376C33.587 15.3872 33.7964 15.7981 33.9079 16.2398C34.0193 16.6815 34.0298 17.1426 33.9386 17.5889C33.8238 18.2894 33.4709 18.9288 32.9394 19.3992C32.4079 19.8697 31.7303 20.1423 31.0211 20.1711C30.3736 20.2289 30.3736 20.2289 30.3736 20.8687V29.9257C30.4279 30.7844 30.2195 31.6393 29.7762 32.3768C29.2096 33.2195 28.3351 33.8062 27.3405 34.011Z" fill="#00EF64"/>
<path d="M28.8472 20.4947V27.8443C28.8202 27.933 28.7971 28.0216 28.7701 28.1103C28.6188 28.6238 28.3055 29.0747 27.8769 29.3956C27.4484 29.7165 26.9275 29.8902 26.3921 29.8908C20.1563 29.8908 13.9192 29.8908 7.68082 29.8908C7.34986 29.8908 7.02215 29.8255 6.71653 29.6985C6.4109 29.5714 6.13338 29.3853 5.89989 29.1508C5.6664 28.9162 5.48154 28.6378 5.35594 28.3316C5.23035 28.0254 5.16647 27.6974 5.168 27.3664C5.168 25.2287 5.168 23.0885 5.168 20.9456C5.16581 20.4254 5.32365 19.9172 5.6201 19.4897C5.91655 19.0623 6.33727 18.7364 6.82523 18.5561C7.26388 18.4082 7.72848 18.3531 8.18956 18.3943C8.29181 18.3994 8.39395 18.3824 8.48905 18.3445C8.58415 18.3066 8.66998 18.2486 8.74068 18.1746C9.43441 17.5155 10.132 16.8642 10.8296 16.2129L15.2193 12.1237C15.2706 12.0904 15.3075 12.039 15.3225 11.9797C15.3375 11.9204 15.3295 11.8576 15.3002 11.8039C15.2045 11.5589 15.1688 11.2946 15.1962 11.0331C15.2163 10.7693 15.2927 10.5128 15.4201 10.281C15.5476 10.0492 15.7232 9.84732 15.9351 9.68899C16.1471 9.53065 16.3904 9.41951 16.6489 9.36304C16.9073 9.30657 17.1749 9.30607 17.4336 9.36158C17.6922 9.41708 17.936 9.52731 18.1485 9.68485C18.3611 9.8424 18.5374 10.0436 18.6657 10.275C18.7941 10.5063 18.8714 10.7624 18.8925 11.0262C18.9136 11.2899 18.878 11.555 18.7881 11.8039C18.7611 11.8664 18.7567 11.9364 18.7757 12.0018C18.7947 12.0672 18.8359 12.124 18.8922 12.1623C19.3007 12.5477 19.7015 12.9331 20.1062 13.2954C21.8405 14.9166 23.5723 16.5392 25.3015 18.163C25.3885 18.2534 25.4945 18.3234 25.6117 18.368C25.729 18.4126 25.8547 18.4308 25.9798 18.4212C26.379 18.3815 26.7821 18.4262 27.163 18.5523C27.5889 18.7007 27.9685 18.9582 28.264 19.299C28.5595 19.6398 28.7605 20.052 28.8472 20.4947ZM9.70419 18.3827H24.3495C24.2938 18.2831 24.2176 18.1964 24.126 18.1283L22.9081 16.9721C21.4127 15.5731 19.9174 14.1779 18.4259 12.7712C18.4005 12.7397 18.3691 12.7136 18.3334 12.6945C18.2977 12.6754 18.2585 12.6637 18.2182 12.6601C18.1779 12.6565 18.1373 12.661 18.0988 12.6735C18.0603 12.686 18.0247 12.7061 17.9942 12.7327C17.7172 12.9128 17.3939 13.0087 17.0635 13.0087C16.733 13.0087 16.4097 12.9128 16.1327 12.7327C16.0974 12.7034 16.0564 12.6817 16.0124 12.6689C15.9683 12.6561 15.9221 12.6525 15.8765 12.6582C15.831 12.664 15.7872 12.6791 15.7477 12.7025C15.7082 12.7259 15.674 12.7572 15.6471 12.7943C13.8743 14.4786 12.1168 16.1204 10.3594 17.7699L9.70419 18.3827Z" fill="#0A7D50"/>
<path d="M12.2585 26.6534H10.9173L10.2197 25.3584C10.1308 25.1833 10.0165 25.0222 9.88056 24.8805C9.77588 24.7782 9.64045 24.7132 9.49516 24.6955H9.17527V26.6534H7.98438V21.3888H9.86129C10.3699 21.3553 10.8752 21.4908 11.2988 21.7742C11.4616 21.9091 11.5899 22.0808 11.673 22.2752C11.7561 22.4696 11.7917 22.681 11.7767 22.8919C11.7853 23.2209 11.6759 23.5421 11.4684 23.7976C11.2466 24.0611 10.9536 24.2551 10.6244 24.3564C10.7979 24.4139 10.9507 24.5211 11.0637 24.6647C11.1946 24.8151 11.3108 24.9777 11.4106 25.1503L12.2585 26.6534ZM9.17527 22.2791V23.8207H9.69171C9.8048 23.8259 9.91776 23.8081 10.0238 23.7683C10.1297 23.7286 10.2266 23.6677 10.3084 23.5894C10.3845 23.5149 10.4444 23.4254 10.4842 23.3265C10.524 23.2277 10.5428 23.1217 10.5396 23.0152C10.5471 22.916 10.5322 22.8164 10.4962 22.7238C10.4602 22.6311 10.4039 22.5476 10.3315 22.4795C10.1543 22.3442 9.93313 22.2796 9.71098 22.2983L9.17527 22.2791Z" fill="white"/>
<path d="M16.0471 26.6533H12.8906V21.3887H15.9237V22.356H14.0738V23.5122H15.8004V24.4719H14.0738V25.6744H16.0471V26.6533Z" fill="white"/>
<path d="M21.6254 26.6533H20.4268L18.2609 23.3465C18.1953 23.2502 18.1414 23.1615 18.099 23.0922C18.0566 23.0228 18.0219 22.9573 17.9949 22.911C17.9949 23.0035 18.0142 23.1191 18.0181 23.2617C18.0219 23.4043 18.0181 23.5701 18.0181 23.7628V26.6533H16.9004V21.3887H18.1761L20.265 24.5952L20.3999 24.8072C20.4461 24.8804 20.4885 24.9536 20.527 25.023C20.527 24.9614 20.527 24.8727 20.5039 24.7494C20.4808 24.6261 20.5039 24.4796 20.5039 24.2985V21.3887H21.6254V26.6533Z" fill="white"/>
<path d="M26.5197 22.356H25.0205V26.6533H23.8296V22.356H22.3535V21.3887H26.5197V22.356Z" fill="white"/>
</svg>
