<svg width="34" height="35" viewBox="0 0 34 35" fill="none" xmlns="http://www.w3.org/2000/svg">
<path d="M27.3405 34.011H6.63664L6.28592 33.9185C5.66999 33.7485 5.10946 33.4199 4.66037 32.9654C4.21129 32.5109 3.88938 31.9465 3.72685 31.3286C3.6125 30.878 3.56318 30.4134 3.58039 29.9488C3.58039 26.935 3.58039 23.9198 3.58039 20.9034C3.58039 20.7916 3.58039 20.6837 3.58039 20.572C3.58039 20.3407 3.49175 20.2289 3.2528 20.2174C2.99377 20.2169 2.73548 20.1898 2.482 20.1364C1.86505 20.0111 1.29945 19.7047 0.857381 19.2564C0.415312 18.8082 0.116821 18.2384 0 17.6198L0 16.425C0.187358 15.6829 0.589559 15.0126 1.15621 14.498C5.59862 10.0684 10.0423 5.62216 14.4873 1.15919C14.653 0.993472 14.8188 0.831602 14.996 0.685149C15.5151 0.266114 16.1561 0.0267494 16.8228 0.0029855C17.3049 -0.0175973 17.7856 0.0684453 18.2306 0.254977C18.6756 0.441509 19.074 0.723935 19.3973 1.08211C23.8988 5.59133 28.4029 10.0967 32.9096 14.5982C33.0458 14.7376 33.1745 14.8843 33.295 15.0376C33.587 15.3872 33.7964 15.7981 33.9079 16.2398C34.0193 16.6815 34.0298 17.1426 33.9386 17.5889C33.8238 18.2894 33.4709 18.9288 32.9394 19.3992C32.4079 19.8697 31.7303 20.1423 31.0211 20.1711C30.3736 20.2289 30.3736 20.2289 30.3736 20.8687V29.9257C30.4279 30.7844 30.2195 31.6393 29.7762 32.3768C29.2096 33.2195 28.3351 33.8062 27.3405 34.011Z" fill="#0DD8AF"/>
<path d="M28.8472 20.4949V27.8446C28.8202 27.9332 28.7971 28.0219 28.7701 28.1105C28.6188 28.6241 28.3055 29.0749 27.8769 29.3958C27.4484 29.7167 26.9275 29.8905 26.3921 29.8911C20.1563 29.8911 13.9192 29.8911 7.68082 29.8911C7.34986 29.8911 7.02215 29.8257 6.71653 29.6987C6.4109 29.5717 6.13337 29.3856 5.89989 29.151C5.6664 28.9164 5.48154 28.6381 5.35594 28.3319C5.23035 28.0256 5.16647 27.6976 5.168 27.3667C5.168 25.229 5.168 23.0887 5.168 20.9459C5.16581 20.4257 5.32365 19.9174 5.6201 19.49C5.91655 19.0625 6.33727 18.7366 6.82523 18.5564C7.26388 18.4085 7.72848 18.3534 8.18956 18.3945C8.29181 18.3996 8.39395 18.3826 8.48905 18.3447C8.58415 18.3068 8.66998 18.2489 8.74068 18.1748C9.43441 17.5158 10.132 16.8644 10.8296 16.2131L15.2193 12.124C15.2706 12.0907 15.3075 12.0392 15.3225 11.9799C15.3375 11.9206 15.3295 11.8578 15.3002 11.8041C15.2045 11.5592 15.1688 11.2949 15.1962 11.0333C15.2163 10.7695 15.2927 10.5131 15.4201 10.2813C15.5476 10.0494 15.7232 9.84757 15.9351 9.68923C16.1471 9.5309 16.3904 9.41976 16.6489 9.36328C16.9073 9.30681 17.1749 9.30631 17.4336 9.36182C17.6922 9.41733 17.936 9.52756 18.1485 9.6851C18.3611 9.84264 18.5374 10.0438 18.6657 10.2752C18.7941 10.5066 18.8714 10.7627 18.8925 11.0264C18.9136 11.2901 18.878 11.5553 18.7881 11.8041C18.7611 11.8666 18.7567 11.9366 18.7757 12.002C18.7947 12.0675 18.8359 12.1242 18.8922 12.1625C19.3007 12.5479 19.7015 12.9333 20.1062 13.2956C21.8405 14.9169 23.5723 16.5394 25.3015 18.1633C25.3885 18.2536 25.4945 18.3236 25.6117 18.3682C25.729 18.4129 25.8547 18.4311 25.9798 18.4215C26.379 18.3818 26.7821 18.4264 27.163 18.5525C27.5889 18.701 27.9685 18.9584 28.264 19.2992C28.5595 19.64 28.7605 20.0523 28.8472 20.4949ZM9.70419 18.3829H24.3495C24.2938 18.2833 24.2176 18.1966 24.126 18.1286L22.9081 16.9724C21.4127 15.5733 19.9174 14.1782 18.4259 12.7715C18.4005 12.7399 18.3691 12.7138 18.3334 12.6947C18.2977 12.6756 18.2585 12.6639 18.2182 12.6603C18.1779 12.6567 18.1373 12.6613 18.0988 12.6738C18.0603 12.6862 18.0247 12.7064 17.9942 12.7329C17.7172 12.9131 17.3939 13.0089 17.0635 13.0089C16.733 13.0089 16.4097 12.9131 16.1327 12.7329C16.0974 12.7036 16.0564 12.6819 16.0124 12.6691C15.9683 12.6563 15.9221 12.6527 15.8765 12.6585C15.831 12.6643 15.7872 12.6793 15.7477 12.7027C15.7082 12.7261 15.674 12.7574 15.6471 12.7946C13.8743 14.4788 12.1168 16.1206 10.3594 17.7701L9.70419 18.3829Z" fill="#235065"/>
<path d="M12.2585 26.6536H10.9173L10.2197 25.3587C10.1308 25.1835 10.0165 25.0225 9.88056 24.8808C9.77588 24.7785 9.64045 24.7135 9.49516 24.6958H9.17527V26.6536H7.98438V21.389H9.86129C10.3699 21.3556 10.8752 21.4911 11.2988 21.7744C11.4616 21.9093 11.5899 22.0811 11.673 22.2755C11.7561 22.4698 11.7917 22.6812 11.7767 22.8921C11.7853 23.2211 11.6759 23.5423 11.4684 23.7978C11.2466 24.0613 10.9536 24.2553 10.6244 24.3566C10.7979 24.4141 10.9507 24.5213 11.0637 24.665C11.1946 24.8154 11.3108 24.978 11.4106 25.1506L12.2585 26.6536ZM9.17527 22.2793V23.8209H9.69171C9.8048 23.8261 9.91776 23.8083 10.0238 23.7685C10.1297 23.7288 10.2266 23.6679 10.3084 23.5897C10.3845 23.5151 10.4444 23.4256 10.4842 23.3268C10.524 23.2279 10.5428 23.1219 10.5396 23.0154C10.5471 22.9163 10.5322 22.8167 10.4962 22.724C10.4602 22.6313 10.4039 22.5478 10.3315 22.4797C10.1543 22.3444 9.93313 22.2798 9.71098 22.2986L9.17527 22.2793Z" fill="white"/>
<path d="M16.0471 26.6535H12.8906V21.3889H15.9237V22.3563H14.0738V23.5125H15.8004V24.4721H14.0738V25.6746H16.0471V26.6535Z" fill="white"/>
<path d="M21.6254 26.6535H20.4268L18.2609 23.3468C18.1953 23.2504 18.1414 23.1618 18.099 23.0924C18.0566 23.023 18.0219 22.9575 17.9949 22.9113C17.9949 23.0038 18.0142 23.1194 18.0181 23.262C18.0219 23.4046 18.0181 23.5703 18.0181 23.763V26.6535H16.9004V21.3889H18.1761L20.265 24.5955L20.3999 24.8074C20.4461 24.8807 20.4885 24.9539 20.527 25.0233C20.527 24.9616 20.527 24.873 20.5039 24.7496C20.4808 24.6263 20.5039 24.4798 20.5039 24.2987V21.3889H21.6254V26.6535Z" fill="white"/>
<path d="M26.5197 22.3563H25.0205V26.6535H23.8296V22.3563H22.3535V21.3889H26.5197V22.3563Z" fill="white"/>
</svg>
