<svg width="48" height="45" viewBox="0 0 48 45" fill="none" xmlns="http://www.w3.org/2000/svg">
<path d="M9.61841 4.89966H37.2947C37.2947 5.05601 37.2947 5.21742 37.2947 5.37377C37.2947 12.0988 37.2947 18.8137 37.2947 25.5186C37.3068 25.6789 37.2708 25.8391 37.1915 25.9785C37.1123 26.1179 36.9933 26.23 36.8501 26.3003C32.5072 28.9937 28.1592 31.6972 23.8063 34.4107C23.7082 34.4893 23.5867 34.532 23.4616 34.532C23.3364 34.532 23.2149 34.4893 23.1169 34.4107C18.7573 31.6165 14.3877 28.8306 10.0081 26.0532C9.86781 25.9782 9.75265 25.863 9.67709 25.7221C9.60153 25.5812 9.56894 25.4209 9.58344 25.2613C9.58344 18.6338 9.58344 12.0046 9.58344 5.37377C9.58844 5.21742 9.60842 5.05601 9.61841 4.89966Z" fill="#235065"/>
<path d="M41.9994 25.8919V42.3496C41.8446 42.3496 41.6897 42.3496 41.5298 42.3496H5.4557C4.88119 42.3496 4.88119 42.3496 4.88119 41.7747C4.88119 36.5695 4.88119 31.3576 4.88119 26.139C4.88119 25.9625 4.78627 25.7204 4.96112 25.6346C5.13597 25.5489 5.28085 25.7557 5.43072 25.8515C11.3124 29.6242 17.1923 33.3852 23.0706 37.1344C23.1696 37.2186 23.2934 37.2672 23.4227 37.2727C23.552 37.2782 23.6794 37.2402 23.785 37.1647C28.5876 34.1788 33.3901 31.1979 38.1927 28.2221C39.4566 27.4403 40.7305 26.6686 41.9994 25.8919Z" fill="#0DD8AF"/>
<path d="M41.9988 23.113C41.2694 23.567 40.545 24.026 39.8107 24.4749C39.4859 24.6766 39.441 24.6514 39.436 24.2882C39.436 22.2707 39.436 20.2532 39.436 18.2609C39.436 18.155 39.391 18.0188 39.5109 17.9634C39.6308 17.9079 39.6908 18.0188 39.7657 18.0743L41.9938 19.8195L41.9988 23.113Z" fill="#0DD8AF"/>
<path d="M7.4696 21.1658C7.4696 22.1141 7.4696 23.0623 7.4696 24.0105C7.4696 24.3636 7.41964 24.3888 7.12489 24.2072C6.46046 23.7886 5.80103 23.3599 5.1266 22.9463C5.0381 22.8983 4.96597 22.8245 4.91963 22.7346C4.87328 22.6446 4.85488 22.5426 4.86682 22.4419C4.86682 21.6652 4.86682 20.8834 4.86682 20.1066C4.85948 20.0082 4.8783 19.9095 4.92133 19.8209C4.96436 19.7322 5.03005 19.6567 5.11162 19.6023L7.10991 18.0891C7.19983 18.0185 7.28975 17.8874 7.41964 17.958C7.54953 18.0286 7.47959 18.1547 7.47959 18.2606L7.4696 21.1658Z" fill="#0DD8AF"/>
<path d="M24.6294 25.7608L22.1715 21.8721C21.7961 21.2407 21.3354 20.6652 20.8026 20.1623C20.2905 19.7607 19.6516 19.56 19.0042 19.5974H18.2248V17.3025H20.1132C20.7795 17.3154 21.4391 17.1667 22.0366 16.8687C22.2797 16.7639 22.4999 16.6114 22.6843 16.42C22.8686 16.2287 23.0136 16.0023 23.1107 15.754H18.2248V13.7365H23.1306C23.0704 13.5007 22.9631 13.2798 22.8153 13.0872C22.6676 12.8947 22.4825 12.7346 22.2714 12.6168C21.6025 12.2942 20.8629 12.15 20.1232 12.1982H18.2148V10.1807H28.611V12.1982H25.6885C25.8911 12.3976 26.0599 12.6293 26.188 12.8841C26.3266 13.1497 26.4163 13.4386 26.4528 13.7365H28.6309V15.754H26.3978C26.2131 16.5125 25.7735 17.1827 25.1539 17.6505C24.4364 18.207 23.5938 18.576 22.701 18.7248V18.7702C23.1939 18.9909 23.6374 19.31 24.0049 19.7083C24.4512 20.207 24.8651 20.7343 25.2438 21.287L28.3362 25.7608H24.6294Z" fill="white"/>
</svg>
