<svg width="48" height="45" viewBox="0 0 48 45" fill="none" xmlns="http://www.w3.org/2000/svg">
<path d="M9.61841 4.90039H37.2947C37.2947 5.05675 37.2947 5.21815 37.2947 5.3745C37.2947 12.0995 37.2947 18.8145 37.2947 25.5193C37.3068 25.6796 37.2708 25.8398 37.1915 25.9792C37.1123 26.1186 36.9933 26.2308 36.8501 26.3011C32.5072 28.9944 28.1592 31.6979 23.8063 34.4114C23.7082 34.49 23.5867 34.5328 23.4616 34.5328C23.3364 34.5328 23.2149 34.49 23.1169 34.4114C18.7573 31.6172 14.3877 28.8314 10.0081 26.0539C9.86781 25.979 9.75265 25.8638 9.67709 25.7229C9.60153 25.582 9.56894 25.4216 9.58344 25.2621C9.58344 18.6346 9.58344 12.0054 9.58344 5.3745C9.58844 5.21815 9.60842 5.05675 9.61841 4.90039Z" fill="#0A7D50"/>
<path d="M41.9994 25.8928V42.3506C41.8446 42.3506 41.6897 42.3506 41.5298 42.3506H5.4557C4.88119 42.3506 4.88119 42.3506 4.88119 41.7756C4.88119 36.5705 4.88119 31.3586 4.88119 26.14C4.88119 25.9634 4.78627 25.7213 4.96112 25.6356C5.13597 25.5499 5.28085 25.7566 5.43072 25.8525C11.3124 29.6252 17.1923 33.3862 23.0706 37.1354C23.1696 37.2195 23.2934 37.2682 23.4227 37.2737C23.552 37.2791 23.6794 37.2411 23.785 37.1656C28.5876 34.1797 33.3901 31.1989 38.1927 28.223C39.4566 27.4413 40.7305 26.6696 41.9994 25.8928Z" fill="#00EF64"/>
<path d="M41.9988 23.114C41.2694 23.568 40.545 24.0269 39.8107 24.4758C39.4859 24.6776 39.441 24.6524 39.436 24.2892C39.436 22.2717 39.436 20.2542 39.436 18.2619C39.436 18.156 39.391 18.0198 39.5109 17.9643C39.6308 17.9089 39.6908 18.0198 39.7657 18.0753L41.9938 19.8204L41.9988 23.114Z" fill="#00EF64"/>
<path d="M7.4696 21.1675C7.4696 22.1158 7.4696 23.064 7.4696 24.0122C7.4696 24.3653 7.41964 24.3905 7.12489 24.2089C6.46046 23.7903 5.80103 23.3616 5.1266 22.948C5.0381 22.9 4.96597 22.8263 4.91963 22.7363C4.87328 22.6463 4.85488 22.5443 4.86682 22.4436C4.86682 21.6669 4.86682 20.8851 4.86682 20.1084C4.85948 20.0099 4.8783 19.9112 4.92133 19.8226C4.96436 19.7339 5.03005 19.6585 5.11162 19.604L7.10991 18.0908C7.19983 18.0202 7.28975 17.8891 7.41964 17.9597C7.54953 18.0303 7.47959 18.1564 7.47959 18.2623L7.4696 21.1675Z" fill="#00EF64"/>
<path d="M24.6294 25.7618L22.1715 21.8731C21.7961 21.2417 21.3354 20.6662 20.8026 20.1632C20.2905 19.7617 19.6516 19.561 19.0042 19.5983H18.2248V17.3034H20.1132C20.7795 17.3164 21.4391 17.1677 22.0366 16.8697C22.2797 16.7649 22.4999 16.6124 22.6843 16.421C22.8686 16.2297 23.0136 16.0033 23.1107 15.755H18.2248V13.7375H23.1306C23.0704 13.5017 22.9631 13.2807 22.8153 13.0882C22.6676 12.8957 22.4825 12.7356 22.2714 12.6178C21.6025 12.2952 20.8629 12.151 20.1232 12.1991H18.2148V10.1816H28.611V12.1991H25.6885C25.8911 12.3986 26.0599 12.6303 26.188 12.8851C26.3266 13.1507 26.4163 13.4395 26.4528 13.7375H28.6309V15.755H26.3978C26.2131 16.5135 25.7735 17.1837 25.1539 17.6515C24.4364 18.208 23.5938 18.577 22.701 18.7258V18.7712C23.1939 18.9919 23.6374 19.311 24.0049 19.7093C24.4512 20.208 24.8651 20.7353 25.2438 21.288L28.3362 25.7618H24.6294Z" fill="white"/>
</svg>
