<svg width="48" height="45" viewBox="0 0 48 45" fill="none" xmlns="http://www.w3.org/2000/svg">
<g clip-path="url(#clip0_3311_2771)">
<path d="M33.8622 4H14.1386C11.9651 4 10.2031 5.77737 10.2031 7.96987V35.0301C10.2031 37.2226 11.9651 39 14.1386 39H33.8622C36.0357 39 37.7977 37.2226 37.7977 35.0301V7.96987C37.7977 5.77737 36.0357 4 33.8622 4Z" fill="#00EF64"/>
<path d="M27.471 8.77148H14.7217C14.1613 8.77148 13.707 9.22971 13.707 9.79497C13.707 10.3602 14.1613 10.8184 14.7217 10.8184H27.471C28.0314 10.8184 28.4856 10.3602 28.4856 9.79497C28.4856 9.22971 28.0314 8.77148 27.471 8.77148Z" fill="white"/>
<path d="M27.471 14.6992H14.7217C14.1613 14.6992 13.707 15.1574 13.707 15.7227C13.707 16.288 14.1613 16.7462 14.7217 16.7462H27.471C28.0314 16.7462 28.4856 16.288 28.4856 15.7227C28.4856 15.1574 28.0314 14.6992 27.471 14.6992Z" fill="white"/>
<path d="M33.282 32.0527H14.7217C14.1613 32.0527 13.707 32.511 13.707 33.0762C13.707 33.6415 14.1613 34.0997 14.7217 34.0997H33.282C33.8424 34.0997 34.2966 33.6415 34.2966 33.0762C34.2966 32.511 33.8424 32.0527 33.282 32.0527Z" fill="white"/>
<path d="M39.145 18.1328H8.85501C7.83052 18.1328 7 18.9706 7 20.004V28.8018C7 29.8353 7.83052 30.6731 8.85501 30.6731H39.145C40.1695 30.6731 41 29.8353 41 28.8018V20.004C41 18.9706 40.1695 18.1328 39.145 18.1328Z" fill="#0A7D50"/>
<path d="M18.7862 21.947H16.634V28.1499H14.9122V21.947H12.7754V20.541H18.7862V21.947Z" fill="white"/>
<path d="M19.5293 28.1551L22.2708 20.541H24.2847L26.9852 28.1551H25.1148L24.6024 26.5734H21.8609L21.3484 28.1551H19.5293ZM22.2401 25.2346H24.2129L23.3982 22.6087L23.3213 22.3347C23.2981 22.2412 23.281 22.1462 23.2701 22.0504H23.2291C23.2291 22.1538 23.1932 22.2468 23.1727 22.3244C23.1522 22.4019 23.1266 22.4898 23.0958 22.5828L22.2401 25.2346Z" fill="white"/>
<path d="M35.3485 28.1551H33.3398L32.0382 25.6791C32.0098 25.6154 31.9858 25.5497 31.9664 25.4827C31.9425 25.4 31.9169 25.2966 31.8896 25.1725C31.8746 25.2464 31.854 25.319 31.8281 25.3896C31.7982 25.495 31.7623 25.5986 31.7205 25.6998L30.4138 28.1551H28.3691L30.7673 24.3558L28.5741 20.541H30.6238L31.7 22.8206C31.745 22.9164 31.7843 23.0148 31.8178 23.1152C31.8537 23.2186 31.8896 23.3375 31.9254 23.4616C31.9515 23.367 31.9823 23.2738 32.0177 23.1824C32.0587 23.0687 32.1048 22.9446 32.1612 22.7999L33.3961 20.541H35.287L33.0272 24.3093L35.3485 28.1551Z" fill="white"/>
</g>
<defs>
<clipPath id="clip0_3311_2771">
<rect width="34" height="35" fill="white" transform="translate(7 4)"/>
</clipPath>
</defs>
</svg>
