<svg width="39" height="30" viewBox="0 0 39 30" fill="none" xmlns="http://www.w3.org/2000/svg">
<path d="M10.8295 16.2537C14.3727 16.2537 17.245 13.3814 17.245 9.8383C17.245 6.29514 14.3727 3.42285 10.8295 3.42285C7.28636 3.42285 4.41406 6.29514 4.41406 9.8383C4.41406 13.3814 7.28636 16.2537 10.8295 16.2537Z" fill="#029789"/>
<path d="M17.4643 19.0505H4.19348C1.87749 19.0505 0 20.928 0 23.244V24.461C0 26.777 1.87749 28.6544 4.19348 28.6544H17.4643C19.7803 28.6544 21.6577 26.777 21.6577 24.461V23.244C21.6577 20.928 19.7803 19.0505 17.4643 19.0505Z" fill="#029789"/>
<path d="M28.1733 16.2537C31.7164 16.2537 34.5887 13.3814 34.5887 9.8383C34.5887 6.29514 31.7164 3.42285 28.1733 3.42285C24.6301 3.42285 21.7578 6.29514 21.7578 9.8383C21.7578 13.3814 24.6301 16.2537 28.1733 16.2537Z" fill="#235065"/>
<path d="M34.8061 19.0505H21.5353C19.2193 19.0505 17.3418 20.928 17.3418 23.244V24.461C17.3418 26.777 19.2193 28.6544 21.5353 28.6544H34.8061C37.1221 28.6544 38.9995 26.777 38.9995 24.461V23.244C38.9995 20.928 37.1221 19.0505 34.8061 19.0505Z" fill="#235065"/>
<path d="M19.2601 15.1492C23.4435 15.1492 26.8347 11.7579 26.8347 7.57459C26.8347 3.39126 23.4435 0 19.2601 0C15.0768 0 11.6855 3.39126 11.6855 7.57459C11.6855 11.7579 15.0768 15.1492 19.2601 15.1492Z" fill="#0DD8AF"/>
<path d="M27.8543 18.4534H10.6661C8.35014 18.4534 6.47266 20.3309 6.47266 22.6468V25.5977C6.47266 27.9137 8.35014 29.7912 10.6661 29.7912H27.8543C30.1703 29.7912 32.0477 27.9137 32.0477 25.5977V22.6468C32.0477 20.3309 30.1703 18.4534 27.8543 18.4534Z" fill="#0DD8AF"/>
</svg>
