<svg width="39" height="30" viewBox="0 0 39 30" fill="none" xmlns="http://www.w3.org/2000/svg">
<path d="M10.8295 16.2547C14.3727 16.2547 17.245 13.3824 17.245 9.83927C17.245 6.29612 14.3727 3.42383 10.8295 3.42383C7.28636 3.42383 4.41406 6.29612 4.41406 9.83927C4.41406 13.3824 7.28636 16.2547 10.8295 16.2547Z" fill="#029789"/>
<path d="M17.4643 19.0508H4.19348C1.87749 19.0508 0 20.9283 0 23.2443V24.4612C0 26.7772 1.87749 28.6547 4.19348 28.6547H17.4643C19.7803 28.6547 21.6577 26.7772 21.6577 24.4612V23.2443C21.6577 20.9283 19.7803 19.0508 17.4643 19.0508Z" fill="#029789"/>
<path d="M28.1733 16.2547C31.7164 16.2547 34.5887 13.3824 34.5887 9.83927C34.5887 6.29612 31.7164 3.42383 28.1733 3.42383C24.6301 3.42383 21.7578 6.29612 21.7578 9.83927C21.7578 13.3824 24.6301 16.2547 28.1733 16.2547Z" fill="#00EF64"/>
<path d="M34.8061 19.0508H21.5353C19.2193 19.0508 17.3418 20.9283 17.3418 23.2443V24.4612C17.3418 26.7772 19.2193 28.6547 21.5353 28.6547H34.8061C37.1221 28.6547 38.9995 26.7772 38.9995 24.4612V23.2443C38.9995 20.9283 37.1221 19.0508 34.8061 19.0508Z" fill="#0A7D50"/>
<path d="M19.2601 15.1492C23.4435 15.1492 26.8347 11.7579 26.8347 7.57459C26.8347 3.39126 23.4435 0 19.2601 0C15.0768 0 11.6855 3.39126 11.6855 7.57459C11.6855 11.7579 15.0768 15.1492 19.2601 15.1492Z" fill="#00EF64"/>
<path d="M27.8543 18.4531H10.6661C8.35014 18.4531 6.47266 20.3306 6.47266 22.6466V25.5975C6.47266 27.9134 8.35014 29.7909 10.6661 29.7909H27.8543C30.1703 29.7909 32.0477 27.9134 32.0477 25.5975V22.6466C32.0477 20.3306 30.1703 18.4531 27.8543 18.4531Z" fill="#0A7D50"/>
</svg>
