<svg width="134" height="109" viewBox="0 0 134 109" fill="none" xmlns="http://www.w3.org/2000/svg">
<path d="M133.576 31.8639V37.6195C133.492 37.9442 133.392 38.2836 133.359 38.6083C132.707 44.6886 130.469 50.341 127.144 55.6686C122.567 63.0329 116.536 69.4231 109.938 75.4149C97.676 86.5425 84.3952 96.7108 71.1144 106.864C68.2076 109.093 65.2007 109.004 62.2104 106.687C52.8888 99.4706 43.5671 92.2686 34.3123 84.9929C27.3295 79.5029 20.5471 73.8211 14.5832 67.4308C7.23283 59.5648 1.80357 50.9313 0.400315 40.6154C-0.618716 33.1626 0.19985 25.9607 4.10892 19.2162C10.7744 7.70493 21.5828 1.3442 36.0497 0.163554C47.1087 -0.751446 57.0651 2.21493 65.7519 8.33952C66.5705 8.91509 67.0383 8.88557 67.8234 8.32476C74.5223 3.52839 82.2068 0.753877 90.7767 0.134038C99.6807 -0.515317 108.05 1.18186 115.618 5.50597C123.87 10.2138 129.383 16.7664 132.022 25.1342C132.707 27.3332 133.075 29.6207 133.576 31.8639ZM58.719 29.2812V43.5375H42.5982V57.779H58.7022V72.0058H74.8731V57.7495H90.9604V43.508H74.823V29.2812H58.7022H58.719Z" fill="#235065"/>
<path d="M58.7193 29.2812H74.84V43.508H90.9774V57.7496H74.8901V72.0058H58.7193V57.7791H42.6152V43.5375H58.736V29.2812H58.7193Z" fill="white"/>
</svg>
