<svg width="163" height="143" viewBox="0 0 163 143" fill="none" xmlns="http://www.w3.org/2000/svg">
<path d="M85.0652 85.8517C69.0379 85.8517 53.0106 85.9824 36.9832 85.8144C22.4148 85.6464 11.2228 79.8231 4.32416 68.2884C-7.63901 48.3733 6.45003 23.8667 31.481 20.6751C35.7119 20.1338 39.9219 20.2085 44.0903 21.0484C45.1532 21.2724 45.7368 21.1417 46.3829 20.2271C54.3027 9.15907 65.599 2.53315 80.1049 0.498711C103.844 -2.84224 127.041 10.9322 133.168 31.9485C133.647 33.6283 134.419 34.0202 136.211 34.0949C149.112 34.5989 160.783 44.1364 162.659 55.5965C164.931 69.5016 155.656 81.9508 140.546 85.1238C138.212 85.6091 135.752 85.8144 133.335 85.8331C117.245 85.889 101.155 85.8704 85.0652 85.8704V85.8517Z" fill="#235065"/>
<path d="M50.2192 124.674C50.2192 121.315 50.3026 117.974 50.1775 114.652C50.115 113.046 50.6986 111.908 51.9491 110.788C55.4297 107.69 58.806 104.498 62.1407 101.269C62.7243 100.709 63.1411 99.7945 63.1619 99.0479C63.2662 94.7178 63.2036 90.3689 63.2036 85.9268H66.455C66.4966 86.3187 66.5592 86.748 66.5592 87.1773C66.5592 91.5261 66.6217 95.875 66.5175 100.224C66.5175 101.026 66.059 101.997 65.4337 102.594C61.9114 106.01 58.2433 109.313 54.7419 112.729C54.1375 113.308 53.7415 114.297 53.7206 115.099C53.5956 118.272 53.6789 121.464 53.6789 124.712C56.8261 125.402 59.2854 126.877 60.8277 129.415C62.0365 131.394 62.3074 133.521 61.7864 135.724C60.7651 140.017 56.3258 142.928 51.1571 142.723C46.7178 142.555 42.5286 139.121 41.9033 135.127C41.1322 130.255 44.1959 126.317 50.2192 124.674Z" fill="#53BEC2"/>
<path d="M103.219 124.712C103.219 121.203 103.261 117.787 103.178 114.353C103.178 113.83 102.719 113.233 102.282 112.841C98.676 109.425 95.0078 106.066 91.4439 102.613C90.8395 102.016 90.3809 101.045 90.3601 100.242C90.2559 95.5017 90.3184 90.7609 90.3184 85.9268H93.6948C93.6948 86.468 93.6948 86.9906 93.6948 87.5132C93.6948 91.4141 93.6531 95.2964 93.7365 99.1973C93.7365 99.8692 94.1116 100.672 94.6118 101.157C98.1132 104.517 101.656 107.858 105.283 111.124C106.325 112.076 106.742 113.046 106.7 114.353C106.638 117.787 106.679 121.221 106.679 124.618C112.348 126 116.058 129.956 114.849 135.574C113.87 140.11 109.43 142.984 104.22 142.742C99.2804 142.518 95.4455 139.027 94.8619 134.249C94.3617 130.05 97.7172 126.149 103.219 124.73V124.712Z" fill="#53BEC2"/>
<path d="M26.6891 100.02C30.0238 97.9665 33.2959 96.0067 36.5056 93.9349C36.9849 93.6363 37.3184 92.8711 37.3392 92.3111C37.4435 90.202 37.3809 88.0929 37.3809 85.9092H40.8198C40.8198 88.7275 40.9032 91.4526 40.7573 94.1776C40.7156 94.7935 40.0278 95.5214 39.4026 95.9134C36.2346 97.9478 33.025 99.9076 29.7737 101.83C28.9192 102.334 28.6065 102.763 28.9609 103.752C30.7324 108.96 27.231 114.167 21.3328 115.306C15.7889 116.37 10.0365 112.749 9.34874 107.728C8.59844 102.203 12.8918 97.5745 19.0402 97.3132C21.4161 97.2012 23.6462 97.9851 26.7099 100.02H26.6891Z" fill="#53BEC2"/>
<path d="M128.208 102.538C124.853 100.466 121.518 98.32 118.058 96.3416C116.537 95.4643 115.953 94.4378 116.058 92.8513C116.183 90.5929 116.099 88.3158 116.099 85.9268H119.559C119.559 88.0359 119.622 90.089 119.538 92.1421C119.497 93.1313 119.893 93.7099 120.789 94.2325C123.978 96.1363 127.104 98.0961 130.23 99.9998C135.67 96.5656 140.693 96.5469 144.59 99.8878C148.071 102.874 148.675 107.783 145.986 111.404C143.34 114.987 138.171 116.406 133.752 114.764C128.646 112.878 126.812 108.847 128.25 102.538H128.208Z" fill="#53BEC2"/>
<path d="M44.9208 64.2374C42.6907 64.2374 40.7733 63.9387 39.1476 63.3228C37.522 62.7069 36.0422 61.755 34.6875 60.4485L38.9601 56.6222C39.8563 57.4808 40.8358 58.1341 41.8779 58.6007C42.92 59.0673 44.108 59.3099 45.4419 59.3099C46.5673 59.3099 47.4218 59.1419 48.0471 58.7873C48.6723 58.4327 48.9641 57.9661 48.9641 57.3688C48.9641 56.7715 48.7349 56.3236 48.2763 55.969C47.8178 55.6143 47.2134 55.297 46.5048 55.0357C45.7753 54.7744 44.9625 54.4945 44.0663 54.2332C43.1701 53.9719 42.2739 53.6546 41.4194 53.2999C40.544 52.9453 39.7312 52.4974 39.0017 51.9374C38.2723 51.3961 37.6679 50.7242 37.2302 49.9216C36.7717 49.1377 36.5633 48.1298 36.5633 46.9167C36.5633 45.4235 36.9593 44.117 37.7721 43.0344C38.5849 41.9332 39.7104 41.112 41.1485 40.5334C42.5865 39.9548 44.2747 39.6748 46.1922 39.6748C48.1096 39.6748 49.8812 39.9734 51.5277 40.552C53.1533 41.1306 54.4872 41.9332 55.5084 42.9598L51.2359 46.786C50.4439 46.0394 49.6311 45.4981 48.8182 45.1435C48.0054 44.7889 47.1092 44.6022 46.1088 44.6022C45.1918 44.6022 44.4623 44.7516 43.9412 45.0315C43.4202 45.3302 43.1493 45.7408 43.1493 46.2634C43.1493 46.786 43.3785 47.2339 43.8162 47.5512C44.2747 47.8685 44.8583 48.1672 45.5877 48.4471C46.3172 48.7271 47.13 48.9884 48.0262 49.2497C48.9016 49.511 49.7978 49.8283 50.6731 50.1829C51.5485 50.5376 52.3405 51.0042 53.0908 51.5641C53.8202 52.1241 54.4247 52.8333 54.8623 53.6732C55.3209 54.5318 55.5293 55.5583 55.5293 56.7529C55.5293 59.1046 54.5914 60.9337 52.7156 62.2402C50.8399 63.5654 48.2347 64.2187 44.9 64.2187L44.9208 64.2374Z" fill="white"/>
<path d="M65.7025 64.1813C63.9726 64.1813 62.472 63.808 61.159 63.08C59.8459 62.3521 58.8247 61.3256 58.0535 60.0564C57.2824 58.7685 56.9072 57.294 56.9072 55.6516C56.9072 54.0091 57.2824 52.5719 58.0535 51.284C58.8247 49.9962 59.8459 48.9883 61.1798 48.2604C62.4928 47.5138 63.9934 47.1592 65.6608 47.1592C66.8279 47.1592 67.8908 47.3458 68.8496 47.7191C69.8083 48.0924 70.5794 48.5963 71.1838 49.2683C71.7883 49.9215 72.1634 50.6868 72.2885 51.564V59.8137C72.1426 60.691 71.7674 61.4562 71.1422 62.1282C70.5377 62.8001 69.7458 63.3227 68.8079 63.6773C67.8492 64.0506 66.8279 64.2372 65.7025 64.2372V64.1813ZM67.078 58.9925C68.1409 58.9925 69.0163 58.6752 69.6624 58.0593C70.3085 57.4433 70.642 56.6221 70.642 55.6516C70.642 55.017 70.4961 54.457 70.1834 53.9531C69.8917 53.4491 69.4748 53.0572 68.9538 52.7585C68.4327 52.4599 67.8283 52.3293 67.1197 52.3293C66.4111 52.3293 65.8067 52.4786 65.2648 52.7585C64.7229 53.0572 64.3061 53.4491 63.9934 53.9531C63.6808 54.457 63.5349 55.017 63.5349 55.6516C63.5349 56.2861 63.6808 56.8834 63.9934 57.3687C64.2852 57.8726 64.7229 58.2646 65.2648 58.5632C65.8067 58.8619 66.4319 58.9925 67.0989 58.9925H67.078ZM70.4127 63.8453V59.4218L71.3506 55.4649L70.4127 51.4707V47.4578H76.8528V63.8453H70.4127Z" fill="white"/>
<path d="M88.2747 64.1813C86.5449 64.1813 85.0442 63.808 83.7312 63.08C82.4182 62.3335 81.3761 61.3256 80.6258 60.0564C79.8546 58.7685 79.4795 57.294 79.4795 55.6516C79.4795 54.0091 79.8546 52.5719 80.6258 51.284C81.3969 49.9962 82.4182 48.9883 83.7521 48.2604C85.0651 47.5138 86.5657 47.1592 88.233 47.1592C89.4002 47.1592 90.4631 47.3458 91.4218 47.7191C92.3805 48.0924 93.1517 48.5963 93.7561 49.2683C94.3605 49.9215 94.7357 50.6868 94.8607 51.564V59.8137C94.7148 60.691 94.3397 61.4562 93.7144 62.1282C93.11 62.8001 92.318 63.3227 91.3801 63.6773C90.4214 64.0506 89.4002 64.2372 88.2747 64.2372V64.1813ZM89.6503 58.9925C90.7132 58.9925 91.5886 58.6752 92.2347 58.0593C92.8807 57.4433 93.2142 56.6221 93.2142 55.6516C93.2142 55.017 93.0683 54.457 92.7557 53.9531C92.4639 53.4491 92.0471 53.0572 91.526 52.7585C91.005 52.4599 90.4006 52.3293 89.692 52.3293C88.9833 52.3293 88.3789 52.4786 87.837 52.7585C87.2952 53.0572 86.8783 53.4491 86.5657 53.9531C86.2531 54.457 86.1072 55.017 86.1072 55.6516C86.1072 56.2861 86.2531 56.8834 86.5657 57.3687C86.8575 57.8726 87.2952 58.2646 87.837 58.5632C88.3789 58.8619 89.0042 58.9925 89.6711 58.9925H89.6503ZM92.985 63.8453V59.4218L93.9228 55.4649L92.985 51.4707V47.4578H99.4251V63.8453H92.985Z" fill="white"/>
<path d="M111.911 64.2374C109.681 64.2374 107.764 63.9387 106.138 63.3228C104.512 62.7069 103.032 61.755 101.678 60.4485L105.95 56.6222C106.846 57.4808 107.826 58.1341 108.868 58.6007C109.91 59.0673 111.098 59.3099 112.432 59.3099C113.558 59.3099 114.433 59.1419 115.037 58.7873C115.642 58.4327 115.954 57.9661 115.954 57.3688C115.954 56.7715 115.725 56.3236 115.267 55.969C114.808 55.6143 114.204 55.297 113.495 55.0357C112.766 54.7744 111.953 54.4945 111.057 54.2332C110.16 53.9719 109.264 53.6546 108.389 53.2999C107.513 52.9453 106.721 52.4974 105.971 51.9374C105.242 51.3961 104.637 50.7242 104.2 49.9216C103.762 49.1377 103.533 48.1298 103.533 46.9167C103.533 45.4235 103.929 44.117 104.741 43.0344C105.554 41.9332 106.68 41.112 108.118 40.5334C109.556 39.9548 111.244 39.6748 113.162 39.6748C115.079 39.6748 116.851 39.9734 118.497 40.552C120.123 41.1306 121.457 41.9332 122.478 42.9598L118.205 46.786C117.413 46.0394 116.6 45.4981 115.788 45.1435C114.975 44.7889 114.079 44.6022 113.078 44.6022C112.161 44.6022 111.432 44.7516 110.911 45.0315C110.39 45.3302 110.119 45.7408 110.119 46.2634C110.119 46.786 110.348 47.2339 110.786 47.5512C111.223 47.8685 111.828 48.1672 112.557 48.4471C113.287 48.7084 114.099 48.9884 114.996 49.2497C115.871 49.511 116.767 49.8283 117.643 50.1829C118.518 50.5376 119.331 51.0042 120.06 51.5641C120.79 52.1241 121.394 52.8333 121.832 53.6732C122.269 54.5318 122.499 55.5583 122.499 56.7529C122.499 59.1046 121.561 60.9337 119.685 62.2402C117.809 63.5654 115.204 64.2187 111.869 64.2187L111.911 64.2374Z" fill="white"/>
</svg>
