<svg width="36" height="38" viewBox="0 0 36 38" fill="none" xmlns="http://www.w3.org/2000/svg">
<path d="M8.93166 23.601C9.16835 22.5517 9.63275 21.5671 10.292 20.7171C10.9813 19.7995 11.88 19.0601 12.9132 18.5606C13.9465 18.0611 15.0842 17.816 16.2314 17.8458C18.0562 17.8506 19.8094 18.5564 21.1286 19.8172C21.3505 20.0181 21.3881 20.1437 21.1286 20.3488C19.3704 21.5971 18.0571 23.3746 17.3802 25.4219C16.7033 27.4691 16.6982 29.6792 17.3657 31.7295C17.5164 32.1941 17.4955 32.2276 16.9932 32.2276C16.1226 32.2276 15.252 32.2276 14.3856 32.2276C14.239 32.2486 14.09 32.2126 13.9693 32.1269C13.8485 32.0412 13.7653 31.9125 13.7368 31.7672C13.5191 31.1184 13.2429 30.4864 13.0085 29.8418C12.9807 29.7446 12.9271 29.6567 12.8534 29.5874C12.7797 29.5182 12.6887 29.4701 12.5899 29.4484C11.3914 29.1472 10.2425 28.6749 9.17862 28.0462C9.09171 27.9929 8.99175 27.9647 8.88981 27.9647C8.78786 27.9647 8.68791 27.9929 8.601 28.0462C7.94385 28.3517 7.27415 28.6322 6.617 28.9377C6.52325 28.9956 6.41133 29.0165 6.30302 28.9963C6.1947 28.9762 6.09775 28.9165 6.03101 28.8289C5.16877 27.9499 4.29816 27.0793 3.41917 26.217C3.3281 26.155 3.26516 26.0596 3.244 25.9515C3.22284 25.8433 3.24518 25.7312 3.30616 25.6394C3.60753 24.9948 3.88378 24.3335 4.18515 23.6889C4.24178 23.586 4.26901 23.4694 4.26384 23.352C4.25867 23.2347 4.22131 23.121 4.15585 23.0234C3.53676 21.978 3.06757 20.8508 2.76203 19.6749C2.74021 19.5768 2.69265 19.4863 2.62422 19.4128C2.5558 19.3392 2.469 19.2852 2.37276 19.2563C1.67795 18.9633 1.0208 18.6913 0.338542 18.4401C0.233058 18.4126 0.141077 18.3479 0.0795439 18.2579C0.018011 18.1679 -0.00892773 18.0587 0.00369065 17.9504C0.00369065 16.7198 0.00369065 15.4892 0.00369065 14.2545C-0.0104738 14.1459 0.0164394 14.0359 0.0791558 13.946C0.141872 13.8562 0.23587 13.7931 0.342728 13.7689C1.01243 13.522 1.66958 13.2499 2.33928 13.0072C2.44609 12.9698 2.5411 12.9048 2.61462 12.8188C2.68815 12.7327 2.73756 12.6288 2.75784 12.5174C3.05835 11.355 3.52348 10.2416 4.1391 9.21078C4.2095 9.10407 4.24909 8.98001 4.25352 8.85225C4.25795 8.7245 4.22705 8.59799 4.16422 8.48666C3.87959 7.87556 3.62427 7.2519 3.32709 6.64498C3.25639 6.53762 3.22917 6.40739 3.25093 6.2807C3.27269 6.15401 3.34182 6.04034 3.44429 5.96272C4.3149 5.12559 5.17714 4.24661 6.03101 3.376C6.09559 3.28761 6.19221 3.22803 6.30019 3.21003C6.40816 3.19204 6.51889 3.21706 6.60863 3.27973C7.25322 3.58109 7.91455 3.85316 8.55914 4.15452C8.65919 4.21146 8.77288 4.23999 8.88795 4.23704C9.00303 4.23409 9.11511 4.19977 9.2121 4.13778C10.257 3.51965 11.3844 3.05317 12.5606 2.75233C12.6701 2.72801 12.7709 2.67421 12.8521 2.59675C12.9332 2.51929 12.9917 2.42111 13.021 2.31284C13.2596 1.67662 13.5317 1.00692 13.7745 0.353962C13.7963 0.249912 13.8549 0.157179 13.9394 0.0926484C14.0239 0.0281175 14.1287 -0.00392031 14.2349 0.00236794C15.4906 0.00236794 16.7463 0.00236794 18.0019 0.00236794C18.1107 -0.00880505 18.2198 0.0198113 18.3091 0.0829169C18.3984 0.146023 18.4617 0.239342 18.4875 0.345591C18.7386 1.02785 19.0107 1.69755 19.2618 2.37981C19.2917 2.47293 19.3465 2.55609 19.4203 2.62029C19.4941 2.68448 19.584 2.72725 19.6804 2.74396C20.8755 3.04545 22.0204 3.5192 23.0791 4.15034C23.1696 4.21032 23.2748 4.24437 23.3833 4.24879C23.4917 4.25322 23.5993 4.22786 23.6944 4.17545C24.3306 3.87827 24.9752 3.60621 25.6073 3.30902C25.7034 3.24437 25.8202 3.21797 25.9348 3.235C26.0494 3.25204 26.1536 3.31128 26.2267 3.40111C27.0973 4.29405 27.9777 5.17443 28.8679 6.04225C28.9477 6.10653 29.0011 6.19785 29.0181 6.29891C29.0351 6.39997 29.0144 6.50375 28.96 6.59057C28.6544 7.24771 28.3782 7.91742 28.0726 8.57456C28.0194 8.66227 27.9913 8.76288 27.9913 8.86546C27.9913 8.96804 28.0194 9.06866 28.0726 9.15637C28.6983 10.1995 29.1705 11.3272 29.4748 12.5049C29.4975 12.6232 29.5532 12.7327 29.6354 12.8208C29.7176 12.9089 29.8229 12.9721 29.9394 13.003C30.6007 13.2374 31.2453 13.5136 31.9025 13.748C32.0151 13.7749 32.1139 13.8422 32.1803 13.937C32.2466 14.0319 32.2758 14.1479 32.2624 14.2628C32.2624 15.4851 32.2624 16.7031 32.2624 17.9211C32.2624 18.1722 32.1955 18.3397 31.9318 18.415C31.8814 18.4265 31.8333 18.4463 31.7895 18.4736C31.3995 18.6985 30.9648 18.8347 30.5162 18.8723C30.0676 18.9099 29.6163 18.8481 29.1944 18.6913C28.4081 18.4635 27.586 18.3854 26.7709 18.461C26.3188 18.461 26.3063 18.461 26.3816 18.0048C26.9592 14.4512 26.0384 11.3371 23.5312 8.75873C21.7992 6.94683 19.4452 5.85809 16.943 5.71158C15.3964 5.56818 13.8376 5.7828 12.3874 6.3388C10.9371 6.8948 9.63438 7.77726 8.58007 8.91778C7.65691 9.85644 6.92838 10.9683 6.43633 12.1894C5.94428 13.4106 5.69843 14.7169 5.71291 16.0334C5.69038 17.3783 5.93312 18.7145 6.42723 19.9656C6.92135 21.2167 7.65717 22.3582 8.59263 23.3248C8.66378 23.4001 8.73912 23.4713 8.81447 23.5424C8.85188 23.5651 8.89108 23.5847 8.93166 23.601Z" fill="#0DD8AF"/>
<path d="M26.9843 37.5518C25.2108 37.5427 23.4798 37.0081 22.0101 36.0155C20.5403 35.0228 19.3979 33.6168 18.727 31.9751C18.0562 30.3333 17.8871 28.5295 18.2411 26.7917C18.5951 25.0539 19.4563 23.46 20.7159 22.2115C21.9755 20.963 23.577 20.1159 25.3179 19.7773C27.0588 19.4387 28.861 19.6238 30.4967 20.3092C32.1325 20.9945 33.5283 22.1494 34.5079 23.6279C35.4874 25.1063 36.0067 26.842 36.0002 28.6155C36.0008 29.7959 35.7674 30.9648 35.3135 32.0544C34.8597 33.1441 34.1943 34.133 33.3559 34.964C32.5176 35.795 31.5228 36.4515 30.4292 36.8957C29.3355 37.3399 28.1646 37.5629 26.9843 37.5518ZM21.0365 28.8415C21.0391 29.034 21.0831 29.2237 21.1654 29.3978C21.2477 29.5718 21.3665 29.7261 21.5136 29.8503C22.4429 30.7711 23.3679 31.7003 24.2929 32.6254C25.1007 33.4332 25.7956 33.4374 26.5992 32.6254L31.8145 27.3849C31.9634 27.2409 32.0941 27.0793 32.2038 26.9036C32.3022 26.735 32.3619 26.5467 32.3785 26.3522C32.3951 26.1577 32.3681 25.9619 32.2996 25.7791C32.231 25.5964 32.1226 25.4311 31.9822 25.2955C31.8419 25.1598 31.673 25.0572 31.488 24.9949C31.2212 24.9058 30.9339 24.898 30.6626 24.9725C30.3913 25.0471 30.1483 25.2005 29.9645 25.4135C28.5706 26.845 27.1601 28.2555 25.7788 29.6828C25.557 29.9131 25.4105 29.9214 25.1886 29.6828C24.5859 29.055 23.972 28.4411 23.347 27.8412C23.1594 27.6386 22.9117 27.5017 22.6405 27.4504C22.3692 27.3992 22.0887 27.4364 21.8401 27.5565C21.5845 27.6539 21.3676 27.8322 21.2226 28.0641C21.0775 28.2961 21.0122 28.569 21.0365 28.8415Z" fill="#235065"/>
<path d="M12.377 13.3965C12.377 12.649 12.5995 11.9184 13.0161 11.2977C13.4327 10.677 14.0245 10.1942 14.7163 9.91093C15.4081 9.62761 16.1685 9.55651 16.9008 9.70668C17.6331 9.85684 18.3041 10.2215 18.8286 10.7542C19.353 11.2869 19.7071 11.9636 19.8457 12.6982C19.9844 13.4327 19.9014 14.1919 19.6073 14.8792C19.3131 15.5664 18.8212 16.1506 18.194 16.5574C17.5669 16.9642 16.8329 17.1752 16.0854 17.1636C15.0965 17.1482 14.1533 16.7445 13.4595 16.0397C12.7657 15.3349 12.3768 14.3855 12.377 13.3965Z" fill="#0DD8AF"/>
</svg>
