<svg width="40" height="39" viewBox="0 0 40 39" fill="none" xmlns="http://www.w3.org/2000/svg">
<path d="M9.09378 36.7525C9.09378 33.6917 9.09378 30.6308 9.09378 27.5737C9.09063 26.8765 9.31907 26.198 9.74322 25.6447C10.1674 25.0914 10.7632 24.6946 11.4373 24.5166C13.1628 23.9725 15.0149 23.9791 16.7365 24.5354C17.5473 24.84 18.341 25.1886 19.1139 25.5794C20.0894 26.0755 21.1749 26.3158 22.2686 26.278C23.0498 26.2367 23.831 26.278 24.6122 26.278C25.4647 26.278 25.8102 26.6836 25.8177 27.5286C25.8177 28.9783 24.7887 30.1839 23.0573 30.1576C21.2508 30.1351 19.4406 30.1576 17.6341 30.1576C16.9882 30.1576 16.5713 30.5069 16.5638 31.0477C16.5671 31.1817 16.5983 31.3136 16.6553 31.435C16.7122 31.5564 16.7938 31.6647 16.8947 31.7529C16.9957 31.8412 17.1139 31.9075 17.2418 31.9477C17.3697 31.988 17.5046 32.0012 17.6379 31.9866C19.4782 31.9866 21.3184 31.9866 23.155 31.9866C23.5141 31.9958 23.8712 31.93 24.2036 31.7936C24.5359 31.6572 24.8362 31.453 25.0854 31.1941C26.3999 29.8772 27.7168 28.5614 29.0363 27.247C29.4861 26.7782 30.0296 26.4095 30.6314 26.1649C31.2332 25.9203 31.8798 25.8053 32.5291 25.8273C33.6884 25.8512 34.795 26.3159 35.6237 27.1268C35.7382 27.2179 35.8312 27.3332 35.8961 27.4644C35.9609 27.5956 35.996 27.7395 35.9989 27.8859C36.0018 28.0322 35.9723 28.1774 35.9127 28.311C35.853 28.4447 35.7646 28.5635 35.6538 28.6591C33.3353 30.9701 31.0206 33.2798 28.7096 35.5883C28.08 36.1932 27.2855 36.5983 26.4261 36.7525H9.09378Z" fill="#00EF64"/>
<path d="M4.72712 36.7527C4.50108 36.6654 4.30921 36.5075 4.17999 36.3025C4.05078 36.0975 3.99109 35.8563 4.00979 35.6147C4.00979 33.2186 4.00979 30.8225 4.00979 28.4264C3.98774 28.2654 4.00305 28.1014 4.05453 27.9473C4.10601 27.7931 4.19228 27.6529 4.30666 27.5374C4.42104 27.4219 4.56047 27.3343 4.71413 27.2814C4.8678 27.2284 5.03159 27.2116 5.19282 27.2321H6.95798C7.15703 27.2321 7.25092 27.3035 7.25092 27.5138C7.25092 30.5709 7.25092 33.6292 7.25092 36.6889C7.25241 36.7101 7.25241 36.7314 7.25092 36.7527H4.72712Z" fill="#00EF64"/>
<path d="M12.6036 13.9299C12.6244 11.9483 13.2314 10.0172 14.3481 8.38016C15.4648 6.74308 17.0412 5.47327 18.8786 4.73085C20.716 3.98843 22.732 3.80664 24.6726 4.20839C26.6131 4.61014 28.3913 5.57744 29.7828 6.98835C31.1744 8.39925 32.1171 10.1906 32.492 12.1365C32.8669 14.0824 32.6574 16.0957 31.8897 17.9227C31.122 19.7496 29.8305 21.3084 28.1782 22.4024C26.5258 23.4964 24.5866 24.0768 22.6049 24.0702C19.9369 24.0424 17.3881 22.9608 15.5145 21.0611C13.6409 19.1615 12.5945 16.598 12.6036 13.9299Z" fill="#0A7D50"/>
<path d="M23.4471 19.7738L21.5993 16.8819C21.316 16.4126 20.9698 15.9842 20.5703 15.6088C20.1847 15.3079 19.7026 15.1584 19.2145 15.1881H18.6324V13.4755H20.0482C20.55 13.4864 21.0471 13.3769 21.4979 13.1563C21.8646 12.9961 22.1533 12.6979 22.3016 12.3263H18.6324V10.824H22.3204C22.275 10.645 22.1927 10.4774 22.0789 10.3319C21.9651 10.1864 21.8223 10.0662 21.6594 9.97902C21.1587 9.73649 20.6033 9.62903 20.0482 9.6673H18.6211V8.16504H26.4366V9.6673H24.2396C24.5575 9.96513 24.7642 10.3626 24.8254 10.794H26.4629V12.2963H24.7766C24.6337 12.8592 24.3023 13.3562 23.8377 13.7046C23.298 14.1193 22.6648 14.3953 21.9937 14.5083V14.5384C22.3655 14.7023 22.7003 14.9399 22.9777 15.2369C23.3134 15.6196 23.6257 16.0222 23.9128 16.4425L26.2301 19.7738H23.4471Z" fill="white"/>
</svg>
