<svg width="37" height="33" viewBox="0 0 37 33" fill="none" xmlns="http://www.w3.org/2000/svg">
<path d="M7.96312 16.3712C7.96312 12.6141 8.01267 8.85687 7.96312 5.10869C7.92257 2.96881 6.75577 1.47314 4.83663 0.554118C4.73302 0.500057 4.54831 0.500057 4.55282 0.360402C4.55732 0.220746 4.73302 0.180201 4.85465 0.126141C5.03002 0.0455798 5.22031 0.00261188 5.41327 0C11.6302 0 17.8516 0 24.0731 0C25.3329 0.0387443 26.5382 0.523143 27.4745 1.36703C28.4107 2.21091 29.0173 3.35956 29.1863 4.60864C29.22 4.88521 29.238 5.16346 29.2403 5.44207C29.2403 12.8573 29.2403 20.2696 29.2403 27.6788C29.2585 27.9063 29.2245 28.1349 29.1409 28.3472C29.0574 28.5596 28.9265 28.7501 28.7583 28.9042C28.5105 29.1258 28.1897 29.2484 27.8573 29.2484C27.5248 29.2484 27.2041 29.1258 26.9563 28.9042C25.8345 27.9582 24.7038 26.9986 23.6045 26.0435C23.2306 25.7192 23.2306 25.7102 22.8612 26.021C21.804 26.922 20.7439 27.832 19.6807 28.751C18.9013 29.4223 18.2616 29.4223 17.4822 28.751C16.392 27.8095 15.2883 26.886 14.2071 25.9354C13.9908 25.7462 13.8647 25.7777 13.671 25.9354C12.5357 26.9175 11.3914 27.8906 10.2517 28.8682C10.0534 29.0599 9.80133 29.1864 9.52914 29.2307C9.25696 29.275 8.97774 29.2349 8.72897 29.1159C8.47362 29.0003 8.26057 28.808 8.11932 28.5659C7.97806 28.3237 7.91561 28.0437 7.94059 27.7644V16.3712H7.96312ZM18.5995 5.40602H14.7477C14.6148 5.40291 14.482 5.41348 14.3512 5.43756C14.0409 5.50737 13.7675 5.68989 13.5841 5.94976C13.4006 6.20963 13.3202 6.52835 13.3583 6.84415C13.3965 7.15995 13.5505 7.45034 13.7905 7.65906C14.0306 7.86779 14.3395 7.97998 14.6576 7.97389C17.2825 7.97389 19.9119 7.97389 22.5459 7.97389C22.6488 7.97456 22.7515 7.96398 22.8522 7.94235C23.1641 7.87265 23.4387 7.68915 23.6225 7.42773C23.8063 7.1663 23.886 6.84574 23.846 6.5287C23.806 6.21165 23.6492 5.92091 23.4063 5.7133C23.1634 5.50568 22.8518 5.39612 22.5324 5.40602H18.5995ZM18.5995 13.2628C19.951 13.2628 21.2709 13.2628 22.6089 13.2628C22.7815 13.2613 22.9519 13.2246 23.1098 13.1549C23.2676 13.0852 23.4096 12.9839 23.5269 12.8574C23.6441 12.7308 23.7343 12.5816 23.7918 12.4189C23.8494 12.2562 23.873 12.0834 23.8613 11.9113C23.8238 11.5571 23.648 11.2321 23.3721 11.0069C23.0963 10.7817 22.7427 10.6744 22.3882 10.7084H14.8107C14.5621 10.7012 14.3148 10.7473 14.0854 10.8436C13.826 10.9655 13.6144 11.1701 13.4839 11.4254C13.3534 11.6806 13.3115 11.972 13.3646 12.2537C13.4157 12.542 13.5673 12.8028 13.7924 12.99C14.0176 13.1772 14.3017 13.2787 14.5945 13.2763C15.9325 13.2448 17.266 13.2403 18.5995 13.2403V13.2628ZM18.5995 18.5967H22.3882C22.6011 18.612 22.8148 18.5794 23.0136 18.5015C23.2123 18.4236 23.3912 18.3022 23.537 18.1462C23.7141 17.9671 23.831 17.7371 23.8713 17.4884C23.9117 17.2398 23.8736 16.9847 23.7622 16.7587C23.6704 16.531 23.5111 16.3369 23.3057 16.2025C23.1004 16.068 22.8588 15.9995 22.6134 16.0063H17.1263C16.2659 16.0063 15.4054 16.0063 14.5495 16.0063C14.3495 16.0144 14.1544 16.0697 13.98 16.1677C13.8056 16.2657 13.6569 16.4037 13.5461 16.5703C13.4353 16.7369 13.3656 16.9274 13.3427 17.1262C13.3197 17.3249 13.3443 17.5263 13.4142 17.7137C13.52 17.9929 13.7153 18.2292 13.9696 18.3857C14.2239 18.5422 14.5228 18.61 14.8198 18.5787C16.0767 18.5787 17.3291 18.5742 18.5814 18.5742L18.5995 18.5967Z" fill="#0DD8AF"/>
<path d="M5.3851 10.2489C5.3851 12.0284 5.3851 13.8079 5.3851 15.5874C5.3851 15.8982 5.29951 16.0063 4.97965 16.0018C3.82186 16.0018 2.66407 16.0018 1.50628 16.0018C1.30325 16.0178 1.09918 15.9892 0.908377 15.918C0.717569 15.8468 0.54464 15.7348 0.401711 15.5897C0.258782 15.4446 0.149312 15.2701 0.0809735 15.0782C0.0126352 14.8864 -0.0129174 14.6819 0.00610678 14.4791V5.01858C0.0201044 4.31653 0.306753 3.64749 0.805373 3.15307C1.30399 2.65866 1.97544 2.37768 2.67758 2.36963C3.38291 2.36941 4.06039 2.64489 4.5654 3.13728C5.07042 3.62967 5.36296 4.29996 5.3806 5.00507C5.3806 6.75301 5.3806 8.50096 5.3806 10.2489H5.3851Z" fill="#235065"/>
<path d="M16.853 16.3713L31.1536 13.316C31.9306 13.15 32.7417 13.2995 33.4086 13.7315C34.0754 14.1635 34.5432 14.8428 34.7093 15.6198L35.1065 17.4789L14.9509 21.7852L14.5527 19.9217C14.3882 19.1459 14.538 18.3366 14.9692 17.6711C15.4004 17.0056 16.0778 16.5382 16.853 16.3713Z" fill="#235065"/>
<path d="M15.2656 23.2737L35.4212 18.9674L36.2815 22.9941C36.472 23.8856 36.3005 24.8163 35.8048 25.5814C35.3091 26.3465 34.5298 26.8833 33.6382 27.0738L20.21 29.9427C19.7686 30.037 19.3129 30.0435 18.8689 29.9617C18.425 29.8799 18.0016 29.7115 17.6227 29.466C17.2439 29.2206 16.9171 28.9029 16.6611 28.5312C16.405 28.1594 16.2247 27.7409 16.1303 27.2995L15.27 23.2727L15.2656 23.2737Z" fill="#235065"/>
<path d="M18.2472 18.804H32.8705C33.665 18.804 34.427 19.1196 34.9889 19.6814C35.5507 20.2432 35.8663 21.0052 35.8663 21.7998V23.7009H15.2559V21.7953C15.2571 21.0023 15.5726 20.2421 16.1333 19.6814C16.694 19.1207 17.4542 18.8051 18.2472 18.804Z" fill="#029789"/>
<path d="M15.2559 25.228H35.8618V29.3456C35.8606 30.2534 35.5005 31.1238 34.8598 31.7669C34.2192 32.4101 33.3502 32.7737 32.4425 32.7784H18.6932C17.7816 32.7784 16.9073 32.4163 16.2626 31.7717C15.618 31.127 15.2559 30.2527 15.2559 29.3411V25.228Z" fill="#029789"/>
</svg>
