<svg width="34" height="37" viewBox="0 0 34 37" fill="none" xmlns="http://www.w3.org/2000/svg">
<path d="M12.3165 14.5901C16.3454 14.5901 19.6115 11.324 19.6115 7.29503C19.6115 3.26609 16.3454 0 12.3165 0C8.28758 0 5.02148 3.26609 5.02148 7.29503C5.02148 11.324 8.28758 14.5901 12.3165 14.5901Z" fill="#0DD8AF"/>
<path d="M19.17 17.7734H5.46043C2.44472 17.7734 0 20.2182 0 23.2339C0 26.2496 2.44472 28.6943 5.46043 28.6943H19.17C22.1858 28.6943 24.6305 26.2496 24.6305 23.2339C24.6305 20.2182 22.1858 17.7734 19.17 17.7734Z" fill="#0DD8AF"/>
<path d="M13.6602 27.0246C13.6817 25.0764 14.2794 23.1781 15.378 21.5691C16.4767 19.9601 18.0271 18.7123 19.8339 17.9832C21.6406 17.254 23.6228 17.0761 25.5305 17.4718C27.4382 17.8674 29.1861 18.8191 30.5538 20.2067C31.9215 21.5943 32.8477 23.3557 33.2158 25.269C33.5839 27.1822 33.3773 29.1616 32.6221 30.9576C31.8669 32.7536 30.5969 34.2858 28.9722 35.3611C27.3475 36.4364 25.4408 37.0067 23.4925 36.9999C20.8685 36.9725 18.3619 35.9081 16.5199 34.0392C14.6778 32.1703 13.6498 29.6487 13.6602 27.0246Z" fill="#235065"/>
<path d="M24.3264 32.7756L22.5092 29.9262C22.2306 29.4658 21.8906 29.0456 21.4986 28.6771C21.1231 28.3739 20.6491 28.2195 20.1671 28.2434H19.5903V26.5779H20.9868C21.479 26.5879 21.9666 26.4809 22.4094 26.2656C22.7718 26.108 23.0572 25.8133 23.2031 25.4459H19.5903V23.9583H23.2204C23.1761 23.7852 23.0967 23.6231 22.987 23.4821C22.8773 23.3411 22.7397 23.2241 22.5829 23.1386C22.089 22.9014 21.5423 22.7954 20.9955 22.8306H19.5859V21.343H27.2713V22.8306H25.1027C25.4207 23.1277 25.6247 23.5266 25.6796 23.9583H27.2887V25.4459H25.6362C25.4995 25.9999 25.1764 26.4899 24.7211 26.8338C24.1913 27.2426 23.5684 27.5138 22.9082 27.6232V27.6579C23.2662 27.8204 23.5878 28.0534 23.8537 28.3431C24.1852 28.7078 24.4951 29.0915 24.7818 29.4925L27.0631 32.7713L24.3264 32.7756Z" fill="white"/>
</svg>
