<svg width="34" height="37" viewBox="0 0 34 37" fill="none" xmlns="http://www.w3.org/2000/svg">
<path d="M12.3165 14.5901C16.3454 14.5901 19.6115 11.324 19.6115 7.29503C19.6115 3.26609 16.3454 0 12.3165 0C8.28758 0 5.02148 3.26609 5.02148 7.29503C5.02148 11.324 8.28758 14.5901 12.3165 14.5901Z" fill="#00EF64"/>
<path d="M19.17 17.7734H5.46043C2.44472 17.7734 0 20.2182 0 23.2339C0 26.2496 2.44472 28.6943 5.46043 28.6943H19.17C22.1858 28.6943 24.6305 26.2496 24.6305 23.2339C24.6305 20.2182 22.1858 17.7734 19.17 17.7734Z" fill="#00EF64"/>
<path d="M13.6602 27.0251C13.6817 25.0768 14.2794 23.1786 15.378 21.5696C16.4767 19.9606 18.0271 18.7128 19.8339 17.9837C21.6406 17.2545 23.6228 17.0765 25.5305 17.4722C27.4382 17.8679 29.1861 18.8196 30.5538 20.2072C31.9215 21.5948 32.8477 23.3562 33.2158 25.2694C33.5839 27.1827 33.3773 29.1621 32.6221 30.9581C31.8669 32.7541 30.5969 34.2863 28.9722 35.3616C27.3475 36.4369 25.4408 37.0071 23.4925 37.0004C20.8685 36.9729 18.3619 35.9086 16.5199 34.0397C14.6778 32.1708 13.6498 29.6491 13.6602 27.0251Z" fill="#0A7D50"/>
<path d="M24.3264 32.7754L22.5092 29.9259C22.2306 29.4656 21.8906 29.0453 21.4986 28.6768C21.1231 28.3736 20.6491 28.2192 20.1671 28.2431H19.5903V26.5777H20.9868C21.479 26.5877 21.9666 26.4806 22.4094 26.2654C22.7718 26.1077 23.0572 25.813 23.2031 25.4457H19.5903V23.9581H23.2204C23.1761 23.785 23.0967 23.6229 22.987 23.4818C22.8773 23.3408 22.7397 23.2239 22.5829 23.1383C22.089 22.9012 21.5423 22.7951 20.9955 22.8304H19.5859V21.3428H27.2713V22.8304H25.1027C25.4207 23.1275 25.6247 23.5264 25.6796 23.9581H27.2887V25.4457H25.6362C25.4995 25.9996 25.1764 26.4897 24.7211 26.8336C24.1913 27.2424 23.5684 27.5136 22.9082 27.6229V27.6576C23.2662 27.8201 23.5878 28.0532 23.8537 28.3429C24.1852 28.7075 24.4951 29.0913 24.7818 29.4922L27.0631 32.7711L24.3264 32.7754Z" fill="white"/>
</svg>
