<svg width="35" height="35" viewBox="0 0 35 35" fill="none" xmlns="http://www.w3.org/2000/svg">
<path d="M26.7849 24.1327C27.3276 23.406 27.7754 22.6131 28.1175 21.7732C28.7055 20.3562 29.0147 18.8391 29.0282 17.3049C29.0249 16.8525 28.9882 16.401 28.9182 15.954C28.8754 15.6668 28.9182 15.5262 29.2483 15.4834C29.5498 15.4284 29.8462 15.3487 30.1346 15.245C30.4036 15.1472 30.5136 15.245 30.5503 15.5017C30.6968 16.6667 30.6968 17.8454 30.5503 19.0103C30.1907 21.9299 28.8729 24.6478 26.8034 26.7383C24.7339 28.8289 22.0295 30.174 19.1137 30.5631C17.9372 30.722 16.7448 30.722 15.5684 30.5631C15.2627 30.5264 15.1711 30.4286 15.275 30.1169C15.5985 29.1765 15.7335 28.1815 15.6723 27.1889C15.6572 27.0747 15.6772 26.9586 15.7296 26.856C15.782 26.7534 15.8643 26.6691 15.9657 26.6144C16.1816 26.4828 16.3577 26.295 16.4751 26.071C16.5925 25.8471 16.6467 25.5954 16.632 25.3429C16.632 24.5972 16.632 23.8515 16.632 23.0996C16.6284 22.8714 16.6721 22.645 16.7605 22.4345C16.8489 22.2241 16.9799 22.0343 17.1454 21.8771C17.5529 21.4696 17.9604 21.0621 18.3679 20.6546C18.6018 20.4421 18.7569 20.1567 18.8079 19.8448C18.859 19.5329 18.803 19.213 18.6491 18.937C18.4596 18.5274 18.2518 18.124 18.0378 17.7145C17.9244 17.4963 17.7636 17.3063 17.5672 17.1582C17.0293 16.7548 16.4853 16.3514 15.9535 15.9357C15.7797 15.7843 15.5741 15.6739 15.3519 15.6126C15.1298 15.5512 14.8967 15.5405 14.6698 15.5812L13.1967 15.8929C12.8879 15.9503 12.569 15.9092 12.2849 15.7754C12.0008 15.6415 11.7659 15.4218 11.6135 15.1472C11.4281 14.8912 11.334 14.5804 11.3462 14.2645C11.3584 13.9487 11.4762 13.6461 11.6808 13.4051C11.865 13.2006 12.0055 12.9607 12.0938 12.7001C12.1821 12.4394 12.2162 12.1635 12.1942 11.8892C12.1675 11.5764 12.2169 11.2618 12.3383 10.9722C12.4596 10.6827 12.6493 10.4268 12.8911 10.2266C13.2028 9.95762 13.5023 9.61532 13.7774 9.35248C14.2194 8.88415 14.4589 8.26033 14.4437 7.61651C14.4301 7.33967 14.3393 7.07216 14.1815 6.84424C14.0238 6.61631 13.8055 6.43706 13.5512 6.32676C13.4106 6.24118 13.2639 6.32676 13.1295 6.37566C10.9653 7.20596 9.09711 8.66137 7.76262 10.5567C7.22633 11.332 6.77738 12.1643 6.42397 13.0384C6.37658 13.1233 6.35867 13.2216 6.37305 13.3178C6.38742 13.414 6.43328 13.5028 6.50343 13.5701C6.69914 13.8085 6.83159 14.0923 6.88853 14.3953C6.95082 14.7103 7.10567 14.9995 7.33324 15.226C7.56082 15.4525 7.85079 15.606 8.16605 15.6668C9.38856 15.9296 9.99982 16.8893 10.77 17.7145C11.1245 18.0934 11.0267 18.6314 11.0267 19.1204C11.0267 19.97 11.0267 19.8111 10.4155 19.5544C8.60074 18.7991 6.57911 18.7018 4.70023 19.2793C4.16843 19.4382 4.16843 19.4443 4.08897 18.8636C3.85541 17.1355 3.97439 15.3779 4.43874 13.697C4.90309 12.0161 5.70318 10.4467 6.79072 9.08352C7.84132 7.69299 9.16198 6.529 10.6735 5.66139C12.1849 4.79379 13.8561 4.24044 15.5867 4.03454C16.739 3.88171 17.9064 3.88171 19.0586 4.03454C19.3582 4.07122 19.4498 4.15679 19.352 4.48076C18.7966 6.17459 18.7889 8.00033 19.3298 9.69884C19.8707 11.3973 20.9329 12.8823 22.3655 13.943C22.5795 14.1081 22.5856 14.2181 22.4572 14.4442C22.2774 14.7072 22.1983 15.026 22.2342 15.3425C22.2701 15.659 22.4187 15.952 22.6528 16.168C23.0852 16.5466 23.4352 17.01 23.6813 17.5294C23.9273 18.0488 24.0641 18.6132 24.0832 19.1876C24.107 19.5853 24.2139 19.9735 24.3971 20.3273C24.5803 20.6811 24.8357 20.9925 25.1468 21.2414C25.2629 21.3331 25.3546 21.4554 25.4646 21.5532C26.0245 22.0009 26.406 22.6339 26.5404 23.338C26.6056 23.6077 26.6872 23.873 26.7849 24.1327Z" fill="#00EF64"/>
<path d="M7.14454 34.5786C5.74001 34.5822 4.36593 34.1694 3.19601 33.3922C2.02608 32.615 1.11284 31.5084 0.571728 30.2123C0.0306114 28.9162 -0.114086 27.4887 0.155927 26.1104C0.42594 24.732 1.09854 23.4647 2.08871 22.4686C3.07887 21.4724 4.34214 20.7922 5.71883 20.5139C7.09552 20.2356 8.52382 20.3717 9.82317 20.905C11.1225 21.4383 12.2346 22.3448 13.0188 23.5101C13.803 24.6753 14.2242 26.0468 14.229 27.4514C14.2322 28.3846 14.0515 29.3094 13.6971 30.1728C13.3428 31.0362 12.8217 31.8212 12.1638 32.4831C11.5058 33.1451 10.7239 33.6708 9.86269 34.0304C9.00146 34.3899 8.07781 34.5762 7.14454 34.5786ZM7.19344 32.9221C8.54375 32.9002 9.83776 32.3774 10.8243 31.4551C10.8773 31.4219 10.9228 31.3781 10.958 31.3264C10.9932 31.2748 11.0173 31.2163 11.0288 31.1549C11.0403 31.0934 11.0389 31.0303 11.0248 30.9694C11.0106 30.9085 10.984 30.8512 10.9466 30.8011C10.5874 30.0955 10.0355 29.5062 9.35501 29.1016C8.67449 28.6969 7.89319 28.4935 7.10175 28.515C6.30523 28.502 5.52154 28.7165 4.84268 29.1334C4.16382 29.5502 3.61795 30.1521 3.26917 30.8683C3.23881 30.9098 3.21708 30.957 3.20524 31.007C3.1934 31.057 3.19171 31.1089 3.20025 31.1597C3.2088 31.2104 3.22741 31.2588 3.255 31.3022C3.28258 31.3456 3.31858 31.3831 3.36086 31.4123C4.40046 32.3838 5.77059 32.9235 7.19344 32.9221ZM9.50399 25.8377C9.51382 25.201 9.27111 24.5863 8.82894 24.1281C8.38678 23.6699 7.78116 23.4055 7.14454 23.3926C6.51067 23.3926 5.90276 23.6444 5.45454 24.0927C5.00633 24.5409 4.75453 25.1488 4.75453 25.7826C4.75453 26.4165 5.00633 27.0244 5.45454 27.4726C5.90276 27.9209 6.51067 28.1727 7.14454 28.1727C7.75947 28.1517 8.34391 27.8997 8.78124 27.4669C9.21858 27.0341 9.47666 26.4523 9.50399 25.8377Z" fill="#00EF64"/>
<path d="M27.5053 0.000171165C29.3874 0.000171165 31.1925 0.747856 32.5234 2.07874C33.8543 3.40963 34.602 5.2147 34.602 7.09686C34.602 8.97902 33.8543 10.7841 32.5234 12.115C31.1925 13.4459 29.3874 14.1936 27.5053 14.1936C26.5709 14.2042 25.6438 14.0281 24.7784 13.6756C23.913 13.3231 23.1267 12.8013 22.4656 12.1408C21.8046 11.4804 21.2821 10.6945 20.9289 9.82942C20.5757 8.96431 20.3988 8.03737 20.4086 7.10297C20.4013 6.1687 20.5798 5.24229 20.9338 4.37763C21.2877 3.51298 21.8101 2.72733 22.4705 2.0664C23.1308 1.40546 23.916 0.882418 24.7804 0.527698C25.6447 0.172979 26.571 -0.00634008 27.5053 0.000171165ZM27.4564 8.11155C26.6704 8.12236 25.9021 8.34643 25.2336 8.75983C24.565 9.17324 24.0213 9.76045 23.6605 10.4588C23.624 10.5045 23.5975 10.5575 23.5829 10.6142C23.5683 10.6708 23.5658 10.73 23.5756 10.7877C23.5854 10.8454 23.6073 10.9003 23.6398 10.949C23.6724 10.9977 23.7148 11.0389 23.7644 11.07C24.7749 12.0172 26.108 12.5443 27.4931 12.5443C28.8781 12.5443 30.2112 12.0172 31.2217 11.07C31.3143 11.0006 31.3758 10.8976 31.3929 10.7832C31.4101 10.6688 31.3815 10.5523 31.3134 10.4588C30.9437 9.75641 30.3902 9.16764 29.7119 8.75532C29.0337 8.343 28.2562 8.1226 27.4625 8.11766L27.4564 8.11155ZM27.4564 7.79369C27.7693 7.80211 28.0807 7.74668 28.3715 7.63078C28.6623 7.51487 28.9265 7.34094 29.1478 7.11957C29.3692 6.89821 29.5431 6.63406 29.659 6.34326C29.7749 6.05245 29.8304 5.74107 29.8219 5.42813C29.826 5.12018 29.7692 4.81445 29.6549 4.52847C29.5406 4.24249 29.371 3.98188 29.1558 3.76156C28.9406 3.54125 28.684 3.36556 28.4008 3.24456C28.1176 3.12357 27.8132 3.05964 27.5053 3.05645C26.8763 3.05645 26.273 3.30633 25.8283 3.7511C25.3835 4.19588 25.1336 4.79912 25.1336 5.42813C25.1336 6.05714 25.3835 6.66038 25.8283 7.10516C26.273 7.54993 26.8763 7.79981 27.5053 7.79981L27.4564 7.79369Z" fill="#0A7D50"/>
<path d="M17.3207 34.5731C16.9124 34.5903 16.5033 34.5719 16.0982 34.518C15.8771 34.4993 15.6721 34.3948 15.527 34.2269C15.382 34.059 15.3083 33.841 15.3219 33.6195C15.3481 33.3917 15.4627 33.1833 15.6411 33.0393C15.8194 32.8952 16.0473 32.827 16.2755 32.8493C18.3936 33.0362 20.5267 32.7437 22.5164 31.9936C27.8466 29.9825 31.1962 26.1866 32.5593 20.6547C32.9133 19.2142 33.0249 17.7248 32.8894 16.2476C32.8613 16.0236 32.9215 15.7975 33.0573 15.6172C33.1931 15.4369 33.3938 15.3166 33.6168 15.2818C33.7267 15.2691 33.838 15.2787 33.9441 15.3099C34.0503 15.3411 34.149 15.3933 34.2345 15.4635C34.3201 15.5336 34.3906 15.6202 34.442 15.7182C34.4934 15.8161 34.5246 15.9234 34.5337 16.0336C34.6605 17.0485 34.6605 18.0751 34.5337 19.0899C34.3408 20.9972 33.824 22.8577 33.0056 24.5912C31.4396 27.9834 28.8109 30.773 25.5177 32.5376C23.5348 33.616 21.3572 34.2893 19.1117 34.518C18.5178 34.5934 17.9181 34.6118 17.3207 34.5731Z" fill="#0A7D50"/>
<path d="M0 17.2438C0.317853 10.4649 3.3069 5.29982 9.31555 1.96236C11.3683 0.860229 13.6346 0.213896 15.9599 0.0674633C16.8113 -0.0211857 17.6697 -0.0211857 18.5211 0.0674633C18.632 0.0727293 18.7407 0.100505 18.8406 0.149101C18.9405 0.197697 19.0294 0.266099 19.1021 0.350147C19.1747 0.434195 19.2294 0.532133 19.263 0.638006C19.2966 0.74388 19.3083 0.855476 19.2974 0.966011C19.2612 1.19799 19.135 1.40636 18.9462 1.54595C18.7574 1.68554 18.5212 1.74511 18.2888 1.71174C14.5345 1.43601 10.8122 2.56926 7.84854 4.89028C5.05045 6.9846 3.05483 9.9748 2.19441 13.3623C1.75843 14.97 1.60334 16.6408 1.73597 18.3013C1.76394 18.5294 1.7016 18.7594 1.56225 18.9421C1.4229 19.1249 1.21761 19.2459 0.990236 19.2793C0.77507 19.2951 0.562013 19.2279 0.394881 19.0915C0.22775 18.955 0.119247 18.7597 0.0916885 18.5458C0.0392132 18.1136 0.00861133 17.679 0 17.2438Z" fill="#0A7D50"/>
</svg>
