<svg width="40" height="39" viewBox="0 0 40 39" fill="none" xmlns="http://www.w3.org/2000/svg">
<path d="M29.7849 27.1327C30.3276 26.406 30.7754 25.6131 31.1175 24.7732C31.7055 23.3562 32.0147 21.8391 32.0282 20.3049C32.0249 19.8525 31.9882 19.401 31.9182 18.954C31.8754 18.6668 31.9182 18.5262 32.2483 18.4834C32.5498 18.4284 32.8462 18.3487 33.1346 18.245C33.4036 18.1472 33.5136 18.245 33.5503 18.5017C33.6968 19.6667 33.6968 20.8454 33.5503 22.0103C33.1907 24.9299 31.8729 27.6478 29.8034 29.7383C27.7339 31.8289 25.0295 33.174 22.1137 33.5631C20.9372 33.722 19.7448 33.722 18.5684 33.5631C18.2627 33.5264 18.1711 33.4286 18.275 33.1169C18.5985 32.1765 18.7335 31.1815 18.6723 30.1889C18.6572 30.0747 18.6772 29.9586 18.7296 29.856C18.782 29.7534 18.8643 29.6691 18.9657 29.6144C19.1816 29.4828 19.3577 29.295 19.4751 29.071C19.5925 28.8471 19.6467 28.5954 19.632 28.3429C19.632 27.5972 19.632 26.8515 19.632 26.0996C19.6284 25.8714 19.6721 25.645 19.7605 25.4345C19.8489 25.2241 19.9799 25.0343 20.1454 24.8771C20.5529 24.4696 20.9604 24.0621 21.3679 23.6546C21.6018 23.4421 21.7569 23.1567 21.8079 22.8448C21.859 22.5329 21.803 22.213 21.6491 21.937C21.4596 21.5274 21.2518 21.124 21.0378 20.7145C20.9244 20.4963 20.7636 20.3063 20.5672 20.1582C20.0293 19.7548 19.4853 19.3514 18.9535 18.9357C18.7797 18.7843 18.5741 18.6739 18.3519 18.6126C18.1298 18.5512 17.8967 18.5405 17.6698 18.5812L16.1967 18.8929C15.8879 18.9503 15.569 18.9092 15.2849 18.7754C15.0008 18.6415 14.7659 18.4218 14.6135 18.1472C14.4281 17.8912 14.334 17.5804 14.3462 17.2645C14.3584 16.9487 14.4762 16.6461 14.6808 16.4051C14.865 16.2006 15.0055 15.9607 15.0938 15.7001C15.1821 15.4394 15.2162 15.1635 15.1942 14.8892C15.1675 14.5764 15.2169 14.2618 15.3383 13.9722C15.4596 13.6827 15.6493 13.4268 15.8911 13.2266C16.2028 12.9576 16.5023 12.6153 16.7774 12.3525C17.2194 11.8841 17.4589 11.2603 17.4437 10.6165C17.4301 10.3397 17.3393 10.0722 17.1815 9.84424C17.0238 9.61631 16.8055 9.43706 16.5512 9.32676C16.4106 9.24118 16.2639 9.32676 16.1295 9.37566C13.9653 10.206 12.0971 11.6614 10.7626 13.5567C10.2263 14.332 9.77738 15.1643 9.42397 16.0384C9.37658 16.1233 9.35867 16.2216 9.37305 16.3178C9.38742 16.414 9.43328 16.5028 9.50343 16.5701C9.69914 16.8085 9.83159 17.0923 9.88853 17.3953C9.95082 17.7103 10.1057 17.9995 10.3332 18.226C10.5608 18.4525 10.8508 18.606 11.1661 18.6668C12.3886 18.9296 12.9998 19.8893 13.77 20.7145C14.1245 21.0934 14.0267 21.6314 14.0267 22.1204C14.0267 22.97 14.0267 22.8111 13.4155 22.5543C11.6007 21.7991 9.57911 21.7018 7.70023 22.2793C7.16843 22.4382 7.16843 22.4443 7.08897 21.8636C6.85541 20.1355 6.97439 18.3779 7.43874 16.697C7.90309 15.0161 8.70318 13.4467 9.79072 12.0835C10.8413 10.693 12.162 9.529 13.6735 8.66139C15.1849 7.79379 16.8561 7.24044 18.5867 7.03454C19.739 6.88171 20.9064 6.88171 22.0586 7.03454C22.3582 7.07122 22.4499 7.15679 22.352 7.48076C21.7966 9.17459 21.7889 11.0003 22.3298 12.6988C22.8707 14.3973 23.9329 15.8823 25.3655 16.943C25.5795 17.1081 25.5856 17.2181 25.4572 17.4442C25.2774 17.7072 25.1983 18.026 25.2342 18.3425C25.2701 18.659 25.4187 18.952 25.6528 19.168C26.0852 19.5466 26.4352 20.01 26.6813 20.5294C26.9273 21.0488 27.0641 21.6132 27.0832 22.1876C27.107 22.5853 27.2139 22.9735 27.3971 23.3273C27.5803 23.6811 27.8357 23.9925 28.1468 24.2414C28.2629 24.3331 28.3546 24.4554 28.4646 24.5532C29.0245 25.0009 29.406 25.6339 29.5404 26.338C29.6056 26.6077 29.6872 26.873 29.7849 27.1327Z" fill="#0DD8AF"/>
<path d="M10.1445 37.5791C8.74001 37.5827 7.36593 37.1699 6.19601 36.3927C5.02608 35.6155 4.11284 34.5089 3.57173 33.2128C3.03061 31.9167 2.88591 30.4892 3.15593 29.1109C3.42594 27.7325 4.09854 26.4652 5.08871 25.469C6.07887 24.4729 7.34214 23.7927 8.71883 23.5144C10.0955 23.2361 11.5238 23.3722 12.8232 23.9055C14.1225 24.4388 15.2346 25.3453 16.0188 26.5106C16.803 27.6758 17.2242 29.0473 17.229 30.4519C17.2322 31.3851 17.0515 32.3099 16.6971 33.1733C16.3428 34.0366 15.8217 34.8217 15.1638 35.4836C14.5058 36.1455 13.7239 36.6713 12.8627 37.0309C12.0015 37.3904 11.0778 37.5767 10.1445 37.5791ZM10.1934 35.9226C11.5438 35.9007 12.8378 35.3779 13.8243 34.4556C13.8773 34.4224 13.9228 34.3786 13.958 34.3269C13.9932 34.2752 14.0173 34.2168 14.0288 34.1554C14.0403 34.0939 14.0389 34.0307 14.0248 33.9698C14.0106 33.9089 13.984 33.8516 13.9466 33.8016C13.5874 33.096 13.0355 32.5067 12.355 32.1021C11.6745 31.6974 10.8932 31.494 10.1018 31.5155C9.30523 31.5025 8.52154 31.717 7.84268 32.1339C7.16382 32.5507 6.61795 33.1526 6.26917 33.8688C6.23881 33.9103 6.21708 33.9575 6.20524 34.0075C6.1934 34.0575 6.19171 34.1094 6.20025 34.1601C6.2088 34.2108 6.22741 34.2593 6.255 34.3027C6.28258 34.3461 6.31858 34.3836 6.36086 34.4128C7.40046 35.3843 8.77059 35.924 10.1934 35.9226ZM12.504 28.8382C12.5138 28.2015 12.2711 27.5868 11.8289 27.1286C11.3868 26.6704 10.7812 26.406 10.1445 26.3931C9.51067 26.3931 8.90276 26.6449 8.45454 27.0931C8.00633 27.5414 7.75453 28.1493 7.75453 28.7831C7.75453 29.417 8.00633 30.0249 8.45454 30.4731C8.90276 30.9213 9.51067 31.1732 10.1445 31.1732C10.7595 31.1522 11.3439 30.9002 11.7812 30.4674C12.2186 30.0346 12.4767 29.4528 12.504 28.8382Z" fill="#029789"/>
<path d="M30.5053 3.00017C32.3874 3.00017 34.1925 3.74786 35.5234 5.07874C36.8543 6.40963 37.602 8.2147 37.602 10.0969C37.602 11.979 36.8543 13.7841 35.5234 15.115C34.1925 16.4459 32.3874 17.1936 30.5053 17.1936C29.5709 17.2042 28.6438 17.0281 27.7784 16.6756C26.913 16.3231 26.1267 15.8013 25.4656 15.1408C24.8046 14.4804 24.2821 13.6945 23.9289 12.8294C23.5757 11.9643 23.3988 11.0374 23.4086 10.103C23.4013 9.1687 23.5798 8.24229 23.9338 7.37763C24.2877 6.51298 24.8101 5.72733 25.4705 5.0664C26.1308 4.40546 26.916 3.88242 27.7804 3.5277C28.6447 3.17298 29.571 2.99366 30.5053 3.00017ZM30.4564 11.1115C29.6704 11.1224 28.9021 11.3464 28.2336 11.7598C27.565 12.1732 27.0213 12.7605 26.6605 13.4588C26.624 13.5045 26.5975 13.5575 26.5829 13.6142C26.5683 13.6708 26.5658 13.73 26.5756 13.7877C26.5854 13.8454 26.6073 13.9003 26.6398 13.949C26.6724 13.9977 26.7148 14.0389 26.7644 14.07C27.7749 15.0172 29.108 15.5443 30.4931 15.5443C31.8781 15.5443 33.2112 15.0172 34.2217 14.07C34.3143 14.0006 34.3758 13.8976 34.3929 13.7832C34.4101 13.6688 34.3815 13.5523 34.3134 13.4588C33.9437 12.7564 33.3902 12.1676 32.7119 11.7553C32.0337 11.343 31.2562 11.1226 30.4625 11.1177L30.4564 11.1115ZM30.4564 10.7937C30.7693 10.8021 31.0807 10.7467 31.3715 10.6308C31.6623 10.5149 31.9265 10.3409 32.1478 10.1196C32.3692 9.89821 32.5431 9.63406 32.659 9.34326C32.7749 9.05245 32.8304 8.74107 32.8219 8.42813C32.826 8.12018 32.7692 7.81445 32.6549 7.52847C32.5406 7.24249 32.371 6.98188 32.1558 6.76156C31.9406 6.54125 31.684 6.36556 31.4008 6.24456C31.1176 6.12357 30.8132 6.05964 30.5053 6.05645C29.8763 6.05645 29.273 6.30633 28.8283 6.7511C28.3835 7.19588 28.1336 7.79912 28.1336 8.42813C28.1336 9.05714 28.3835 9.66038 28.8283 10.1052C29.273 10.5499 29.8763 10.7998 30.5053 10.7998L30.4564 10.7937Z" fill="#235065"/>
<path d="M20.3207 37.5728C19.9124 37.59 19.5033 37.5716 19.0982 37.5178C18.8771 37.4991 18.6721 37.3946 18.527 37.2266C18.382 37.0587 18.3083 36.8407 18.3219 36.6192C18.3481 36.3915 18.4627 36.1831 18.6411 36.039C18.8194 35.8949 19.0473 35.8267 19.2755 35.8491C21.3936 36.0359 23.5267 35.7434 25.5164 34.9933C30.8466 32.9823 34.1962 29.1864 35.5593 23.6545C35.9133 22.214 36.0249 20.7245 35.8894 19.2473C35.8613 19.0234 35.9215 18.7973 36.0573 18.617C36.1931 18.4367 36.3938 18.3164 36.6168 18.2816C36.7267 18.2689 36.838 18.2784 36.9441 18.3096C37.0503 18.3409 37.149 18.3931 37.2345 18.4632C37.3201 18.5334 37.3906 18.62 37.442 18.7179C37.4934 18.8159 37.5246 18.9232 37.5337 19.0334C37.6605 20.0482 37.6605 21.0749 37.5337 22.0897C37.3408 23.997 36.824 25.8574 36.0056 27.591C34.4396 30.9832 31.8109 33.7728 28.5177 35.5373C26.5348 36.6158 24.3572 37.289 22.1117 37.5178C21.5178 37.5932 20.9181 37.6116 20.3207 37.5728Z" fill="#235065"/>
<path d="M3 20.2438C3.31785 13.4649 6.3069 8.29982 12.3156 4.96236C14.3683 3.86023 16.6346 3.2139 18.9599 3.06746C19.8113 2.97881 20.6697 2.97881 21.5211 3.06746C21.632 3.07273 21.7407 3.1005 21.8406 3.1491C21.9405 3.1977 22.0294 3.2661 22.1021 3.35015C22.1747 3.43419 22.2294 3.53213 22.263 3.63801C22.2966 3.74388 22.3083 3.85548 22.2974 3.96601C22.2612 4.19799 22.135 4.40636 21.9462 4.54595C21.7574 4.68554 21.5212 4.74511 21.2888 4.71174C17.5345 4.43601 13.8122 5.56926 10.8485 7.89028C8.05045 9.9846 6.05483 12.9748 5.19441 16.3623C4.75843 17.97 4.60334 19.6408 4.73597 21.3013C4.76394 21.5294 4.7016 21.7594 4.56225 21.9421C4.4229 22.1249 4.21761 22.2459 3.99024 22.2793C3.77507 22.2951 3.56201 22.2279 3.39488 22.0915C3.22775 21.955 3.11925 21.7597 3.09169 21.5458C3.03921 21.1136 3.00861 20.679 3 20.2438Z" fill="#235065"/>
</svg>
