<svg width="107" height="107" viewBox="0 0 107 107" fill="none" xmlns="http://www.w3.org/2000/svg">
<g clip-path="url(#clip0_3311_662)">
<path d="M6.90477 21.2539H74.4831C92.4259 21.2539 107 35.8711 107 53.8669C107 71.8628 92.4259 86.4799 74.4831 86.4799H6.90477C3.094 86.4799 0 83.3768 0 79.5548V28.1791C0 24.3571 3.094 21.2539 6.90477 21.2539Z" fill="#029789"/>
<path d="M72.4532 78.8956C86.2355 78.8956 97.4083 67.6898 97.4083 53.8668C97.4083 40.0437 86.2355 28.8379 72.4532 28.8379C58.6708 28.8379 47.498 40.0437 47.498 53.8668C47.498 67.6898 58.6708 78.8956 72.4532 78.8956Z" fill="#235065"/>
<path d="M74.8898 71.6945L69.9083 63.8707C68.9288 62.3371 68.0089 61.1869 67.1369 60.4321C66.2648 59.6772 65.0463 59.2938 63.4814 59.2938H61.9045V54.6691H65.7272C67.1966 54.6691 68.4987 54.3815 69.6336 53.8064C70.7684 53.2313 71.4852 52.4765 71.8077 51.5539H61.9045V47.4563H71.8555C71.6166 46.5218 71.0432 45.767 70.1114 45.2039C69.1796 44.6407 67.7342 44.3652 65.7631 44.3652H61.8926L61.9165 40.2676H82.9772V44.3652H77.052C77.4701 44.7725 77.8166 45.2398 78.0913 45.743C78.3661 46.2582 78.5452 46.8213 78.6289 47.4563H83.0489V51.5539H78.4975C78.151 53.0276 77.3029 54.2976 75.9769 55.364C74.6389 56.4303 72.9904 57.1492 71.0073 57.5326V57.6165C72.0466 58.0837 72.9187 58.7187 73.6474 59.4975C74.3761 60.2883 75.2123 61.3426 76.1561 62.6726L82.4038 71.6825H74.9017L74.8898 71.6945Z" fill="white"/>
<path d="M8.55273 51.6391V34.3501H12.8294V51.6391H8.55273ZM12.0051 51.6391V48.3922H15.6247C16.2698 48.3922 16.7954 48.2005 17.2016 47.8051C17.6078 47.4097 17.8109 46.9185 17.8109 46.3194C17.8109 45.9001 17.7153 45.5406 17.5361 45.2291C17.3569 44.9176 17.0941 44.69 16.7716 44.5103C16.449 44.3305 16.0548 44.2467 15.577 44.2467H12.0051V41.1196H15.3141C15.8995 41.1196 16.3773 40.9758 16.7357 40.6762C17.106 40.3887 17.2852 39.9454 17.2852 39.3583C17.2852 38.7712 17.106 38.304 16.7357 38.0164C16.3654 37.7289 15.8995 37.5731 15.338 37.5731H12.0051V34.3262H16.3773C17.4644 34.3262 18.3962 34.5299 19.1727 34.9372C19.9492 35.3446 20.5465 35.8837 20.9765 36.5667C21.4066 37.2496 21.6097 38.0164 21.6097 38.8791C21.6097 40.0173 21.2155 40.9638 20.427 41.7306C19.6386 42.4974 18.5037 42.9766 17.0105 43.1684V41.6827C18.6471 41.8744 19.9133 42.4135 20.7973 43.2762C21.6813 44.1388 22.1353 45.2411 22.1353 46.559C22.1353 47.5176 21.8964 48.3802 21.4066 49.159C20.9168 49.9258 20.2359 50.5368 19.3519 50.9682C18.4679 51.3995 17.4286 51.6151 16.234 51.6151H12.0051V51.6391Z" fill="white"/>
<path d="M24.3574 51.6396V34.3506H27.3917L28.7058 37.909V51.6396H24.3574ZM36.2437 51.6396L26.1852 38.8436L27.4036 34.3626L37.498 47.1586L36.2556 51.6396H36.2437ZM36.2437 51.6396L35.1207 48.0092V34.3506H39.4691V51.6396H36.2317H36.2437Z" fill="white"/>
<path d="M8.55273 72.9774V55.6885H12.9011V72.9774H8.55273ZM12.0051 66.8071V63.5362H15.4097C15.8278 63.5362 16.2101 63.4523 16.5685 63.2846C16.9149 63.1169 17.2016 62.8533 17.4047 62.5058C17.6197 62.1584 17.7153 61.739 17.7153 61.2478C17.7153 60.7566 17.6078 60.3252 17.4047 59.9778C17.1897 59.6423 16.9149 59.3787 16.5685 59.199C16.222 59.0193 15.8398 58.9354 15.4097 58.9354H12.0051V55.6885H16.1384C17.2613 55.6885 18.2529 55.9041 19.1369 56.3474C20.0209 56.7908 20.7257 57.4258 21.2393 58.2525C21.753 59.0792 22.0158 60.0856 22.0158 61.2478C22.0158 62.41 21.753 63.3924 21.2393 64.2191C20.7257 65.0458 20.0209 65.6809 19.1369 66.1361C18.2529 66.5914 17.2494 66.8071 16.1384 66.8071H12.0051Z" fill="white"/>
<path d="M23.8672 72.9784V55.6895H28.2155V72.9784H23.8672ZM27.3435 72.9784V69.2283H35.634V72.9784H27.3435Z" fill="white"/>
</g>
<defs>
<clipPath id="clip0_3311_662">
<rect width="107" height="65.226" fill="white" transform="translate(0 21.2539)"/>
</clipPath>
</defs>
</svg>
