<svg width="42" height="41" viewBox="0 0 42 41" fill="none" xmlns="http://www.w3.org/2000/svg">
<g clip-path="url(#clip0_1042_492)">
<path d="M26.3044 30.4341C26.5229 30.2021 26.8064 30.0426 27.1173 29.977C26.8413 29.9337 26.5839 29.8103 26.3766 29.6219C26.1692 29.4336 26.021 29.1884 25.9501 28.9165L25.4324 29.4513L24.8965 29.9907L25.9501 31.0512C26.0205 30.8212 26.1416 30.6102 26.3044 30.4341Z" fill="#0DD8AF"/>
<path d="M23.4618 27.4675C23.9523 26.9769 24.4398 26.4863 24.9242 25.9957C24.2632 25.9221 23.6517 25.6077 23.205 25.1118C22.7583 24.6159 22.5072 23.9727 22.499 23.3034V23.1982L21.0548 23.3719C20.9144 23.9486 20.6578 24.49 20.3009 24.9626C19.6787 25.7808 19.102 25.9043 18.7159 26.631C18.4348 27.2064 18.3579 27.8614 18.498 28.4869C18.8173 28.4619 19.1384 28.4696 19.4562 28.5097C20.5689 28.6514 20.7142 28.9348 21.5816 29.2228C21.7996 29.2959 21.9086 29.3325 21.9268 29.3965C22.0558 29.0198 22.2704 28.6786 22.5535 28.4L23.4618 27.4675Z" fill="#0DD8AF"/>
<path d="M28.6567 32.7514C28.6538 33.145 28.5348 33.5289 28.3149 33.8544C28.095 34.1799 27.784 34.4324 27.4215 34.5798C27.1489 34.6983 26.8555 34.7605 26.5586 34.7627C26.0899 34.7682 25.6345 34.6062 25.2733 34.3056C25.1734 34.2233 25.0826 34.1364 24.9917 34.0496L22.5484 31.5904C22.2632 31.337 22.0508 31.0112 21.9333 30.6469C21.8159 30.2827 21.7978 29.8934 21.8808 29.5198C21.8445 29.57 21.79 29.6386 21.7128 29.73L20.6364 31.051C20.1823 31.6361 20.0869 32.1252 20.5229 32.7423C21.0254 33.4107 21.2442 34.2522 21.1314 35.0826C21.1314 35.1329 21.1314 35.1786 21.1314 35.2289C21.1314 36.1705 21.1314 36.1797 20.1823 36.3351C14.8414 37.2173 10.259 35.7317 6.46233 31.8372C5.9689 31.3067 5.5136 30.7415 5.09987 30.146C4.90458 29.8809 4.98179 29.7894 5.26336 29.7117C5.92189 29.5198 6.57586 29.3141 7.22984 29.1038C7.52259 29.047 7.78298 28.8804 7.95834 28.6377C8.1337 28.395 8.21096 28.0943 8.17448 27.7965V26.5578C8.17448 25.9727 8.17448 25.9818 8.74217 25.8767C10.2318 25.5933 11.7214 25.3099 13.2065 25.0128C13.3608 24.9987 13.5108 24.9534 13.6473 24.8797C13.7839 24.806 13.9043 24.7053 14.0014 24.5837C14.0985 24.4621 14.1702 24.3221 14.2123 24.172C14.2544 24.0219 14.266 23.8648 14.2465 23.71C14.2465 22.1833 14.2465 20.6566 14.2465 19.1391C14.234 19.0202 14.2629 18.9006 14.3282 18.8008C14.4076 18.719 14.5145 18.67 14.628 18.6637C15.2002 18.5905 16.1994 17.6444 17.1849 17.5804C17.5146 17.5784 17.8412 17.6447 18.1444 17.7752C18.4475 17.9058 18.7207 18.0977 18.947 18.3391L20.4593 17.4249C20.5283 16.9621 20.5481 16.4933 20.5183 16.0262C20.3594 13.7407 18.9833 12.0586 18.5564 10.9433C18.4781 10.7548 18.363 10.584 18.2178 10.4411C18.0728 10.2982 17.9006 10.1861 17.7117 10.1114C16.0177 9.26574 14.3282 8.41097 12.6343 7.56077L12.2028 7.33222C13.0669 6.99323 13.9655 6.75103 14.8823 6.61C18.1169 6.02947 21.4515 6.55906 24.3514 8.11386C26.3996 9.23375 28.6567 10.3308 29.6014 12.6848C29.9088 13.4531 30.0631 14.2747 30.0555 15.1029H33.5934C32.3196 11.8273 30.0931 9.01495 27.2051 7.03393C24.3171 5.05291 20.9023 3.99547 17.4074 3.99997C7.8702 3.91313 0.104194 11.8483 -0.000260621 21.2737C-0.0502854 24.8802 1.00971 28.414 3.03428 31.3901C5.05885 34.3662 7.9488 36.6389 11.3076 37.8963C14.6664 39.1537 18.3295 39.3342 21.7943 38.413C25.2591 37.4919 28.3558 35.5143 30.6596 32.7514H28.6567Z" fill="#0DD8AF"/>
<path d="M28.6562 27.2298H33.8108C34.4517 25.4078 34.7833 23.4901 34.7918 21.5573C34.7918 21.2464 34.7918 20.9356 34.7918 20.6431C33.007 20.6431 31.1586 20.6431 29.3419 20.6431H29.2738L28.856 21.187C30.0095 23.3811 30.0413 24.117 29.7643 24.3318C29.4873 24.5467 29.3102 24.3318 28.47 24.3318C28.2272 24.3454 27.9858 24.3775 27.7479 24.4278C27.6014 24.7506 27.393 25.0411 27.1348 25.2826C27.2258 25.306 27.3153 25.335 27.4027 25.3695C27.7734 25.5166 28.0913 25.7729 28.3149 26.1048C28.5385 26.4367 28.6575 26.8288 28.6562 27.2298Z" fill="#0DD8AF"/>
<path d="M33.2941 16.5061H37.6222C37.9446 16.5061 37.9446 16.5061 37.9446 16.1907V15.1623C37.9329 15.0428 37.958 14.9225 38.0165 14.8178C38.075 14.7132 38.1641 14.6291 38.2716 14.5772C38.3924 14.5033 38.533 14.4693 38.6739 14.4799C38.8149 14.4906 38.9489 14.5454 39.0573 14.6366L39.239 14.8057C40.0474 15.6194 40.8739 16.433 41.6641 17.2558C42.1183 17.7129 42.1183 18.0466 41.6641 18.4991L39.1936 20.972C39.0936 21.1126 38.9451 21.2107 38.7772 21.2471C38.6092 21.2834 38.4338 21.2554 38.2853 21.1685C38.1787 21.1234 38.0883 21.0468 38.0259 20.9489C37.9635 20.8509 37.932 20.7363 37.9356 20.62C37.9356 20.2269 37.9356 19.8338 37.9356 19.4407C37.9356 19.2944 37.9038 19.2259 37.7403 19.2259C34.9245 19.2259 32.1088 19.2259 29.293 19.2259C28.6746 19.2164 28.0725 19.4258 27.5919 19.8176C27.1112 20.2095 26.7827 20.7588 26.6635 21.3697C26.6219 21.582 26.6006 21.7978 26.5999 22.0142C26.5999 22.4347 26.5999 22.8552 26.5999 23.2803C26.5999 23.644 26.4564 23.9928 26.2009 24.25C25.9453 24.5072 25.5988 24.6516 25.2375 24.6516C24.8761 24.6516 24.5296 24.5072 24.2741 24.25C24.0185 23.9928 23.875 23.644 23.875 23.2803C23.875 22.8232 23.875 22.3387 23.875 21.8679C23.883 20.7524 24.2334 19.6666 24.878 18.7592C25.5227 17.8518 26.4302 17.167 27.4764 16.7987C28.0349 16.5996 28.6234 16.4991 29.2158 16.5016C30.5737 16.5107 31.9362 16.5061 33.2941 16.5061Z" fill="#235065"/>
<path d="M31.9222 31.3528C30.4598 31.3528 28.9929 31.3528 27.5305 31.3528C27.3216 31.3528 27.2489 31.4077 27.2626 31.6225C27.2626 31.9882 27.2626 32.3493 27.2626 32.715C27.2725 32.8418 27.241 32.9684 27.173 33.0757C27.105 33.1829 27.0041 33.2649 26.8856 33.3092C26.7706 33.3705 26.64 33.3959 26.5105 33.382C26.3811 33.3682 26.2587 33.3158 26.159 33.2315C26.0954 33.1767 26.0318 33.1218 25.9728 33.0624L23.534 30.6032C23.0798 30.1461 23.0798 29.8216 23.534 29.3736C24.356 28.5463 25.1825 27.7235 26 26.8916C26.0987 26.7631 26.2371 26.6714 26.3933 26.6308C26.5496 26.5903 26.7148 26.6032 26.8629 26.6676C26.9815 26.7099 27.0832 26.7898 27.1529 26.8953C27.2225 27.0009 27.2562 27.1262 27.2489 27.2527C27.2489 27.6092 27.2489 27.9703 27.2489 28.3269C27.2489 28.6834 27.2489 28.6285 27.5396 28.6285H35.837C36.2293 28.6362 36.6187 28.5585 36.9785 28.4007C37.3383 28.243 37.66 28.0088 37.9215 27.7143C38.3716 27.1944 38.6143 26.5251 38.6027 25.8357C38.6027 25.406 38.6027 24.9809 38.6027 24.5512C38.6027 24.1875 38.7463 23.8387 39.0018 23.5816C39.2573 23.3244 39.6039 23.1799 39.9652 23.1799C40.3265 23.1799 40.6731 23.3244 40.9286 23.5816C41.1841 23.8387 41.3277 24.1875 41.3277 24.5512V26.0459C41.3032 27.2868 40.8565 28.4816 40.0622 29.4308C39.2679 30.38 38.174 31.0262 36.9633 31.2614C36.641 31.3198 36.3142 31.3489 35.9868 31.3483C34.6244 31.3483 33.271 31.3528 31.9222 31.3528Z" fill="#235065"/>
</g>
<defs>
<clipPath id="clip0_1042_492">
<rect width="42" height="35" fill="white" transform="translate(0 4)"/>
</clipPath>
</defs>
</svg>
