<svg width="42" height="41" viewBox="0 0 42 41" fill="none" xmlns="http://www.w3.org/2000/svg">
<g clip-path="url(#clip0_3311_2576)">
<path d="M26.3044 30.4355C26.5229 30.2035 26.8064 30.0441 27.1173 29.9784C26.8413 29.9352 26.5839 29.8118 26.3766 29.6234C26.1692 29.435 26.021 29.1899 25.9501 28.918L25.4324 29.4528L24.8965 29.9922L25.9501 31.0526C26.0205 30.8227 26.1416 30.6117 26.3044 30.4355Z" fill="#0DD8AF"/>
<path d="M23.4618 27.4685C23.9523 26.9779 24.4398 26.4873 24.9242 25.9967C24.2632 25.9231 23.6517 25.6087 23.205 25.1128C22.7583 24.6169 22.5072 23.9737 22.499 23.3044V23.1992L21.0548 23.3729C20.9144 23.9495 20.6578 24.491 20.3009 24.9636C19.6787 25.7818 19.102 25.9052 18.7159 26.632C18.4348 27.2074 18.3579 27.8623 18.498 28.4878C18.8173 28.4629 19.1384 28.4706 19.4562 28.5107C20.5689 28.6524 20.7142 28.9358 21.5816 29.2238C21.7996 29.2969 21.9086 29.3335 21.9268 29.3975C22.0558 29.0207 22.2704 28.6795 22.5535 28.401L23.4618 27.4685Z" fill="#00EF64"/>
<path d="M28.6567 32.7522C28.6538 33.1458 28.5348 33.5296 28.3149 33.8551C28.095 34.1806 27.784 34.4331 27.4215 34.5806C27.1489 34.6991 26.8555 34.7612 26.5586 34.7634C26.0899 34.7689 25.6345 34.607 25.2733 34.3063C25.1734 34.224 25.0826 34.1372 24.9917 34.0503L22.5484 31.5911C22.2632 31.3377 22.0508 31.0119 21.9333 30.6477C21.8159 30.2835 21.7978 29.8942 21.8808 29.5205C21.8445 29.5708 21.79 29.6393 21.7128 29.7308L20.6364 31.0518C20.1823 31.6369 20.0869 32.1259 20.5229 32.743C21.0254 33.4114 21.2442 34.2529 21.1314 35.0834C21.1314 35.1337 21.1314 35.1794 21.1314 35.2296C21.1314 36.1713 21.1314 36.1804 20.1823 36.3358C14.8414 37.218 10.259 35.7325 6.46233 31.838C5.9689 31.3075 5.5136 30.7423 5.09987 30.1467C4.90458 29.8816 4.98179 29.7902 5.26336 29.7125C5.92189 29.5205 6.57586 29.3148 7.22984 29.1045C7.5226 29.0477 7.78298 28.8811 7.95834 28.6384C8.1337 28.3957 8.21096 28.0951 8.17448 27.7972V26.5585C8.17448 25.9734 8.17448 25.9826 8.74217 25.8774C10.2318 25.594 11.7214 25.3106 13.2065 25.0135C13.3608 24.9994 13.5108 24.9541 13.6473 24.8804C13.7839 24.8067 13.9043 24.706 14.0014 24.5845C14.0985 24.4629 14.1702 24.3228 14.2123 24.1727C14.2544 24.0226 14.266 23.8655 14.2465 23.7108C14.2465 22.1841 14.2465 20.6574 14.2465 19.1398C14.234 19.0209 14.2629 18.9014 14.3282 18.8015C14.4076 18.7197 14.5145 18.6708 14.628 18.6644C15.2002 18.5913 16.1993 17.6451 17.1849 17.5811C17.5146 17.5791 17.8412 17.6454 18.1444 17.776C18.4475 17.9065 18.7207 18.0985 18.947 18.3399L20.4593 17.4257C20.5283 16.9629 20.5481 16.494 20.5183 16.027C20.3594 13.7415 18.9833 12.0593 18.5564 10.944C18.4781 10.7555 18.363 10.5848 18.2178 10.4419C18.0727 10.299 17.9006 10.1868 17.7117 10.1121C16.0177 9.26648 14.3282 8.4117 12.6343 7.5615L12.2028 7.33295C13.0669 6.99396 13.9655 6.75176 14.8823 6.61074C18.1169 6.0302 21.4515 6.55979 24.3514 8.11459C26.3996 9.23448 28.6567 10.3315 29.6014 12.6856C29.9088 13.4538 30.0631 14.2754 30.0555 15.1036H33.5934C32.3196 11.828 30.0931 9.01568 27.2051 7.03466C24.3171 5.05365 20.9023 3.9962 17.4074 4.00071C7.8702 3.91386 0.104194 11.8491 -0.000260621 21.2744C-0.0502854 24.881 1.00971 28.4147 3.03428 31.3908C5.05885 34.3669 7.9488 36.6396 11.3076 37.897C14.6664 39.1544 18.3295 39.3349 21.7943 38.4138C25.2591 37.4926 28.3558 35.515 30.6596 32.7522H28.6567Z" fill="#00EF64"/>
<path d="M28.6562 27.2313H33.8108C34.4517 25.4092 34.7833 23.4916 34.7918 21.5587C34.7918 21.2479 34.7918 20.9371 34.7918 20.6445C33.007 20.6445 31.1586 20.6445 29.3419 20.6445H29.2738L28.856 21.1885C30.0095 23.3825 30.0413 24.1185 29.7643 24.3333C29.4873 24.5481 29.3102 24.3333 28.47 24.3333C28.2272 24.3469 27.9858 24.3789 27.7479 24.4293C27.6014 24.752 27.393 25.0425 27.1348 25.2841C27.2258 25.3074 27.3153 25.3364 27.4027 25.3709C27.7734 25.5181 28.0913 25.7744 28.3149 26.1063C28.5385 26.4382 28.6575 26.8303 28.6562 27.2313Z" fill="#00EF64"/>
<path d="M33.2941 16.5066H37.6222C37.9446 16.5066 37.9446 16.5066 37.9446 16.1912V15.1628C37.9329 15.0433 37.958 14.923 38.0165 14.8183C38.075 14.7137 38.164 14.6296 38.2716 14.5777C38.3924 14.5038 38.533 14.4698 38.6739 14.4804C38.8149 14.4911 38.9489 14.5459 39.0573 14.6371L39.239 14.8062C40.0474 15.6199 40.8739 16.4335 41.6641 17.2563C42.1183 17.7134 42.1183 18.0471 41.6641 18.4996L39.1936 20.9725C39.0936 21.1131 38.9451 21.2112 38.7772 21.2476C38.6092 21.2839 38.4338 21.2559 38.2853 21.169C38.1787 21.1238 38.0883 21.0473 38.0259 20.9493C37.9635 20.8514 37.932 20.7368 37.9356 20.6205C37.9356 20.2274 37.9356 19.8343 37.9356 19.4412C37.9356 19.2949 37.9038 19.2264 37.7403 19.2264C34.9245 19.2264 32.1088 19.2264 29.293 19.2264C28.6746 19.2168 28.0725 19.4263 27.5919 19.8181C27.1112 20.21 26.7827 20.7593 26.6635 21.3702C26.6219 21.5825 26.6006 21.7983 26.5999 22.0147C26.5999 22.4352 26.5999 22.8557 26.5999 23.2808C26.5999 23.6445 26.4564 23.9933 26.2009 24.2505C25.9453 24.5076 25.5988 24.6521 25.2375 24.6521C24.8761 24.6521 24.5296 24.5076 24.2741 24.2505C24.0185 23.9933 23.875 23.6445 23.875 23.2808C23.875 22.8237 23.875 22.3392 23.875 21.8684C23.883 20.7529 24.2334 19.6671 24.878 18.7597C25.5227 17.8523 26.4302 17.1675 27.4764 16.7992C28.0349 16.6001 28.6234 16.4996 29.2158 16.5021C30.5737 16.5112 31.9362 16.5066 33.2941 16.5066Z" fill="#0A7D50"/>
<path d="M31.9222 31.3526C30.4598 31.3526 28.9929 31.3526 27.5305 31.3526C27.3216 31.3526 27.2489 31.4075 27.2626 31.6223C27.2626 31.988 27.2626 32.3491 27.2626 32.7148C27.2725 32.8416 27.241 32.9682 27.173 33.0754C27.105 33.1827 27.0041 33.2646 26.8856 33.309C26.7706 33.3703 26.64 33.3956 26.5105 33.3818C26.3811 33.368 26.2587 33.3155 26.159 33.2313C26.0954 33.1764 26.0318 33.1216 25.9728 33.0621L23.534 30.603C23.0798 30.1459 23.0798 29.8213 23.534 29.3734C24.356 28.546 25.1825 27.7232 26 26.8913C26.0987 26.7629 26.2371 26.6711 26.3933 26.6306C26.5496 26.59 26.7148 26.603 26.8629 26.6673C26.9815 26.7097 27.0832 26.7896 27.1529 26.8951C27.2225 27.0006 27.2562 27.126 27.2489 27.2524C27.2489 27.609 27.2489 27.9701 27.2489 28.3266C27.2489 28.6831 27.2489 28.6283 27.5396 28.6283H35.837C36.2293 28.636 36.6187 28.5583 36.9785 28.4005C37.3383 28.2427 37.66 28.0086 37.9215 27.7141C38.3716 27.1942 38.6143 26.5249 38.6027 25.8354C38.6027 25.4058 38.6027 24.9807 38.6027 24.551C38.6027 24.1873 38.7463 23.8385 39.0018 23.5813C39.2573 23.3242 39.6039 23.1797 39.9652 23.1797C40.3265 23.1797 40.6731 23.3242 40.9286 23.5813C41.1841 23.8385 41.3277 24.1873 41.3277 24.551V26.0457C41.3032 27.2865 40.8565 28.4813 40.0622 29.4306C39.2679 30.3798 38.174 31.026 36.9633 31.2612C36.641 31.3196 36.3142 31.3487 35.9868 31.348C34.6244 31.348 33.271 31.3526 31.9222 31.3526Z" fill="#0A7D50"/>
</g>
<defs>
<clipPath id="clip0_3311_2576">
<rect width="42" height="35" fill="white" transform="translate(0 4)"/>
</clipPath>
</defs>
</svg>
