<svg width="42" height="41" viewBox="0 0 42 41" fill="none" xmlns="http://www.w3.org/2000/svg">
<g clip-path="url(#clip0_3311_2534)">
<path d="M24.5555 18.2734C25.0415 18.9905 25.5674 19.6772 26.1306 20.3299C27.1114 21.4082 28.2015 22.3723 29.3817 23.2052C30.0759 23.7002 30.7902 24.1689 31.5146 24.6166C32.0393 24.9379 32.6366 25.1072 33.245 25.1072C33.8533 25.1072 34.4506 24.9379 34.9753 24.6166C36.7242 23.5948 38.3488 22.3571 39.8141 20.9302C40.5221 20.2229 41.1582 19.4411 41.7122 18.5973C41.7299 18.5673 41.7565 18.5441 41.7881 18.5314C41.8196 18.5187 41.8543 18.5172 41.8867 18.5271C41.9191 18.5369 41.9476 18.5577 41.9676 18.5861C41.9876 18.6145 41.9981 18.649 41.9975 18.6842V30.2172C41.899 30.2646 41.8965 30.3699 41.8662 30.4541C41.7223 30.8968 41.4514 31.2825 41.0901 31.559C40.7289 31.8355 40.2948 31.9894 39.8469 31.9998C39.7333 31.9998 39.6197 31.9998 39.5061 31.9998H9.48125C7.88598 31.9971 7 31.0703 7 29.422V18.671C7 18.5394 7 18.4077 7 18.2787H17.3894L24.5555 18.2734Z" fill="#00EF64"/>
<path d="M42.0007 10.7067C41.897 11.1508 41.832 11.6038 41.8063 12.0601C41.4584 14.8441 40.1973 17.4166 38.2372 19.3406C36.9048 20.6285 35.4305 21.7466 33.8451 22.6715C33.665 22.7822 33.4598 22.8405 33.2507 22.8405C33.0417 22.8405 32.8364 22.7822 32.6563 22.6715C30.801 21.5419 29.0391 20.2754 27.5852 18.606C26.0159 16.7965 25.0114 14.5319 24.7052 12.1128C24.3568 9.61397 24.5512 7.1099 24.5083 4.59003C24.5025 4.36174 24.5631 4.13699 24.682 3.94526C24.801 3.75354 24.9727 3.6038 25.1747 3.51573C27.6988 2.37296 30.2348 1.23459 32.7825 0.100601C32.9299 0.0342339 33.0888 0 33.2494 0C33.41 0 33.569 0.0342339 33.7164 0.100601C36.2406 1.23108 38.7597 2.35892 41.2738 3.48413C41.5998 3.64687 41.8581 3.92757 42.0007 4.27406V10.7067Z" fill="#0A7D50"/>
<path d="M24.5546 18.2738H17.3885H7.01172V11.4277H22.3965C22.5052 12.3667 22.6645 13.2985 22.8735 14.2188C23.2375 15.6501 23.8041 17.0168 24.5546 18.2738Z" fill="#075F4A"/>
<path d="M22.3971 11.4235H7.01234C7.01234 10.6336 6.98457 9.84367 7.01234 9.05374C7.02081 8.75379 7.08607 8.45856 7.20438 8.18504C7.32269 7.91152 7.4917 7.66512 7.70169 7.46002C7.91167 7.25493 8.15847 7.09519 8.42788 6.99002C8.6973 6.88484 8.98399 6.83631 9.27146 6.8472C11.3791 6.8472 13.4868 6.8472 15.5819 6.8472C17.6769 6.8472 19.8729 6.8472 21.9932 6.8472C22.2002 6.8472 22.3239 6.8472 22.3188 7.13948C22.3012 8.56661 22.3012 10.0069 22.3971 11.4235Z" fill="#00EF64"/>
<path d="M14.6656 22.8529C15.3598 22.8529 16.0539 22.8529 16.7506 22.8529C17.4473 22.8529 17.937 23.3321 17.937 23.993C17.937 24.6539 17.4447 25.1331 16.7506 25.1358C15.3522 25.1358 13.9521 25.1358 12.5504 25.1358C12.4023 25.1432 12.2543 25.1192 12.1153 25.0652C11.9764 25.0111 11.8494 24.9283 11.742 24.8215C11.6347 24.7148 11.5492 24.5865 11.4908 24.4443C11.4324 24.3021 11.4023 24.149 11.4023 23.9943C11.4023 23.8396 11.4324 23.6866 11.4908 23.5444C11.5492 23.4022 11.6347 23.2738 11.742 23.1671C11.8494 23.0604 11.9764 22.9775 12.1153 22.9235C12.2543 22.8695 12.4023 22.8455 12.5504 22.8529C13.2521 22.8502 13.9589 22.8529 14.6656 22.8529Z" fill="white"/>
<path d="M37.623 7.96926C37.6212 8.25206 37.5258 8.52552 37.3529 8.74339C35.9192 10.6208 34.4905 12.5008 33.0467 14.3703C32.5116 15.0602 31.6862 15.0128 31.2066 14.2729C30.4914 13.1723 29.7847 12.0646 29.0863 10.9499C29.0071 10.8254 28.9522 10.6859 28.9246 10.5393C28.8971 10.3926 28.8975 10.2418 28.9259 10.0953C28.9543 9.94887 29.01 9.80967 29.0899 9.68568C29.1699 9.56169 29.2724 9.45534 29.3917 9.3727C29.5111 9.29006 29.6448 9.23274 29.7854 9.20403C29.926 9.17531 30.0706 9.17576 30.211 9.20535C30.3514 9.23493 30.4848 9.29307 30.6037 9.37645C30.7225 9.45983 30.8245 9.56682 30.9037 9.6913C31.2849 10.2679 31.661 10.8578 32.0219 11.4423C32.239 11.782 32.239 11.782 32.4939 11.4423C33.5288 10.0836 34.5646 8.72671 35.6012 7.37155C35.7238 7.17618 35.9007 7.02457 36.1082 6.93704C36.3158 6.8495 36.544 6.83023 36.7623 6.88179C36.971 6.92575 37.1622 7.0341 37.3112 7.19279C37.4602 7.35148 37.56 7.55319 37.5978 7.77178C37.6129 7.84814 37.6155 7.91923 37.623 7.96926Z" fill="white"/>
</g>
<defs>
<clipPath id="clip0_3311_2534">
<rect width="35" height="32" fill="white" transform="translate(7)"/>
</clipPath>
</defs>
</svg>
