<svg width="42" height="41" viewBox="0 0 42 41" fill="none" xmlns="http://www.w3.org/2000/svg">
<g clip-path="url(#clip0_1042_477)">
<path d="M20.5555 22.2737C21.0415 22.9908 21.5674 23.6775 22.1306 24.3301C23.1114 25.4085 24.2015 26.3726 25.3817 27.2055C26.0759 27.7005 26.7902 28.1692 27.5146 28.6168C28.0393 28.9381 28.6366 29.1075 29.245 29.1075C29.8533 29.1075 30.4506 28.9381 30.9753 28.6168C32.7242 27.5951 34.3488 26.3574 35.8141 24.9305C36.5221 24.2231 37.1582 23.4413 37.7122 22.5976C37.7299 22.5675 37.7565 22.5443 37.7881 22.5316C37.8196 22.5189 37.8543 22.5174 37.8867 22.5273C37.9191 22.5372 37.9476 22.5579 37.9676 22.5863C37.9876 22.6147 37.9981 22.6492 37.9975 22.6844V34.2174C37.899 34.2648 37.8965 34.3701 37.8662 34.4544C37.7223 34.897 37.4514 35.2828 37.0901 35.5593C36.7289 35.8358 36.2948 35.9896 35.8469 36C35.7333 36 35.6197 36 35.5061 36H5.48125C3.88598 35.9974 3 35.0705 3 33.4222V22.6713C3 22.5396 3 22.408 3 22.2789H13.3894L20.5555 22.2737Z" fill="#0DD8AF"/>
<path d="M38.0007 14.7062C37.897 15.1503 37.832 15.6033 37.8063 16.0596C37.4584 18.8436 36.1973 21.4162 34.2372 23.3401C32.9048 24.628 31.4305 25.7461 29.8451 26.671C29.665 26.7817 29.4598 26.8401 29.2507 26.8401C29.0416 26.8401 28.8364 26.7817 28.6563 26.671C26.801 25.5414 25.0391 24.2749 23.5852 22.6055C22.0159 20.796 21.0114 18.5314 20.7052 16.1123C20.3568 13.6135 20.5512 11.1094 20.5083 8.58954C20.5025 8.36126 20.5631 8.1365 20.682 7.94477C20.801 7.75305 20.9727 7.60332 21.1747 7.51524C23.6988 6.37247 26.2348 5.2341 28.7825 4.10011C28.9299 4.03375 29.0888 3.99951 29.2494 3.99951C29.41 3.99951 29.569 4.03375 29.7164 4.10011C32.2406 5.23059 34.7597 6.35843 37.2738 7.48364C37.5998 7.64638 37.8581 7.92708 38.0007 8.27357V14.7062Z" fill="#029789"/>
<path d="M20.5546 22.2738H13.3885H3.01172V15.4277H18.3965C18.5052 16.3667 18.6645 17.2985 18.8735 18.2188C19.2375 19.6501 19.8041 21.0168 20.5546 22.2738Z" fill="#235065"/>
<path d="M18.3971 15.4225H3.01234C3.01234 14.6326 2.98457 13.8427 3.01234 13.0528C3.02081 12.7528 3.08607 12.4576 3.20438 12.1841C3.32269 11.9105 3.4917 11.6641 3.70169 11.459C3.91167 11.2539 4.15847 11.0942 4.42788 10.989C4.6973 10.8839 4.98399 10.8353 5.27146 10.8462C7.37914 10.8462 9.48681 10.8462 11.5819 10.8462C13.6769 10.8462 15.8729 10.8462 17.9932 10.8462C18.2002 10.8462 18.3239 10.8462 18.3188 11.1385C18.3012 12.5656 18.3012 14.0059 18.3971 15.4225Z" fill="#0DD8AF"/>
<path d="M10.6656 26.8526C11.3598 26.8526 12.0539 26.8526 12.7506 26.8526C13.4473 26.8526 13.937 27.3319 13.937 27.9928C13.937 28.6537 13.4447 29.1329 12.7506 29.1355C11.3522 29.1355 9.95215 29.1355 8.5504 29.1355C8.40228 29.143 8.25426 29.1189 8.11531 29.0649C7.97636 29.0109 7.84936 28.928 7.74202 28.8213C7.63468 28.7146 7.54922 28.5862 7.49084 28.444C7.43245 28.3018 7.40234 28.1488 7.40234 27.9941C7.40234 27.8394 7.43245 27.6863 7.49084 27.5441C7.54922 27.4019 7.63468 27.2736 7.74202 27.1669C7.84936 27.0601 7.97636 26.9773 8.11531 26.9232C8.25426 26.8692 8.40228 26.8452 8.5504 26.8526C9.25212 26.85 9.95888 26.8526 10.6656 26.8526Z" fill="white"/>
<path d="M33.623 11.9678C33.6212 12.2506 33.5258 12.5241 33.3529 12.7419C31.9192 14.6193 30.4905 16.4993 29.0467 18.3688C28.5116 19.0587 27.6862 19.0113 27.2066 18.2714C26.4914 17.1708 25.7847 16.0631 25.0863 14.9485C25.0071 14.824 24.9522 14.6844 24.9246 14.5378C24.8971 14.3912 24.8975 14.2403 24.9259 14.0939C24.9543 13.9474 25.01 13.8082 25.0899 13.6842C25.1699 13.5602 25.2724 13.4539 25.3917 13.3712C25.5111 13.2886 25.6448 13.2313 25.7854 13.2026C25.926 13.1738 26.0706 13.1743 26.211 13.2039C26.3514 13.2335 26.4848 13.2916 26.6037 13.375C26.7225 13.4584 26.8245 13.5654 26.9037 13.6898C27.2849 14.2665 27.661 14.8563 28.0219 15.4408C28.239 15.7805 28.239 15.7805 28.4939 15.4408C29.5288 14.0822 30.5646 12.7252 31.6012 11.3701C31.7238 11.1747 31.9007 11.0231 32.1082 10.9356C32.3158 10.848 32.544 10.8288 32.7623 10.8803C32.971 10.9243 33.1622 11.0326 33.3112 11.1913C33.4602 11.35 33.56 11.5517 33.5978 11.7703C33.6129 11.8467 33.6155 11.9178 33.623 11.9678Z" fill="white"/>
</g>
<defs>
<clipPath id="clip0_1042_477">
<rect width="35" height="32" fill="white" transform="translate(3 4)"/>
</clipPath>
</defs>
</svg>
