<svg width="42" height="41" viewBox="0 0 42 41" fill="none" xmlns="http://www.w3.org/2000/svg">
<g clip-path="url(#clip0_1042_483)">
<path d="M24.3343 27.4241C25.5635 26.1695 26.8028 24.9403 28.0675 23.6858C28.6339 23.1214 29.3086 22.6774 30.051 22.3804C30.1046 21.8786 30.3308 21.4109 30.6909 21.0573L31.4274 20.3208C31.849 19.8992 32.268 19.4802 32.6972 19.051C32.8166 18.9317 32.9359 18.8098 33.0527 18.6879C33.36 18.3755 33.6775 18.0504 34.0432 17.733C34.8567 17.0189 35.8547 16.5481 36.9231 16.3743L37.1186 16.3108H37.9516V8.63109C37.9516 8.28387 37.8829 7.94007 37.7494 7.61953C37.6159 7.29899 37.4203 7.00804 37.1738 6.76346C36.9274 6.51889 36.6349 6.32551 36.3134 6.19449C35.9918 6.06347 35.6475 5.9974 35.3003 6.00008H2.63102C1.93323 6.00008 1.26402 6.27727 0.770607 6.77068C0.277197 7.2641 1.22578e-06 7.9333 1.22578e-06 8.63109V27.6272C-0.000332484 27.9729 0.0674745 28.3153 0.199546 28.6348C0.331617 28.9543 0.525364 29.2447 0.769709 29.4893C1.01405 29.7338 1.30421 29.9279 1.62358 30.0603C1.94296 30.1926 2.28529 30.2608 2.63102 30.2608H22.742C22.9968 29.1848 23.5485 28.202 24.3343 27.4241Z" fill="#0DD8AF"/>
<path d="M11.3621 22.21H6.02644C5.31393 22.21 4.73633 22.787 4.73633 23.4988C4.73633 24.2106 5.31393 24.7876 6.02644 24.7876H11.3621C12.0746 24.7876 12.6522 24.2106 12.6522 23.4988C12.6522 22.787 12.0746 22.21 11.3621 22.21Z" fill="white"/>
<path d="M37.944 10.0229H0V16.283H37.944V10.0229Z" fill="#235065"/>
<path d="M41.9983 22.6723C41.9319 23.1306 41.8002 23.577 41.6072 23.998C41.3926 24.4362 41.1049 24.8347 40.7565 25.1764C39.5476 26.3869 38.338 27.5974 37.1274 28.808C36.3967 29.5589 35.4061 30.0015 34.3593 30.0448C33.7896 30.0833 33.2183 29.9985 32.6845 29.796C32.1507 29.5935 31.6668 29.2781 31.266 28.8715C31.1047 28.7269 30.9886 28.5387 30.9318 28.3296C30.875 28.1205 30.88 27.8994 30.9461 27.6931C30.9999 27.486 31.1124 27.2989 31.2701 27.1542C31.4278 27.0096 31.6239 26.9136 31.8349 26.8779C32.032 26.8365 32.2362 26.844 32.4296 26.8997C32.6231 26.9555 32.8 27.0579 32.9447 27.1979C33.1122 27.3595 33.3104 27.4859 33.5277 27.5694C33.7449 27.6529 33.9768 27.6919 34.2094 27.6841C34.442 27.6763 34.6707 27.6218 34.8819 27.5239C35.093 27.426 35.2823 27.2866 35.4386 27.1141C36.6508 25.9052 37.8622 24.6955 39.0727 23.485C39.3785 23.1656 39.5508 22.7416 39.5543 22.2994C39.5579 21.8573 39.3925 21.4305 39.0919 21.1063C38.7913 20.782 38.3783 20.5848 37.9371 20.5549C37.496 20.525 37.0601 20.6647 36.7185 20.9454C35.9922 21.6438 35.2837 22.36 34.5777 23.0787C34.5054 23.1701 34.4038 23.2339 34.2901 23.2593C34.1763 23.2848 34.0573 23.2703 33.9529 23.2183C33.384 23.0072 32.7821 22.8988 32.1752 22.8984C32.1067 22.906 32.0376 22.8916 31.9778 22.8574C31.918 22.8231 31.8706 22.7708 31.8425 22.7079C31.8169 22.6399 31.8137 22.5656 31.8333 22.4957C31.853 22.4258 31.8945 22.364 31.9517 22.3193C32.6146 21.6565 33.2774 20.9911 33.9428 20.3308C34.3618 19.9143 34.7605 19.4801 35.2126 19.0915C35.8078 18.5657 36.5459 18.2289 37.3331 18.1239L37.3966 18.1011H38.3947C38.4269 18.1122 38.4601 18.1207 38.4937 18.1265C39.168 18.222 39.8077 18.4846 40.3546 18.8904C40.9015 19.2963 41.3382 19.8325 41.625 20.4502C41.8144 20.8607 41.9411 21.2973 42.0009 21.7454L41.9983 22.6723Z" fill="#235065"/>
<path d="M28.2649 35.7129C26.599 35.7129 24.8771 34.3923 24.4809 32.4419C24.3277 31.77 24.3508 31.0699 24.5479 30.4095C24.745 29.7492 25.1095 29.151 25.606 28.6731C26.8326 27.4211 28.077 26.1869 29.3214 24.9552C30.092 24.1864 31.1348 23.7528 32.2233 23.7486C33.3117 23.7443 34.3579 24.1697 35.1345 24.9323C35.356 25.1433 35.4868 25.4323 35.4991 25.7379C35.5114 26.0436 35.4043 26.3421 35.2006 26.5703C34.9935 26.7882 34.7132 26.9218 34.4135 26.9452C34.1139 26.9687 33.8162 26.8804 33.5778 26.6973C33.353 26.4856 33.089 26.3199 32.8006 26.2097C32.4866 26.1023 32.1482 26.0878 31.8261 26.168C31.504 26.2482 31.2119 26.4196 30.9848 26.6618C30.1671 27.4761 29.3493 28.2939 28.5316 29.115C28.0948 29.5518 27.6453 29.9785 27.2237 30.4305C26.9095 30.7673 26.7419 31.2151 26.7579 31.6754C26.7739 32.1357 26.972 32.5708 27.3088 32.885C27.6456 33.1992 28.0933 33.3668 28.5537 33.3508C29.014 33.3349 29.4491 33.1367 29.7633 32.7999C30.4591 32.1117 31.1524 31.4184 31.8356 30.72C31.9038 30.6316 32.0002 30.5692 32.1088 30.5433C32.2175 30.5174 32.3317 30.5296 32.4324 30.5778C33.0008 30.7916 33.6029 30.9017 34.2101 30.9029C34.3701 30.9029 34.5098 30.9384 34.5733 31.1035C34.5961 31.1748 34.5959 31.2514 34.5727 31.3226C34.5494 31.3937 34.5043 31.4557 34.4438 31.4997L31.9397 34.0012C31.6523 34.3127 31.3434 34.6038 31.0153 34.8722C30.2241 35.4637 29.2516 35.7609 28.2649 35.7129Z" fill="#235065"/>
</g>
<defs>
<clipPath id="clip0_1042_483">
<rect width="42" height="41" rx="6" fill="white"/>
</clipPath>
</defs>
</svg>
