<svg width="42" height="41" viewBox="0 0 42 41" fill="none" xmlns="http://www.w3.org/2000/svg">
<g clip-path="url(#clip0_3311_2546)">
<path d="M24.3343 27.4241C25.5635 26.1695 26.8028 24.9403 28.0675 23.6858C28.6339 23.1214 29.3086 22.6774 30.051 22.3804C30.1046 21.8786 30.3308 21.4109 30.6909 21.0573L31.4274 20.3208C31.849 19.8992 32.268 19.4802 32.6972 19.051C32.8166 18.9317 32.9359 18.8098 33.0527 18.6879C33.36 18.3755 33.6775 18.0504 34.0432 17.733C34.8567 17.0189 35.8547 16.5481 36.9231 16.3743L37.1186 16.3108H37.9516V8.63109C37.9516 8.28387 37.8829 7.94007 37.7494 7.61953C37.6159 7.29899 37.4203 7.00804 37.1738 6.76346C36.9274 6.51889 36.6349 6.32551 36.3134 6.19449C35.9918 6.06347 35.6475 5.9974 35.3003 6.00008H18.9657H2.63102C1.93323 6.00008 1.26402 6.27727 0.770607 6.77068C0.277197 7.2641 1.22578e-06 7.9333 1.22578e-06 8.63109V27.6272C-0.000332484 27.9729 0.0674745 28.3153 0.199546 28.6348C0.331617 28.9543 0.525364 29.2447 0.769709 29.4893C1.01405 29.7338 1.30421 29.9279 1.62358 30.0603C1.94296 30.1926 2.28529 30.2608 2.63102 30.2608H22.742C22.9968 29.1848 23.5485 28.202 24.3343 27.4241Z" fill="#00EF64"/>
<path d="M11.3621 22.2109H6.02644C5.31393 22.2109 4.73633 22.788 4.73633 23.4998C4.73633 24.2116 5.31393 24.7886 6.02644 24.7886H11.3621C12.0746 24.7886 12.6522 24.2116 12.6522 23.4998C12.6522 22.788 12.0746 22.2109 11.3621 22.2109Z" fill="white"/>
<path d="M37.944 10.0234H0V16.2835H37.944V10.0234Z" fill="#0A7D50"/>
<path d="M41.9983 22.6728C41.9319 23.1311 41.8002 23.5775 41.6072 23.9985C41.3926 24.4367 41.1049 24.8352 40.7565 25.1769C39.5476 26.3874 38.338 27.5979 37.1274 28.8085C36.3967 29.5594 35.4061 30.0019 34.3593 30.0452C33.7896 30.0838 33.2183 29.9989 32.6845 29.7965C32.1507 29.594 31.6668 29.2786 31.266 28.872C31.1047 28.7274 30.9886 28.5392 30.9318 28.3301C30.875 28.121 30.88 27.8999 30.9461 27.6936C30.9999 27.4865 31.1124 27.2993 31.2701 27.1547C31.4278 27.0101 31.6239 26.9141 31.8349 26.8784C32.032 26.8369 32.2362 26.8444 32.4296 26.9002C32.6231 26.956 32.8 27.0584 32.9447 27.1984C33.1122 27.36 33.3104 27.4864 33.5277 27.5699C33.7449 27.6534 33.9768 27.6924 34.2094 27.6846C34.442 27.6768 34.6707 27.6223 34.8819 27.5244C35.093 27.4264 35.2823 27.2871 35.4386 27.1146C36.6508 25.9057 37.8622 24.696 39.0727 23.4855C39.3785 23.1661 39.5508 22.7421 39.5543 22.2999C39.5579 21.8578 39.3925 21.431 39.0919 21.1068C38.7913 20.7825 38.3783 20.5853 37.9371 20.5554C37.496 20.5255 37.0601 20.6652 36.7185 20.9459C35.9922 21.6443 35.2837 22.3605 34.5777 23.0792C34.5054 23.1706 34.4038 23.2344 34.2901 23.2598C34.1763 23.2852 34.0573 23.2708 33.9529 23.2188C33.384 23.0077 32.7821 22.8993 32.1752 22.8988C32.1067 22.9065 32.0376 22.8921 31.9778 22.8579C31.918 22.8236 31.8706 22.7713 31.8425 22.7084C31.8169 22.6404 31.8137 22.5661 31.8333 22.4962C31.853 22.4263 31.8945 22.3645 31.9517 22.3198C32.6146 21.657 33.2774 20.9916 33.9428 20.3313C34.3618 19.9148 34.7605 19.4806 35.2126 19.092C35.8078 18.5662 36.5459 18.2294 37.3331 18.1244L37.3966 18.1016H38.3947C38.4269 18.1127 38.4601 18.1212 38.4937 18.127C39.168 18.2225 39.8077 18.4851 40.3546 18.8909C40.9015 19.2968 41.3382 19.833 41.625 20.4507C41.8144 20.8612 41.9411 21.2978 42.0009 21.7459L41.9983 22.6728Z" fill="#235065"/>
<path d="M28.2649 35.7124C26.599 35.7124 24.8771 34.3918 24.4809 32.4414C24.3277 31.7695 24.3508 31.0694 24.5479 30.4091C24.745 29.7487 25.1095 29.1505 25.606 28.6726C26.8326 27.4206 28.077 26.1864 29.3214 24.9547C30.092 24.186 31.1348 23.7524 32.2233 23.7481C33.3117 23.7438 34.3579 24.1692 35.1345 24.9318C35.356 25.1429 35.4868 25.4318 35.4991 25.7375C35.5114 26.0432 35.4043 26.3417 35.2006 26.5698C34.9935 26.7878 34.7132 26.9213 34.4135 26.9448C34.1139 26.9682 33.8162 26.8799 33.5778 26.6968C33.353 26.4851 33.089 26.3195 32.8006 26.2092C32.4866 26.1018 32.1482 26.0873 31.8261 26.1675C31.504 26.2477 31.2119 26.4192 30.9848 26.6613C30.1671 27.4756 29.3493 28.2934 28.5316 29.1145C28.0948 29.5513 27.6453 29.978 27.2237 30.43C26.9095 30.7668 26.7419 31.2146 26.7579 31.6749C26.7739 32.1352 26.972 32.5703 27.3088 32.8845C27.6456 33.1987 28.0933 33.3663 28.5537 33.3503C29.014 33.3344 29.4491 33.1362 29.7633 32.7995C30.4591 32.1112 31.1524 31.4179 31.8356 30.7195C31.9038 30.6311 32.0002 30.5687 32.1088 30.5428C32.2175 30.5169 32.3317 30.5291 32.4324 30.5773C33.0008 30.7911 33.6029 30.9012 34.2101 30.9024C34.3701 30.9024 34.5098 30.9379 34.5733 31.103C34.5961 31.1743 34.5959 31.2509 34.5727 31.3221C34.5494 31.3932 34.5043 31.4552 34.4438 31.4992L31.9397 34.0007C31.6523 34.3123 31.3434 34.6033 31.0153 34.8718C30.2241 35.4632 29.2516 35.7604 28.2649 35.7124Z" fill="#235065"/>
</g>
<defs>
<clipPath id="clip0_3311_2546">
<rect width="42" height="41" rx="6" fill="white"/>
</clipPath>
</defs>
</svg>
