<svg width="42" height="41" viewBox="0 0 42 41" fill="none" xmlns="http://www.w3.org/2000/svg">
<g clip-path="url(#clip0_1042_501)">
<path d="M23.7057 21.6867C23.5426 21.2839 23.4785 20.8461 23.5192 20.4119C23.5598 19.9777 23.7039 19.5604 23.9387 19.1969C24.1735 18.8333 24.4919 18.5347 24.8657 18.3274C25.2395 18.12 25.6572 18.0103 26.0821 18.0079C26.4267 18.0089 26.7676 18.0799 27.0853 18.2168L36.1469 22.1282L37.4461 20.4003L25.0927 4H5L17.3626 20.4003L5 36.8006H25.0927L28.1996 32.6756L23.7057 21.6867Z" fill="#235065"/>
<path d="M35.2638 27.3971L32.6484 30.0823L39.3894 37.0034L42.0047 34.3182L35.2638 27.3971Z" fill="#0DD8AF"/>
<path d="M25.411 20.951L31.6432 36.1884C31.6964 36.324 31.7902 36.4389 31.9109 36.5166C32.0316 36.5942 32.1732 36.6306 32.3154 36.6206C32.4575 36.6106 32.5929 36.5547 32.7022 36.4608C32.8115 36.367 32.8891 36.24 32.9238 36.0982L34.6437 29.4526L41.1162 27.6868C41.2523 27.6486 41.3735 27.5679 41.4629 27.4559C41.5523 27.3438 41.6056 27.2059 41.6152 27.0614C41.6249 26.9169 41.5905 26.7728 41.5168 26.6493C41.4431 26.5257 41.3338 26.4288 41.2041 26.3719L26.368 19.9684C26.2341 19.9104 26.0865 19.8947 25.9439 19.9234C25.8013 19.952 25.6702 20.0236 25.5675 20.1291C25.4647 20.2346 25.395 20.3691 25.3671 20.5155C25.3392 20.662 25.3545 20.8136 25.411 20.951Z" fill="#0DD8AF"/>
</g>
<defs>
<clipPath id="clip0_1042_501">
<rect width="37" height="33" fill="white" transform="translate(5 4)"/>
</clipPath>
</defs>
</svg>
