<svg width="42" height="41" viewBox="0 0 42 41" fill="none" xmlns="http://www.w3.org/2000/svg">
<g clip-path="url(#clip0_3311_2592)">
<path d="M23.7057 21.6867C23.5426 21.2839 23.4785 20.8461 23.5192 20.4119C23.5598 19.9777 23.7039 19.5604 23.9387 19.1969C24.1735 18.8333 24.4919 18.5347 24.8657 18.3274C25.2395 18.12 25.6572 18.0103 26.0821 18.0079C26.4267 18.0089 26.7676 18.0799 27.0853 18.2168L36.1469 22.1282L37.4461 20.4003L25.0927 4H5L17.3626 20.4003L5 36.8006H25.0927L28.1995 32.6756L23.7057 21.6867Z" fill="#00EF64"/>
<path d="M35.2638 27.3968L32.6484 30.082L39.3894 37.0032L42.0047 34.318L35.2638 27.3968Z" fill="#00EF64"/>
<path d="M25.411 20.9508L31.6432 36.1881C31.6964 36.3238 31.7902 36.4387 31.9109 36.5163C32.0316 36.594 32.1732 36.6304 32.3154 36.6204C32.4575 36.6104 32.5929 36.5544 32.7022 36.4606C32.8115 36.3667 32.8891 36.2398 32.9238 36.0979L34.6437 29.4524L41.1162 27.6865C41.2523 27.6484 41.3735 27.5677 41.4629 27.4556C41.5523 27.3435 41.6056 27.2057 41.6152 27.0612C41.6249 26.9166 41.5905 26.7726 41.5168 26.6491C41.4431 26.5255 41.3338 26.4286 41.2041 26.3717L26.368 19.9682C26.2341 19.9102 26.0865 19.8945 25.9439 19.9231C25.8013 19.9517 25.6702 20.0234 25.5675 20.1288C25.4647 20.2343 25.395 20.3689 25.3671 20.5153C25.3392 20.6617 25.3545 20.8133 25.411 20.9508Z" fill="#0A7D50"/>
</g>
<defs>
<clipPath id="clip0_3311_2592">
<rect width="37" height="33" fill="white" transform="translate(5 4)"/>
</clipPath>
</defs>
</svg>
