<svg width="36" height="38" viewBox="0 0 36 38" fill="none" xmlns="http://www.w3.org/2000/svg">
<g clip-path="url(#clip0_1197_357)">
<path d="M8.60865 17.637H2.14479C1.85935 17.6622 1.57201 17.6233 1.30258 17.5231C1.03315 17.4228 0.788026 17.2637 0.584116 17.0565C0.380205 16.8494 0.222353 16.5992 0.12144 16.3232C0.0205274 16.0472 -0.0210465 15.7519 -0.000415876 15.4578C-0.000415876 11.0528 -0.000415876 6.64788 -0.000415876 2.24293C-0.0256728 1.94029 0.0139353 1.63564 0.11561 1.35049C0.217285 1.06534 0.378547 0.806652 0.588002 0.5927C0.797458 0.378748 1.05 0.214753 1.32778 0.112299C1.60556 0.00984469 1.90181 -0.0285683 2.1956 -0.0002265H14.9878C15.2766 -0.0251344 15.5672 0.0152893 15.8392 0.11821C16.1113 0.221131 16.3581 0.384058 16.5625 0.595568C16.7669 0.807077 16.9239 1.06205 17.0224 1.34261C17.121 1.62317 17.1587 1.92252 17.133 2.21968V15.4404C17.1604 15.7374 17.1235 16.0369 17.0249 16.3175C16.9262 16.598 16.7683 16.8525 16.5626 17.0626C16.3568 17.2728 16.1084 17.4333 15.8351 17.5326C15.5618 17.6319 15.2705 17.6676 14.9822 17.637H8.60865ZM8.56913 11.6688C8.91914 11.6688 9.27479 11.6688 9.63044 11.6688C10.0765 11.6585 10.5014 11.4715 10.8169 11.1467C11.1323 10.822 11.314 10.3846 11.324 9.92545C11.324 9.21647 11.324 8.50168 11.324 7.7869C11.3184 7.3138 11.1357 6.86118 10.8139 6.52339C10.492 6.1856 10.056 5.98871 9.59657 5.97378C8.91914 5.97378 8.2417 5.97378 7.56427 5.97378C7.10992 5.98953 6.67818 6.1816 6.35568 6.51143C6.03318 6.84125 5.84379 7.28443 5.82552 7.75203C5.82552 8.46682 5.82552 9.18161 5.82552 9.89058C5.84826 10.3544 6.04086 10.7921 6.36452 11.1156C6.68819 11.439 7.11889 11.6243 7.56991 11.634C7.90299 11.6746 8.23041 11.6688 8.56913 11.6688Z" fill="#235065"/>
<path d="M28.4066 15.644H22.7105C22.455 15.6709 22.1968 15.6392 21.9546 15.5511C21.7124 15.4631 21.4921 15.3208 21.3097 15.1347C21.1272 14.9485 20.9871 14.7231 20.8994 14.4745C20.8117 14.226 20.7786 13.9605 20.8024 13.6972C20.8024 9.77656 20.8024 5.85588 20.8024 1.9352C20.7832 1.67752 20.8181 1.41862 20.9047 1.17605C20.9913 0.933476 21.1276 0.712924 21.3043 0.529362C21.481 0.345799 21.694 0.203523 21.9289 0.112191C22.1637 0.0208595 22.4149 -0.0173898 22.6654 3.98364e-05H34.0858C34.3395 -0.020571 34.5946 0.0153066 34.8337 0.105233C35.0727 0.195159 35.2901 0.337025 35.4712 0.521183C35.6522 0.705341 35.7926 0.927472 35.8828 1.17247C35.973 1.41747 36.0109 1.67959 35.9939 1.94101C35.9939 5.87331 35.9939 9.80755 35.9939 13.7437C36.008 13.9978 35.9696 14.2521 35.881 14.4897C35.7924 14.7274 35.6558 14.9429 35.4802 15.122C35.3046 15.3012 35.0939 15.4398 34.8623 15.5288C34.6307 15.6178 34.3833 15.6551 34.1366 15.6382L28.4066 15.644ZM28.3671 10.3499C28.6663 10.3499 28.9655 10.3499 29.2647 10.3499C29.685 10.3484 30.0876 10.1759 30.3848 9.86996C30.682 9.56405 30.8496 9.14959 30.851 8.71697C30.851 8.1126 30.851 7.50822 30.851 6.90385C30.8371 6.48403 30.6692 6.08524 30.3812 5.78767C30.0932 5.49011 29.7064 5.31584 29.2986 5.29993C28.7002 5.29993 28.0961 5.29993 27.4977 5.29993C27.0903 5.3134 26.7037 5.48839 26.4186 5.78835C26.1335 6.0883 25.972 6.49004 25.9679 6.90966C25.9679 7.52566 25.9679 8.14746 25.9679 8.76927C25.9693 8.97838 26.0108 9.18513 26.0899 9.37774C26.169 9.57034 26.2842 9.74502 26.4289 9.8918C26.5736 10.0386 26.7449 10.1546 26.9332 10.2332C27.1214 10.3118 27.3228 10.3515 27.526 10.3499C27.7913 10.3558 28.0792 10.3499 28.3671 10.3499Z" fill="#0DD8AF"/>
<path d="M9.51126 21.4146H15.2412C15.4993 21.3875 15.76 21.4197 16.0045 21.509C16.2489 21.5983 16.4711 21.7425 16.6548 21.931C16.8385 22.1196 16.9792 22.3478 17.0667 22.5992C17.1541 22.8506 17.1862 23.1189 17.1606 23.3846V35.2048C17.1845 35.474 17.1502 35.7452 17.0602 35.9991C16.9701 36.253 16.8266 36.4832 16.6398 36.6732C16.4531 36.8633 16.2278 37.0083 15.9801 37.0981C15.7324 37.1878 15.4685 37.22 15.2074 37.1922H3.76436C3.50244 37.2142 3.23902 37.1773 2.99235 37.084C2.74569 36.9907 2.52168 36.8433 2.33587 36.652C2.15005 36.4608 2.00687 36.2302 1.91626 35.9762C1.82564 35.7223 1.78975 35.4512 1.81109 35.1815C1.81109 31.2531 1.81109 27.3266 1.81109 23.4021C1.78885 23.1325 1.82473 22.8613 1.91618 22.6076C2.00762 22.354 2.15237 22.1244 2.34006 21.935C2.52776 21.7457 2.75377 21.6014 3.00194 21.5124C3.25011 21.4235 3.51431 21.3921 3.77565 21.4204L9.51126 21.4146ZM11.9444 29.2947C11.9444 28.9693 11.9444 28.6438 11.9444 28.3184C11.9387 27.9025 11.7768 27.505 11.4926 27.2092C11.2085 26.9134 10.8241 26.7424 10.4202 26.7319C9.80481 26.7319 9.18383 26.7319 8.56285 26.7319C8.15612 26.7406 7.76804 26.9092 7.47829 27.2031C7.18853 27.4971 7.01909 27.8941 7.00475 28.3126C6.97653 28.946 7.00475 29.5853 7.00475 30.2245C7.0216 30.6433 7.19149 31.04 7.48042 31.3352C7.76934 31.6305 8.15596 31.8025 8.56285 31.8168C9.17819 31.8168 9.79917 31.8459 10.4202 31.8168C10.8233 31.7979 11.2046 31.6226 11.4874 31.3261C11.7701 31.0297 11.9334 30.634 11.9444 30.2187C11.95 29.9165 11.9444 29.6027 11.9444 29.2947Z" fill="#0DD8AF"/>
<path d="M29.7447 28.76V30.5033C29.7838 30.9732 29.6408 31.4398 29.3467 31.8014C29.0526 32.1629 28.6314 32.3899 28.1753 32.4327C27.3955 32.5605 26.601 32.5605 25.8212 32.4327C25.4044 32.371 25.0248 32.1517 24.7566 31.8176C24.4883 31.4834 24.3506 31.0584 24.3703 30.6254C24.3703 29.5852 24.3703 28.5449 24.3703 27.5047C24.3703 27.1212 24.2461 27.0166 23.8905 27.0224C23.3521 27.0662 22.8106 27.0486 22.2759 26.9701C21.8646 26.8887 21.493 26.664 21.2237 26.3339C20.9543 26.0037 20.8036 25.5881 20.7969 25.157C20.7969 24.5352 20.7969 23.9075 20.7969 23.2799C20.8013 22.7892 20.9934 22.3201 21.3316 21.9742C21.6697 21.6283 22.1267 21.4334 22.6034 21.4319C23.1679 21.4319 23.7324 21.4319 24.297 21.4319C24.5471 21.4208 24.7968 21.4624 25.0309 21.5541C25.2649 21.6458 25.4782 21.7857 25.6579 21.9652C25.8376 22.1447 25.9798 22.3601 26.0758 22.5982C26.1718 22.8362 26.2197 23.0919 26.2164 23.3497C26.2389 23.791 26.2389 24.2333 26.2164 24.6746C26.2164 25.0175 26.3405 25.1221 26.6567 25.1105C27.114 25.1105 27.5712 25.1105 28.0285 25.1105C28.4741 25.1222 28.8982 25.3097 29.2134 25.6341C29.5285 25.9586 29.7106 26.3952 29.7221 26.8539C29.7503 27.4757 29.7447 28.1207 29.7447 28.76Z" fill="#0DD8AF"/>
<path d="M20.8033 35.1409C20.8033 34.8445 20.8033 34.5598 20.8033 34.246C20.8018 33.9993 20.8477 33.7547 20.9384 33.5263C21.0291 33.2979 21.1628 33.0903 21.3317 32.9153C21.5006 32.7403 21.7015 32.6014 21.9228 32.5067C22.1441 32.4119 22.3814 32.3631 22.6211 32.3631C23.1856 32.3631 23.7501 32.3631 24.3147 32.3631C24.7782 32.337 25.2335 32.4967 25.5851 32.8088C25.9366 33.1209 26.1571 33.561 26.2002 34.0368C26.2905 34.7719 26.2905 35.5158 26.2002 36.2509C26.1735 36.6842 25.9943 37.0927 25.696 37.3997C25.3978 37.7068 25.001 37.8913 24.58 37.9187C23.8314 38.0338 23.0704 38.0338 22.3219 37.9187C21.8872 37.8518 21.4918 37.622 21.2116 37.2734C20.9313 36.9249 20.7859 36.4821 20.8033 36.03C20.7976 35.7395 20.8033 35.4489 20.8033 35.1409Z" fill="#0DD8AF"/>
<path d="M35.062 24.175V25.0351C35.1012 25.504 34.9589 25.9698 34.666 26.3312C34.3731 26.6926 33.9534 26.9202 33.4982 26.9644C32.7166 27.0923 31.9202 27.0923 31.1385 26.9644C30.7207 26.9027 30.3403 26.6826 30.0719 26.3472C29.8035 26.0118 29.6665 25.5853 29.6877 25.1513C29.6877 24.5237 29.6877 23.8961 29.6877 23.2684C29.689 22.7929 29.87 22.3365 30.1924 21.9959C30.5148 21.6553 30.9533 21.4573 31.4151 21.4437C32.0549 21.4205 32.6929 21.4205 33.3289 21.4437C33.7883 21.4542 34.2257 21.6479 34.549 21.984C34.8723 22.3201 35.0563 22.7723 35.062 23.2452C35.0676 23.5532 35.062 23.867 35.062 24.175Z" fill="#0DD8AF"/>
<path d="M35.0629 35.1526V35.9661C35.0846 36.2023 35.0605 36.4405 34.9919 36.6669C34.9234 36.8934 34.8118 37.1036 34.6637 37.2852C34.5156 37.4669 34.3339 37.6165 34.1291 37.7252C33.9243 37.834 33.7006 37.8998 33.4709 37.9187C32.7037 38.0378 31.9235 38.0378 31.1564 37.9187C30.7248 37.8538 30.3333 37.6227 30.0609 37.2722C29.7885 36.9216 29.6554 36.4777 29.6886 36.0301C29.6886 35.4141 29.6886 34.8039 29.6886 34.1879C29.6865 33.7155 29.8614 33.2605 30.1768 32.9175C30.4922 32.5744 30.9239 32.3696 31.3822 32.3457C32.0314 32.3457 32.6862 32.3457 33.3354 32.3457C33.7937 32.3696 34.2254 32.5744 34.5408 32.9175C34.8562 33.2605 35.0311 33.7155 35.029 34.1879C35.0685 34.5249 35.0629 34.8678 35.0629 35.1526Z" fill="#0DD8AF"/>
</g>
<defs>
<clipPath id="clip0_1197_357">
<rect width="36" height="38" fill="white"/>
</clipPath>
</defs>
</svg>
