<svg width="36" height="38" viewBox="0 0 36 38" fill="none" xmlns="http://www.w3.org/2000/svg">
<g clip-path="url(#clip0_3311_2564)">
<path d="M8.60865 17.6365H2.14479C1.85935 17.6617 1.57201 17.6228 1.30258 17.5226C1.03315 17.4224 0.788026 17.2632 0.584116 17.056C0.380205 16.8489 0.222353 16.5987 0.12144 16.3227C0.0205274 16.0467 -0.0210465 15.7514 -0.000415875 15.4573C-0.000415875 11.0524 -0.000415875 6.6474 -0.000415875 2.24244C-0.0256728 1.9398 0.0139353 1.63515 0.11561 1.35C0.217285 1.06485 0.378547 0.806163 0.588002 0.592212C0.797458 0.37826 1.05 0.214265 1.32778 0.11181C1.60556 0.00935641 1.90181 -0.0290566 2.1956 -0.000714782H14.9878C15.2766 -0.0256226 15.5672 0.014801 15.8393 0.117722C16.1113 0.220643 16.3581 0.38357 16.5625 0.595079C16.7669 0.806589 16.9239 1.06156 17.0224 1.34212C17.121 1.62268 17.1587 1.92204 17.133 2.2192V15.4399C17.1604 15.7369 17.1235 16.0365 17.0249 16.317C16.9262 16.5975 16.7683 16.852 16.5626 17.0622C16.3568 17.2723 16.1084 17.4328 15.8351 17.5321C15.5618 17.6314 15.2705 17.6671 14.9822 17.6365H8.60865ZM8.56913 11.6683C8.91914 11.6683 9.27479 11.6683 9.63044 11.6683C10.0765 11.658 10.5014 11.471 10.8169 11.1463C11.1323 10.8215 11.314 10.3841 11.324 9.92496C11.324 9.21599 11.324 8.5012 11.324 7.78641C11.3184 7.31331 11.1357 6.86069 10.8139 6.5229C10.492 6.18511 10.056 5.98822 9.59657 5.97329C8.91914 5.97329 8.2417 5.97329 7.56427 5.97329C7.10992 5.98905 6.67818 6.18111 6.35568 6.51094C6.03318 6.84077 5.84379 7.28395 5.82552 7.75154C5.82552 8.46633 5.82552 9.18112 5.82552 9.89009C5.84826 10.3539 6.04086 10.7916 6.36453 11.1151C6.68819 11.4385 7.1189 11.6238 7.56991 11.6335C7.90299 11.6742 8.23041 11.6683 8.56913 11.6683Z" fill="#0A7D50"/>
<path d="M28.4066 15.6438H22.7105C22.455 15.6707 22.1968 15.639 21.9546 15.5509C21.7124 15.4628 21.4921 15.3206 21.3097 15.1345C21.1272 14.9483 20.9871 14.7228 20.8994 14.4743C20.8117 14.2258 20.7786 13.9603 20.8024 13.697C20.8024 9.77632 20.8024 5.85564 20.8024 1.93495C20.7832 1.67728 20.8181 1.41837 20.9047 1.1758C20.9913 0.933232 21.1276 0.71268 21.3043 0.529118C21.481 0.345555 21.694 0.203279 21.9289 0.111947C22.1637 0.0206153 22.4149 -0.0176339 22.6654 -0.000204304H34.0858C34.3395 -0.0208151 34.5946 0.0150625 34.8337 0.104989C35.0727 0.194915 35.2902 0.336781 35.4712 0.520939C35.6522 0.705097 35.7926 0.927228 35.8828 1.17223C35.973 1.41723 36.0109 1.67935 35.9939 1.94077C35.9939 5.87307 35.9939 9.80731 35.9939 13.7435C36.008 13.9976 35.9696 14.2519 35.881 14.4895C35.7924 14.7271 35.6558 14.9426 35.4802 15.1218C35.3046 15.3009 35.0939 15.4396 34.8623 15.5286C34.6307 15.6176 34.3833 15.6549 34.1366 15.638L28.4066 15.6438ZM28.3671 10.3497C28.6663 10.3497 28.9655 10.3497 29.2647 10.3497C29.685 10.3482 30.0876 10.1756 30.3848 9.86972C30.682 9.56381 30.8496 9.14935 30.851 8.71673C30.851 8.11235 30.851 7.50798 30.851 6.9036C30.8371 6.48379 30.6692 6.08499 30.3812 5.78743C30.0932 5.48986 29.7064 5.3156 29.2986 5.29969C28.7002 5.29969 28.0961 5.29969 27.4977 5.29969C27.0903 5.31316 26.7037 5.48814 26.4186 5.7881C26.1335 6.08806 25.972 6.4898 25.9679 6.90942C25.9679 7.52541 25.9679 8.14722 25.9679 8.76903C25.9693 8.97813 26.0108 9.18489 26.0899 9.37749C26.169 9.5701 26.2842 9.74478 26.4289 9.89156C26.5736 10.0383 26.7449 10.1543 26.9332 10.2329C27.1214 10.3116 27.3228 10.3512 27.526 10.3497C27.7913 10.3555 28.0792 10.3497 28.3671 10.3497Z" fill="#00EF64"/>
<path d="M9.51126 21.4136H15.2412C15.4993 21.3865 15.76 21.4187 16.0045 21.5081C16.2489 21.5974 16.4711 21.7415 16.6548 21.9301C16.8385 22.1186 16.9792 22.3469 17.0667 22.5982C17.1541 22.8496 17.1862 23.1179 17.1606 23.3837V35.2038C17.1845 35.473 17.1502 35.7443 17.0602 35.9981C16.9701 36.252 16.8266 36.4823 16.6398 36.6723C16.4531 36.8623 16.2278 37.0074 15.9801 37.0971C15.7324 37.1868 15.4685 37.219 15.2074 37.1913H3.76436C3.50244 37.2132 3.23902 37.1763 2.99235 37.083C2.74569 36.9897 2.52168 36.8423 2.33587 36.6511C2.15005 36.4598 2.00687 36.2292 1.91626 35.9753C1.82564 35.7214 1.78975 35.4502 1.81109 35.1806C1.81109 31.2521 1.81109 27.3256 1.81109 23.4011C1.78885 23.1315 1.82473 22.8603 1.91618 22.6067C2.00762 22.3531 2.15237 22.1234 2.34006 21.9341C2.52776 21.7447 2.75377 21.6004 3.00194 21.5115C3.25011 21.4225 3.51431 21.3911 3.77565 21.4194L9.51126 21.4136ZM11.9444 29.2937C11.9444 28.9683 11.9444 28.6429 11.9444 28.3174C11.9387 27.9015 11.7768 27.504 11.4926 27.2082C11.2085 26.9125 10.8241 26.7414 10.4202 26.731C9.80481 26.731 9.18383 26.731 8.56285 26.731C8.15612 26.7396 7.76804 26.9082 7.47829 27.2022C7.18853 27.4961 7.01909 27.8931 7.00475 28.3116C6.97653 28.9451 7.00475 29.5843 7.00475 30.2235C7.0216 30.6423 7.19149 31.039 7.48042 31.3343C7.76934 31.6295 8.15596 31.8015 8.56285 31.8158C9.17819 31.8158 9.79917 31.8449 10.4202 31.8158C10.8233 31.7969 11.2046 31.6216 11.4874 31.3251C11.7701 31.0287 11.9334 30.633 11.9444 30.2177C11.95 29.9155 11.9444 29.6017 11.9444 29.2937Z" fill="#00EF64"/>
<path d="M29.7447 28.7595V30.5029C29.7838 30.9727 29.6408 31.4393 29.3467 31.8009C29.0526 32.1624 28.6314 32.3894 28.1753 32.4322C27.3955 32.56 26.601 32.56 25.8212 32.4322C25.4044 32.3706 25.0248 32.1513 24.7566 31.8171C24.4883 31.4829 24.3506 31.0579 24.3703 30.6249C24.3703 29.5847 24.3703 28.5445 24.3703 27.5042C24.3703 27.1207 24.2461 27.0161 23.8905 27.0219C23.3521 27.0657 22.8106 27.0481 22.2759 26.9696C21.8646 26.8882 21.493 26.6636 21.2237 26.3334C20.9543 26.0032 20.8036 25.5876 20.7969 25.1565C20.7969 24.5347 20.7969 23.9071 20.7969 23.2794C20.8013 22.7887 20.9934 22.3196 21.3316 21.9737C21.6697 21.6278 22.1267 21.4329 22.6034 21.4314C23.1679 21.4314 23.7324 21.4314 24.297 21.4314C24.5471 21.4204 24.7968 21.4619 25.0309 21.5536C25.2649 21.6453 25.4782 21.7852 25.6579 21.9647C25.8376 22.1442 25.9798 22.3596 26.0758 22.5977C26.1718 22.8357 26.2197 23.0914 26.2164 23.3492C26.2389 23.7905 26.2389 24.2328 26.2164 24.6741C26.2164 25.017 26.3405 25.1216 26.6567 25.11C27.114 25.11 27.5712 25.11 28.0285 25.11C28.4741 25.1218 28.8982 25.3092 29.2134 25.6336C29.5285 25.9581 29.7106 26.3947 29.7221 26.8534C29.7503 27.4752 29.7447 28.1202 29.7447 28.7595Z" fill="#00EF64"/>
<path d="M20.8033 35.1399C20.8033 34.8436 20.8033 34.5588 20.8033 34.245C20.8018 33.9983 20.8477 33.7537 20.9384 33.5253C21.0291 33.297 21.1628 33.0893 21.3317 32.9143C21.5006 32.7393 21.7015 32.6004 21.9228 32.5057C22.1441 32.4109 22.3814 32.3621 22.6211 32.3621C23.1856 32.3621 23.7501 32.3621 24.3147 32.3621C24.7782 32.336 25.2335 32.4958 25.5851 32.8078C25.9366 33.1199 26.1571 33.56 26.2002 34.0358C26.2905 34.7709 26.2905 35.5148 26.2002 36.2499C26.1735 36.6832 25.9943 37.0917 25.696 37.3988C25.3978 37.7058 25.001 37.8903 24.58 37.9177C23.8314 38.0328 23.0704 38.0328 22.3219 37.9177C21.8872 37.8508 21.4918 37.621 21.2116 37.2725C20.9313 36.9239 20.7859 36.4812 20.8033 36.0291C20.7976 35.7385 20.8033 35.4479 20.8033 35.1399Z" fill="#00EF64"/>
<path d="M35.062 24.1745V25.0346C35.1012 25.5035 34.9589 25.9693 34.666 26.3307C34.3731 26.6921 33.9534 26.9197 33.4982 26.9639C32.7166 27.0918 31.9202 27.0918 31.1385 26.9639C30.7207 26.9022 30.3403 26.6821 30.0719 26.3467C29.8035 26.0113 29.6665 25.5848 29.6877 25.1508C29.6877 24.5232 29.6877 23.8956 29.6877 23.268C29.689 22.7924 29.87 22.336 30.1924 21.9954C30.5148 21.6548 30.9533 21.4568 31.4151 21.4432C32.0549 21.42 32.6929 21.42 33.3289 21.4432C33.7883 21.4537 34.2257 21.6474 34.549 21.9835C34.8723 22.3196 35.0563 22.7718 35.062 23.2447C35.0676 23.5527 35.062 23.8665 35.062 24.1745Z" fill="#00EF64"/>
<path d="M35.0629 35.1526V35.9661C35.0846 36.2023 35.0605 36.4405 34.9919 36.6669C34.9234 36.8934 34.8118 37.1036 34.6637 37.2852C34.5156 37.4669 34.3339 37.6165 34.1291 37.7252C33.9243 37.834 33.7006 37.8998 33.4709 37.9187C32.7037 38.0378 31.9235 38.0378 31.1564 37.9187C30.7248 37.8538 30.3333 37.6227 30.0609 37.2722C29.7885 36.9216 29.6554 36.4777 29.6886 36.0301C29.6886 35.4141 29.6886 34.8039 29.6886 34.1879C29.6865 33.7155 29.8614 33.2605 30.1768 32.9175C30.4922 32.5744 30.9239 32.3696 31.3822 32.3457C32.0314 32.3457 32.6862 32.3457 33.3354 32.3457C33.7937 32.3696 34.2254 32.5744 34.5408 32.9175C34.8562 33.2605 35.0311 33.7155 35.029 34.1879C35.0685 34.5249 35.0629 34.8678 35.0629 35.1526Z" fill="#00EF64"/>
</g>
<defs>
<clipPath id="clip0_3311_2564">
<rect width="36" height="38" fill="white"/>
</clipPath>
</defs>
</svg>
