<svg width="42" height="41" viewBox="0 0 42 41" fill="none" xmlns="http://www.w3.org/2000/svg">
<g clip-path="url(#clip0_1042_498)">
<path d="M30.3327 18.3333V20.9999C30.3327 23.4753 29.3494 25.8492 27.599 27.5996C25.8487 29.3499 23.4747 30.3333 20.9993 30.3333M20.9993 30.3333C18.524 30.3333 16.15 29.3499 14.3997 27.5996C12.6493 25.8492 11.666 23.4753 11.666 20.9999V18.3333M20.9993 30.3333V35.6666M15.666 35.6666H26.3327M20.9993 6.33325C19.9385 6.33325 18.9211 6.75468 18.1709 7.50482C17.4208 8.25497 16.9993 9.27239 16.9993 10.3333V20.9999C16.9993 22.0608 17.4208 23.0782 18.1709 23.8283C18.9211 24.5785 19.9385 24.9999 20.9993 24.9999C22.0602 24.9999 23.0776 24.5785 23.8278 23.8283C24.5779 23.0782 24.9993 22.0608 24.9993 20.9999V10.3333C24.9993 9.27239 24.5779 8.25497 23.8278 7.50482C23.0776 6.75468 22.0602 6.33325 20.9993 6.33325Z" stroke="#0DD8AF" stroke-width="3" stroke-linecap="round" stroke-linejoin="round"/>
</g>
<defs>
<clipPath id="clip0_1042_498">
<rect width="32" height="32" fill="white" transform="translate(5 5)"/>
</clipPath>
</defs>
</svg>
