<svg width="42" height="41" viewBox="0 0 42 41" fill="none" xmlns="http://www.w3.org/2000/svg">
<g clip-path="url(#clip0_3311_2588)">
<path d="M30.3327 18.333V20.9997C30.3327 23.475 29.3494 25.849 27.599 27.5993C25.8487 29.3497 23.4747 30.333 20.9993 30.333M20.9993 30.333C18.524 30.333 16.15 29.3497 14.3997 27.5993C12.6493 25.849 11.666 23.475 11.666 20.9997V18.333M20.9993 30.333V35.6663M15.666 35.6663H26.3327M20.9993 6.33301C19.9385 6.33301 18.9211 6.75444 18.1709 7.50458C17.4208 8.25473 16.9993 9.27214 16.9993 10.333V20.9997C16.9993 22.0605 17.4208 23.078 18.1709 23.8281C18.9211 24.5782 19.9385 24.9997 20.9993 24.9997C22.0602 24.9997 23.0776 24.5782 23.8278 23.8281C24.5779 23.078 24.9993 22.0605 24.9993 20.9997V10.333C24.9993 9.27214 24.5779 8.25473 23.8278 7.50458C23.0776 6.75444 22.0602 6.33301 20.9993 6.33301Z" stroke="#00EF64" stroke-width="3" stroke-linecap="round" stroke-linejoin="round"/>
</g>
<defs>
<clipPath id="clip0_3311_2588">
<rect width="32" height="32" fill="white" transform="translate(5 5)"/>
</clipPath>
</defs>
</svg>
